<svg width="344" height="267" viewBox="0 0 344 267" fill="none" xmlns="http://www.w3.org/2000/svg">
<path d="M71.9658 73H129.313C136.552 80.2882 147.647 88.8219 162.183 91.4248C177.49 94.1657 195.814 90.1958 216.46 73H271.306C309.459 73 341.013 101.921 339.566 139.381C338.3 172.178 333.724 209.739 321.41 237.842C313.866 255.06 294.708 263 274.434 263H72.5273C52.2644 263 32.9392 255.199 24.6152 238.211C9.81907 208.013 5.42134 168.894 5.00488 135.652C4.5591 100.049 34.8195 73.4187 71.1074 73.0049L71.9658 73Z" fill="white" stroke="#150C0C" stroke-width="8"/>
<mask id="path-2-inside-1_13_1672" fill="white">
<path d="M121 69V267H71.5571C50.4977 267 29.3185 258.883 20.0522 239.972C4.85919 208.965 0.453316 169.124 0.0346069 135.703C-0.443866 97.5107 31.9855 69.4411 70.0932 69.0049L70.9946 69H121ZM270.335 69L271.273 69.0059C310.943 69.477 344.128 99.7944 342.593 139.535C341.322 172.454 336.728 210.634 324.103 239.447C315.651 258.736 294.522 267 273.463 267H228V69H270.335Z"/>
</mask>
<path d="M121 69V267H71.5571C50.4977 267 29.3185 258.883 20.0522 239.972C4.85919 208.965 0.453316 169.124 0.0346069 135.703C-0.443866 97.5107 31.9855 69.4411 70.0932 69.0049L70.9946 69H121ZM270.335 69L271.273 69.0059C310.943 69.477 344.128 99.7944 342.593 139.535C341.322 172.454 336.728 210.634 324.103 239.447C315.651 258.736 294.522 267 273.463 267H228V69H270.335Z" fill="#4D8FAB"/>
<path d="M121 69H129V61H121V69ZM121 267V275H129V267H121ZM20.0522 239.972L12.8682 243.492L12.8682 243.492L20.0522 239.972ZM0.0346069 135.703L-7.96477 135.803L-7.96477 135.803L0.0346069 135.703ZM70.0932 69.0049L70.0499 61.005L70.0257 61.0051L70.0016 61.0054L70.0932 69.0049ZM70.9946 69V61H70.9729L70.9512 61.0001L70.9946 69ZM270.335 69L270.385 61.0002L270.36 61H270.335V69ZM271.273 69.0059L271.368 61.0064L271.345 61.0062L271.323 61.006L271.273 69.0059ZM342.593 139.535L350.587 139.844L350.587 139.844L342.593 139.535ZM324.103 239.447L331.43 242.658L331.43 242.658L324.103 239.447ZM273.463 267L273.463 275L273.463 275L273.463 267ZM228 267H220V275H228V267ZM228 69V61H220V69H228ZM121 69H113V267H121H129V69H121ZM121 267V259H71.5571V267V275H121V267ZM71.5571 267V259C52.0903 259 34.618 251.517 27.2361 236.452L20.0522 239.972L12.8682 243.492C24.0189 266.249 48.9051 275 71.5571 275V267ZM20.0522 239.972L27.2362 236.452C12.8366 207.064 8.44822 168.666 8.03398 135.603L0.0346069 135.703L-7.96477 135.803C-7.54158 169.581 -3.1182 210.865 12.8682 243.492L20.0522 239.972ZM0.0346069 135.703L8.03398 135.603C7.62031 102.583 35.7078 77.399 70.1848 77.0044L70.0932 69.0049L70.0016 61.0054C28.2631 61.4832 -8.50804 92.4383 -7.96477 135.803L0.0346069 135.703ZM70.0932 69.0049L70.1365 77.0048L71.0379 76.9999L70.9946 69L70.9512 61.0001L70.0499 61.005L70.0932 69.0049ZM70.9946 69V77H121V69V61H70.9946V69ZM270.335 69L270.285 76.9998L271.223 77.0057L271.273 69.0059L271.323 61.006L270.385 61.0002L270.335 69ZM271.273 69.0059L271.178 77.0053C307.018 77.431 335.935 104.628 334.599 139.226L342.593 139.535L350.587 139.844C352.32 94.9607 314.868 61.5231 271.368 61.0064L271.273 69.0059ZM342.593 139.535L334.599 139.226C333.337 171.901 328.778 208.843 316.775 236.237L324.103 239.447L331.43 242.658C344.677 212.425 349.306 173.008 350.587 139.844L342.593 139.535ZM324.103 239.447L316.776 236.237C310.138 251.384 292.952 259 273.463 259L273.463 267L273.463 275C296.093 275 321.164 266.087 331.43 242.658L324.103 239.447ZM273.463 267V259H228V267V275H273.463V267ZM228 267H236V69H228H220V267H228ZM228 69V77H270.335V69V61H228V69Z" fill="black" mask="url(#path-2-inside-1_13_1672)"/>
<path d="M258.688 73L244.453 263H225.393L222.07 73H258.688Z" fill="#4D8FAB" stroke="#150C0C" stroke-width="8"/>
<path d="M84.3184 73L98.8701 263H118.532L121.928 73H84.3184Z" fill="#4D8FAB" stroke="#150C0C" stroke-width="8"/>
</svg>