<svg width="343" height="267" viewBox="0 0 343 267" fill="none" xmlns="http://www.w3.org/2000/svg">
<g clip-path="url(#clip0_13_1632)">
<mask id="path-1-inside-1_13_1632" fill="white">
<path d="M0.0340062 135.703C-0.448234 97.2098 32.4981 69 70.9943 69H270.335C310.419 69 344.14 99.4818 342.593 139.536C341.321 172.455 336.727 210.634 324.103 239.447C315.651 258.736 294.522 267 273.463 267C216.936 267 135.156 267 71.5565 267C50.4971 267 29.3184 258.883 20.0522 239.971C4.85914 208.964 0.452698 169.123 0.0340062 135.703Z"/>
</mask>
<path d="M0.0340062 135.703C-0.448234 97.2098 32.4981 69 70.9943 69H270.335C310.419 69 344.14 99.4818 342.593 139.536C341.321 172.455 336.727 210.634 324.103 239.447C315.651 258.736 294.522 267 273.463 267C216.936 267 135.156 267 71.5565 267C50.4971 267 29.3184 258.883 20.0522 239.971C4.85914 208.964 0.452698 169.123 0.0340062 135.703Z" fill="#334B71"/>
<path d="M0.0340062 135.703L8.03338 135.603L0.0340062 135.703ZM342.593 139.536L350.587 139.844L342.593 139.536ZM324.103 239.447L316.775 236.236L324.103 239.447ZM20.0522 239.971L27.2361 236.451L20.0522 239.971ZM8.03338 135.603C7.61651 102.328 36.1548 77 70.9943 77V61C28.8415 61 -8.51298 92.0918 -7.96537 135.803L8.03338 135.603ZM70.9943 77H270.335V61H70.9943V77ZM270.335 77C306.558 77 335.945 104.36 334.599 139.227L350.587 139.844C352.334 94.6035 314.279 61 270.335 61V77ZM334.599 139.227C333.337 171.901 328.778 208.843 316.775 236.236L331.43 242.657C344.677 212.424 349.306 173.008 350.587 139.844L334.599 139.227ZM316.775 236.236C310.138 251.384 292.952 259 273.463 259V275C296.093 275 321.164 266.087 331.43 242.657L316.775 236.236ZM273.463 259C273.352 259 273.242 259 273.131 259C273.021 259 272.91 259 272.799 259C272.688 259 272.577 259 272.466 259C272.355 259 272.244 259 272.133 259C272.022 259 271.911 259 271.799 259C271.688 259 271.577 259 271.465 259C271.354 259 271.242 259 271.13 259C271.018 259 270.907 259 270.795 259C270.683 259 270.571 259 270.459 259C270.346 259 270.234 259 270.122 259C270.01 259 269.897 259 269.785 259C269.672 259 269.56 259 269.447 259C269.334 259 269.222 259 269.109 259C268.996 259 268.883 259 268.77 259C268.657 259 268.544 259 268.431 259C268.317 259 268.204 259 268.091 259C267.977 259 267.864 259 267.75 259C267.637 259 267.523 259 267.409 259C267.295 259 267.181 259 267.068 259C266.954 259 266.84 259 266.725 259C266.611 259 266.497 259 266.383 259C266.268 259 266.154 259 266.04 259C265.925 259 265.811 259 265.696 259C265.581 259 265.466 259 265.352 259C265.237 259 265.122 259 265.007 259C264.892 259 264.777 259 264.661 259C264.546 259 264.431 259 264.316 259C264.2 259 264.085 259 263.969 259C263.854 259 263.738 259 263.622 259C263.507 259 263.391 259 263.275 259C263.159 259 263.043 259 262.927 259C262.811 259 262.695 259 262.579 259C262.462 259 262.346 259 262.23 259C262.113 259 261.997 259 261.88 259C261.764 259 261.647 259 261.53 259C261.413 259 261.297 259 261.18 259C261.063 259 260.946 259 260.829 259C260.711 259 260.594 259 260.477 259C260.36 259 260.242 259 260.125 259C260.008 259 259.89 259 259.772 259C259.655 259 259.537 259 259.419 259C259.302 259 259.184 259 259.066 259C258.948 259 258.83 259 258.712 259C258.594 259 258.476 259 258.357 259C258.239 259 258.121 259 258.002 259C257.884 259 257.765 259 257.647 259C257.528 259 257.41 259 257.291 259C257.172 259 257.053 259 256.934 259C256.816 259 256.697 259 256.577 259C256.458 259 256.339 259 256.22 259C256.101 259 255.981 259 255.862 259C255.743 259 255.623 259 255.504 259C255.384 259 255.264 259 255.145 259C255.025 259 254.905 259 254.785 259C254.666 259 254.546 259 254.426 259C254.306 259 254.185 259 254.065 259C253.945 259 253.825 259 253.705 259C253.584 259 253.464 259 253.343 259C253.223 259 253.102 259 252.982 259C252.861 259 252.74 259 252.619 259C252.499 259 252.378 259 252.257 259C252.136 259 252.015 259 251.894 259C251.773 259 251.651 259 251.53 259C251.409 259 251.288 259 251.166 259C251.045 259 250.923 259 250.802 259C250.68 259 250.559 259 250.437 259C250.315 259 250.193 259 250.071 259C249.95 259 249.828 259 249.706 259C249.584 259 249.462 259 249.339 259C249.217 259 249.095 259 248.973 259C248.85 259 248.728 259 248.606 259C248.483 259 248.361 259 248.238 259C248.115 259 247.993 259 247.87 259C247.747 259 247.624 259 247.502 259C247.379 259 247.256 259 247.133 259C247.01 259 246.887 259 246.763 259C246.64 259 246.517 259 246.394 259C246.27 259 246.147 259 246.023 259C245.9 259 245.776 259 245.653 259C245.529 259 245.406 259 245.282 259C245.158 259 245.034 259 244.91 259C244.786 259 244.662 259 244.538 259C244.414 259 244.29 259 244.166 259C244.042 259 243.918 259 243.793 259C243.669 259 243.545 259 243.42 259C243.296 259 243.171 259 243.047 259C242.922 259 242.798 259 242.673 259C242.548 259 242.423 259 242.298 259C242.174 259 242.049 259 241.924 259C241.799 259 241.674 259 241.549 259C241.423 259 241.298 259 241.173 259C241.048 259 240.922 259 240.797 259C240.672 259 240.546 259 240.421 259C240.295 259 240.17 259 240.044 259C239.918 259 239.793 259 239.667 259C239.541 259 239.415 259 239.289 259C239.163 259 239.037 259 238.911 259C238.785 259 238.659 259 238.533 259C238.407 259 238.28 259 238.154 259C238.028 259 237.901 259 237.775 259C237.649 259 237.522 259 237.396 259C237.269 259 237.142 259 237.016 259C236.889 259 236.762 259 236.635 259C236.509 259 236.382 259 236.255 259C236.128 259 236.001 259 235.874 259C235.747 259 235.62 259 235.492 259C235.365 259 235.238 259 235.111 259C234.983 259 234.856 259 234.728 259C234.601 259 234.474 259 234.346 259C234.218 259 234.091 259 233.963 259C233.835 259 233.708 259 233.58 259C233.452 259 233.324 259 233.196 259C233.068 259 232.94 259 232.812 259C232.684 259 232.556 259 232.428 259C232.3 259 232.172 259 232.043 259C231.915 259 231.787 259 231.658 259C231.53 259 231.402 259 231.273 259C231.144 259 231.016 259 230.887 259C230.759 259 230.63 259 230.501 259C230.372 259 230.244 259 230.115 259C229.986 259 229.857 259 229.728 259C229.599 259 229.47 259 229.341 259C229.212 259 229.083 259 228.953 259C228.824 259 228.695 259 228.566 259C228.436 259 228.307 259 228.178 259C228.048 259 227.919 259 227.789 259C227.66 259 227.53 259 227.4 259C227.271 259 227.141 259 227.011 259C226.881 259 226.752 259 226.622 259C226.492 259 226.362 259 226.232 259C226.102 259 225.972 259 225.842 259C225.712 259 225.582 259 225.451 259C225.321 259 225.191 259 225.061 259C224.93 259 224.8 259 224.67 259C224.539 259 224.409 259 224.278 259C224.148 259 224.017 259 223.886 259C223.756 259 223.625 259 223.494 259C223.364 259 223.233 259 223.102 259C222.971 259 222.84 259 222.709 259C222.579 259 222.448 259 222.317 259C222.185 259 222.054 259 221.923 259C221.792 259 221.661 259 221.53 259C221.398 259 221.267 259 221.136 259C221.004 259 220.873 259 220.742 259C220.61 259 220.479 259 220.347 259C220.216 259 220.084 259 219.952 259C219.821 259 219.689 259 219.557 259C219.426 259 219.294 259 219.162 259C219.03 259 218.898 259 218.766 259C218.634 259 218.503 259 218.37 259C218.238 259 218.106 259 217.974 259C217.842 259 217.71 259 217.578 259C217.446 259 217.313 259 217.181 259C217.049 259 216.916 259 216.784 259C216.652 259 216.519 259 216.387 259C216.254 259 216.122 259 215.989 259C215.856 259 215.724 259 215.591 259C215.458 259 215.326 259 215.193 259C215.06 259 214.927 259 214.794 259C214.662 259 214.529 259 214.396 259C214.263 259 214.13 259 213.997 259C213.864 259 213.731 259 213.598 259C213.464 259 213.331 259 213.198 259C213.065 259 212.932 259 212.798 259C212.665 259 212.532 259 212.398 259C212.265 259 212.131 259 211.998 259C211.865 259 211.731 259 211.597 259C211.464 259 211.33 259 211.197 259C211.063 259 210.929 259 210.796 259C210.662 259 210.528 259 210.394 259C210.261 259 210.127 259 209.993 259C209.859 259 209.725 259 209.591 259C209.457 259 209.323 259 209.189 259C209.055 259 208.921 259 208.787 259C208.653 259 208.518 259 208.384 259C208.25 259 208.116 259 207.981 259C207.847 259 207.713 259 207.578 259C207.444 259 207.31 259 207.175 259C207.041 259 206.906 259 206.772 259C206.637 259 206.503 259 206.368 259C206.234 259 206.099 259 205.964 259C205.83 259 205.695 259 205.56 259C205.425 259 205.291 259 205.156 259C205.021 259 204.886 259 204.751 259C204.616 259 204.481 259 204.346 259C204.211 259 204.076 259 203.941 259C203.806 259 203.671 259 203.536 259C203.401 259 203.266 259 203.131 259C202.995 259 202.86 259 202.725 259C202.59 259 202.454 259 202.319 259C202.184 259 202.048 259 201.913 259C201.778 259 201.642 259 201.507 259C201.371 259 201.236 259 201.1 259C200.965 259 200.829 259 200.693 259C200.558 259 200.422 259 200.287 259C200.151 259 200.015 259 199.879 259C199.744 259 199.608 259 199.472 259C199.336 259 199.2 259 199.065 259C198.929 259 198.793 259 198.657 259C198.521 259 198.385 259 198.249 259C198.113 259 197.977 259 197.841 259C197.705 259 197.569 259 197.433 259C197.297 259 197.16 259 197.024 259C196.888 259 196.752 259 196.616 259C196.479 259 196.343 259 196.207 259C196.071 259 195.934 259 195.798 259C195.661 259 195.525 259 195.389 259C195.252 259 195.116 259 194.979 259C194.843 259 194.706 259 194.57 259C194.433 259 194.297 259 194.16 259C194.023 259 193.887 259 193.75 259C193.614 259 193.477 259 193.34 259C193.203 259 193.067 259 192.93 259C192.793 259 192.656 259 192.52 259C192.383 259 192.246 259 192.109 259C191.972 259 191.835 259 191.698 259C191.562 259 191.425 259 191.288 259C191.151 259 191.014 259 190.877 259C190.74 259 190.602 259 190.465 259C190.328 259 190.191 259 190.054 259C189.917 259 189.78 259 189.643 259C189.505 259 189.368 259 189.231 259C189.094 259 188.957 259 188.819 259C188.682 259 188.545 259 188.407 259C188.27 259 188.133 259 187.995 259C187.858 259 187.721 259 187.583 259C187.446 259 187.308 259 187.171 259C187.033 259 186.896 259 186.758 259C186.621 259 186.483 259 186.346 259C186.208 259 186.071 259 185.933 259C185.795 259 185.658 259 185.52 259C185.383 259 185.245 259 185.107 259C184.97 259 184.832 259 184.694 259C184.556 259 184.419 259 184.281 259C184.143 259 184.005 259 183.867 259C183.73 259 183.592 259 183.454 259C183.316 259 183.178 259 183.04 259C182.902 259 182.765 259 182.627 259C182.489 259 182.351 259 182.213 259C182.075 259 181.937 259 181.799 259C181.661 259 181.523 259 181.385 259C181.247 259 181.109 259 180.971 259C180.833 259 180.694 259 180.556 259C180.418 259 180.28 259 180.142 259C180.004 259 179.866 259 179.727 259C179.589 259 179.451 259 179.313 259C179.175 259 179.036 259 178.898 259C178.76 259 178.622 259 178.483 259C178.345 259 178.207 259 178.068 259C177.93 259 177.792 259 177.653 259C177.515 259 177.377 259 177.238 259C177.1 259 176.962 259 176.823 259C176.685 259 176.546 259 176.408 259C176.27 259 176.131 259 175.993 259C175.854 259 175.716 259 175.577 259C175.439 259 175.3 259 175.162 259C175.023 259 174.885 259 174.746 259C174.607 259 174.469 259 174.33 259C174.192 259 174.053 259 173.915 259C173.776 259 173.637 259 173.499 259C173.36 259 173.222 259 173.083 259C172.944 259 172.806 259 172.667 259C172.528 259 172.39 259 172.251 259C172.112 259 171.973 259 171.835 259C171.696 259 171.557 259 171.419 259C171.28 259 171.141 259 171.002 259C170.864 259 170.725 259 170.586 259C170.447 259 170.308 259 170.17 259C170.031 259 169.892 259 169.753 259C169.614 259 169.476 259 169.337 259C169.198 259 169.059 259 168.92 259C168.781 259 168.643 259 168.504 259C168.365 259 168.226 259 168.087 259C167.948 259 167.809 259 167.67 259C167.531 259 167.393 259 167.254 259C167.115 259 166.976 259 166.837 259C166.698 259 166.559 259 166.42 259C166.281 259 166.142 259 166.003 259C165.864 259 165.725 259 165.586 259C165.447 259 165.308 259 165.169 259C165.03 259 164.891 259 164.752 259C164.614 259 164.475 259 164.336 259C164.197 259 164.057 259 163.918 259C163.779 259 163.64 259 163.501 259C163.362 259 163.223 259 163.084 259C162.945 259 162.806 259 162.667 259C162.528 259 162.389 259 162.25 259C162.111 259 161.972 259 161.833 259C161.694 259 161.555 259 161.416 259C161.277 259 161.138 259 160.999 259C160.86 259 160.721 259 160.581 259C160.442 259 160.303 259 160.164 259C160.025 259 159.886 259 159.747 259C159.608 259 159.469 259 159.33 259C159.191 259 159.052 259 158.913 259C158.774 259 158.634 259 158.495 259C158.356 259 158.217 259 158.078 259C157.939 259 157.8 259 157.661 259C157.522 259 157.383 259 157.244 259C157.105 259 156.965 259 156.826 259C156.687 259 156.548 259 156.409 259C156.27 259 156.131 259 155.992 259C155.853 259 155.714 259 155.575 259C155.436 259 155.297 259 155.157 259C155.018 259 154.879 259 154.74 259C154.601 259 154.462 259 154.323 259C154.184 259 154.045 259 153.906 259C153.767 259 153.628 259 153.489 259C153.35 259 153.211 259 153.072 259C152.933 259 152.794 259 152.655 259C152.516 259 152.376 259 152.237 259C152.098 259 151.959 259 151.82 259C151.681 259 151.542 259 151.403 259C151.264 259 151.125 259 150.986 259C150.847 259 150.708 259 150.569 259C150.43 259 150.291 259 150.152 259C150.014 259 149.875 259 149.736 259C149.597 259 149.458 259 149.319 259C149.18 259 149.041 259 148.902 259C148.763 259 148.624 259 148.485 259C148.346 259 148.207 259 148.068 259C147.929 259 147.791 259 147.652 259C147.513 259 147.374 259 147.235 259C147.096 259 146.957 259 146.818 259C146.68 259 146.541 259 146.402 259C146.263 259 146.124 259 145.985 259C145.847 259 145.708 259 145.569 259C145.43 259 145.291 259 145.153 259C145.014 259 144.875 259 144.736 259C144.598 259 144.459 259 144.32 259C144.181 259 144.043 259 143.904 259C143.765 259 143.626 259 143.488 259C143.349 259 143.21 259 143.072 259C142.933 259 142.794 259 142.656 259C142.517 259 142.378 259 142.24 259C142.101 259 141.962 259 141.824 259C141.685 259 141.547 259 141.408 259C141.269 259 141.131 259 140.992 259C140.854 259 140.715 259 140.577 259C140.438 259 140.3 259 140.161 259C140.023 259 139.884 259 139.746 259C139.607 259 139.469 259 139.33 259C139.192 259 139.053 259 138.915 259C138.777 259 138.638 259 138.5 259C138.361 259 138.223 259 138.085 259C137.946 259 137.808 259 137.67 259C137.531 259 137.393 259 137.255 259C137.116 259 136.978 259 136.84 259C136.702 259 136.563 259 136.425 259C136.287 259 136.149 259 136.011 259C135.872 259 135.734 259 135.596 259C135.458 259 135.32 259 135.182 259C135.043 259 134.905 259 134.767 259C134.629 259 134.491 259 134.353 259C134.215 259 134.077 259 133.939 259C133.801 259 133.663 259 133.525 259C133.387 259 133.249 259 133.111 259C132.973 259 132.835 259 132.697 259C132.559 259 132.422 259 132.284 259C132.146 259 132.008 259 131.87 259C131.732 259 131.594 259 131.457 259C131.319 259 131.181 259 131.043 259C130.906 259 130.768 259 130.63 259C130.493 259 130.355 259 130.217 259C130.08 259 129.942 259 129.804 259C129.667 259 129.529 259 129.392 259C129.254 259 129.116 259 128.979 259C128.841 259 128.704 259 128.566 259C128.429 259 128.291 259 128.154 259C128.017 259 127.879 259 127.742 259C127.604 259 127.467 259 127.33 259C127.192 259 127.055 259 126.918 259C126.78 259 126.643 259 126.506 259C126.369 259 126.231 259 126.094 259C125.957 259 125.82 259 125.683 259C125.546 259 125.408 259 125.271 259C125.134 259 124.997 259 124.86 259C124.723 259 124.586 259 124.449 259C124.312 259 124.175 259 124.038 259C123.901 259 123.764 259 123.627 259C123.491 259 123.354 259 123.217 259C123.08 259 122.943 259 122.806 259C122.67 259 122.533 259 122.396 259C122.259 259 122.123 259 121.986 259C121.849 259 121.713 259 121.576 259C121.44 259 121.303 259 121.166 259C121.03 259 120.893 259 120.757 259C120.62 259 120.484 259 120.347 259C120.211 259 120.075 259 119.938 259C119.802 259 119.665 259 119.529 259C119.393 259 119.257 259 119.12 259C118.984 259 118.848 259 118.712 259C118.575 259 118.439 259 118.303 259C118.167 259 118.031 259 117.895 259C117.759 259 117.623 259 117.487 259C117.351 259 117.215 259 117.079 259C116.943 259 116.807 259 116.671 259C116.535 259 116.399 259 116.263 259C116.127 259 115.992 259 115.856 259C115.72 259 115.584 259 115.449 259C115.313 259 115.177 259 115.042 259C114.906 259 114.771 259 114.635 259C114.499 259 114.364 259 114.228 259C114.093 259 113.957 259 113.822 259C113.687 259 113.551 259 113.416 259C113.281 259 113.145 259 113.01 259C112.875 259 112.739 259 112.604 259C112.469 259 112.334 259 112.199 259C112.063 259 111.928 259 111.793 259C111.658 259 111.523 259 111.388 259C111.253 259 111.118 259 110.983 259C110.848 259 110.713 259 110.579 259C110.444 259 110.309 259 110.174 259C110.039 259 109.905 259 109.77 259C109.635 259 109.501 259 109.366 259C109.231 259 109.097 259 108.962 259C108.828 259 108.693 259 108.559 259C108.424 259 108.29 259 108.155 259C108.021 259 107.887 259 107.752 259C107.618 259 107.484 259 107.349 259C107.215 259 107.081 259 106.947 259C106.813 259 106.679 259 106.545 259C106.41 259 106.276 259 106.142 259C106.008 259 105.874 259 105.741 259C105.607 259 105.473 259 105.339 259C105.205 259 105.071 259 104.938 259C104.804 259 104.67 259 104.536 259C104.403 259 104.269 259 104.135 259C104.002 259 103.868 259 103.735 259C103.601 259 103.468 259 103.334 259C103.201 259 103.068 259 102.934 259C102.801 259 102.668 259 102.535 259C102.401 259 102.268 259 102.135 259C102.002 259 101.869 259 101.736 259C101.603 259 101.469 259 101.337 259C101.204 259 101.071 259 100.938 259C100.805 259 100.672 259 100.539 259C100.406 259 100.274 259 100.141 259C100.008 259 99.8755 259 99.7429 259C99.6103 259 99.4777 259 99.3452 259C99.2127 259 99.0802 259 98.9478 259C98.8153 259 98.6829 259 98.5506 259C98.4183 259 98.286 259 98.1537 259C98.0215 259 97.8893 259 97.7571 259C97.625 259 97.4929 259 97.3608 259C97.2287 259 97.0967 259 96.9648 259C96.8328 259 96.7009 259 96.569 259C96.4372 259 96.3053 259 96.1736 259C96.0418 259 95.9101 259 95.7784 259C95.6467 259 95.5151 259 95.3835 259C95.252 259 95.1205 259 94.989 259C94.8575 259 94.7261 259 94.5947 259C94.4633 259 94.332 259 94.2007 259C94.0695 259 93.9382 259 93.8071 259C93.6759 259 93.5448 259 93.4137 259C93.2826 259 93.1516 259 93.0206 259C92.8897 259 92.7587 259 92.6279 259C92.497 259 92.3662 259 92.2354 259C92.1047 259 91.974 259 91.8433 259C91.7126 259 91.582 259 91.4515 259C91.3209 259 91.1904 259 91.06 259C90.9295 259 90.7991 259 90.6688 259C90.5384 259 90.4081 259 90.2779 259C90.1477 259 90.0175 259 89.8874 259C89.7572 259 89.6272 259 89.4971 259C89.3671 259 89.2371 259 89.1072 259C88.9773 259 88.8475 259 88.7177 259C88.5879 259 88.4581 259 88.3284 259C88.1987 259 88.0691 259 87.9395 259C87.8099 259 87.6804 259 87.5509 259C87.4214 259 87.292 259 87.1627 259C87.0333 259 86.904 259 86.7747 259C86.6455 259 86.5163 259 86.3872 259C86.258 259 86.129 259 85.9999 259C85.8709 259 85.742 259 85.6131 259C85.4841 259 85.3553 259 85.2265 259C85.0977 259 84.969 259 84.8403 259C84.7116 259 84.583 259 84.4545 259C84.3259 259 84.1974 259 84.069 259C83.9405 259 83.8121 259 83.6838 259C83.5555 259 83.4272 259 83.299 259C83.1708 259 83.0427 259 82.9146 259C82.7865 259 82.6585 259 82.5305 259C82.4025 259 82.2746 259 82.1468 259C82.0189 259 81.8911 259 81.7634 259C81.6357 259 81.508 259 81.3804 259C81.2528 259 81.1253 259 80.9978 259C80.8703 259 80.7429 259 80.6155 259C80.4882 259 80.3609 259 80.2336 259C80.1064 259 79.9792 259 79.8521 259C79.725 259 79.5979 259 79.471 259C79.344 259 79.217 259 79.0902 259C78.9633 259 78.8365 259 78.7098 259C78.5831 259 78.4564 259 78.3298 259C78.2032 259 78.0766 259 77.9501 259C77.8237 259 77.6972 259 77.5709 259C77.4445 259 77.3182 259 77.192 259C77.0658 259 76.9396 259 76.8135 259C76.6874 259 76.5614 259 76.4354 259C76.3095 259 76.1836 259 76.0577 259C75.9319 259 75.8061 259 75.6804 259C75.5547 259 75.4291 259 75.3035 259C75.178 259 75.0524 259 74.927 259C74.8016 259 74.6762 259 74.5509 259C74.4256 259 74.3003 259 74.1752 259C74.05 259 73.9249 259 73.7999 259C73.6748 259 73.5499 259 73.4249 259C73.3 259 73.1752 259 73.0504 259C72.9257 259 72.801 259 72.6764 259C72.5517 259 72.4272 259 72.3027 259C72.1782 259 72.0537 259 71.9294 259C71.805 259 71.6808 259 71.5565 259V275C71.6808 275 71.805 275 71.9294 275C72.0537 275 72.1782 275 72.3027 275C72.4272 275 72.5517 275 72.6764 275C72.801 275 72.9257 275 73.0504 275C73.1752 275 73.3 275 73.4249 275C73.5499 275 73.6748 275 73.7999 275C73.9249 275 74.05 275 74.1752 275C74.3003 275 74.4256 275 74.5509 275C74.6762 275 74.8016 275 74.927 275C75.0524 275 75.178 275 75.3035 275C75.4291 275 75.5547 275 75.6804 275C75.8061 275 75.9319 275 76.0577 275C76.1836 275 76.3095 275 76.4354 275C76.5614 275 76.6874 275 76.8135 275C76.9396 275 77.0658 275 77.192 275C77.3182 275 77.4445 275 77.5709 275C77.6972 275 77.8237 275 77.9501 275C78.0766 275 78.2032 275 78.3298 275C78.4564 275 78.5831 275 78.7098 275C78.8365 275 78.9633 275 79.0902 275C79.217 275 79.344 275 79.471 275C79.5979 275 79.725 275 79.8521 275C79.9792 275 80.1064 275 80.2336 275C80.3609 275 80.4882 275 80.6155 275C80.7429 275 80.8703 275 80.9978 275C81.1253 275 81.2528 275 81.3804 275C81.508 275 81.6357 275 81.7634 275C81.8911 275 82.0189 275 82.1468 275C82.2746 275 82.4025 275 82.5305 275C82.6585 275 82.7865 275 82.9146 275C83.0427 275 83.1708 275 83.299 275C83.4272 275 83.5555 275 83.6838 275C83.8121 275 83.9405 275 84.069 275C84.1974 275 84.3259 275 84.4545 275C84.583 275 84.7116 275 84.8403 275C84.969 275 85.0977 275 85.2265 275C85.3553 275 85.4841 275 85.6131 275C85.742 275 85.8709 275 85.9999 275C86.129 275 86.258 275 86.3872 275C86.5163 275 86.6455 275 86.7747 275C86.904 275 87.0333 275 87.1627 275C87.292 275 87.4214 275 87.5509 275C87.6804 275 87.8099 275 87.9395 275C88.0691 275 88.1987 275 88.3284 275C88.4581 275 88.5879 275 88.7177 275C88.8475 275 88.9773 275 89.1072 275C89.2371 275 89.3671 275 89.4971 275C89.6272 275 89.7572 275 89.8874 275C90.0175 275 90.1477 275 90.2779 275C90.4081 275 90.5384 275 90.6688 275C90.7991 275 90.9295 275 91.06 275C91.1904 275 91.3209 275 91.4515 275C91.582 275 91.7126 275 91.8433 275C91.974 275 92.1047 275 92.2354 275C92.3662 275 92.497 275 92.6279 275C92.7587 275 92.8897 275 93.0206 275C93.1516 275 93.2826 275 93.4137 275C93.5448 275 93.6759 275 93.8071 275C93.9382 275 94.0695 275 94.2007 275C94.332 275 94.4633 275 94.5947 275C94.7261 275 94.8575 275 94.989 275C95.1205 275 95.252 275 95.3835 275C95.5151 275 95.6467 275 95.7784 275C95.9101 275 96.0418 275 96.1736 275C96.3053 275 96.4372 275 96.569 275C96.7009 275 96.8328 275 96.9648 275C97.0967 275 97.2287 275 97.3608 275C97.4929 275 97.625 275 97.7571 275C97.8893 275 98.0215 275 98.1537 275C98.286 275 98.4183 275 98.5506 275C98.6829 275 98.8153 275 98.9478 275C99.0802 275 99.2127 275 99.3452 275C99.4777 275 99.6103 275 99.7429 275C99.8755 275 100.008 275 100.141 275C100.274 275 100.406 275 100.539 275C100.672 275 100.805 275 100.938 275C101.071 275 101.204 275 101.337 275C101.469 275 101.603 275 101.736 275C101.869 275 102.002 275 102.135 275C102.268 275 102.401 275 102.535 275C102.668 275 102.801 275 102.934 275C103.068 275 103.201 275 103.334 275C103.468 275 103.601 275 103.735 275C103.868 275 104.002 275 104.135 275C104.269 275 104.403 275 104.536 275C104.67 275 104.804 275 104.938 275C105.071 275 105.205 275 105.339 275C105.473 275 105.607 275 105.741 275C105.874 275 106.008 275 106.142 275C106.276 275 106.41 275 106.545 275C106.679 275 106.813 275 106.947 275C107.081 275 107.215 275 107.349 275C107.484 275 107.618 275 107.752 275C107.887 275 108.021 275 108.155 275C108.29 275 108.424 275 108.559 275C108.693 275 108.828 275 108.962 275C109.097 275 109.231 275 109.366 275C109.501 275 109.635 275 109.77 275C109.905 275 110.039 275 110.174 275C110.309 275 110.444 275 110.579 275C110.713 275 110.848 275 110.983 275C111.118 275 111.253 275 111.388 275C111.523 275 111.658 275 111.793 275C111.928 275 112.063 275 112.199 275C112.334 275 112.469 275 112.604 275C112.739 275 112.875 275 113.01 275C113.145 275 113.281 275 113.416 275C113.551 275 113.687 275 113.822 275C113.957 275 114.093 275 114.228 275C114.364 275 114.499 275 114.635 275C114.771 275 114.906 275 115.042 275C115.177 275 115.313 275 115.449 275C115.584 275 115.72 275 115.856 275C115.992 275 116.127 275 116.263 275C116.399 275 116.535 275 116.671 275C116.807 275 116.943 275 117.079 275C117.215 275 117.351 275 117.487 275C117.623 275 117.759 275 117.895 275C118.031 275 118.167 275 118.303 275C118.439 275 118.575 275 118.712 275C118.848 275 118.984 275 119.12 275C119.257 275 119.393 275 119.529 275C119.665 275 119.802 275 119.938 275C120.075 275 120.211 275 120.347 275C120.484 275 120.62 275 120.757 275C120.893 275 121.03 275 121.166 275C121.303 275 121.44 275 121.576 275C121.713 275 121.849 275 121.986 275C122.123 275 122.259 275 122.396 275C122.533 275 122.67 275 122.806 275C122.943 275 123.08 275 123.217 275C123.354 275 123.491 275 123.627 275C123.764 275 123.901 275 124.038 275C124.175 275 124.312 275 124.449 275C124.586 275 124.723 275 124.86 275C124.997 275 125.134 275 125.271 275C125.408 275 125.546 275 125.683 275C125.82 275 125.957 275 126.094 275C126.231 275 126.369 275 126.506 275C126.643 275 126.78 275 126.918 275C127.055 275 127.192 275 127.33 275C127.467 275 127.604 275 127.742 275C127.879 275 128.017 275 128.154 275C128.291 275 128.429 275 128.566 275C128.704 275 128.841 275 128.979 275C129.116 275 129.254 275 129.392 275C129.529 275 129.667 275 129.804 275C129.942 275 130.08 275 130.217 275C130.355 275 130.493 275 130.63 275C130.768 275 130.906 275 131.043 275C131.181 275 131.319 275 131.457 275C131.594 275 131.732 275 131.87 275C132.008 275 132.146 275 132.284 275C132.422 275 132.559 275 132.697 275C132.835 275 132.973 275 133.111 275C133.249 275 133.387 275 133.525 275C133.663 275 133.801 275 133.939 275C134.077 275 134.215 275 134.353 275C134.491 275 134.629 275 134.767 275C134.905 275 135.043 275 135.182 275C135.32 275 135.458 275 135.596 275C135.734 275 135.872 275 136.011 275C136.149 275 136.287 275 136.425 275C136.563 275 136.702 275 136.84 275C136.978 275 137.116 275 137.255 275C137.393 275 137.531 275 137.67 275C137.808 275 137.946 275 138.085 275C138.223 275 138.361 275 138.5 275C138.638 275 138.777 275 138.915 275C139.053 275 139.192 275 139.33 275C139.469 275 139.607 275 139.746 275C139.884 275 140.023 275 140.161 275C140.3 275 140.438 275 140.577 275C140.715 275 140.854 275 140.992 275C141.131 275 141.269 275 141.408 275C141.547 275 141.685 275 141.824 275C141.962 275 142.101 275 142.24 275C142.378 275 142.517 275 142.656 275C142.794 275 142.933 275 143.072 275C143.21 275 143.349 275 143.488 275C143.626 275 143.765 275 143.904 275C144.043 275 144.181 275 144.32 275C144.459 275 144.598 275 144.736 275C144.875 275 145.014 275 145.153 275C145.291 275 145.43 275 145.569 275C145.708 275 145.847 275 145.985 275C146.124 275 146.263 275 146.402 275C146.541 275 146.68 275 146.818 275C146.957 275 147.096 275 147.235 275C147.374 275 147.513 275 147.652 275C147.791 275 147.929 275 148.068 275C148.207 275 148.346 275 148.485 275C148.624 275 148.763 275 148.902 275C149.041 275 149.18 275 149.319 275C149.458 275 149.597 275 149.736 275C149.875 275 150.014 275 150.152 275C150.291 275 150.43 275 150.569 275C150.708 275 150.847 275 150.986 275C151.125 275 151.264 275 151.403 275C151.542 275 151.681 275 151.82 275C151.959 275 152.098 275 152.237 275C152.376 275 152.516 275 152.655 275C152.794 275 152.933 275 153.072 275C153.211 275 153.35 275 153.489 275C153.628 275 153.767 275 153.906 275C154.045 275 154.184 275 154.323 275C154.462 275 154.601 275 154.74 275C154.879 275 155.018 275 155.157 275C155.297 275 155.436 275 155.575 275C155.714 275 155.853 275 155.992 275C156.131 275 156.27 275 156.409 275C156.548 275 156.687 275 156.826 275C156.965 275 157.105 275 157.244 275C157.383 275 157.522 275 157.661 275C157.8 275 157.939 275 158.078 275C158.217 275 158.356 275 158.495 275C158.634 275 158.774 275 158.913 275C159.052 275 159.191 275 159.33 275C159.469 275 159.608 275 159.747 275C159.886 275 160.025 275 160.164 275C160.303 275 160.442 275 160.581 275C160.721 275 160.86 275 160.999 275C161.138 275 161.277 275 161.416 275C161.555 275 161.694 275 161.833 275C161.972 275 162.111 275 162.25 275C162.389 275 162.528 275 162.667 275C162.806 275 162.945 275 163.084 275C163.223 275 163.362 275 163.501 275C163.64 275 163.779 275 163.918 275C164.057 275 164.197 275 164.336 275C164.475 275 164.614 275 164.752 275C164.891 275 165.03 275 165.169 275C165.308 275 165.447 275 165.586 275C165.725 275 165.864 275 166.003 275C166.142 275 166.281 275 166.42 275C166.559 275 166.698 275 166.837 275C166.976 275 167.115 275 167.254 275C167.393 275 167.531 275 167.67 275C167.809 275 167.948 275 168.087 275C168.226 275 168.365 275 168.504 275C168.643 275 168.781 275 168.92 275C169.059 275 169.198 275 169.337 275C169.476 275 169.614 275 169.753 275C169.892 275 170.031 275 170.17 275C170.308 275 170.447 275 170.586 275C170.725 275 170.864 275 171.002 275C171.141 275 171.28 275 171.419 275C171.557 275 171.696 275 171.835 275C171.973 275 172.112 275 172.251 275C172.39 275 172.528 275 172.667 275C172.806 275 172.944 275 173.083 275C173.222 275 173.36 275 173.499 275C173.637 275 173.776 275 173.915 275C174.053 275 174.192 275 174.33 275C174.469 275 174.607 275 174.746 275C174.885 275 175.023 275 175.162 275C175.3 275 175.439 275 175.577 275C175.716 275 175.854 275 175.993 275C176.131 275 176.27 275 176.408 275C176.546 275 176.685 275 176.823 275C176.962 275 177.1 275 177.238 275C177.377 275 177.515 275 177.653 275C177.792 275 177.93 275 178.068 275C178.207 275 178.345 275 178.483 275C178.622 275 178.76 275 178.898 275C179.036 275 179.175 275 179.313 275C179.451 275 179.589 275 179.727 275C179.866 275 180.004 275 180.142 275C180.28 275 180.418 275 180.556 275C180.694 275 180.833 275 180.971 275C181.109 275 181.247 275 181.385 275C181.523 275 181.661 275 181.799 275C181.937 275 182.075 275 182.213 275C182.351 275 182.489 275 182.627 275C182.765 275 182.902 275 183.04 275C183.178 275 183.316 275 183.454 275C183.592 275 183.73 275 183.867 275C184.005 275 184.143 275 184.281 275C184.419 275 184.556 275 184.694 275C184.832 275 184.97 275 185.107 275C185.245 275 185.383 275 185.52 275C185.658 275 185.795 275 185.933 275C186.071 275 186.208 275 186.346 275C186.483 275 186.621 275 186.758 275C186.896 275 187.033 275 187.171 275C187.308 275 187.446 275 187.583 275C187.721 275 187.858 275 187.995 275C188.133 275 188.27 275 188.407 275C188.545 275 188.682 275 188.819 275C188.957 275 189.094 275 189.231 275C189.368 275 189.505 275 189.643 275C189.78 275 189.917 275 190.054 275C190.191 275 190.328 275 190.465 275C190.602 275 190.74 275 190.877 275C191.014 275 191.151 275 191.288 275C191.425 275 191.562 275 191.698 275C191.835 275 191.972 275 192.109 275C192.246 275 192.383 275 192.52 275C192.656 275 192.793 275 192.93 275C193.067 275 193.203 275 193.34 275C193.477 275 193.614 275 193.75 275C193.887 275 194.023 275 194.16 275C194.297 275 194.433 275 194.57 275C194.706 275 194.843 275 194.979 275C195.116 275 195.252 275 195.389 275C195.525 275 195.661 275 195.798 275C195.934 275 196.071 275 196.207 275C196.343 275 196.479 275 196.616 275C196.752 275 196.888 275 197.024 275C197.16 275 197.297 275 197.433 275C197.569 275 197.705 275 197.841 275C197.977 275 198.113 275 198.249 275C198.385 275 198.521 275 198.657 275C198.793 275 198.929 275 199.065 275C199.2 275 199.336 275 199.472 275C199.608 275 199.744 275 199.879 275C200.015 275 200.151 275 200.287 275C200.422 275 200.558 275 200.693 275C200.829 275 200.965 275 201.1 275C201.236 275 201.371 275 201.507 275C201.642 275 201.778 275 201.913 275C202.048 275 202.184 275 202.319 275C202.454 275 202.59 275 202.725 275C202.86 275 202.995 275 203.131 275C203.266 275 203.401 275 203.536 275C203.671 275 203.806 275 203.941 275C204.076 275 204.211 275 204.346 275C204.481 275 204.616 275 204.751 275C204.886 275 205.021 275 205.156 275C205.291 275 205.425 275 205.56 275C205.695 275 205.83 275 205.964 275C206.099 275 206.234 275 206.368 275C206.503 275 206.637 275 206.772 275C206.906 275 207.041 275 207.175 275C207.31 275 207.444 275 207.578 275C207.713 275 207.847 275 207.981 275C208.116 275 208.25 275 208.384 275C208.518 275 208.653 275 208.787 275C208.921 275 209.055 275 209.189 275C209.323 275 209.457 275 209.591 275C209.725 275 209.859 275 209.993 275C210.127 275 210.261 275 210.394 275C210.528 275 210.662 275 210.796 275C210.929 275 211.063 275 211.197 275C211.33 275 211.464 275 211.597 275C211.731 275 211.865 275 211.998 275C212.131 275 212.265 275 212.398 275C212.532 275 212.665 275 212.798 275C212.932 275 213.065 275 213.198 275C213.331 275 213.464 275 213.598 275C213.731 275 213.864 275 213.997 275C214.13 275 214.263 275 214.396 275C214.529 275 214.662 275 214.794 275C214.927 275 215.06 275 215.193 275C215.326 275 215.458 275 215.591 275C215.724 275 215.856 275 215.989 275C216.122 275 216.254 275 216.387 275C216.519 275 216.652 275 216.784 275C216.916 275 217.049 275 217.181 275C217.313 275 217.446 275 217.578 275C217.71 275 217.842 275 217.974 275C218.106 275 218.238 275 218.37 275C218.503 275 218.634 275 218.766 275C218.898 275 219.03 275 219.162 275C219.294 275 219.426 275 219.557 275C219.689 275 219.821 275 219.952 275C220.084 275 220.216 275 220.347 275C220.479 275 220.61 275 220.742 275C220.873 275 221.004 275 221.136 275C221.267 275 221.398 275 221.53 275C221.661 275 221.792 275 221.923 275C222.054 275 222.185 275 222.317 275C222.448 275 222.579 275 222.709 275C222.84 275 222.971 275 223.102 275C223.233 275 223.364 275 223.494 275C223.625 275 223.756 275 223.886 275C224.017 275 224.148 275 224.278 275C224.409 275 224.539 275 224.67 275C224.8 275 224.93 275 225.061 275C225.191 275 225.321 275 225.451 275C225.582 275 225.712 275 225.842 275C225.972 275 226.102 275 226.232 275C226.362 275 226.492 275 226.622 275C226.752 275 226.881 275 227.011 275C227.141 275 227.271 275 227.4 275C227.53 275 227.66 275 227.789 275C227.919 275 228.048 275 228.178 275C228.307 275 228.436 275 228.566 275C228.695 275 228.824 275 228.953 275C229.083 275 229.212 275 229.341 275C229.47 275 229.599 275 229.728 275C229.857 275 229.986 275 230.115 275C230.244 275 230.372 275 230.501 275C230.63 275 230.759 275 230.887 275C231.016 275 231.144 275 231.273 275C231.402 275 231.53 275 231.658 275C231.787 275 231.915 275 232.043 275C232.172 275 232.3 275 232.428 275C232.556 275 232.684 275 232.812 275C232.94 275 233.068 275 233.196 275C233.324 275 233.452 275 233.58 275C233.708 275 233.835 275 233.963 275C234.091 275 234.218 275 234.346 275C234.474 275 234.601 275 234.728 275C234.856 275 234.983 275 235.111 275C235.238 275 235.365 275 235.492 275C235.62 275 235.747 275 235.874 275C236.001 275 236.128 275 236.255 275C236.382 275 236.509 275 236.635 275C236.762 275 236.889 275 237.016 275C237.142 275 237.269 275 237.396 275C237.522 275 237.649 275 237.775 275C237.901 275 238.028 275 238.154 275C238.28 275 238.407 275 238.533 275C238.659 275 238.785 275 238.911 275C239.037 275 239.163 275 239.289 275C239.415 275 239.541 275 239.667 275C239.793 275 239.918 275 240.044 275C240.17 275 240.295 275 240.421 275C240.546 275 240.672 275 240.797 275C240.922 275 241.048 275 241.173 275C241.298 275 241.423 275 241.549 275C241.674 275 241.799 275 241.924 275C242.049 275 242.174 275 242.298 275C242.423 275 242.548 275 242.673 275C242.798 275 242.922 275 243.047 275C243.171 275 243.296 275 243.42 275C243.545 275 243.669 275 243.793 275C243.918 275 244.042 275 244.166 275C244.29 275 244.414 275 244.538 275C244.662 275 244.786 275 244.91 275C245.034 275 245.158 275 245.282 275C245.406 275 245.529 275 245.653 275C245.776 275 245.9 275 246.023 275C246.147 275 246.27 275 246.394 275C246.517 275 246.64 275 246.763 275C246.887 275 247.01 275 247.133 275C247.256 275 247.379 275 247.502 275C247.624 275 247.747 275 247.87 275C247.993 275 248.115 275 248.238 275C248.361 275 248.483 275 248.606 275C248.728 275 248.85 275 248.973 275C249.095 275 249.217 275 249.339 275C249.462 275 249.584 275 249.706 275C249.828 275 249.95 275 250.071 275C250.193 275 250.315 275 250.437 275C250.559 275 250.68 275 250.802 275C250.923 275 251.045 275 251.166 275C251.288 275 251.409 275 251.53 275C251.651 275 251.773 275 251.894 275C252.015 275 252.136 275 252.257 275C252.378 275 252.499 275 252.619 275C252.74 275 252.861 275 252.982 275C253.102 275 253.223 275 253.343 275C253.464 275 253.584 275 253.705 275C253.825 275 253.945 275 254.065 275C254.185 275 254.306 275 254.426 275C254.546 275 254.666 275 254.785 275C254.905 275 255.025 275 255.145 275C255.264 275 255.384 275 255.504 275C255.623 275 255.743 275 255.862 275C255.981 275 256.101 275 256.22 275C256.339 275 256.458 275 256.577 275C256.697 275 256.816 275 256.934 275C257.053 275 257.172 275 257.291 275C257.41 275 257.528 275 257.647 275C257.765 275 257.884 275 258.002 275C258.121 275 258.239 275 258.357 275C258.476 275 258.594 275 258.712 275C258.83 275 258.948 275 259.066 275C259.184 275 259.302 275 259.419 275C259.537 275 259.655 275 259.772 275C259.89 275 260.008 275 260.125 275C260.242 275 260.36 275 260.477 275C260.594 275 260.711 275 260.829 275C260.946 275 261.063 275 261.18 275C261.297 275 261.413 275 261.53 275C261.647 275 261.764 275 261.88 275C261.997 275 262.113 275 262.23 275C262.346 275 262.462 275 262.579 275C262.695 275 262.811 275 262.927 275C263.043 275 263.159 275 263.275 275C263.391 275 263.507 275 263.622 275C263.738 275 263.854 275 263.969 275C264.085 275 264.2 275 264.316 275C264.431 275 264.546 275 264.661 275C264.777 275 264.892 275 265.007 275C265.122 275 265.237 275 265.352 275C265.466 275 265.581 275 265.696 275C265.811 275 265.925 275 266.04 275C266.154 275 266.268 275 266.383 275C266.497 275 266.611 275 266.725 275C266.84 275 266.954 275 267.068 275C267.181 275 267.295 275 267.409 275C267.523 275 267.637 275 267.75 275C267.864 275 267.977 275 268.091 275C268.204 275 268.317 275 268.431 275C268.544 275 268.657 275 268.77 275C268.883 275 268.996 275 269.109 275C269.222 275 269.334 275 269.447 275C269.56 275 269.672 275 269.785 275C269.897 275 270.01 275 270.122 275C270.234 275 270.346 275 270.459 275C270.571 275 270.683 275 270.795 275C270.907 275 271.018 275 271.13 275C271.242 275 271.354 275 271.465 275C271.577 275 271.688 275 271.799 275C271.911 275 272.022 275 272.133 275C272.244 275 272.355 275 272.466 275C272.577 275 272.688 275 272.799 275C272.91 275 273.021 275 273.131 275C273.242 275 273.352 275 273.463 275V259ZM71.5565 259C52.0898 259 34.618 251.517 27.2361 236.451L12.8682 243.491C24.0188 266.248 48.9044 275 71.5565 275V259ZM27.2361 236.451C12.8365 207.063 8.4476 168.666 8.03338 135.603L-7.96537 135.803C-7.5422 169.581 -3.11822 210.865 12.8682 243.491L27.2361 236.451Z" fill="#150C0C" mask="url(#path-1-inside-1_13_1632)"/>
<mask id="path-3-inside-2_13_1632" fill="white">
<path fill-rule="evenodd" clip-rule="evenodd" d="M127.011 72.6781C127.037 72.0322 127.113 71.3837 127.238 70.7395C133.164 40.1867 133.164 0 133.164 0H209.45C209.45 0 209.45 40.1867 215.376 70.7395C215.786 72.8553 215.668 75.0185 215.005 76.9799C202.887 82.7627 189.322 86 175 86C157.442 86 141.021 81.1344 127.011 72.6781Z"/>
</mask>
<path fill-rule="evenodd" clip-rule="evenodd" d="M127.011 72.6781C127.037 72.0322 127.113 71.3837 127.238 70.7395C133.164 40.1867 133.164 0 133.164 0H209.45C209.45 0 209.45 40.1867 215.376 70.7395C215.786 72.8553 215.668 75.0185 215.005 76.9799C202.887 82.7627 189.322 86 175 86C157.442 86 141.021 81.1344 127.011 72.6781Z" fill="#C89583"/>
<path d="M127.238 70.7395L119.384 69.2162L127.238 70.7395ZM127.011 72.6781L119.017 72.3499L118.823 77.0806L122.877 79.5272L127.011 72.6781ZM133.164 0V-8H125.164L125.164 -6.6447e-06L133.164 0ZM209.45 0L217.45 3.03758e-06V-8H209.45V0ZM215.376 70.7395L207.522 72.2628L207.522 72.2628L215.376 70.7395ZM215.005 76.9799L218.451 84.1999L221.501 82.7442L222.584 79.5424L215.005 76.9799ZM119.384 69.2162C119.184 70.2502 119.061 71.2981 119.017 72.3499L135.004 73.0063C135.014 72.7663 135.042 72.5172 135.092 72.2628L119.384 69.2162ZM133.164 0C125.164 -6.6447e-06 125.164 -0.00043006 125.164 -0.000700547C125.164 -0.000586867 125.164 -0.000705824 125.164 -0.000479674C125.164 -2.79945e-05 125.164 0.00103203 125.164 0.00269745C125.164 0.00602829 125.164 0.0117806 125.164 0.0199305C125.164 0.0362307 125.164 0.0621207 125.164 0.0974109C125.164 0.167993 125.163 0.276167 125.163 0.420418C125.161 0.708932 125.159 1.14168 125.153 1.70652C125.142 2.83635 125.119 4.49386 125.073 6.5821C124.982 10.7606 124.8 16.6529 124.435 23.4857C123.701 37.2208 122.243 54.4776 119.384 69.2162L135.092 72.2628C138.159 56.4486 139.664 38.3357 140.412 24.3392C140.788 17.3063 140.976 11.2423 141.07 6.93103C141.117 4.77438 141.14 3.0536 141.152 1.86637C141.158 1.27269 141.161 0.812209 141.163 0.497132C141.163 0.339587 141.164 0.218374 141.164 0.135017C141.164 0.0933384 141.164 0.0611213 141.164 0.0385567C141.164 0.0272743 141.164 0.0184047 141.164 0.0119719C141.164 0.00875543 141.164 0.00614813 141.164 0.00415294C141.164 0.00315566 141.164 0.00211838 141.164 0.00161961C141.164 0.000736661 141.164 6.6447e-06 133.164 0ZM209.45 -8H133.164V8H209.45V-8ZM223.229 69.2162C220.371 54.4776 218.913 37.2208 218.179 23.4857C217.814 16.6529 217.632 10.7606 217.541 6.58211C217.495 4.49387 217.472 2.83636 217.461 1.70653C217.455 1.14169 217.453 0.708942 217.451 0.420427C217.451 0.276177 217.45 0.168002 217.45 0.0974205C217.45 0.0621303 217.45 0.0362403 217.45 0.0199402C217.45 0.0117902 217.45 0.00603794 217.45 0.0027071C217.45 0.00104169 217.45 -1.83304e-05 217.45 -0.000470005C217.45 -0.000696153 217.45 -0.000577193 217.45 -0.000690871C217.45 -0.000420381 217.45 3.03758e-06 209.45 0C201.45 -3.03758e-06 201.45 0.000726982 201.45 0.00160993C201.45 0.00210871 201.45 0.00314599 201.45 0.00414327C201.45 0.00613846 201.45 0.00874577 201.45 0.0119622C201.45 0.0183951 201.45 0.0272646 201.45 0.038547C201.45 0.0611117 201.45 0.0933288 201.45 0.135008C201.45 0.218365 201.451 0.339578 201.451 0.497123C201.453 0.8122 201.456 1.27268 201.462 1.86636C201.474 3.05359 201.497 4.77437 201.544 6.93102C201.638 11.2423 201.826 17.3063 202.202 24.3392C202.95 38.3357 204.455 56.4486 207.522 72.2628L223.229 69.2162ZM222.584 79.5424C223.723 76.172 223.885 72.5939 223.229 69.2162L207.522 72.2628C207.688 73.1166 207.613 73.8649 207.427 74.4174L222.584 79.5424ZM211.56 69.7599C200.495 75.0401 188.104 78 175 78V94C190.539 94 205.28 90.4853 218.451 84.1999L211.56 69.7599ZM175 78C158.94 78 143.942 73.5536 131.145 65.829L122.877 79.5272C138.099 88.7153 155.945 94 175 94V78Z" fill="#150C0C" mask="url(#path-3-inside-2_13_1632)"/>
<path d="M171.08 85.8699C171.464 84.7606 170.814 83.5617 169.675 83.277L128.746 73.0442C128.588 73.0046 128.425 72.9842 128.261 72.9842L106.192 72.9848C104.416 72.9848 103.521 75.1269 104.769 76.3904L154.059 126.301C155.101 127.356 156.888 126.951 157.373 125.55L171.08 85.8699Z" fill="#334B71" stroke="#150C0C" stroke-width="8"/>
<path d="M179.847 85.8699C179.464 84.7606 180.114 83.5617 181.252 83.277L222.181 73.0442C222.34 73.0046 222.503 72.9842 222.666 72.9842L244.735 72.9848C246.511 72.9848 247.406 75.1269 246.158 76.3904L196.868 126.301C195.826 127.356 194.039 126.951 193.555 125.55L179.847 85.8699Z" fill="#334B71" stroke="#150C0C" stroke-width="8"/>
<circle cx="175" cy="123" r="5" fill="#C8D3E6"/>
<circle cx="175" cy="178" r="5" fill="#C8D3E6"/>
<circle cx="175" cy="235" r="5" fill="#C8D3E6"/>
<path d="M236 151H283C288.523 151 293 155.477 293 161V212C293 217.523 288.523 222 283 222H236C230.477 222 226 217.523 226 212V161C226 155.477 230.477 151 236 151Z" stroke="#150C0C" stroke-width="6"/>
</g>
<defs>
<clipPath id="clip0_13_1632">
<rect width="343" height="267" fill="white"/>
</clipPath>
</defs>
</svg>
