<svg width="343" height="267" viewBox="0 0 343 267" fill="none" xmlns="http://www.w3.org/2000/svg">
<mask id="path-1-inside-1_1_175" fill="white">
<path fill-rule="evenodd" clip-rule="evenodd" d="M134.857 0H211.143C211.143 0 211.143 38.6844 216.74 69H270.335C310.419 69 344.14 99.4818 342.593 139.536C341.321 172.455 336.727 210.634 324.103 239.447C315.651 258.736 294.522 267 273.463 267H71.5566C50.4972 267 29.3184 258.883 20.0522 239.971C4.85917 208.964 0.452728 169.124 0.0340367 135.703C-0.448204 97.2098 32.4982 69 70.9943 69H129.26C134.857 38.6844 134.857 0 134.857 0Z"/>
</mask>
<path fill-rule="evenodd" clip-rule="evenodd" d="M134.857 0H211.143C211.143 0 211.143 38.6844 216.74 69H270.335C310.419 69 344.14 99.4818 342.593 139.536C341.321 172.455 336.727 210.634 324.103 239.447C315.651 258.736 294.522 267 273.463 267H71.5566C50.4972 267 29.3184 258.883 20.0522 239.971C4.85917 208.964 0.452728 169.124 0.0340367 135.703C-0.448204 97.2098 32.4982 69 70.9943 69H129.26C134.857 38.6844 134.857 0 134.857 0Z" fill="#537C1E"/>
<path d="M211.143 0L219.143 3.15554e-06V-8H211.143V0ZM134.857 0V-8H126.857L126.857 -6.31108e-06L134.857 0ZM216.74 69L208.873 70.4524L210.081 77H216.74V69ZM342.593 139.536L334.599 139.227L342.593 139.536ZM324.103 239.447L331.43 242.657L324.103 239.447ZM20.0522 239.971L27.2362 236.451L20.0522 239.971ZM0.0340367 135.703L8.03341 135.603L0.0340367 135.703ZM129.26 69V77H135.919L137.127 70.4524L129.26 69ZM211.143 -8H134.857V8H211.143V-8ZM224.607 67.5476C221.902 52.8943 220.525 36.0451 219.832 22.7164C219.487 16.0828 219.315 10.3831 219.229 6.34755C219.186 4.33071 219.164 2.73206 219.154 1.64315C219.148 1.09876 219.146 0.681973 219.144 0.40425C219.144 0.265395 219.143 0.161323 219.143 0.0934654C219.143 0.0595374 219.143 0.0346652 219.143 0.0190278C219.143 0.0112092 219.143 0.00569957 219.143 0.00252126C219.143 0.000932108 219.143 -7.41781e-05 219.143 -0.000494804C219.143 -0.000705416 219.143 -0.000580252 219.143 -0.000686133C219.143 -0.000415098 219.143 3.15554e-06 211.143 0C203.143 -3.15554e-06 203.143 0.000710237 203.143 0.00157085C203.143 0.00205454 203.143 0.00306372 203.143 0.00403086C203.143 0.00596574 203.143 0.0084899 203.143 0.0116005C203.143 0.0178218 203.143 0.026389 203.143 0.0372798C203.143 0.0590613 203.143 0.0901377 203.143 0.130329C203.143 0.210711 203.144 0.327562 203.144 0.479441C203.146 0.783187 203.149 1.22712 203.154 1.79972C203.165 2.94478 203.188 4.60519 203.232 6.6887C203.321 10.8539 203.499 16.7199 203.853 23.5469C204.56 37.1394 205.981 54.7901 208.873 70.4524L224.607 67.5476ZM216.74 77H270.335V61H216.74V77ZM270.335 77C306.558 77 335.945 104.36 334.599 139.227L350.587 139.844C352.334 94.6035 314.279 61 270.335 61V77ZM334.599 139.227C333.337 171.901 328.778 208.843 316.775 236.236L331.43 242.657C344.677 212.424 349.306 173.008 350.587 139.844L334.599 139.227ZM316.775 236.236C310.138 251.384 292.952 259 273.463 259V275C296.093 275 321.164 266.087 331.43 242.657L316.775 236.236ZM273.463 259H71.5566V275H273.463V259ZM71.5566 259C52.0899 259 34.618 251.517 27.2362 236.451L12.8682 243.491C24.0188 266.249 48.9044 275 71.5566 275V259ZM27.2362 236.451C12.8365 207.063 8.44763 168.666 8.03341 135.603L-7.96534 135.803C-7.54217 169.581 -3.11819 210.865 12.8682 243.491L27.2362 236.451ZM8.03341 135.603C7.61654 102.328 36.1548 77 70.9943 77V61C28.8415 61 -8.51295 92.0918 -7.96534 135.803L8.03341 135.603ZM70.9943 77H129.26V61H70.9943V77ZM134.857 0C126.857 -6.31108e-06 126.857 -0.000424561 126.857 -0.000695593C126.857 -0.00058971 126.857 -0.00071487 126.857 -0.000504256C126.857 -8.36254e-05 126.857 0.000922666 126.857 0.00251182C126.857 0.00569015 126.857 0.0111998 126.857 0.0190184C126.857 0.0346558 126.857 0.059528 126.857 0.093456C126.857 0.161313 126.857 0.265386 126.856 0.404241C126.855 0.681964 126.852 1.09875 126.847 1.64314C126.836 2.73205 126.815 4.3307 126.772 6.34754C126.685 10.3831 126.513 16.0828 126.168 22.7164C125.476 36.0451 124.099 52.8943 121.393 67.5476L137.127 70.4524C140.019 54.7901 141.44 37.1394 142.147 23.5469C142.502 16.7199 142.679 10.8539 142.768 6.68871C142.812 4.6052 142.835 2.94479 142.846 1.79973C142.851 1.22713 142.854 0.783196 142.856 0.47945C142.856 0.327571 142.857 0.21072 142.857 0.130339C142.857 0.0901471 142.857 0.0590706 142.857 0.0372892C142.857 0.0263985 142.857 0.0178312 142.857 0.01161C142.857 0.00849934 142.857 0.00597518 142.857 0.00404031C142.857 0.00307318 142.857 0.002064 142.857 0.00158031C142.857 0.0007197 142.857 6.31108e-06 134.857 0Z" fill="#150C0C" mask="url(#path-1-inside-1_1_175)"/>
<mask id="path-3-inside-2_1_175" fill="white">
<path fill-rule="evenodd" clip-rule="evenodd" d="M171 181C227.885 181 274 132.199 274 72C274 71.0248 273.988 70.0526 273.964 69.0835C272.761 69.028 271.551 69 270.335 69H216.74C211.143 38.6844 211.143 0 211.143 0H134.857C134.857 0 134.857 38.6844 129.26 69H70.9942C70.0046 69 69.0186 69.0186 68.0369 69.0556C68.0123 70.0339 68 71.0154 68 72C68 132.199 114.115 181 171 181Z"/>
</mask>
<path fill-rule="evenodd" clip-rule="evenodd" d="M171 181C227.885 181 274 132.199 274 72C274 71.0248 273.988 70.0526 273.964 69.0835C272.761 69.028 271.551 69 270.335 69H216.74C211.143 38.6844 211.143 0 211.143 0H134.857C134.857 0 134.857 38.6844 129.26 69H70.9942C70.0046 69 69.0186 69.0186 68.0369 69.0556C68.0123 70.0339 68 71.0154 68 72C68 132.199 114.115 181 171 181Z" fill="#C89583"/>
<path d="M273.964 69.0835L281.961 68.8851L281.777 61.4354L274.332 61.092L273.964 69.0835ZM216.74 69L208.873 70.4524L210.081 77H216.74V69ZM211.143 0L219.143 3.15554e-06V-8H211.143V0ZM134.857 0V-8H126.857L126.857 -6.31108e-06L134.857 0ZM129.26 69V77H135.918L137.127 70.4524L129.26 69ZM68.0369 69.0556L67.7357 61.0613L60.2276 61.3441L60.0394 68.8552L68.0369 69.0556ZM266 72C266 128.214 223.046 173 171 173V189C232.724 189 282 136.185 282 72H266ZM265.966 69.282C265.989 70.1849 266 71.091 266 72H282C282 70.9586 281.987 69.9203 281.961 68.8851L265.966 69.282ZM270.335 77C271.428 77 272.515 77.0252 273.595 77.0751L274.332 61.092C273.006 61.0309 271.674 61 270.335 61V77ZM216.74 77H270.335V61H216.74V77ZM211.143 0C203.143 -3.15554e-06 203.143 0.000710237 203.143 0.00157085C203.143 0.00205454 203.143 0.00306372 203.143 0.00403086C203.143 0.00596574 203.143 0.0084899 203.143 0.0116005C203.143 0.0178218 203.143 0.026389 203.143 0.0372798C203.143 0.0590613 203.143 0.0901377 203.143 0.130329C203.143 0.210711 203.144 0.327562 203.144 0.479441C203.146 0.783187 203.149 1.22712 203.154 1.79972C203.165 2.94478 203.188 4.60519 203.232 6.6887C203.321 10.8539 203.498 16.7199 203.853 23.5469C204.56 37.1394 205.981 54.7901 208.873 70.4524L224.607 67.5476C221.901 52.8943 220.524 36.0451 219.832 22.7164C219.487 16.0828 219.314 10.3831 219.228 6.34755C219.185 4.33071 219.164 2.73206 219.153 1.64315C219.148 1.09876 219.145 0.681973 219.144 0.40425C219.143 0.265395 219.143 0.161323 219.143 0.0934654C219.143 0.0595374 219.143 0.0346652 219.143 0.0190278C219.143 0.0112092 219.143 0.00569957 219.143 0.00252126C219.143 0.000932108 219.143 -7.41781e-05 219.143 -0.000494804C219.143 -0.000705416 219.143 -0.000580252 219.143 -0.000686133C219.143 -0.000415098 219.143 3.15554e-06 211.143 0ZM134.857 8H211.143V-8H134.857V8ZM137.127 70.4524C140.019 54.7901 141.44 37.1394 142.147 23.5469C142.501 16.7199 142.679 10.8539 142.768 6.68871C142.812 4.6052 142.835 2.94479 142.846 1.79973C142.851 1.22713 142.854 0.783196 142.856 0.47945C142.856 0.327571 142.857 0.21072 142.857 0.130339C142.857 0.0901471 142.857 0.0590706 142.857 0.0372892C142.857 0.0263985 142.857 0.0178312 142.857 0.01161C142.857 0.00849934 142.857 0.00597518 142.857 0.00404031C142.857 0.00307318 142.857 0.002064 142.857 0.00158031C142.857 0.0007197 142.857 6.31108e-06 134.857 0C126.857 -6.31108e-06 126.857 -0.000424561 126.857 -0.000695593C126.857 -0.00058971 126.857 -0.00071487 126.857 -0.000504256C126.857 -8.36255e-05 126.857 0.000922666 126.857 0.00251182C126.857 0.00569015 126.857 0.0111998 126.857 0.0190184C126.857 0.0346558 126.857 0.059528 126.857 0.093456C126.857 0.161313 126.856 0.265386 126.856 0.404241C126.854 0.681964 126.852 1.09875 126.846 1.64314C126.836 2.73205 126.814 4.3307 126.771 6.34754C126.685 10.3831 126.513 16.0828 126.168 22.7164C125.475 36.0451 124.098 52.8943 121.393 67.5476L137.127 70.4524ZM70.9942 77H129.26V61H70.9942V77ZM68.338 77.0499C69.2195 77.0167 70.105 77 70.9942 77V61C69.9041 61 68.8178 61.0205 67.7357 61.0613L68.338 77.0499ZM76 72C76 71.0823 76.0115 70.1675 76.0343 69.256L60.0394 68.8552C60.0132 69.9003 60 70.9486 60 72H76ZM171 173C118.954 173 76 128.214 76 72H60C60 136.185 109.276 189 171 189V173Z" fill="#150C0C" mask="url(#path-3-inside-2_1_175)"/>
</svg>
