<svg width="306" height="306" viewBox="0 0 306 306" fill="none" xmlns="http://www.w3.org/2000/svg">
<path d="M136.428 104.5C120.236 117.993 131.183 125.043 119.928 149C123.928 134.5 100.928 109.5 90.4283 138C63.9283 138 60.3404 107.376 73.1737 91.543C59.5737 67.943 76.1737 57.043 86.1737 54.543C84.9737 26.143 106.674 23.7097 117.674 26.043C132.874 6.04303 151.007 17.7097 158.174 26.043C175.374 17.243 185.007 28.043 187.674 34.543C197.674 31.543 210.928 36 222.928 62C232.528 82.8 224.928 105 216.928 113C213.728 105.8 211.928 102.5 203.928 95.5C195.928 88.5 151.428 92 136.428 104.5Z" fill="black" stroke="black" stroke-linejoin="round"/>
</svg>
