<svg width="306" height="306" viewBox="0 0 306 306" fill="none" xmlns="http://www.w3.org/2000/svg">
<path d="M210.5 101.5C201.724 89.9878 190.887 77.5 182 77.5C174 77.5 151 95 142.5 104.5C133.051 115.061 124.5 133 123.5 133C123.5 145.335 121.376 193.609 172.796 216.679L192.445 223.469C185.152 221.589 178.629 219.297 172.796 216.679L106.772 193.867C92.2715 184.7 68.8715 151.267 91.2715 90.8666C119.272 15.3666 246 41 221.5 129.5C224 119.69 210.5 101.5 210.5 101.5Z" fill="black" stroke="black"/>
<path d="M104.369 202.671C103.475 196.393 106.42 194.038 108.004 193.646C125.554 193.646 134.708 202.229 151.402 207.814C158.047 210.037 165.887 211.785 175.926 212.328C180.07 212.115 184.325 211.899 188.771 212.367C192.271 219.867 194.771 220.367 192.271 225.867C193.67 225.344 199.627 231.821 196.271 241.867C192.077 254.424 188.127 250.766 184.771 255.867C178.061 266.855 156.771 255.867 138.771 249.367C133.128 247.329 114.271 238.367 108.004 231.317C101.573 224.646 104.369 227 106.606 217.975C108.843 208.95 105.488 210.519 104.369 202.671Z" fill="black"/>
<path d="M188.771 212.367C192.271 219.867 194.771 220.367 192.271 225.867C193.67 225.344 199.627 231.821 196.271 241.867C192.077 254.424 188.127 250.766 184.771 255.867C178.061 266.855 156.771 255.867 138.771 249.367C133.128 247.329 114.271 238.367 108.004 231.317C101.573 224.646 104.369 227 106.606 217.975C108.843 208.95 105.488 210.519 104.369 202.671C103.475 196.393 106.42 194.038 108.004 193.646C135.271 193.646 142.271 214.367 188.771 212.367ZM188.771 212.367C169.771 210.367 154.271 220.867 135.964 190.114" stroke="black" stroke-linecap="round"/>
</svg>
