<svg width="306" height="306" viewBox="0 0 306 306" fill="none" xmlns="http://www.w3.org/2000/svg">
<path d="M220.5 85.3C224.7 80.6 227.3 74.4 227.3 67.6C227.3 52.9 215.4 41 200.7 41C190.6 41 181.8 46.7 177.3 55C158.7 48.8 141.4 48.9 127 53.8C121.6 46.1 112.7 41 102.6 41C86.2 41 73 54.3 73 70.6C73 81.6 79 91.3 88 96.4C78.5 131.6 87.8002 148.5 95.7002 158C103.7 167.6 107.7 182 107.7 182C111.8 179.7 109.8 169.5 109.9 164.1C84.9 154.5 89.4 126.6 101.6 125C114.4 123.4 118.4 134.8 119.1 137.6C121.5 134.8 122 122.2 123.6 110.4L124.7 129.7C124.7 129.7 129.4 123.7 154.2 123.5C154.5 119.2 158.9 91.9 158.7 88C158.7 88 162.3 116 163.2 123.5C164.2 123.5 167.2 122 171.7 122C176.2 122 178.4 123.4 180.2 123.5C180.5 110.5 182 103 182.5 100C182.5 100 185.5 112 186.2 123.5C195.2 123.5 200.5 126.7 207 129.5C207.4 126.9 208.8 117.1 209 113C209 113 210.7 122.1 210 130C212 130.5 213.5 131.5 215.5 133L220 137C225 129 227.9 109.2 220.5 85.3Z" fill="black"/>
</svg>
