<svg width="306" height="306" viewBox="0 0 306 306" fill="none" xmlns="http://www.w3.org/2000/svg">
<path d="M176.5 79.3898C190.29 83.5114 196 110.39 216.5 126.39C222.1 121.59 224.5 112.39 225 108.39C227.585 91.5875 215.485 75.859 207.47 68.1027C184 45.3899 160.4 46.814 136.533 49.39C112.667 51.966 89 74.5425 86.1481 106.099C82.4919 146.555 90.7889 169.21 83.4963 189.818C77.6622 206.305 60.7346 223.735 53 230.39H122.611C128.357 216.222 133.652 211.148 131 202.39C128.348 193.632 110 167 110 167C98 159.5 94.5 158 93 142.5C93 119 115.5 124.61 120 139.5C131 120.5 144.265 102.979 152 92.8898C155.315 89.0258 162.71 75.2682 176.5 79.3898Z" fill="black" stroke="black" stroke-linejoin="round"/>
</svg>
