<svg width="306" height="306" viewBox="0 0 306 306" fill="none" xmlns="http://www.w3.org/2000/svg">
<path d="M98.8293 247C89.2293 245.8 85.8293 238.833 85.3293 235.5H79.8294C73.8294 239.5 74.8336 249.833 76.0003 254C76.4003 248.8 78.1669 245 79.5003 245.5C77.9003 251.9 83.6627 258.74 85.8293 259.573C83.4293 255.173 83.1669 250.667 85.0003 250C90.2003 256 95.5003 256 95.5003 256C89.5003 252 86.8293 245.833 85.8293 241.5C89.8293 247.9 98.8293 247 98.8293 247Z" fill="black" stroke="black" stroke-linejoin="round"/>
<path d="M182.179 70.3762C181.437 82.2381 172.824 109.52 144.312 123.755C149.509 118.071 159.904 104.479 159.904 95.5827C151.242 104.973 132.35 126.569 117.5 132.5C111.5 123.755 97.6282 125.028 94.5644 135C90.1095 149.5 99 161 112.5 166.5C114.304 172.888 114.074 181.18 119.152 186.412C119.735 186.922 120.351 187.451 121 188C120.315 187.511 119.702 186.98 119.152 186.412C102.2 171.61 111.903 172.867 94.5644 154.5C99.462 160 98.346 174.035 93 177C96.2175 181.448 101.395 196.853 90.1095 204.563C93.327 209.259 97.98 220.725 90.852 229.028C82.5 236.5 67.7457 236.294 81.1994 203.081C75.012 201.845 66.3495 194.777 81.1994 176.391C75.7544 175.156 68.1314 168.385 81.1994 151.185C75.507 130.427 70.8045 83.276 97.5345 60.7385C124.264 38.201 167.082 39.486 185.149 42.9457C206.187 47.1469 242.916 72.4524 221.532 140.065C220.789 133.146 215.889 116.489 202.227 105.221C188.565 93.952 183.169 77.2958 182.179 70.3762Z" fill="black" stroke="black" stroke-linejoin="round"/>
<path d="M77.8291 233H86.8291" stroke="black" stroke-linejoin="round"/>
<path d="M77.8291 235H86.8291" stroke="black" stroke-linejoin="round"/>
</svg>
