<svg width="306" height="306" viewBox="0 0 306 306" fill="none" xmlns="http://www.w3.org/2000/svg">
<path d="M214.2 97.8965C213.7 95.6965 213.1 93.5965 212.4 91.4965C207.1 87.2965 201.5 84.5965 193 83.3965C170.1 80.2965 152 82.3965 132.7 86.5965C120.6 89.1965 123.1 130.997 118.4 136.497C117.6 133.697 113.7 122.297 100.9 123.896C88.8001 125.396 93.1001 148.997 93.1001 148.997L88.6001 150.997C80.6001 141.397 67.1001 129.597 77.9001 93.1965C88.7001 56.7965 137.6 37.7965 183.1 56.2965C190.9 59.4965 197.3 63.9965 202.4 68.6965C214.4 79.6965 220.6 83.2965 218.8 99.3965C218.2 104.797 215.8 104.997 214.2 97.8965Z" fill="black"/>
<path d="M198.3 80.6965C198.3 80.6965 168.8 125.897 113.8 111.897C113.8 111.897 103.1 84.9965 126.4 74.6965C149.7 64.3965 192.6 71.6965 198.3 80.6965Z" fill="black"/>
<path d="M195.2 81.2966C195.2 81.2966 199 91.7966 206.5 100.297C211.4 105.797 217.8 110.397 225.8 110.597C225.8 110.597 228.3 83.3966 210.5 72.7966C192.7 62.1966 195.2 81.2966 195.2 81.2966Z" fill="black"/>
<path d="M125.1 63.9965C125.1 63.9965 92.9 13.8965 64.6 50.1965C36.3 86.4965 67.2 181.297 50 209.797C50 209.797 69.7 195.497 74.9 167.497C74.9 167.497 75.5 179.097 72 195.297C72 195.297 92.9 171.197 92.9 142.297C92.9 113.397 113.8 71.3965 125.1 63.9965Z" fill="black"/>
<path d="M218.7 120.397C222.3 135.697 218.7 162.197 218.7 162.197C218.7 162.197 262.7 92.2967 227.1 65.7967C197.1 43.3967 132.4 66.1967 132.4 66.1967C132.4 66.1967 193.1 51.5967 205 79.4967C215.8 104.697 210.2 83.3967 213.6 98.3967C213.9 99.8967 218.2 118.297 218.7 120.397Z" fill="black"/>
</svg>
