<svg width="306" height="306" viewBox="0 0 306 306" fill="none" xmlns="http://www.w3.org/2000/svg">
<path d="M120.592 156.096C123.176 128.359 100.535 111.238 89.188 143.532C80.1269 120.945 71.7174 93.7644 89.188 81.7316C89.6236 73.0049 91.3056 64.9316 101.894 50.6441C118.622 21.8971 164.53 13.1703 180.939 16.7637C175.014 17.1743 161.778 24.3938 159.6 27.1316C175.282 18.9183 195.024 22.0684 199.235 25.4906C196.099 25.9012 183.714 29.7049 183.423 30.7316C193.181 29.9103 208.093 32.1641 208.819 34.2174C201.5 35.0387 196.186 40.7197 194.443 43.4575C202.459 37.7082 223.659 36.1316 234.086 41.5316C225.247 43.4575 212.74 45.3395 210.126 50.6441C220.581 47.3586 231.352 59.1997 232.659 61.9376C225.247 57.1316 220.436 59.1999 220.581 61.9376C239.4 76.7217 240.07 102.732 237.571 113.271C236.525 108.343 234.812 108.138 234.086 108.651C234.434 125.899 234.12 130.852 231.07 133.932C231.506 127.258 226.835 110.499 220.581 98.5316C208.629 75.6608 155.976 75.905 141.6 76.9316C127.224 77.9583 125.717 87.7316 128.894 93.7644C133.683 102.859 135.845 113.286 132.07 120.132C129.557 124.689 122.2 144.178 120.592 156.096C120.536 156.703 120.467 157.315 120.386 157.932C120.438 157.343 120.507 156.73 120.592 156.096Z" fill="black"/>
<path d="M89.188 143.532C100.783 110.532 124.172 129.132 120.386 157.932C121.403 146.296 129.423 124.932 132.07 120.132C135.845 113.286 133.683 102.859 128.894 93.7644C125.717 87.7316 127.224 77.9583 141.6 76.9316C155.976 75.905 208.629 75.6608 220.581 98.5316C226.835 110.499 231.506 127.258 231.07 133.932C234.12 130.852 234.434 125.899 234.086 108.651C234.812 108.138 236.525 108.343 237.571 113.271C240.07 102.732 239.4 76.7217 220.581 61.9376C220.436 59.1999 225.247 57.1316 232.659 61.9376C231.352 59.1997 220.581 47.3586 210.126 50.6441C212.74 45.3395 225.247 43.4575 234.086 41.5316C223.659 36.1316 202.459 37.7082 194.443 43.4575C196.186 40.7197 201.5 35.0387 208.819 34.2174C208.093 32.1641 193.181 29.9103 183.423 30.7316C183.714 29.7049 196.099 25.9012 199.235 25.4906C195.024 22.0684 175.282 18.9183 159.6 27.1316C161.778 24.3938 175.014 17.1743 180.939 16.7637C164.53 13.1703 118.622 21.8971 101.894 50.6441C91.3056 64.9316 89.6236 73.0049 89.188 81.7316C71.7174 93.7644 80.1269 120.945 89.188 143.532Z" stroke="black" stroke-linejoin="round"/>
</svg>
