<svg width="306" height="306" viewBox="0 0 306 306" fill="none" xmlns="http://www.w3.org/2000/svg">
<path d="M226.893 106.56C224.093 115.26 227.393 114.96 223.893 117.96C222.882 118.826 217.893 122.96 215.393 117.96C214.893 117.46 212.831 103.276 210.393 95.96C194.693 111.26 169.593 93.66 169.593 93.66C169.593 93.66 163.893 98.36 153.893 97.26C143.193 96.16 140.893 99.86 140.893 99.86C129.393 101.96 118.293 102.06 121.793 122.16C122.793 127.66 125.093 136.96 120.393 142.46C119.593 139.66 113.393 124.26 100.593 125.86C88.4925 127.36 83.8925 155.36 108.893 164.96C110.393 174.46 111.393 187.76 110.393 184.46C103.393 162.86 87.5925 165.36 80.9925 149.06C77.8925 141.26 78.3925 134.36 79.9925 129.26C81.5925 124.36 81.4925 119.06 79.8925 114.16C78.0925 108.46 76.6925 99.86 79.9925 89.46C85.5925 71.66 97.5925 67.56 100.693 65.46C103.793 63.36 102.293 44.16 123.993 38.16C141.293 33.36 154.293 43.46 158.093 42.76C161.893 42.06 188.493 24.56 208.993 41.06C228.793 57.06 221.393 75.96 221.393 75.96C221.393 75.96 233.693 85.46 226.893 106.56Z" fill="black"/>
</svg>
