<svg width="123" height="43" viewBox="0 0 123 43" fill="none" xmlns="http://www.w3.org/2000/svg">
<rect x="16.7112" y="24.8195" width="13" height="14" rx="6.5" fill="#2B2B2B"/>
<rect x="93.7112" y="24.8195" width="13" height="14" rx="6.5" fill="#2B2B2B"/>
<path d="M4.71115 13.8195C7.05535 11.4753 10.1458 9.7417 13.5938 8.61867M42.7112 13.8195C37.7969 8.90528 29.6031 6.67435 21.7112 7.12672M0.711151 7.81952L7.21115 11.3195M2.71115 4.81952L10.7112 9.81952M6.71115 2.81952L13.5938 8.61867M13.5938 8.61867C14.4464 8.34099 15.3208 8.10065 16.2112 7.89763M11.5938 0.819519L16.2112 7.89763M16.2112 7.89763C17.0324 7.71036 17.8673 7.55486 18.7112 7.43112M16.7112 0.819519L18.7112 7.43112M18.7112 7.43112C19.7013 7.28593 20.7037 7.18446 21.7112 7.12672M21.7112 2.81952V7.12672" stroke="#2B2B2B" stroke-width="3"/>
<path d="M117.711 16.8195C115.367 14.4753 112.276 12.7417 108.828 11.6187M79.7112 16.8195C84.6254 11.9053 92.8192 9.67435 100.711 10.1267M121.711 10.8195L115.211 14.3195M119.711 7.81952L111.711 12.8195M115.711 5.81952L108.828 11.6187M108.828 11.6187C107.976 11.341 107.102 11.1006 106.211 10.8976M110.828 3.81952L106.211 10.8976M106.211 10.8976C105.39 10.7104 104.555 10.5549 103.711 10.4311M105.711 3.81952L103.711 10.4311M103.711 10.4311C102.721 10.2859 101.719 10.1845 100.711 10.1267M100.711 5.81952V10.1267" stroke="#2B2B2B" stroke-width="3"/>
</svg>
