<svg width="120" height="36" viewBox="0 0 120 36" fill="none" xmlns="http://www.w3.org/2000/svg">
<rect x="17.9915" y="10.5" width="9" height="22" rx="4.5" fill="#2B2B2B"/>
<rect x="94.9915" y="10.5" width="9" height="22" rx="4.5" fill="#2B2B2B"/>
<path d="M5.50285 17.9823C6.5821 15.1182 8.45485 12.6224 10.8132 10.6031M35.5983 7.40429C30.0767 4.13606 22.8476 4.31226 16.7473 6.9359M0.345342 13.4352L6.65383 14.9278M0.934523 10.0482L8.92838 12.5384M3.43927 7.04793L10.8132 10.6031M10.8132 10.6031C11.3963 10.1038 12.0092 9.63361 12.647 9.19422M6.64307 3.80191L12.647 9.19422M12.647 9.19422C13.2353 8.78894 13.845 8.40983 14.4723 8.05819M10.6959 2.3774L14.4723 8.05819M14.4723 8.05819C15.2083 7.6456 15.9686 7.27081 16.7473 6.9359M15.319 2.8724L16.7473 6.9359" stroke="#2B2B2B" stroke-width="3"/>
<path d="M114.12 16.9823C113.04 14.1182 111.168 11.6224 108.809 9.60306M84.0243 6.40429C89.5458 3.13606 96.775 3.31226 102.875 5.9359M119.277 12.4352L112.969 13.9278M118.688 9.04825L110.694 11.5384M116.183 6.04793L108.809 9.60306M108.809 9.60306C108.226 9.10377 107.613 8.63361 106.976 8.19422M112.979 2.80191L106.976 8.19422M106.976 8.19422C106.387 7.78894 105.778 7.40983 105.15 7.05819M108.927 1.3774L105.15 7.05819M105.15 7.05819C104.414 6.6456 103.654 6.27081 102.875 5.9359M104.304 1.8724L102.875 5.9359" stroke="#2B2B2B" stroke-width="3"/>
</svg>
