<svg width="121" height="36" viewBox="0 0 121 36" fill="none" xmlns="http://www.w3.org/2000/svg">
<path d="M16.7112 12H25.7112V18.5C25.7112 20.9853 23.6965 23 21.2112 23C18.7259 23 16.7112 20.9853 16.7112 18.5V12Z" fill="#2B2B2B"/>
<path d="M93.7112 12H102.711V18.5C102.711 20.9853 100.696 23 98.2112 23C95.7259 23 93.7112 20.9853 93.7112 18.5V12Z" fill="#2B2B2B"/>
<path d="M4.71118 19C7.05538 16.6558 10.1459 14.9222 13.5938 13.7992M42.7112 19C37.7969 14.0858 29.6031 11.8548 21.7112 12.3072M0.711182 13L7.21118 16.5M2.71118 10L10.7112 15M6.71118 8L13.5938 13.7992M13.5938 13.7992C14.4464 13.5215 15.3208 13.2811 16.2112 13.0781M11.5938 6L16.2112 13.0781M16.2112 13.0781C17.0325 12.8908 17.8673 12.7353 18.7112 12.6116M16.7112 6L18.7112 12.6116M18.7112 12.6116C19.7013 12.4664 20.7038 12.3649 21.7112 12.3072M21.7112 8V12.3072" stroke="#2B2B2B" stroke-width="3"/>
<path d="M115.711 19C113.367 16.6558 110.277 14.9222 106.829 13.7992M77.7112 19C82.6254 14.0858 90.8192 11.8548 98.7112 12.3072M119.711 13L113.211 16.5M117.711 10L109.711 15M113.711 8L106.829 13.7992M106.829 13.7992C105.976 13.5215 105.102 13.2811 104.211 13.0781M108.829 6L104.211 13.0781M104.211 13.0781C103.39 12.8908 102.555 12.7353 101.711 12.6116M103.711 6L101.711 12.6116M101.711 12.6116C100.721 12.4664 99.7186 12.3649 98.7112 12.3072M98.7112 8V12.3072" stroke="#2B2B2B" stroke-width="3"/>
</svg>
