<svg width="121" height="40" viewBox="0 0 121 40" fill="none" xmlns="http://www.w3.org/2000/svg">
<rect x="17.7112" y="17.8195" width="9" height="22" rx="4.5" fill="#2B2B2B"/>
<rect x="94.7112" y="16.8195" width="9" height="22" rx="4.5" fill="#2B2B2B"/>
<path d="M4.71118 13.8195C7.05538 11.4753 10.1459 9.7417 13.5938 8.61867M42.7112 13.8195C37.7969 8.90528 29.6031 6.67435 21.7112 7.12672M0.711182 7.81952L7.21118 11.3195M2.71118 4.81952L10.7112 9.81952M6.71118 2.81952L13.5938 8.61867M13.5938 8.61867C14.4464 8.34099 15.3208 8.10065 16.2112 7.89763M11.5938 0.819519L16.2112 7.89763M16.2112 7.89763C17.0325 7.71036 17.8673 7.55486 18.7112 7.43112M16.7112 0.819519L18.7112 7.43112M18.7112 7.43112C19.7013 7.28593 20.7038 7.18446 21.7112 7.12672M21.7112 2.81952V7.12672" stroke="#2B2B2B" stroke-width="3"/>
<path d="M115.711 13.8195C113.367 11.4753 110.277 9.7417 106.829 8.61867M77.7112 13.8195C82.6254 8.90528 90.8192 6.67435 98.7112 7.12672M119.711 7.81952L113.211 11.3195M117.711 4.81952L109.711 9.81952M113.711 2.81952L106.829 8.61867M106.829 8.61867C105.976 8.34099 105.102 8.10065 104.211 7.89763M108.829 0.819519L104.211 7.89763M104.211 7.89763C103.39 7.71036 102.555 7.55486 101.711 7.43112M103.711 0.819519L101.711 7.43112M101.711 7.43112C100.721 7.28593 99.7186 7.18446 98.7112 7.12672M98.7112 2.81952V7.12672" stroke="#2B2B2B" stroke-width="3"/>
</svg>
