<svg width="123" height="37" viewBox="0 0 123 37" fill="none" xmlns="http://www.w3.org/2000/svg">
<rect x="18.7112" y="18.8195" width="9" height="14" rx="4.5" fill="#2B2B2B"/>
<rect x="95.7112" y="18.8195" width="9" height="14" rx="4.5" fill="#2B2B2B"/>
<path d="M4.71118 13.8195C7.05538 11.4753 10.1459 9.7417 13.5938 8.61867M42.7112 13.8195C37.7969 8.90528 29.6031 6.67435 21.7112 7.12672M0.711182 7.81952L7.21118 11.3195M2.71118 4.81952L10.7112 9.81952M6.71118 2.81952L13.5938 8.61867M13.5938 8.61867C14.4464 8.34099 15.3208 8.10065 16.2112 7.89763M11.5938 0.819519L16.2112 7.89763M16.2112 7.89763C17.0325 7.71036 17.8673 7.55486 18.7112 7.43112M16.7112 0.819519L18.7112 7.43112M18.7112 7.43112C19.7013 7.28593 20.7038 7.18446 21.7112 7.12672M21.7112 2.81952V7.12672" stroke="#2B2B2B" stroke-width="3"/>
<path d="M117.711 13.8195C115.367 11.4753 112.277 9.7417 108.829 8.61867M79.7112 13.8195C84.6254 8.90528 92.8192 6.67435 100.711 7.12672M121.711 7.81952L115.211 11.3195M119.711 4.81952L111.711 9.81952M115.711 2.81952L108.829 8.61867M108.829 8.61867C107.976 8.34099 107.102 8.10065 106.211 7.89763M110.829 0.819519L106.211 7.89763M106.211 7.89763C105.39 7.71036 104.555 7.55486 103.711 7.43112M105.711 0.819519L103.711 7.43112M103.711 7.43112C102.721 7.28593 101.719 7.18446 100.711 7.12672M100.711 2.81952V7.12672" stroke="#2B2B2B" stroke-width="3"/>
</svg>
