<svg width="343" height="536" viewBox="0 0 343 536" fill="none" xmlns="http://www.w3.org/2000/svg">
<mask id="path-1-inside-1_28_1" fill="white">
<path fill-rule="evenodd" clip-rule="evenodd" d="M134.857 269H211.143C211.143 269 211.143 307.684 216.74 338H270.335C310.419 338 344.14 368.482 342.593 408.536C341.321 441.455 336.727 479.634 324.103 508.447C315.651 527.736 294.522 536 273.463 536H71.5565C50.4971 536 29.3184 527.883 20.0522 508.971C4.85914 477.964 0.452698 438.124 0.0340062 404.703C-0.448234 366.21 32.4981 338 70.9943 338H129.26C134.857 307.684 134.857 269 134.857 269Z"/>
</mask>
<path fill-rule="evenodd" clip-rule="evenodd" d="M134.857 269H211.143C211.143 269 211.143 307.684 216.74 338H270.335C310.419 338 344.14 368.482 342.593 408.536C341.321 441.455 336.727 479.634 324.103 508.447C315.651 527.736 294.522 536 273.463 536H71.5565C50.4971 536 29.3184 527.883 20.0522 508.971C4.85914 477.964 0.452698 438.124 0.0340062 404.703C-0.448234 366.21 32.4981 338 70.9943 338H129.26C134.857 307.684 134.857 269 134.857 269Z" fill="#9C6458"/>
<path d="M211.143 269L219.143 269V261H211.143V269ZM134.857 269V261H126.857L126.857 269L134.857 269ZM216.74 338L208.873 339.452L210.081 346H216.74V338ZM342.593 408.536L334.599 408.227L342.593 408.536ZM324.103 508.447L331.43 511.657L324.103 508.447ZM20.0522 508.971L27.2361 505.451L20.0522 508.971ZM0.0340062 404.703L8.03338 404.603L0.0340062 404.703ZM129.26 338V346H135.919L137.127 339.452L129.26 338ZM211.143 261H134.857V277H211.143V261ZM224.607 336.548C221.902 321.894 220.524 305.045 219.832 291.716C219.487 285.083 219.315 279.383 219.229 275.348C219.186 273.331 219.164 271.732 219.153 270.643C219.148 270.099 219.146 269.682 219.144 269.404C219.144 269.265 219.143 269.161 219.143 269.093C219.143 269.06 219.143 269.035 219.143 269.019C219.143 269.011 219.143 269.006 219.143 269.003C219.143 269.001 219.143 269 219.143 269C219.143 268.999 219.143 268.999 219.143 268.999C219.143 269 219.143 269 211.143 269C203.143 269 203.143 269.001 203.143 269.002C203.143 269.002 203.143 269.003 203.143 269.004C203.143 269.006 203.143 269.008 203.143 269.012C203.143 269.018 203.143 269.026 203.143 269.037C203.143 269.059 203.143 269.09 203.143 269.13C203.143 269.211 203.144 269.328 203.144 269.479C203.146 269.783 203.149 270.227 203.154 270.8C203.165 271.945 203.188 273.605 203.232 275.689C203.321 279.854 203.498 285.72 203.853 292.547C204.56 306.139 205.981 323.79 208.873 339.452L224.607 336.548ZM216.74 346H270.335V330H216.74V346ZM270.335 346C306.558 346 335.945 373.36 334.599 408.227L350.587 408.844C352.334 363.604 314.279 330 270.335 330V346ZM334.599 408.227C333.337 440.901 328.778 477.843 316.775 505.236L331.43 511.657C344.677 481.424 349.306 442.008 350.587 408.844L334.599 408.227ZM316.775 505.236C310.138 520.384 292.952 528 273.463 528V544C296.093 544 321.164 535.087 331.43 511.657L316.775 505.236ZM273.463 528H71.5565V544H273.463V528ZM71.5565 528C52.0898 528 34.618 520.517 27.2361 505.451L12.8682 512.491C24.0188 535.249 48.9044 544 71.5565 544V528ZM27.2361 505.451C12.8365 476.063 8.4476 437.666 8.03338 404.603L-7.96537 404.803C-7.5422 438.581 -3.11822 479.865 12.8682 512.491L27.2361 505.451ZM8.03338 404.603C7.61651 371.328 36.1548 346 70.9943 346V330C28.8415 330 -8.51298 361.092 -7.96537 404.803L8.03338 404.603ZM70.9943 346H129.26V330H70.9943V346ZM134.857 269C126.857 269 126.857 269 126.857 268.999C126.857 268.999 126.857 268.999 126.857 268.999C126.857 269 126.857 269.001 126.857 269.003C126.857 269.006 126.857 269.011 126.857 269.019C126.857 269.035 126.857 269.06 126.857 269.093C126.857 269.161 126.857 269.265 126.856 269.404C126.855 269.682 126.852 270.099 126.847 270.643C126.836 271.732 126.815 273.331 126.772 275.348C126.685 279.383 126.513 285.083 126.168 291.716C125.476 305.045 124.099 321.894 121.393 336.548L137.127 339.452C140.019 323.79 141.44 306.139 142.147 292.547C142.502 285.72 142.679 279.854 142.768 275.689C142.812 273.605 142.835 271.945 142.846 270.8C142.851 270.227 142.854 269.783 142.856 269.479C142.856 269.328 142.857 269.211 142.857 269.13C142.857 269.09 142.857 269.059 142.857 269.037C142.857 269.026 142.857 269.018 142.857 269.012C142.857 269.008 142.857 269.006 142.857 269.004C142.857 269.003 142.857 269.002 142.857 269.002C142.857 269.001 142.857 269 134.857 269Z" fill="#150C0C" mask="url(#path-1-inside-1_28_1)"/>
<path d="M171.167 8L172.8 8.01074C241.811 8.80748 296.527 51.2163 296.527 104.495C296.527 119.724 297.673 130.763 298.787 145.44C299.903 160.136 301 174.603 301 189.137C301 219.713 282.227 246.81 256.176 266.493C230.13 286.172 197.524 297.865 171.278 297.999H171.25L171.221 298H170.779L170.75 297.999H170.722C144.476 297.865 111.87 286.172 85.8242 266.493C59.7726 246.81 41.0001 219.713 41 189.137C41 174.603 42.0969 160.136 43.2129 145.44C44.3275 130.763 45.4726 119.724 45.4727 104.495C45.4727 51.2163 100.189 8.80844 169.2 8.01172L170.833 8H171.167Z" fill="#9C6458" stroke="#150C0C" stroke-width="8"/>
</svg>
