<svg width="182" height="185" viewBox="0 0 182 185" fill="none" xmlns="http://www.w3.org/2000/svg">
<path d="M80.1169 138.286C74.8724 128.448 74.8928 126.484 71.9542 115.764C70.5666 110.645 68.781 105.636 69.5361 100.176C71.189 88.224 77.2395 79.2175 88.606 73.7175C97.5645 69.3695 107.196 67.2657 117.104 66.1536C126.556 64.9505 136.158 65.6113 145.346 68.0972C149.928 69.3895 154.397 71.1027 158.927 72.5052C160.784 73.1063 162.896 73.6874 164.467 72.2548C167.804 69.1992 169.416 59.4213 170.589 54.853C173.099 46.3674 174.446 38.3227 171.273 30.9292C169.069 25.7798 165.406 21.9127 159.468 20.6404C154.661 19.4635 149.617 19.6231 144.897 21.1012C143.591 21.522 143.112 21.1012 142.857 19.9691C142.448 18.1457 141.698 16.4131 140.643 14.8598C132.99 2.958 115.736 0.142846 104.401 9.0291C102.972 10.1411 102.533 9.95079 101.605 8.52819C100.262 6.36408 98.4436 4.5216 96.283 3.13507C94.1225 1.74854 91.674 0.852921 89.1161 0.513524C84.243 -0.206341 79.2848 -0.169152 74.4234 0.623727C64.9038 2.11646 57.8839 6.48445 55.0372 15.7614C55.0078 16.0059 54.9262 16.2416 54.7978 16.4531C54.6694 16.6646 54.4971 16.8472 54.2921 16.989C54.0871 17.1307 53.8539 17.2285 53.6078 17.2759C53.3618 17.3233 53.1083 17.3193 52.8639 17.2642C49.602 17.0001 46.3222 17.4837 43.283 18.6768C29.1005 24.4072 19.4686 33.9146 16.4485 48.7318C15.2241 54.7427 15.1118 60.7538 18.132 66.3841C18.8564 67.7566 18.5299 68.2274 17.2341 68.9387C3.15359 76.6328 -3.44793 93.1029 1.78635 107.469C4.37798 114.592 10.8571 121.495 20.7338 121.315C22.0296 121.315 22.2949 121.966 22.6724 122.917C25.3151 129.73 23.2744 144.647 26.6619 151.189C31.1105 159.755 32.7839 162.259 39.3956 169.352C42.1301 172.308 45.1707 173.71 50.0886 172.448C53.9659 170.444 57.6901 168.982 60.098 165.986C60.7613 165.035 60.7503 163.87 60.7095 162.297C58.8966 161.152 57.7496 160.174 56.118 158.791C50.7205 154.783 42.9055 145.556 39.3956 136.75C37.008 131.621 33.4573 118.099 35.498 111.436C37.6509 104.424 41.1097 101.689 43.7932 100.827C46.1444 99.9198 48.6583 99.4894 51.1834 99.5617C53.7085 99.634 56.1926 100.208 58.4859 101.248C63.4141 104.253 63.9242 106.307 66.0159 112.268C68.4442 125.532 68.8116 134.949 71.74 147.643C73.0358 153.273 74.4439 158.913 74.903 164.674C75.1581 167.92 76.7702 169.543 79.3618 170.975C83.3819 173.193 87.4938 175.247 91.6976 177.137C101.258 181.475 111.165 184.65 121.848 184.61C131.705 184.61 141.561 184.791 151.438 184.991C154.152 184.991 156.856 184.991 159.6 184.991C161.021 185.065 162.428 184.684 163.609 183.905C164.79 183.126 165.682 181.992 166.151 180.673C166.851 178.946 167.384 177.158 167.743 175.333C169.375 167.679 170.987 160.022 172.579 152.361C173.548 147.743 174.538 138.336 173.66 133.607C173.553 132.836 173.168 132.127 172.575 131.611C171.981 131.094 171.219 130.804 170.426 130.792C168.436 130.561 167.202 131.794 165.957 132.916C161.876 136.733 157.743 140.57 152.611 143.195C145.53 146.821 137.867 148.615 130.052 149.787C106.472 152.101 90.5956 150.157 80.1169 138.286Z" fill="#000"/>
</svg>
