<svg width="225" height="183" viewBox="0 0 225 183" fill="none" xmlns="http://www.w3.org/2000/svg">
<path d="M214.7 88.8252C217.42 88.9752 220.45 85.3952 220.26 82.0352C220.26 79.7352 220.26 79.0352 220.26 76.7452L220.14 73.2352C220.03 72.2352 220.04 71.7152 219.9 70.8352C219.821 69.8265 219.674 68.8242 219.46 67.8352C216.46 53.8352 208.91 42.6552 197.77 33.9452C186.63 25.2352 174.06 20.8152 160.14 19.4852C146.651 18.1411 133.047 20.405 120.72 26.0452C112.091 30.1178 104.055 35.3421 96.8304 41.5752C96.9315 41.9535 97.0585 42.3244 97.2104 42.6852C97.6544 43.425 97.791 44.3092 97.591 45.1484C97.391 45.9877 96.8703 46.7152 96.1404 47.1752C89.2343 52.8486 83.1998 59.5065 78.2304 66.9352C72.5496 75.0197 68.85 84.327 67.4304 94.1052C67.1704 96.0452 65.9704 96.5552 65.5704 98.4952C65.2416 100.166 65.0643 101.863 65.0404 103.565C64.8404 109.225 65.9004 114.755 66.6804 120.315C68.1304 130.725 71.0604 140.595 76.8804 149.475C81.6704 156.785 84.6604 161.615 89.4904 168.895C91.7292 172.432 94.2189 175.804 96.9404 178.985C98.1804 180.315 101.63 183.165 103.5 182.225C103.45 177.305 103.72 172.005 103.5 166.405C98.3912 162.894 92.9683 158.698 89 153.935C78.43 137.275 76.5104 130.605 76.8604 118.095C77.5804 107.095 86.1904 101.095 95.7304 102.645C98.6295 103.21 101.331 104.995 103.5 107C105.669 109.005 106.709 111.154 107.5 114C108.364 116.954 108.968 120.423 109 123.5C111.07 126.9 115.3 124.275 118.83 122.485C120.624 121.623 122.304 120.542 123.83 119.265C134.96 109.515 138.61 91.3852 136.14 75.5952C149 85.1752 206.79 88.3752 214.7 88.8252Z" fill="#000"/>
<path d="M101.74 23.8552C101.483 26.9526 100.577 29.9611 99.0804 32.6852C97.8604 32.1252 96.8004 32.6252 95.6904 33.1352C87.9773 36.7643 81.3377 42.3323 76.4204 49.2952C66.8804 62.2952 59.5104 76.1653 59.9904 92.9653C60.0704 95.5853 60.6204 97.9652 62.8804 99.5452C62.1904 102.765 62.3204 106.135 61.2904 109.295C58.4904 117.905 52.9904 123.965 44.0504 126.045C34.8604 128.185 26.3304 122.045 24.2304 112.195C23.7536 110.466 23.658 108.655 23.9504 106.885C24.2004 105.755 23.8904 105.315 22.7004 105.345C20.5762 105.371 18.4588 105.098 16.4104 104.535C9.08041 102.625 5.69042 97.1953 4.08042 90.3753C3.30706 87.4844 3.14595 84.464 3.60745 81.5073C4.06894 78.5506 5.14286 75.7229 6.76042 73.2052C7.49042 72.0652 7.07041 71.4652 6.38041 70.6352C2.24041 65.6352 -0.179583 59.8952 0.0104169 53.3652C0.300417 43.8152 10.1004 34.8952 19.6904 35.1952C22.4704 35.2852 22.4804 35.2852 22.5604 32.6352C22.8704 22.3252 28.1704 15.2453 37.0104 10.5553C42.4044 7.49004 48.6173 6.17615 54.7904 6.79524C55.0604 6.79524 55.3704 6.79524 55.5804 6.87524C58.0004 8.31524 59.6804 7.13524 61.6404 5.62524C65.7791 2.59611 70.6488 0.722078 75.7504 0.195249C76.0504 0.525249 76.3004 0.435242 76.5404 0.125242C81.7804 -0.314758 86.7904 0.34525 91.4304 3.05525C98.8204 7.35525 101.6 14.1152 101.81 22.2752C101.597 22.4784 101.47 22.7565 101.457 23.0511C101.444 23.3458 101.545 23.634 101.74 23.8552Z" fill="#000"/>
<path d="M62.88 99.5452C60.62 97.9252 60.07 95.5453 59.99 92.9653C59.51 76.1653 66.88 62.3252 76.42 49.2952C81.3372 42.3323 87.9768 36.7643 95.6899 33.1352C96.7999 32.6252 97.86 32.1352 99.08 32.6852C101.52 34.6852 102.79 37.4152 104.28 40.0352C104.364 40.4157 104.474 40.7899 104.61 41.1552C105.023 41.9135 105.124 42.8032 104.89 43.6346C104.657 44.4659 104.108 45.1731 103.36 45.6052C96.2171 50.984 89.9059 57.3861 84.63 64.6052C78.618 72.4463 74.5378 81.5933 72.72 91.3053C72.38 93.2253 72.34 95.1852 71.86 97.0952C71.6026 98.4516 70.932 99.6951 69.94 100.655C67.5288 101.096 65.0394 100.705 62.88 99.5452ZM65.08 88.5452V94.0952C65.052 94.4313 65.1566 94.7649 65.3716 95.0247C65.5865 95.2845 65.8946 95.4498 66.23 95.4852C66.97 95.5352 67.09 94.8453 67.06 94.2153C67.1414 93.1785 67.3154 92.151 67.58 91.1452C68.2946 85.3253 69.9353 79.6571 72.44 74.3552C78.2547 62.2925 86.7678 51.7299 97.32 43.4852C99.59 41.6752 99.69 41.2052 97.9 38.9252C97.43 38.3152 97.0799 38.2852 96.4399 38.6652C93.3822 40.3615 90.51 42.3724 87.87 44.6652C81.87 50.1652 77.3 56.8253 73.39 63.9053C69.15 71.6153 65.54 79.5752 65.08 88.5853V88.5452Z" fill="#000"/>
<path d="M65.0801 88.5853C65.5401 79.5853 69.1501 71.5853 73.3901 63.9253C77.3001 56.8453 81.8301 50.1853 87.8701 44.6853C90.5101 42.3924 93.3823 40.3815 96.4401 38.6853C97.0801 38.3053 97.4401 38.3353 97.9001 38.9453C99.6901 41.2253 99.5901 41.6953 97.3201 43.5053C86.7812 51.7475 78.2788 62.3028 72.4701 74.3553C69.9654 79.6571 68.3247 85.3253 67.6101 91.1453C67.3455 92.151 67.1715 93.1785 67.0901 94.2153C67.0901 94.8453 67.0001 95.5353 66.2601 95.4853C65.9285 95.4498 65.6235 95.2874 65.4091 95.0319C65.1947 94.7765 65.0875 94.448 65.1101 94.1153L65.0801 88.5853Z" fill="white"/>
</svg>
