<svg width="210" height="345" viewBox="0 0 210 345" fill="none" xmlns="http://www.w3.org/2000/svg">
<path d="M84.4656 96.9753C87.8356 100.085 92.6956 99.3353 95.8256 96.3753C101.676 90.8153 103.826 80.1353 97.9256 73.8553C97.516 73.3888 97.2141 72.8379 97.0412 72.2417C96.8684 71.6454 96.8289 71.0185 96.9256 70.4053C97.4456 66.0953 102.476 61.2353 106.806 60.7953C113.516 60.0953 119.366 62.4553 124.926 65.8653C130.766 69.4853 136.266 73.5953 142.766 75.9453C159.236 81.9453 175.376 80.3853 190.766 72.6153C206.416 64.7253 212.186 51.9153 208.216 34.8353C205.396 22.7053 197.556 14.3953 186.826 8.66526C180.326 5.18526 173.226 3.76527 165.916 3.26527C154.616 2.50527 143.666 3.60527 133.586 9.32527C133.244 9.58178 132.845 9.75056 132.423 9.81681C132.001 9.88307 131.569 9.84477 131.166 9.70527C123.446 6.83527 115.376 6.77527 107.326 7.04527C97.7664 7.3616 88.2688 8.70261 78.9956 11.0453C64.7437 14.4621 51.6162 21.5029 40.8856 31.4853C30.3256 41.4053 22.8856 53.3153 17.6956 66.8253C10.1056 86.7053 10.7956 106.325 18.8156 125.825C22.9556 135.895 28.8156 145.055 34.0656 154.525C35.6956 157.465 38.0656 160.095 38.8056 163.405C39.6871 167.867 39.7953 172.447 39.1256 176.945C37.7056 187.195 33.8156 196.565 28.9856 205.625C23.0356 216.775 16.3356 227.515 10.7756 238.875C4.14563 252.485 -0.494365 266.485 0.0456346 281.725C-0.136247 286.69 0.225912 291.659 1.12564 296.545C3.46564 310.625 11.8656 321.145 21.7056 330.595C28.2056 336.825 36.2656 340.455 45.1756 342.065C53.8756 343.645 62.5756 345.225 71.4856 344.065C80.7456 342.885 87.8856 338.495 92.0856 330.015C93.9924 326.154 95.6784 322.188 97.1356 318.135C101.846 305.135 100.286 292.965 91.2256 282.185C87.0356 277.185 82.6456 272.335 79.1656 266.775C76.2956 262.205 73.9856 257.325 74.4556 251.835C74.7518 246.476 76.6739 241.335 79.9656 237.095C89.8456 224.995 95.2856 213.205 96.2956 197.845C96.9056 188.475 98.5256 176.955 94.2056 168.695C91.7756 164.045 88.0056 160.255 82.7256 156.315C77.4456 152.375 69.1956 144.315 66.3256 139.905C60.1756 129.695 59.2556 126.355 57.4256 114.055C56.5856 108.435 58.0956 98.1253 64.9056 94.5353C71.6056 91.2053 78.8556 91.6653 84.4656 96.9753Z" fill="#000"/>
</svg>
