<svg width="170" height="181" viewBox="0 0 170 181" fill="none" xmlns="http://www.w3.org/2000/svg">
<path d="M26.8552 179.31C19.6565 180.445 12.3643 180.843 5.08765 180.5C4.87637 180.489 4.67594 180.401 4.5228 180.253C4.36966 180.104 4.27395 179.904 4.25307 179.69C3.1534 168.48 2.42683 165.44 3.48723 153.85C4.40035 146.77 3.57559 99.55 3.76214 93.85C4.02724 91.44 4.4298 83.85 4.74399 82.46C5.14655 80.53 5.13673 78.46 5.40183 76.51C6.74696 66.51 9.09358 56.66 14.6214 48.4C19.5895 40.98 20.7874 38.24 27.0811 31.4C29.0448 29.57 31.5583 26.97 33.2569 25.24C33.9736 24.51 35.8981 23.03 36.5559 22.35C43.7725 16.22 51.5291 12.09 60.1203 8.12999C72.8563 2.2117 86.9571 0.0166066 100.847 1.78998C113.902 3.23789 126.289 8.41727 136.577 16.73C147.053 25.34 154.132 36.33 157.048 49.95C157.25 50.9234 157.391 51.9086 157.471 52.9C157.618 53.77 157.598 54.28 157.706 55.29C157.706 55.29 168.507 159.43 163.804 162.74C159.101 166.05 136.684 173.015 136.684 173.015C136.684 173.015 145.325 165.825 148.957 159.515C151.529 154.942 153.766 149.535 155.339 144.515C159.267 132.275 158.56 114.385 156.812 100.515C155.192 87.6448 154.191 82.8348 150.921 69.0148C146.925 52.2748 126.405 44.83 126.405 44.83C126.405 44.83 66.7085 92.5 41.8284 92.83C29.6437 92.97 21.3274 99.31 23.3893 117.91C25.9225 132.68 31.9609 141.61 34.5726 144.78C38.4572 149.618 43.1043 153.46 48.1616 157C48.358 160.92 48.6526 169.88 48.6526 176" fill="#000"/>
</svg>
