<svg width="201" height="159" viewBox="0 0 201 159" fill="none" xmlns="http://www.w3.org/2000/svg">
<path d="M177.343 70.5652C169.948 65.7284 161.945 61.8918 153.543 59.1553C153.21 59.0484 152.849 59.0739 152.534 59.2266C152.219 59.3793 151.975 59.6474 151.853 59.9752C144.193 80.2052 85.3933 104.385 81.5933 98.9752C75.3433 89.9752 55.8033 91.9752 53.4333 103.975C53.4333 103.975 46.0733 132.455 77.4933 156.075C77.6492 156.194 77.7779 156.345 77.871 156.517C77.9641 156.689 78.0194 156.88 78.0333 157.075V157.355C78.0419 157.546 78.0105 157.737 77.9411 157.915C77.8716 158.093 77.7657 158.255 77.6301 158.389C77.4944 158.524 77.3321 158.629 77.1536 158.697C76.975 158.765 76.7842 158.795 76.5933 158.785C73.9433 158.635 67.8133 157.645 58.5933 152.385C46.9733 145.725 41.4433 129.495 42.7533 99.8953C43.9833 72.0253 44.7033 63.6153 52.9333 49.8953C59.6933 38.6253 71.8733 17.7053 125.933 16.6753C183.613 15.5753 186.723 62.4952 186.863 69.5752C186.872 69.8387 186.802 70.0988 186.663 70.3229C186.525 70.547 186.323 70.7252 186.083 70.8353C184.709 71.4863 183.2 71.8013 181.681 71.7544C180.161 71.7074 178.674 71.2998 177.343 70.5652Z" fill="#000"/>
<path d="M47.9037 47.2852C26.6137 47.4852 67.3237 85.4852 9.52372 116.485C27.2837 85.7652 16.4137 83.3752 2.31373 58.6052C-7.19627 37.2352 14.4137 6.60524 34.3137 5.48524C58.1037 4.15524 67.9837 24.3852 67.9837 24.3852C54.6637 34.2752 53.0837 40.5252 46.9037 48.7052" fill="#000"/>
<path d="M46.874 48.6953L51.874 52.3353C58.3283 43.27 66.1124 35.2296 74.964 28.4853L68.894 23.3453C59.7022 29.9894 52.1669 38.6643 46.874 48.6953Z" fill="white" stroke="#050504" stroke-width="3" stroke-linecap="round" stroke-linejoin="round"/>
</svg>
