<svg width="172" height="148" viewBox="0 0 172 148" fill="none" xmlns="http://www.w3.org/2000/svg">
<path d="M36.6217 99.5707C46.48 98.4206 53.0929 102.371 55.7482 108.571C58.2001 114.352 57.3048 124.962 66.8782 119.102C75.5665 113.792 68.567 96.6705 65.0571 88.23C85.2824 84.3497 86.9916 71.6089 86.9916 71.6089C96.2293 74.6691 114.766 69.0788 115.753 63.7584C125.382 67.3093 138.922 67.3271 148.564 63.8084C151.86 68.4587 150.518 71.6089 153.243 76.4966C170.355 71.4963 180.03 40.597 152.764 27.3461C155.888 12.9052 133.638 2.49457 123.383 13.1452C121.216 -3.4258 92.8618 -3.65582 88.9449 8.67496C80.0226 -0.465615 51.3023 2.35457 49.4609 18.5456C36.7438 12.6752 19.1534 29.0363 22.2564 43.4372C7.52493 45.6673 5.51054 51.9477 9.18324 65.1385C-4.24602 77.5693 -2.11972 92.0402 10.2006 100.951C4.74752 111.341 18.4917 125.87 26.6612 130C21.5744 109.499 27.3941 101.451 36.6217 99.5707Z" fill="#000"/>
</svg>
