<svg width="147" height="122" viewBox="0 0 147 122" fill="none" xmlns="http://www.w3.org/2000/svg">
<path d="M22.5149 121.699C-17.7651 60.3686 1.89491 21.1486 35.4249 6.16862C61.6749 -2.73138 94.4249 -0.291378 105.215 2.93862C125.215 8.93862 137.675 18.9386 140.675 26.6386C144.675 36.9286 148.675 57.2286 145.725 71.8586C144.725 63.5086 132.725 33.0786 132.725 33.0786C131.305 39.5286 100.775 53.3886 79.8649 54.5486C69.0649 55.1486 52.4149 50.6086 48.2649 49.2286C46.7649 48.7286 46.5649 48.9286 46.6349 49.8186C47.0949 55.5986 53.4549 73.4786 54.5149 79.1486C55.9349 86.7586 53.4049 105.279 53.4049 105.279C51.0649 105.449 44.3349 104.219 41.9049 103.829C41.2949 101.829 44.3349 96.5386 39.6449 85.2886C36.6449 78.0386 25.3849 79.7086 23.3949 80.9286C20.9892 82.4223 18.9682 84.4604 17.4949 86.8786C15.6549 89.8186 14.7149 105.699 24.4949 121.759L22.5149 121.699Z" fill="#000"/>
</svg>
