<svg width="170" height="142" viewBox="0 0 170 142" fill="none" xmlns="http://www.w3.org/2000/svg">
<path d="M147.761 62.7726C137.491 68.5926 98.1412 72.5226 86.2612 71.1826C80.7012 70.5526 69.9512 69.5226 63.4512 68.8026C63.2516 68.8107 63.0589 68.8784 62.8982 68.997C62.7374 69.1156 62.6158 69.2796 62.5491 69.4679C62.4824 69.6562 62.4736 69.8601 62.5239 70.0535C62.5741 70.2468 62.6812 70.4207 62.8312 70.5526C90.6012 88.8826 54.8912 131.233 53.0312 107.743C49.4112 88.4226 32.5212 95.4226 30.5212 96.6326C28.1117 98.1396 26.0933 100.196 24.6312 102.633C22.8212 105.523 21.8712 120.973 31.1512 136.793C31.2585 136.993 31.2942 137.224 31.2523 137.448C31.2105 137.672 31.0937 137.874 30.9212 138.023L27.5812 140.643C27.4743 140.72 27.3532 140.775 27.2249 140.805C27.0965 140.836 26.9635 140.84 26.8333 140.819C26.7032 140.798 26.5786 140.751 26.4667 140.681C26.3548 140.611 26.2577 140.52 26.1812 140.413C-18.5488 72.1626 13.5612 58.2826 18.3612 56.6626C18.5296 56.5971 18.6771 56.4872 18.788 56.3446C18.8989 56.202 18.9691 56.032 18.9912 55.8526C20.8812 36.7426 32.8512 14.7126 59.8112 10.5026C74.2912 8.09264 88.8712 10.6726 97.5612 14.1026H97.6312C108.221 17.5226 116.281 11.4926 125.741 2.40263C125.871 2.27808 126.025 2.18146 126.194 2.11871C126.363 2.05597 126.543 2.02843 126.723 2.0378C126.903 2.04716 127.079 2.09325 127.24 2.17319C127.401 2.25313 127.545 2.36524 127.661 2.50264C131.751 7.37264 131.541 10.8326 130.111 13.8226C130.05 13.9929 130.036 14.1766 130.071 14.3541C130.105 14.5317 130.188 14.6965 130.309 14.8309C130.43 14.9654 130.585 15.0645 130.758 15.1176C130.931 15.1707 131.115 15.1759 131.291 15.1326C139.881 11.9926 158.701 15.7226 165.881 10.6726C166.018 10.5892 166.173 10.5398 166.333 10.5286C166.492 10.5175 166.653 10.545 166.8 10.6087C166.947 10.6724 167.076 10.7705 167.178 10.8948C167.279 11.019 167.349 11.1657 167.381 11.3226C170.391 34.6126 161.931 54.9726 147.761 62.7726Z" fill="#000"/>
</svg>
