<svg width="91.9" height="49.3" viewBox="0 0 919 493" fill="none" xmlns="http://www.w3.org/2000/svg">
<rect y="380" width="751.8" height="113" rx="34" fill="#D8D8D8"/>
<rect y="361" width="751.8" height="113" rx="27" fill="#F2F2F2"/>
<path d="M448.674 0C667.239 0 844.422 142.118 844.422 317.429C844.422 329.111 843.634 340.645 842.101 352H834.689C774.739 237.023 622.24 155.321 443.582 155.321C267.108 155.321 116.159 235.038 54.7158 347.798C53.5328 337.803 52.9268 327.672 52.9268 317.429C52.9268 142.118 230.109 0.000132363 448.674 0Z" fill="#C13A3A"/>
<path d="M370.487 5C551.185 5.00019 697.67 148.733 697.67 326.036C697.67 337.851 697.02 349.516 695.752 361H45.2227C43.955 349.516 43.3037 337.851 43.3037 326.036C43.3037 148.733 189.789 5 370.487 5Z" fill="#DD6262"/>
<ellipse cx="843.82" cy="374.5" rx="75.18" ry="62.5" fill="#F2F2F2"/>
</svg>
