<svg width="394" height="385" viewBox="0 0 394 385" fill="none" xmlns="http://www.w3.org/2000/svg">
<mask id="path-1-outside-1_6_96" maskUnits="userSpaceOnUse" x="-0.325073" y="155.827" width="395" height="229" fill="black">
<rect fill="white" x="-0.325073" y="155.827" width="395" height="229"/>
<path fill-rule="evenodd" clip-rule="evenodd" d="M45.3316 239.229C51.1419 212.68 56.8531 186.582 67.777 164.186C67.4709 170.313 67.0052 176.148 66.496 182.529L66.496 182.529C66.3012 184.97 66.1 187.49 65.899 190.138C65.8282 191.07 65.7575 192.002 65.687 192.933C58.1722 195.817 52.6749 205.053 52.6749 216C52.6749 225.997 57.2595 234.567 63.7784 238.175C66.2688 286.761 113.315 325.37 159.204 340.309C158.387 351.686 157.067 364.45 154.935 376H96.6692C95.8169 376 94.9672 376.014 94.1206 376.041C60.6525 367.658 31.3702 354.867 10.6749 337.669C30.1038 308.813 37.8008 273.641 45.3316 239.229ZM299.992 376.101C333.559 367.719 362.931 354.908 383.675 337.669C364.39 304.469 356.679 268.255 349.442 234.268C343.667 207.15 338.195 181.449 327.386 159.827C327.663 167.612 328.225 174.654 328.854 182.526V182.526V182.527L328.854 182.528C329.049 184.969 329.25 187.49 329.451 190.138L329.451 190.139L329.462 190.291C329.541 191.32 329.619 192.348 329.696 193.376C336.676 196.679 341.675 205.561 341.675 216C341.675 225.463 337.568 233.646 331.601 237.554C329.512 285.741 283.556 324.206 238.099 339.659C238.912 351.198 240.242 364.23 242.415 376H296.01C297.345 376 298.672 376.034 299.992 376.101Z"/>
</mask>
<path fill-rule="evenodd" clip-rule="evenodd" d="M45.3316 239.229C51.1419 212.68 56.8531 186.582 67.777 164.186C67.4709 170.313 67.0052 176.148 66.496 182.529L66.496 182.529C66.3012 184.97 66.1 187.49 65.899 190.138C65.8282 191.07 65.7575 192.002 65.687 192.933C58.1722 195.817 52.6749 205.053 52.6749 216C52.6749 225.997 57.2595 234.567 63.7784 238.175C66.2688 286.761 113.315 325.37 159.204 340.309C158.387 351.686 157.067 364.45 154.935 376H96.6692C95.8169 376 94.9672 376.014 94.1206 376.041C60.6525 367.658 31.3702 354.867 10.6749 337.669C30.1038 308.813 37.8008 273.641 45.3316 239.229ZM299.992 376.101C333.559 367.719 362.931 354.908 383.675 337.669C364.39 304.469 356.679 268.255 349.442 234.268C343.667 207.15 338.195 181.449 327.386 159.827C327.663 167.612 328.225 174.654 328.854 182.526V182.526V182.527L328.854 182.528C329.049 184.969 329.25 187.49 329.451 190.138L329.451 190.139L329.462 190.291C329.541 191.32 329.619 192.348 329.696 193.376C336.676 196.679 341.675 205.561 341.675 216C341.675 225.463 337.568 233.646 331.601 237.554C329.512 285.741 283.556 324.206 238.099 339.659C238.912 351.198 240.242 364.23 242.415 376H296.01C297.345 376 298.672 376.034 299.992 376.101Z" fill="#4B301C"/>
<path d="M67.777 164.186L75.7671 164.585L60.5867 160.679L67.777 164.186ZM45.3316 239.229L53.1467 240.94L45.3316 239.229ZM66.496 182.529L74.4471 183.412L74.4608 183.289L74.4707 183.165L66.496 182.529ZM66.496 182.529L58.5449 181.646L58.5312 181.769L58.5214 181.893L66.496 182.529ZM65.899 190.138L73.876 190.743V190.743L65.899 190.138ZM65.687 192.933L68.5531 200.402L73.2822 198.588L73.6642 193.537L65.687 192.933ZM63.7784 238.175L71.7679 237.766L71.5404 233.328L67.6526 231.176L63.7784 238.175ZM159.204 340.309L167.184 340.882L167.632 334.64L161.681 332.702L159.204 340.309ZM154.935 376V384H161.593L162.802 377.452L154.935 376ZM94.1206 376.041L92.1768 383.802L93.2619 384.073L94.38 384.037L94.1206 376.041ZM10.6749 337.669L4.03889 333.201L-6.67572e-06 339.2L5.56184 343.822L10.6749 337.669ZM383.675 337.669L388.788 343.822L393.99 339.499L390.593 333.651L383.675 337.669ZM299.992 376.101L299.587 384.09L300.776 384.151L301.93 383.862L299.992 376.101ZM349.442 234.268L357.266 232.602L349.442 234.268ZM327.386 159.827L334.541 156.25L319.391 160.113L327.386 159.827ZM328.854 182.526H336.854V182.207L336.828 181.89L328.854 182.526ZM328.854 182.527H320.854V182.783L320.87 183.038L328.854 182.527ZM328.854 182.528L320.87 183.039L320.874 183.102L320.879 183.165L328.854 182.528ZM329.451 190.138L337.429 189.541L337.428 189.532L329.451 190.138ZM329.451 190.139L321.473 190.735L321.474 190.743L329.451 190.139ZM329.462 190.291L321.485 190.896L321.485 190.897L329.462 190.291ZM329.696 193.376L321.719 193.978L322.069 198.617L326.275 200.607L329.696 193.376ZM331.601 237.554L327.218 230.862L323.786 233.109L323.608 237.208L331.601 237.554ZM238.099 339.659L235.524 332.085L229.685 334.07L230.119 340.221L238.099 339.659ZM242.415 376L234.548 377.452L235.756 384H242.415V376ZM60.5867 160.679C49.1651 184.095 43.2798 211.184 37.5166 237.519L53.1467 240.94C59.0039 214.175 64.5411 189.069 74.9673 167.693L60.5867 160.679ZM74.4707 183.165C74.9784 176.803 75.4541 170.85 75.7671 164.585L59.787 163.787C59.4878 169.776 59.032 175.493 58.5214 181.892L74.4707 183.165ZM74.4471 183.412L74.4471 183.412L58.5449 181.645L58.5449 181.646L74.4471 183.412ZM73.876 190.743C74.0757 188.114 74.2757 185.608 74.4706 183.165L58.5214 181.893C58.3267 184.332 58.1244 186.867 57.922 189.532L73.876 190.743ZM73.6642 193.537C73.7346 192.606 73.8052 191.676 73.876 190.743L57.922 189.532C57.8512 190.464 57.7804 191.397 57.7098 192.33L73.6642 193.537ZM60.6749 216C60.6749 207.244 65.0601 201.743 68.5531 200.402L62.8209 185.465C51.2844 189.891 44.6749 202.862 44.6749 216H60.6749ZM67.6526 231.176C64.3039 229.323 60.6749 223.879 60.6749 216H44.6749C44.6749 228.116 50.2151 239.812 59.9041 245.175L67.6526 231.176ZM161.681 332.702C139.805 325.581 117.681 312.806 100.839 296.168C83.996 279.53 72.8823 259.507 71.7679 237.766L55.7888 238.585C57.1649 265.43 70.8197 289.004 89.5947 307.551C108.371 326.1 132.715 340.099 156.728 347.916L161.681 332.702ZM162.802 377.452C165.009 365.497 166.356 352.409 167.184 340.882L151.225 339.736C150.419 350.964 149.126 363.404 147.068 374.548L162.802 377.452ZM96.6692 384H154.935V368H96.6692V384ZM94.38 384.037C95.1402 384.012 95.9034 384 96.6692 384V368C95.7304 368 94.7942 368.015 93.8612 368.046L94.38 384.037ZM5.56184 343.822C27.5095 362.061 58.0487 375.253 92.1768 383.802L96.0644 368.281C63.2564 360.063 35.2309 347.674 15.788 331.516L5.56184 343.822ZM37.5166 237.519C29.9192 272.235 22.4663 305.832 4.03889 333.201L17.311 342.137C37.7412 311.793 45.6824 275.048 53.1467 240.94L37.5166 237.519ZM378.562 331.516C359.073 347.712 330.96 360.122 298.054 368.339L301.93 383.862C336.157 375.315 366.789 362.104 388.788 343.822L378.562 331.516ZM341.617 235.934C348.818 269.753 356.733 307.215 376.757 341.687L390.593 333.651C372.046 301.723 364.539 266.758 357.266 232.602L341.617 235.934ZM320.23 163.405C330.496 183.939 335.79 208.567 341.617 235.934L357.266 232.602C351.545 205.733 345.894 178.959 334.541 156.25L320.23 163.405ZM336.828 181.89C336.198 173.996 335.651 167.124 335.381 159.542L319.391 160.113C319.676 168.099 320.253 175.312 320.879 183.163L336.828 181.89ZM336.854 182.526V182.526H320.854V182.526H336.854ZM336.854 182.527V182.526H320.854V182.527H336.854ZM336.837 182.017L336.837 182.016L320.87 183.038L320.87 183.039L336.837 182.017ZM337.428 189.532C337.225 186.867 337.023 184.331 336.828 181.892L320.879 183.165C321.074 185.608 321.274 188.114 321.474 190.743L337.428 189.532ZM337.429 189.542L337.429 189.541L321.473 190.734L321.473 190.735L337.429 189.542ZM337.44 189.687L337.428 189.534L321.474 190.743L321.485 190.896L337.44 189.687ZM337.674 192.773C337.596 191.743 337.518 190.713 337.439 189.685L321.485 190.897C321.564 191.926 321.642 192.952 321.719 193.978L337.674 192.773ZM349.675 216C349.675 203.403 343.649 191.128 333.118 186.144L326.275 200.607C329.703 202.229 333.675 207.719 333.675 216H349.675ZM335.984 244.246C344.696 238.54 349.675 227.52 349.675 216H333.675C333.675 223.405 330.44 228.751 327.218 230.862L335.984 244.246ZM240.674 347.233C264.447 339.152 288.4 325.055 306.792 306.516C325.186 287.976 338.439 264.53 339.593 237.901L323.608 237.208C322.674 258.765 311.904 278.646 295.434 295.248C278.961 311.851 257.208 324.714 235.524 332.085L240.674 347.233ZM250.282 374.548C248.185 363.19 246.882 350.487 246.079 339.097L230.119 340.221C230.943 351.91 232.299 365.27 234.548 377.452L250.282 374.548ZM296.01 368H242.415V384H296.01V368ZM300.397 368.111C298.942 368.037 297.48 368 296.01 368V384C297.21 384 298.402 384.03 299.587 384.09L300.397 368.111Z" fill="#150C0C" mask="url(#path-1-outside-1_6_96)"/>
<mask id="path-3-outside-2_6_96" maskUnits="userSpaceOnUse" x="44.6328" y="0" width="306" height="181" fill="black">
<rect fill="white" x="44.6328" width="306" height="181"/>
<path fill-rule="evenodd" clip-rule="evenodd" d="M334.906 171.934C338.239 173.134 341.81 170.724 341.698 167.183C339.751 105.48 312.709 8 197.63 8C83.8531 8 56.1325 111.812 53.6382 166.359C53.4667 170.109 57.4178 172.537 60.8663 171.052C97.5289 155.267 160.118 148.917 220.832 152.001C249.923 129.684 265.287 86.2852 265.287 86.2852C265.287 86.2852 282.929 129.891 283.032 158.764C302.03 162.066 319.684 166.456 334.906 171.934Z"/>
</mask>
<path fill-rule="evenodd" clip-rule="evenodd" d="M334.906 171.934C338.239 173.134 341.81 170.724 341.698 167.183C339.751 105.48 312.709 8 197.63 8C83.8531 8 56.1325 111.812 53.6382 166.359C53.4667 170.109 57.4178 172.537 60.8663 171.052C97.5289 155.267 160.118 148.917 220.832 152.001C249.923 129.684 265.287 86.2852 265.287 86.2852C265.287 86.2852 282.929 129.891 283.032 158.764C302.03 162.066 319.684 166.456 334.906 171.934Z" fill="#4B301C"/>
<path d="M341.698 167.183L349.694 166.931V166.931L341.698 167.183ZM334.906 171.934L332.197 179.462V179.462L334.906 171.934ZM53.6382 166.359L45.6466 165.993L53.6382 166.359ZM60.8663 171.052L64.0299 178.4H64.0299L60.8663 171.052ZM220.832 152.001L220.427 159.991L223.366 160.14L225.702 158.349L220.832 152.001ZM265.287 86.2852L272.703 83.2848L264.788 63.722L257.745 83.6154L265.287 86.2852ZM283.032 158.764L275.032 158.793L275.056 165.498L281.662 166.646L283.032 158.764ZM333.702 167.435C333.666 166.284 334.281 165.283 335.046 164.755C335.777 164.25 336.741 164.092 337.615 164.407L332.197 179.462C340.416 182.419 349.998 176.564 349.694 166.931L333.702 167.435ZM197.63 16C252.46 16 285.508 39.0044 305.432 68.8906C325.678 99.2595 332.754 137.386 333.702 167.435L349.694 166.931C348.695 135.278 341.276 93.8123 318.745 60.0154C295.892 25.7357 257.879 0 197.63 0V16ZM61.6299 166.724C62.8376 140.312 70.1795 102.279 90.5955 71.1077C110.724 40.3759 143.69 16 197.63 16V0C137.794 0 100.011 27.5303 77.2109 62.3412C54.6987 96.7128 46.9331 137.859 45.6466 165.993L61.6299 166.724ZM57.7027 163.704C58.5238 163.351 59.4608 163.455 60.1927 163.921C60.984 164.425 61.6868 165.479 61.6299 166.724L45.6466 165.993C45.1709 176.395 55.8618 181.917 64.0299 178.4L57.7027 163.704ZM221.238 144.012C160.1 140.906 96.047 147.195 57.7027 163.704L64.0299 178.4C99.0107 163.339 160.136 156.928 220.427 159.991L221.238 144.012ZM225.702 158.349C241.537 146.2 253.294 128.647 260.983 114.62C264.87 107.53 267.81 101.17 269.784 96.5688C270.772 94.2654 271.521 92.3951 272.029 91.0852C272.283 90.43 272.476 89.9144 272.61 89.5542C272.676 89.3741 272.728 89.2328 272.764 89.1323C272.782 89.082 272.797 89.0419 272.807 89.0123C272.813 88.9975 272.817 88.9853 272.821 88.9757C272.822 88.9709 272.824 88.9668 272.825 88.9633C272.826 88.9616 272.826 88.9595 272.827 88.9586C272.827 88.9567 272.828 88.955 265.287 86.2852C257.745 83.6154 257.746 83.614 257.746 83.6127C257.746 83.6125 257.747 83.6114 257.747 83.611C257.747 83.6102 257.747 83.61 257.747 83.6105C257.747 83.6115 257.745 83.615 257.743 83.6212C257.739 83.6334 257.731 83.6559 257.719 83.6885C257.695 83.7535 257.657 83.8587 257.604 84.0019C257.498 84.2883 257.333 84.7269 257.11 85.302C256.664 86.4527 255.986 88.1472 255.079 90.2612C253.263 94.4952 250.544 100.379 246.953 106.929C239.688 120.181 229.218 135.485 215.963 145.654L225.702 158.349ZM265.287 86.2852C257.871 89.2856 257.87 89.285 257.87 89.2845C257.87 89.2845 257.87 89.2842 257.87 89.2843C257.87 89.2845 257.87 89.2854 257.871 89.2869C257.872 89.29 257.875 89.2957 257.878 89.3039C257.885 89.3205 257.895 89.3474 257.91 89.3845C257.94 89.4587 257.986 89.5734 258.046 89.7269C258.168 90.034 258.35 90.4962 258.583 91.0992C259.049 92.3055 259.72 94.0738 260.529 96.2909C262.148 100.73 264.308 106.943 266.468 114.03C270.857 128.427 274.985 145.6 275.032 158.793L291.032 158.736C290.976 143.055 286.231 123.988 281.773 109.364C279.51 101.941 277.253 95.4481 275.56 90.8085C274.714 88.4864 274.006 86.6225 273.507 85.3313C273.257 84.6856 273.06 84.1827 272.923 83.837C272.854 83.6641 272.801 83.5304 272.764 83.4378C272.746 83.3915 272.731 83.3554 272.721 83.3299C272.716 83.3171 272.712 83.3069 272.708 83.2994C272.707 83.2956 272.706 83.2925 272.705 83.2901C272.704 83.2889 272.704 83.2875 272.703 83.2869C272.703 83.2858 272.703 83.2848 265.287 86.2852ZM337.615 164.407C321.851 158.734 303.728 154.242 284.402 150.882L281.662 166.646C300.333 169.891 317.518 174.179 332.197 179.462L337.615 164.407Z" fill="#150C0C" mask="url(#path-3-outside-2_6_96)"/>
</svg>
