<svg width="309" height="532" viewBox="0 0 309 532" fill="none" xmlns="http://www.w3.org/2000/svg">
<mask id="path-1-outside-1_2_211" maskUnits="userSpaceOnUse" x="0" y="0" width="309" height="532" fill="black">
<rect fill="white" width="309" height="532"/>
<path fill-rule="evenodd" clip-rule="evenodd" d="M171 295.081C165.584 295.688 160.078 296 154.5 296C148.922 296 143.416 295.688 138 295.081V524H8V149.5V144H8.07331C10.1697 65.8599 57.2677 8 154.5 8C251.732 8 298.83 65.8599 300.927 144H301V149.5V524H171V295.081Z"/>
</mask>
<path fill-rule="evenodd" clip-rule="evenodd" d="M171 295.081C165.584 295.688 160.078 296 154.5 296C148.922 296 143.416 295.688 138 295.081V524H8V149.5V144H8.07331C10.1697 65.8599 57.2677 8 154.5 8C251.732 8 298.83 65.8599 300.927 144H301V149.5V524H171V295.081Z" fill="#4B301C"/>
<path d="M171 295.081H179V286.134L170.109 287.131L171 295.081ZM138 295.081L138.891 287.131L130 286.134V295.081H138ZM138 524V532H146V524H138ZM8 524H0V532H8V524ZM8 144V136H0V144H8ZM8.07331 144V152H15.8616L16.0704 144.215L8.07331 144ZM300.927 144L292.93 144.215L293.138 152H300.927V144ZM301 144H309V136H301V144ZM301 524V532H309V524H301ZM171 524H163V532H171V524ZM154.5 304C160.377 304 166.18 303.672 171.891 303.031L170.109 287.131C164.988 287.705 159.78 288 154.5 288V304ZM137.109 303.031C142.82 303.672 148.623 304 154.5 304V288C149.22 288 144.012 287.705 138.891 287.131L137.109 303.031ZM146 524V295.081H130V524H146ZM8 532H138V516H8V532ZM0 149.5V524H16V149.5H0ZM0 144V149.5H16V144H0ZM8.07331 136H8V152H8.07331V136ZM154.5 0C104.265 0 65.9629 14.9865 39.9489 41.0455C13.9842 67.0552 1.16529 103.19 0.0761847 143.785L16.0704 144.215C17.0777 106.67 28.856 74.8047 51.2724 52.3494C73.6397 29.9434 107.503 16 154.5 16V0ZM308.924 143.785C307.835 103.19 295.016 67.0552 269.051 41.0455C243.037 14.9865 204.735 0 154.5 0V16C201.497 16 235.36 29.9434 257.728 52.3494C280.144 74.8047 291.922 106.67 292.93 144.215L308.924 143.785ZM300.927 152H301V136H300.927V152ZM293 144V149.5H309V144H293ZM293 149.5V524H309V149.5H293ZM301 516H171V532H301V516ZM179 524V295.081H163V524H179Z" fill="#150C0C" mask="url(#path-1-outside-1_2_211)"/>
</svg>
