<svg width="482" height="470" viewBox="0 0 482 470" fill="none" xmlns="http://www.w3.org/2000/svg">
<mask id="path-1-outside-1_6_53" maskUnits="userSpaceOnUse" x="-0.999451" y="-0.999176" width="483" height="471" fill="black">
<rect fill="white" x="-0.999451" y="-0.999176" width="483" height="471"/>
<path fill-rule="evenodd" clip-rule="evenodd" d="M292.949 33.3703L235.882 13.0798C197.28 -0.645258 154.319 14.1716 132.384 48.7747C118.942 69.9804 100.292 87.3888 78.2114 99.3395L53.5298 112.698C30.5218 125.151 18.2348 151.076 23.1637 176.769L31.9642 222.644C36.1272 244.345 32.9856 266.813 23.0302 286.539L17.7702 296.962C-1.67336 335.489 8.60446 382.374 42.3819 409.234C46.5588 412.556 50.2264 416.471 53.2678 420.856L63.9858 436.309C67.5534 441.453 71.8512 445.936 76.687 449.658C88.5662 427.969 112.907 414.001 139.995 414.001H198.261C200.761 400.459 202.144 385.246 202.91 372.558C155.688 357.881 106.535 317.881 105.405 267.522C97.1866 265.3 91.0005 255.614 91.0005 244.001C91.0005 231.312 98.3864 220.922 107.739 220.059C107.896 218.023 108.053 216.06 108.206 214.145L108.206 214.143C109.099 202.959 109.857 193.45 109.857 181.109C109.857 124.278 168.284 80.7576 239.209 80.6145C239.268 80.6145 239.326 80.6142 239.385 80.6143L239.56 80.6142C310.486 80.7573 368.912 124.278 368.912 181.109C368.912 193.45 369.671 202.959 370.564 214.143C370.716 216.051 370.872 218.007 371.029 220.035C371.351 220.012 371.675 220.001 372.001 220.001C381.942 220.001 390.001 230.746 390.001 244.001C390.001 256.648 382.663 267.011 373.355 267.934C372.017 316.278 326.448 355.018 280.992 370.866C281.735 383.878 283.128 399.851 285.74 414.001H339.335C370.748 414.001 398.254 432.721 407.939 460.099C417.253 457.622 425.91 452.916 433.119 446.291L441.274 438.796C477.708 405.312 483.783 350.051 455.492 309.452C445.135 294.588 442.158 275.735 447.37 258.386C457.452 224.827 449.214 188.297 425.602 162.407L414.503 150.238C407.553 142.618 402.685 133.334 400.368 123.284L392.532 89.2938C387.01 65.3386 367.433 47.1757 343.132 43.4609L317.408 39.5285C309.078 38.2551 300.888 36.1931 292.949 33.3703Z"/>
</mask>
<path fill-rule="evenodd" clip-rule="evenodd" d="M292.949 33.3703L235.882 13.0798C197.28 -0.645258 154.319 14.1716 132.384 48.7747C118.942 69.9804 100.292 87.3888 78.2114 99.3395L53.5298 112.698C30.5218 125.151 18.2348 151.076 23.1637 176.769L31.9642 222.644C36.1272 244.345 32.9856 266.813 23.0302 286.539L17.7702 296.962C-1.67336 335.489 8.60446 382.374 42.3819 409.234C46.5588 412.556 50.2264 416.471 53.2678 420.856L63.9858 436.309C67.5534 441.453 71.8512 445.936 76.687 449.658C88.5662 427.969 112.907 414.001 139.995 414.001H198.261C200.761 400.459 202.144 385.246 202.91 372.558C155.688 357.881 106.535 317.881 105.405 267.522C97.1866 265.3 91.0005 255.614 91.0005 244.001C91.0005 231.312 98.3864 220.922 107.739 220.059C107.896 218.023 108.053 216.06 108.206 214.145L108.206 214.143C109.099 202.959 109.857 193.45 109.857 181.109C109.857 124.278 168.284 80.7576 239.209 80.6145C239.268 80.6145 239.326 80.6142 239.385 80.6143L239.56 80.6142C310.486 80.7573 368.912 124.278 368.912 181.109C368.912 193.45 369.671 202.959 370.564 214.143C370.716 216.051 370.872 218.007 371.029 220.035C371.351 220.012 371.675 220.001 372.001 220.001C381.942 220.001 390.001 230.746 390.001 244.001C390.001 256.648 382.663 267.011 373.355 267.934C372.017 316.278 326.448 355.018 280.992 370.866C281.735 383.878 283.128 399.851 285.74 414.001H339.335C370.748 414.001 398.254 432.721 407.939 460.099C417.253 457.622 425.91 452.916 433.119 446.291L441.274 438.796C477.708 405.312 483.783 350.051 455.492 309.452C445.135 294.588 442.158 275.735 447.37 258.386C457.452 224.827 449.214 188.297 425.602 162.407L414.503 150.238C407.553 142.618 402.685 133.334 400.368 123.284L392.532 89.2938C387.01 65.3386 367.433 47.1757 343.132 43.4609L317.408 39.5285C309.078 38.2551 300.888 36.1931 292.949 33.3703Z" fill="#4B301C"/>
<path d="M235.882 13.0798L238.562 5.54212H238.562L235.882 13.0798ZM292.949 33.3703L290.269 40.908L292.949 33.3703ZM132.384 48.7747L125.627 44.4916V44.4916L132.384 48.7747ZM78.2114 99.3395L82.0194 106.375L78.2114 99.3395ZM53.5298 112.698L57.3377 119.734L53.5298 112.698ZM23.1637 176.769L15.307 178.277L15.307 178.277L23.1637 176.769ZM31.9642 222.644L24.1075 224.152L31.9642 222.644ZM23.0302 286.539L15.8882 282.935H15.8882L23.0302 286.539ZM17.7702 296.962L24.9122 300.566L17.7702 296.962ZM42.3819 409.234L47.3612 402.973H47.3612L42.3819 409.234ZM53.2678 420.856L59.8414 416.297H59.8414L53.2678 420.856ZM63.9858 436.309L70.5594 431.75L63.9858 436.309ZM76.687 449.658L71.8075 455.998L79.214 461.699L83.7036 453.501L76.687 449.658ZM198.261 414.001V422.001H204.919L206.128 415.453L198.261 414.001ZM202.91 372.558L210.895 373.04L211.273 366.78L205.284 364.919L202.91 372.558ZM105.405 267.522L113.403 267.342L113.269 261.36L107.492 259.799L105.405 267.522ZM107.739 220.059L108.474 228.025L115.194 227.405L115.715 220.676L107.739 220.059ZM108.206 214.145L100.234 213.481L100.232 213.495L100.231 213.509L108.206 214.145ZM108.206 214.143L116.178 214.808L116.18 214.794L116.181 214.78L108.206 214.143ZM239.209 80.6145V72.6145H239.201L239.193 72.6145L239.209 80.6145ZM239.385 80.6143L239.377 88.6143L239.389 88.6143L239.385 80.6143ZM239.56 80.6142L239.577 72.6142L239.566 72.6142L239.556 72.6142L239.56 80.6142ZM370.564 214.143L362.589 214.779V214.779L370.564 214.143ZM371.029 220.035L363.053 220.653L363.666 228.577L371.595 228.015L371.029 220.035ZM373.355 267.934L372.565 259.973L365.553 260.668L365.358 267.713L373.355 267.934ZM280.992 370.866L278.358 363.312L272.661 365.299L273.005 371.322L280.992 370.866ZM285.74 414.001L277.873 415.453L279.082 422.001H285.74V414.001ZM407.939 460.099L400.397 462.767L402.859 469.728L409.995 467.83L407.939 460.099ZM433.119 446.291L427.705 440.401L427.705 440.401L433.119 446.291ZM441.274 438.796L446.687 444.686L441.274 438.796ZM455.492 309.452L448.928 314.025L455.492 309.452ZM447.37 258.386L439.708 256.084V256.084L447.37 258.386ZM425.602 162.407L419.691 167.798V167.798L425.602 162.407ZM414.503 150.238L408.592 155.629L414.503 150.238ZM400.368 123.284L408.164 121.487L400.368 123.284ZM392.532 89.2938L384.737 91.0908V91.0909L392.532 89.2938ZM343.132 43.4609L344.341 35.5528L343.132 43.4609ZM317.408 39.5285L316.199 47.4366L317.408 39.5285ZM233.202 20.6176L290.269 40.908L295.629 25.8325L238.562 5.54212L233.202 20.6176ZM139.141 53.0577C159.075 21.6098 198.12 8.14392 233.202 20.6176L238.562 5.54212C196.441 -9.43443 149.562 6.73345 125.627 44.4916L139.141 53.0577ZM82.0194 106.375C105.302 93.7738 124.968 75.4178 139.141 53.0577L125.627 44.4916C112.917 64.543 95.282 81.0037 74.4035 92.3039L82.0194 106.375ZM57.3377 119.734L82.0194 106.375L74.4035 92.3039L49.7218 105.663L57.3377 119.734ZM31.0204 175.262C26.7487 152.995 37.3974 130.526 57.3377 119.734L49.7218 105.663C23.6461 119.776 9.72087 149.157 15.307 178.277L31.0204 175.262ZM39.821 221.137L31.0204 175.262L15.307 178.277L24.1075 224.152L39.821 221.137ZM30.1723 290.144C40.924 268.839 44.3169 244.574 39.821 221.137L24.1075 224.152C27.9374 244.116 25.0471 264.787 15.8882 282.935L30.1723 290.144ZM24.9122 300.566L30.1723 290.144L15.8882 282.935L10.6282 293.358L24.9122 300.566ZM47.3612 402.973C16.5519 378.473 7.17726 335.708 24.9122 300.566L10.6282 293.358C-10.524 335.27 0.656999 386.275 37.4026 415.496L47.3612 402.973ZM59.8414 416.297C56.3545 411.27 52.1498 406.781 47.3612 402.973L37.4026 415.496C40.9678 418.331 44.0982 421.673 46.6942 425.416L59.8414 416.297ZM70.5594 431.75L59.8414 416.297L46.6942 425.416L57.4122 440.869L70.5594 431.75ZM81.5666 443.319C77.3762 440.094 73.652 436.209 70.5594 431.75L57.4122 440.869C61.4548 446.697 66.3261 451.779 71.8075 455.998L81.5666 443.319ZM83.7036 453.501C94.0636 434.585 115.581 422.001 139.995 422.001V406.001C110.232 406.001 83.0688 421.352 69.6705 445.816L83.7036 453.501ZM139.995 422.001H198.261V406.001H139.995V422.001ZM206.128 415.453C208.713 401.449 210.121 385.87 210.895 373.04L194.924 372.077C194.167 384.623 192.809 399.468 190.394 412.548L206.128 415.453ZM97.4068 267.701C98.0317 295.545 111.921 319.996 131.248 339.109C150.572 358.22 175.814 372.514 200.535 380.198L205.284 364.919C182.784 357.926 159.838 344.881 142.498 327.733C125.16 310.586 113.908 289.857 113.403 267.342L97.4068 267.701ZM83.0005 244.001C83.0005 257.824 90.4183 271.758 103.317 275.245L107.492 259.799C103.955 258.843 99.0005 253.404 99.0005 244.001H83.0005ZM107.003 212.093C91.8434 213.492 83.0005 229.131 83.0005 244.001H99.0005C99.0005 233.492 104.929 228.352 108.474 228.025L107.003 212.093ZM100.231 213.509C100.079 215.422 99.9211 217.395 99.7627 219.442L115.715 220.676C115.872 218.652 116.028 216.698 116.181 214.782L100.231 213.509ZM100.234 213.479L100.234 213.481L116.178 214.81L116.178 214.808L100.234 213.479ZM101.857 181.109C101.857 193.096 101.124 202.318 100.231 213.507L116.181 214.78C117.073 203.6 117.857 193.804 117.857 181.109H101.857ZM239.193 72.6145C165.973 72.7623 101.857 118.012 101.857 181.109H117.857C117.857 130.544 170.594 88.753 239.226 88.6145L239.193 72.6145ZM239.393 72.6143C239.348 72.6142 239.306 72.6143 239.277 72.6144C239.244 72.6145 239.227 72.6145 239.209 72.6145V88.6145C239.389 88.6145 239.261 88.6141 239.377 88.6143L239.393 72.6143ZM239.556 72.6142L239.381 72.6143L239.389 88.6143L239.565 88.6142L239.556 72.6142ZM376.912 181.109C376.912 118.012 312.797 72.7619 239.577 72.6142L239.544 88.6142C308.176 88.7526 360.912 130.544 360.912 181.109H376.912ZM378.538 213.506C377.646 202.318 376.912 193.096 376.912 181.109H360.912C360.912 193.804 361.697 203.6 362.589 214.779L378.538 213.506ZM379.005 219.418C378.848 217.379 378.691 215.413 378.538 213.506L362.589 214.779C362.742 216.688 362.897 218.636 363.053 220.653L379.005 219.418ZM372.001 212.001C371.486 212.001 370.973 212.019 370.464 212.055L371.595 228.015C371.729 228.006 371.864 228.001 372.001 228.001V212.001ZM398.001 244.001C398.001 235.81 395.521 228.086 391.128 222.23C386.735 216.372 380.054 212.001 372.001 212.001V228.001C373.888 228.001 376.208 229.003 378.328 231.83C380.451 234.66 382.001 238.937 382.001 244.001H398.001ZM374.144 275.895C389.216 274.4 398.001 258.831 398.001 244.001H382.001C382.001 254.466 376.111 259.621 372.565 259.973L374.144 275.895ZM283.626 378.42C307.39 370.135 331.248 355.862 349.45 337.167C367.657 318.465 380.612 294.881 381.352 268.155L365.358 267.713C364.76 289.331 354.261 309.289 337.986 326.005C321.704 342.728 300.05 355.749 278.358 363.312L283.626 378.42ZM273.005 371.322C273.756 384.472 275.173 400.825 277.873 415.453L293.607 412.548C291.083 398.877 289.714 383.284 288.979 370.41L273.005 371.322ZM285.74 422.001H339.335V406.001H285.74V422.001ZM339.335 422.001C367.651 422.001 391.937 438.852 400.397 462.767L415.481 457.431C404.571 426.591 373.846 406.001 339.335 406.001V422.001ZM427.705 440.401C421.458 446.142 413.955 450.221 405.883 452.368L409.995 467.83C420.55 465.023 430.362 459.69 438.532 452.181L427.705 440.401ZM435.861 432.906L427.705 440.401L438.532 452.181L446.687 444.686L435.861 432.906ZM448.928 314.025C474.93 351.34 469.347 402.13 435.861 432.906L446.687 444.686C486.069 408.493 492.635 348.762 462.056 304.878L448.928 314.025ZM439.708 256.084C433.796 275.762 437.169 297.149 448.928 314.025L462.056 304.878C453.101 292.028 450.519 275.709 455.032 260.688L439.708 256.084ZM419.691 167.798C441.399 191.6 448.985 225.207 439.708 256.084L455.032 260.688C465.92 224.448 457.029 184.994 431.513 157.016L419.691 167.798ZM408.592 155.629L419.691 167.798L431.513 157.016L420.414 144.847L408.592 155.629ZM392.572 125.081C395.198 136.471 400.716 146.992 408.592 155.629L420.414 144.847C414.391 138.243 410.171 130.197 408.164 121.487L392.572 125.081ZM384.737 91.0909L392.572 125.081L408.164 121.487L400.328 87.4967L384.737 91.0909ZM341.923 51.369C362.984 54.5885 379.951 70.3297 384.737 91.0908L400.328 87.4967C394.069 60.3475 371.882 39.7629 344.341 35.5528L341.923 51.369ZM316.199 47.4366L341.923 51.369L344.341 35.5528L318.616 31.6203L316.199 47.4366ZM290.269 40.908C298.686 43.9007 307.368 46.0867 316.199 47.4366L318.616 31.6203C310.788 30.4236 303.091 28.4856 295.629 25.8325L290.269 40.908Z" fill="#150C0C" mask="url(#path-1-outside-1_6_53)"/>
<path d="M216.873 143.207H240.504C280.755 143.207 313.385 110.577 313.385 70.3256C313.385 68.7917 312.196 67.5202 310.666 67.417L181.015 58.6706C180.466 58.6337 179.919 58.7479 179.431 59.001L84.003 108.52C83.0088 109.036 82.3848 110.063 82.3848 111.183V213.627C82.3848 215.014 83.5093 216.138 84.8963 216.138C100.936 216.138 116.367 210 128.024 198.983L165.358 163.699C179.282 150.539 197.714 143.207 216.873 143.207Z" fill="#4B301C"/>
<path d="M82.3848 216.138C100.037 216.138 117.02 209.383 129.849 197.258L165.358 163.699C179.282 150.539 197.714 143.207 216.873 143.207H238.385C279.806 143.207 313.385 109.022 313.385 67.6004" stroke="#150C0C" stroke-width="8"/>
</svg>
