<svg width="288" height="292" viewBox="0 0 288 292" fill="none" xmlns="http://www.w3.org/2000/svg">
<mask id="path-1-inside-1_1_849" fill="white">
<path fill-rule="evenodd" clip-rule="evenodd" d="M275.244 56.8274C324.618 30.1385 202.679 -28.6644 118.958 16.5907C100.479 26.5795 84.5176 38.8857 71.769 52.0765C71.2537 52.0558 70.7371 52.0454 70.2191 52.0454C31.4382 52.0454 0 110.509 0 182.627C0 217.083 7.17619 248.422 18.9008 271.757C19.2524 265.886 19.6716 260.016 20.0913 254.138C21.1465 239.361 22.2055 224.529 22.2055 209.495C22.2055 152.664 77.1435 109.143 143.835 109C143.89 109 143.945 109 144 109L144.165 109C210.856 109.143 265.794 152.664 265.794 209.495C265.794 224.529 266.854 239.361 267.909 254.138V254.138C268.795 266.544 269.678 278.912 269.929 291.33C281.017 266.242 288 229.703 288 189.022C288 137.179 276.659 92.0632 259.934 68.8012C264.209 64.1524 269.212 60.0879 275.244 56.8274Z"/>
</mask>
<path fill-rule="evenodd" clip-rule="evenodd" d="M275.244 56.8274C324.618 30.1385 202.679 -28.6644 118.958 16.5907C100.479 26.5795 84.5176 38.8857 71.769 52.0765C71.2537 52.0558 70.7371 52.0454 70.2191 52.0454C31.4382 52.0454 0 110.509 0 182.627C0 217.083 7.17619 248.422 18.9008 271.757C19.2524 265.886 19.6716 260.016 20.0913 254.138C21.1465 239.361 22.2055 224.529 22.2055 209.495C22.2055 152.664 77.1435 109.143 143.835 109C143.89 109 143.945 109 144 109L144.165 109C210.856 109.143 265.794 152.664 265.794 209.495C265.794 224.529 266.854 239.361 267.909 254.138V254.138C268.795 266.544 269.678 278.912 269.929 291.33C281.017 266.242 288 229.703 288 189.022C288 137.179 276.659 92.0632 259.934 68.8012C264.209 64.1524 269.212 60.0879 275.244 56.8274Z" fill="#4B301C"/>
<path d="M118.958 16.5907L122.762 23.6283L118.958 16.5907ZM275.244 56.8274L279.048 63.865V63.865L275.244 56.8274ZM71.769 52.0765L71.4471 60.0701L75.0297 60.2144L77.5214 57.6361L71.769 52.0765ZM18.9008 271.757L11.7524 275.349L25.1079 301.93L26.8865 272.236L18.9008 271.757ZM20.0913 254.138L12.1116 253.568L20.0913 254.138ZM143.835 109V101H143.826L143.818 101L143.835 109ZM144 109L143.991 117L144.004 117L144 109ZM144.165 109L144.182 101L144.171 101H144.161L144.165 109ZM267.909 254.138H275.909V253.853L275.888 253.568L267.909 254.138ZM267.909 254.138H259.909V254.423L259.929 254.708L267.909 254.138ZM269.929 291.33L261.931 291.492L277.246 294.564L269.929 291.33ZM259.934 68.8012L254.046 63.3862L249.636 68.1817L253.439 73.4712L259.934 68.8012ZM122.762 23.6283C162.077 2.37678 211.014 5.40773 244.329 17.2668C261.215 23.2776 272.457 30.9858 276.803 37.4032C278.82 40.381 278.801 42.1991 278.478 43.2717C278.095 44.5434 276.615 46.992 271.44 49.7897L279.048 63.865C286.216 59.9905 291.726 54.7633 293.798 47.8877C295.93 40.8128 293.831 34.0119 290.051 28.4309C282.804 17.7307 267.587 8.56244 249.694 2.19333C213.453 -10.7075 159.56 -14.4504 115.154 9.55306L122.762 23.6283ZM77.5214 57.6361C89.6915 45.0439 104.994 33.2332 122.762 23.6283L115.154 9.55306C95.9648 19.9257 79.3437 32.7275 66.0165 46.5169L77.5214 57.6361ZM70.2191 60.0454C70.6296 60.0454 71.0389 60.0536 71.4471 60.0701L72.0909 44.083C71.4684 44.058 70.8445 44.0454 70.2191 44.0454V60.0454ZM8 182.627C8 147.625 15.6463 116.334 27.6126 94.0807C39.7554 71.4995 55.1874 60.0454 70.2191 60.0454V44.0454C46.4699 44.0454 26.7923 61.8229 13.5208 86.503C0.0727769 111.511 -8 145.511 -8 182.627H8ZM26.0492 268.166C14.9772 246.129 8 216.06 8 182.627H-8C-8 218.106 -0.624779 250.715 11.7524 275.349L26.0492 268.166ZM26.8865 272.236C27.2349 266.418 27.6507 260.594 28.071 254.708L12.1116 253.568C11.6924 259.439 11.2699 265.355 10.9151 271.279L26.8865 272.236ZM28.071 254.708C29.123 239.975 30.2055 224.861 30.2055 209.495H14.2055C14.2055 224.197 13.17 238.746 12.1116 253.568L28.071 254.708ZM30.2055 209.495C30.2055 158.535 79.9549 117.137 143.852 117L143.818 101C74.332 101.149 14.2055 146.793 14.2055 209.495H30.2055ZM143.835 117C144.019 117 143.875 117 143.991 117L144.009 101C143.965 101 143.924 101 143.896 101C143.865 101 143.85 101 143.835 101V117ZM144.004 117L144.169 117L144.161 101L143.996 101L144.004 117ZM144.148 117C208.045 117.137 257.794 158.535 257.794 209.495H273.794C273.794 146.793 213.668 101.149 144.182 101L144.148 117ZM257.794 209.495C257.794 224.861 258.877 239.975 259.929 254.708L275.888 253.568C274.83 238.746 273.794 224.197 273.794 209.495H257.794ZM259.909 254.138V254.138H275.909V254.138H259.909ZM259.929 254.708C260.817 267.148 261.684 279.312 261.931 291.492L277.928 291.168C277.671 278.511 276.772 265.94 275.888 253.568L259.929 254.708ZM280 189.022C280 228.934 273.128 264.301 262.612 288.096L277.246 294.564C288.906 268.183 296 230.472 296 189.022H280ZM253.439 73.4712C268.739 94.7515 280 137.88 280 189.022H296C296 136.478 284.579 89.3748 266.43 64.1311L253.439 73.4712ZM271.44 49.7897C264.563 53.5068 258.869 58.141 254.046 63.3862L265.823 74.2161C269.549 70.1637 273.861 66.6691 279.048 63.865L271.44 49.7897Z" fill="#150C0C" mask="url(#path-1-inside-1_1_849)"/>
</svg>
