<svg width="369" height="455" viewBox="0 0 369 455" fill="none" xmlns="http://www.w3.org/2000/svg">
<path fill-rule="evenodd" clip-rule="evenodd" d="M17.4965 133.79C26.6049 62.5809 99.7988 8 187.888 8C266.214 8 309.496 55.5 309.496 82C330.996 82 359.496 115.493 359.496 156.5C359.496 162.065 359.684 168.97 359.899 176.878C361.622 240.325 365.098 368.277 287.496 385.5C278.312 387.538 269.423 389.341 260.825 391H228.736C226.563 379.23 225.234 366.199 224.421 354.659C270.947 338.843 317.996 298.918 317.996 249.137C317.996 247.757 317.987 246.378 317.968 245L317.996 245C327.938 245 335.996 234.255 335.996 221C335.996 207.745 327.938 197 317.996 197C317.03 197 316.082 197.102 315.157 197.297C314.272 186.213 313.524 176.751 313.524 164.495C313.524 107.664 255.098 64.1431 184.172 64L183.996 64.0001L183.902 64.0002L183.821 64.0004C112.895 64.1435 54.469 107.664 54.469 164.495C54.469 176.836 53.7101 186.345 52.8175 197.529C52.6515 199.61 52.4808 201.749 52.3095 203.975C49.0281 208.322 46.9965 214.345 46.9965 221C46.9965 226.17 48.2224 230.958 50.3079 234.875C50.1128 239.623 49.9965 244.375 49.9965 249.137C49.9965 299.615 98.3724 339.959 145.526 355.309C144.709 366.686 143.389 379.451 141.257 391H82.9908C74.573 391 66.4205 392.349 58.8249 394.859C58.8343 394.301 58.8392 393.747 58.8392 393.199C52.3882 384.5 41.9962 383.275 32.3881 390.5C17.9853 401.33 5.61482 386.578 8.38807 369.5C10.0778 363.363 11.8913 357.684 13.6547 352.162C18.7876 336.087 23.4965 321.34 23.4965 300.5C23.4965 292.074 22.1284 280.072 20.4638 265.468C16.5966 231.54 11.1289 183.572 17.4965 133.79Z" fill="#4B301C"/>
<path d="M17.4965 133.79L9.56112 132.775L9.56112 132.775L17.4965 133.79ZM309.496 82H301.496V90H309.496V82ZM359.899 176.878L351.902 177.096L351.902 177.096L359.899 176.878ZM287.496 385.5L289.23 393.31L289.23 393.31L287.496 385.5ZM260.825 391V399H261.59L262.341 398.855L260.825 391ZM228.736 391L220.869 392.452L222.078 399H228.736V391ZM224.421 354.659L221.846 347.085L216.007 349.07L216.441 355.222L224.421 354.659ZM317.968 245L317.977 237L309.859 236.991L309.969 245.108L317.968 245ZM317.996 245L317.988 253H317.996V245ZM315.157 197.297L307.182 197.933L307.906 207.006L316.811 205.124L315.157 197.297ZM184.172 64L184.188 56L184.178 56L184.168 56L184.172 64ZM183.996 64.0001L183.992 56.0001L183.986 56.0001L183.996 64.0001ZM183.902 64.0002L183.891 56.0002L183.888 56.0002L183.902 64.0002ZM183.821 64.0004L183.807 56.0004L183.805 56.0004L183.821 64.0004ZM52.8175 197.529L60.7922 198.166L60.7922 198.166L52.8175 197.529ZM52.3095 203.975L58.6947 208.795L60.1061 206.925L60.2859 204.589L52.3095 203.975ZM50.3079 234.875L58.3011 235.204L58.3903 233.034L57.3697 231.116L50.3079 234.875ZM145.526 355.309L153.505 355.883L153.954 349.64L148.002 347.702L145.526 355.309ZM141.257 391V399H147.915L149.124 392.452L141.257 391ZM58.8249 394.859L50.826 394.725L50.6372 405.991L61.3353 402.455L58.8249 394.859ZM58.8392 393.199H66.8392V390.556L65.265 388.433L58.8392 393.199ZM32.3881 390.5L37.1962 396.894L37.1962 396.894L32.3881 390.5ZM8.38807 369.5L0.675119 367.376L0.560636 367.792L0.491512 368.218L8.38807 369.5ZM13.6547 352.162L21.2756 354.595L21.2756 354.595L13.6547 352.162ZM20.4638 265.468L12.5152 266.374L12.5152 266.374L20.4638 265.468ZM187.888 8V0C97.0285 0 19.325 56.4412 9.56112 132.775L17.4965 133.79L25.4318 134.805C33.8847 68.7205 102.569 16 187.888 16V8ZM309.496 82H317.496C317.496 73.3392 314.029 63.8993 308.231 54.9183C302.364 45.8333 293.804 36.7227 282.81 28.6221C260.778 12.3874 228.701 0 187.888 0V8V16C225.402 16 254.129 27.3626 273.319 41.5029C282.937 48.5898 290.092 56.3229 294.789 63.5973C299.553 70.9757 301.496 77.4108 301.496 82H309.496ZM359.496 156.5H367.496C367.496 134.181 359.76 113.93 349.03 99.1687C338.61 84.8343 324.024 74 309.496 74V82V90C316.469 90 326.883 95.9123 336.088 108.576C344.983 120.814 351.496 137.812 351.496 156.5H359.496ZM359.899 176.878L367.896 176.661C367.68 168.714 367.496 161.932 367.496 156.5H359.496H351.496C351.496 162.197 351.688 169.226 351.902 177.096L359.899 176.878ZM287.496 385.5L289.23 393.31C332.992 383.597 352.542 342.807 361.282 300.128C370.113 257.006 368.754 208.233 367.896 176.661L359.899 176.878L351.902 177.096C352.768 208.971 354.008 255.897 345.607 296.918C337.116 338.382 319.603 370.18 285.763 377.69L287.496 385.5ZM260.825 391L262.341 398.855C270.99 397.187 279.954 395.369 289.23 393.31L287.496 385.5L285.763 377.69C276.67 379.708 267.857 381.496 259.31 383.145L260.825 391ZM228.736 391V399H260.825V391V383H228.736V391ZM224.421 354.659L216.441 355.222C217.264 366.91 218.62 380.27 220.869 392.452L228.736 391L236.603 389.548C234.506 378.19 233.204 365.487 232.401 354.097L224.421 354.659ZM317.996 249.137H309.996C309.996 271.382 299.492 291.918 282.905 309.074C266.307 326.241 244.044 339.539 221.846 347.085L224.421 354.659L226.996 362.234C251.324 353.964 275.849 339.391 294.407 320.196C312.976 300.99 325.996 276.672 325.996 249.137H317.996ZM317.968 245L309.969 245.108C309.987 246.452 309.996 247.795 309.996 249.137H317.996H325.996C325.996 247.719 325.986 246.304 325.967 244.892L317.968 245ZM317.996 245L318.005 237L317.977 237L317.968 245L317.959 253L317.988 253L317.996 245ZM335.996 221H327.996C327.996 226.064 326.447 230.34 324.324 233.171C322.204 235.998 319.884 237 317.996 237V245V253C326.05 253 332.73 248.629 337.124 242.771C341.516 236.914 343.996 229.191 343.996 221H335.996ZM317.996 197V205C319.884 205 322.204 206.002 324.324 208.829C326.447 211.66 327.996 215.936 327.996 221H335.996H343.996C343.996 212.809 341.516 205.086 337.124 199.229C332.73 193.371 326.05 189 317.996 189V197ZM315.157 197.297L316.811 205.124C317.199 205.042 317.593 205 317.996 205V197V189C316.467 189 314.965 189.161 313.503 189.47L315.157 197.297ZM313.524 164.495H305.524C305.524 177.102 306.298 186.849 307.182 197.933L315.157 197.297L323.132 196.661C322.247 185.577 321.524 176.399 321.524 164.495H313.524ZM184.172 64L184.156 72C252.787 72.1385 305.524 113.93 305.524 164.495H313.524H321.524C321.524 101.398 257.409 56.1477 184.188 56L184.172 64ZM183.996 64.0001L184 72.0001L184.176 72L184.172 64L184.168 56L183.992 56.0001L183.996 64.0001ZM183.902 64.0002L183.913 72.0002L184.007 72.0001L183.996 64.0001L183.986 56.0001L183.891 56.0002L183.902 64.0002ZM183.821 64.0004L183.835 72.0003L183.915 72.0002L183.902 64.0002L183.888 56.0002L183.807 56.0004L183.821 64.0004ZM54.469 164.495H62.469C62.469 113.93 115.206 72.1388 183.837 72.0003L183.821 64.0004L183.805 56.0004C110.584 56.1481 46.469 101.398 46.469 164.495H54.469ZM52.8175 197.529L60.7922 198.166C61.6844 186.986 62.469 177.19 62.469 164.495H54.469H46.469C46.469 176.482 45.7358 185.704 44.8429 196.893L52.8175 197.529ZM52.3095 203.975L60.2859 204.589C60.4562 202.376 60.626 200.248 60.7922 198.166L52.8175 197.529L44.8429 196.893C44.6769 198.972 44.5054 201.122 44.3331 203.361L52.3095 203.975ZM46.9965 221H54.9965C54.9965 215.914 56.5592 211.624 58.6947 208.795L52.3095 203.975L45.9242 199.155C41.497 205.021 38.9965 212.775 38.9965 221H46.9965ZM50.3079 234.875L57.3697 231.116C55.9314 228.414 54.9965 224.927 54.9965 221H46.9965H38.9965C38.9965 227.413 40.5135 233.501 43.2461 238.635L50.3079 234.875ZM49.9965 249.137H57.9965C57.9965 244.504 58.1096 239.864 58.3011 235.204L50.3079 234.875L42.3146 234.547C42.1159 239.382 41.9965 244.245 41.9965 249.137H49.9965ZM145.526 355.309L148.002 347.702C125.518 340.383 102.782 327.095 85.7861 309.79C68.7981 292.494 57.9965 271.693 57.9965 249.137H49.9965H41.9965C41.9965 277.058 55.3828 301.669 74.3711 321.002C93.3513 340.326 118.381 354.886 143.05 362.917L145.526 355.309ZM141.257 391L149.124 392.452C151.331 380.497 152.678 367.409 153.505 355.883L145.526 355.309L137.547 354.736C136.74 365.964 135.447 378.404 133.39 389.548L141.257 391ZM82.9908 391V399H141.257V391V383H82.9908V391ZM58.8249 394.859L61.3353 402.455C68.1228 400.212 75.4279 399 82.9908 399V391V383C73.7181 383 64.7182 384.486 56.3145 387.263L58.8249 394.859ZM58.8392 393.199H50.8392C50.8392 393.699 50.8347 394.208 50.826 394.725L58.8249 394.859L66.8238 394.993C66.8338 394.393 66.8392 393.795 66.8392 393.199H58.8392ZM32.3881 390.5L37.1962 396.894C40.7278 394.238 43.7535 393.599 45.9504 393.833C48.0696 394.059 50.3541 395.187 52.4135 397.964L58.8392 393.199L65.265 388.433C60.8733 382.511 54.7363 378.678 47.6447 377.923C40.6309 377.176 33.6566 379.537 27.5801 384.106L32.3881 390.5ZM8.38807 369.5L0.491512 368.218C-1.21462 378.724 1.54949 389.497 8.33889 396.171C11.8329 399.605 16.4643 401.965 21.8491 402.183C27.21 402.399 32.4521 400.461 37.1962 396.894L32.3881 390.5L27.5801 384.106C25.1227 385.954 23.4174 386.233 22.4947 386.196C21.5959 386.16 20.6076 385.795 19.5553 384.76C17.252 382.496 15.2175 377.354 16.2846 370.782L8.38807 369.5ZM13.6547 352.162L6.03378 349.728C4.27581 355.234 2.4141 361.061 0.675119 367.376L8.38807 369.5L16.101 371.624C17.7416 365.666 19.5068 360.135 21.2756 354.595L13.6547 352.162ZM23.4965 300.5H15.4965C15.4965 319.984 11.1556 333.688 6.03378 349.728L13.6547 352.162L21.2756 354.595C26.4196 338.486 31.4965 322.697 31.4965 300.5H23.4965ZM20.4638 265.468L12.5152 266.374C14.204 281.19 15.4965 292.642 15.4965 300.5H23.4965H31.4965C31.4965 291.507 30.0528 278.954 28.4123 264.562L20.4638 265.468ZM17.4965 133.79L9.56112 132.775C3.05508 183.64 8.65521 232.509 12.5152 266.374L20.4638 265.468L28.4123 264.562C24.5379 230.571 19.2028 183.504 25.4318 134.805L17.4965 133.79Z" fill="#4B301C" mask="url(#path-1-outside-1_2_151)"/>
<path d="M329.278 174.013L325.097 179.942C320.467 185.343 314.874 188.5 308.85 188.5C276.657 188.5 273.646 89 273.646 89C273.646 89 231.199 149 212.809 132.5C208.08 128.257 209.788 118.043 209.543 117.5C194.088 129.371 139.134 195.5 109.71 170.5C103.405 164 103.93 146.5 103.93 146.5C59.7939 188.5 57.6295 246.709 51.874 293C51.2117 298.327 50.8613 303.357 50.8613 308H32.9965V76.9998C32.9965 76.9998 174.319 36 191.266 36C208.213 36 370.637 103.216 329.278 174.013Z" fill="#4B301C"/>
<path d="M325.097 179.942C320.467 185.343 314.874 188.5 308.85 188.5C276.657 188.5 273.646 89 273.646 89C273.646 89 229.623 150 213.335 133C209.543 129.042 209.788 118.043 209.543 117.5C194.088 129.371 139.134 195.5 109.71 170.5C103.405 164 103.93 146.5 103.93 146.5C61.4839 186.892 57.6295 246.709 51.874 293" stroke="#4B301C" stroke-width="8" stroke-linejoin="round"/>
</svg>
