<svg width="277" height="96" viewBox="0 0 277 96" fill="none" xmlns="http://www.w3.org/2000/svg">
<path d="M89.5811 9.7207C71.1187 2.61825 47.8488 1.77578 27.4785 6.28516C12.1864 9.67045 2.94374 25.0168 5.77637 40.874C8.63885 56.8981 14.1931 69.8138 22.4482 78.6787C30.615 87.4486 41.6465 92.5 56.1104 92.5C78.7058 92.4999 91.5898 82.4771 98.5254 69.5977C105.608 56.4444 106.643 39.9657 104.521 27.3115C103.177 19.2984 97.4074 12.7316 89.5811 9.7207Z" stroke="#9A9A9A" stroke-width="7"/>
<path d="M187.419 9.7207C205.881 2.61825 229.151 1.77578 249.521 6.28516C264.814 9.67045 274.056 25.0168 271.224 40.874C268.361 56.8981 262.807 69.8138 254.552 78.6787C246.385 87.4486 235.353 92.5 220.89 92.5C198.294 92.4999 185.41 82.4771 178.475 69.5977C171.392 56.4444 170.357 39.9657 172.479 27.3115C173.823 19.2984 179.593 12.7316 187.419 9.7207Z" stroke="#9A9A9A" stroke-width="7"/>
<path d="M101 20C129.809 14.7121 147.942 14.6216 175 20" stroke="#9A9A9A" stroke-width="7"/>
</svg>
