<svg width="269" height="97" viewBox="0 0 269 97" fill="none" xmlns="http://www.w3.org/2000/svg">
<path d="M183.395 9.1582C202.511 1.49043 224.145 1.85252 243.487 8.81445C253.01 12.2421 260.215 20.3178 262.811 30.1885C267.713 48.8337 265.885 65.1512 257.595 76.2539C249.402 87.2266 234.199 94.0193 210.245 92.209C188.205 89.274 176.871 78.7757 171.306 66.5879C165.609 54.113 165.75 39.3864 167.776 28.0615C169.307 19.5055 175.235 12.431 183.395 9.1582Z" stroke="black" stroke-width="7"/>
<path d="M85.6055 9.1582C66.4885 1.49043 44.8553 1.85252 25.5127 8.81445C15.9896 12.2421 8.78487 20.3178 6.18945 30.1885C1.2869 48.8337 3.11541 65.1512 11.4053 76.2539C19.5981 87.2266 34.8013 94.0193 58.7549 92.209C80.7951 89.274 92.129 78.7757 97.6943 66.5879C103.391 54.113 103.25 39.3864 101.224 28.0615C99.6927 19.5055 93.7651 12.431 85.6055 9.1582Z" stroke="black" stroke-width="7"/>
<path d="M97 18.956C127.509 10.5226 143.41 10.9049 172 21" stroke="black" stroke-width="7"/>
</svg>
