<svg width="269" height="100" viewBox="0 0 269 100" fill="none" xmlns="http://www.w3.org/2000/svg">
<path d="M201.43 2.58496C212.216 0.8571 223.049 1.12699 234.58 3.87305C252.204 8.07031 265.948 22.7843 267.266 40.7139C267.993 50.615 267.023 60.6002 264.404 69.8789C260.136 85.0058 246.224 95.3407 230.436 97.5264C220.458 98.9077 210.02 98.9078 199.085 96.9531C181.048 93.7287 166.497 79.4954 163.635 61.46C162.986 57.3729 162.616 53.2323 162.523 49.0146C162.026 26.3215 178.999 6.17796 201.43 2.58496Z" stroke="#423636" stroke-width="3"/>
<path d="M67.5703 2.58496C56.7836 0.8571 45.9512 1.12699 34.4199 3.87305C16.7955 8.07031 3.05245 22.7843 1.73438 40.7139C1.00651 50.615 1.9774 60.6002 4.5957 69.8789C8.86434 85.0058 22.7764 95.3407 38.5645 97.5264C48.542 98.9077 58.9804 98.9078 69.915 96.9531C87.952 93.7287 102.503 79.4954 105.365 61.46C106.014 57.3729 106.384 53.2323 106.477 49.0146C106.974 26.3215 90.0006 6.17796 67.5703 2.58496Z" stroke="#423636" stroke-width="3"/>
<path d="M95 17C95 17 114.462 11 134.591 11C154.72 11 173 19 173 19" stroke="#423636" stroke-width="3"/>
</svg>
