<svg width="79" height="52" viewBox="0 0 79 52" fill="none" xmlns="http://www.w3.org/2000/svg">
<path d="M39.9316 4.00098C52.8409 4.03557 65.3195 5.28327 73.3965 7.46484C74.4545 7.75066 74.9057 8.4753 74.9482 9.03223C75.5144 16.4746 71.3791 26.268 64.2021 34.4121C57.0454 42.5332 47.7587 48 39.1377 48C30.8343 47.9999 21.8324 41.9174 14.7363 33.1924C11.2687 28.9288 8.445 24.2514 6.56152 19.8301C4.65015 15.3432 3.83587 11.4251 4.02734 8.5957C4.03496 8.4842 4.07301 8.34784 4.25 8.16309C4.44984 7.9545 4.80411 7.72136 5.2959 7.58594C14.1585 5.1466 27.0236 3.96641 39.9316 4.00098Z" fill="#F9ECEC" stroke="#150C0C" stroke-width="8"/>
</svg>
