<svg width="114" height="42" viewBox="0 0 114 42" fill="none" xmlns="http://www.w3.org/2000/svg">
<path d="M56.6133 4C69.7527 4 82.8357 4.49791 92.9561 5.48145C98.0304 5.9746 102.254 6.57993 105.331 7.27637C106.876 7.62611 108.018 7.97384 108.79 8.29199C109.016 8.38502 109.179 8.46349 109.293 8.52246C109.301 8.64873 109.296 8.84823 109.244 9.14551C109.095 9.99294 108.615 11.2492 107.607 12.8672C105.604 16.0834 101.983 19.981 97.0566 23.7734C87.1984 31.3631 72.9667 37.8857 58.2256 37.8857C43.4521 37.8857 28.3778 31.338 17.667 23.6875C12.3198 19.8681 8.29108 15.9362 5.99902 12.6797C4.84305 11.0373 4.27359 9.76966 4.07715 8.92871C4.03243 8.73722 4.01135 8.59283 4.00293 8.4873C4.11073 8.43365 4.25294 8.36764 4.43652 8.29199C5.20876 7.97377 6.35084 7.6262 7.89648 7.27637C10.9735 6.57994 15.1971 5.97459 20.2715 5.48145C30.3917 4.49794 43.4741 4.00001 56.6133 4Z" fill="#F9ECEC" stroke="#150C0C" stroke-width="8"/>
</svg>
