<svg width="136" height="109" viewBox="0 0 136 109" fill="none" xmlns="http://www.w3.org/2000/svg">
<path d="M20.5471 25.8322C13.1024 21.8098 9.10526 16.5002 5.06941 7.91974C4.23248 6.14037 1.70242 6.39118 1.43937 8.33987C-1.65504 31.2633 -6.55219 108.5 67.9631 108.5C141.437 108.5 137.703 31.9963 134.617 7.46987C134.361 5.43138 131.637 5.22089 130.809 7.10115C127.414 14.8102 122.84 20.0279 113.227 25.3433C109.316 27.5055 104.617 27.4958 100.437 25.9164C74.8805 16.2596 58.1425 15.8939 32.4649 26.0164C28.592 27.5432 24.2096 27.8111 20.5471 25.8322Z" fill="#323232"/>
<ellipse cx="69.4631" cy="43.5" rx="17" ry="12" fill="white"/>
<path d="M60.4631 41.5C63.4631 45.1667 71.2631 50.3 78.4631 41.5" stroke="#323232" stroke-width="4" stroke-linecap="round" stroke-linejoin="round"/>
</svg>
