<svg width="306" height="357" viewBox="0 0 306 357" fill="none" xmlns="http://www.w3.org/2000/svg">
<path d="M93.9995 204.5C100.999 200.125 112 196.167 116.5 197C116.5 208.2 116.334 314.333 99.0001 353H34.5003L35.9998 331C30.9998 330.5 27.4996 331 29.5003 311C30.582 300.188 31.0001 289.501 38.5001 289.501C39.5001 282.501 48.5989 233.434 58.9995 226.5C63.4995 223.5 89.9996 207 93.9995 204.5Z" fill="white" stroke="black" stroke-width="6" stroke-linecap="round"/>
<path d="M62.5 243C74.9 235 99 217.333 104.5 207.5L163 209.5L216 243C230.5 258 233.5 353.5 233.5 353.5C233.5 353.5 213.167 353.333 204 353.5H202.5H199.5H86H83H80.5H42.5C42.5 339.5 49.7 294.6 52.5 281C56 264 56.5 248 62.5 243Z" fill="black" stroke="black" stroke-width="6" stroke-linecap="round"/>
<path d="M93 309.5C90.5 286 76 246.167 65 241.5L76.5 233C104.1 264.2 95.5 305 93 309.5Z" fill="white" stroke="black" stroke-width="6" stroke-linecap="round"/>
<path d="M198.5 231C206.5 259 202.167 295.333 198 306.5C198 283.5 185 235.667 178 219L198.5 231Z" fill="white" stroke="black" stroke-width="6" stroke-linecap="round"/>
<path d="M89.8374 211.04L84.3373 214.04C83.3374 210.042 82.5126 203.541 83.3374 202.041C84.1622 200.542 101.838 188.207 104.337 189.04C106.836 189.873 109.336 196.04 109.336 196.04L106.836 198.54L102.836 194.54L88.6616 203.54L89.8374 211.04Z" fill="white" stroke="black" stroke-width="6" stroke-linecap="round"/>
</svg>
