<svg width="55" height="23" viewBox="0 0 55 23" fill="none" xmlns="http://www.w3.org/2000/svg">
<path d="M53.0671 8.99841C46.9092 6.91502 43.1695 4.70608 37.2846 3.16264C33.9419 2.28593 30.486 5.20485 27.0671 5.20832C23.5525 5.21188 20.0771 2.32372 16.804 3.16264C10.3583 4.81472 6.54082 6.91502 1.06714 8.99841" stroke="#2B2B2B" stroke-width="6"/>
<path d="M36.0671 12.9984C33.7019 17.1271 20.1543 16.8676 18.0671 12.9984" stroke="#2B2B2B" stroke-width="3"/>
<path d="M8.06714 4.99841L10.3237 20.0418C10.4859 21.1233 12.0175 21.197 12.2827 20.136L16.0671 4.99841" stroke="#2B2B2B" stroke-width="3"/>
<path d="M45.0671 4.99841L42.8106 20.0418C42.6484 21.1233 41.1168 21.197 40.8515 20.136L37.0671 4.99841" stroke="#2B2B2B" stroke-width="3"/>
</svg>
