<svg width="306" height="343" viewBox="0 0 306 343" fill="none" xmlns="http://www.w3.org/2000/svg">
<path d="M248.3 292.8C246.3 279.7 242.3 266.7 237.2 254.5C234.7 248.6 230.9 242.9 225.6 239.4C222.9 237.7 219.9 236.4 216.8 235.1C213.7 233.9 210.5 232.8 207.4 231.7C206.9 231.5 206.5 231.1 206.4 230.6C206 228.6 205.5 226.7 204.9 224.7C202.3 216.6 199.5 207.6 191.9 202.9C186.1 199.4 184.7 198.3 178 198C176.7 198 172.7 197.3 171.5 197.5L168.2 197.6C168.1 197.6 161.6 195.6 161.5 195.5C157 194 157.7 194.4 152.5 193C136.9 189.4 122 186 104.6 187.2C92 190.5 81.1 194.9 75.1 204.9C74.1 206.5 73.6 208.1 73.8 209.9C74 211.9 74.7 214.1 74.2 216.2C74 217.1 73.8 218.1 73.4 218.9C72.6 220 71.3 220.7 70.3 221.4C65.1 224.8 59.8 227.8 54.8 231.3C53.1 232.5 51.5 233.6 50.3 235.3C46.8 240.3 44.7 246.3 43.8 252.3C42.2 264.5 43.8 276.9 42.2 289.1C40.4 301.3 35.7 313.1 29.1 323.5C24.5 330.5 18.9 337 11.8 341.5L11.1 338.7H269.5L268.4 341.2C265.4 337.8 263 334.1 260.8 330.2C254 318.8 250 305.9 248.3 292.8ZM251.3 292.4C252.4 300.9 254.5 309.3 257.7 317.3C260.9 325.2 264.9 332.9 270.5 339.4C271.3 340.3 270.6 342 269.4 341.9H11C10.2 341.9 9.5 341.2 9.5 340.4C9.5 339.8 9.8 339.3 10.3 339.1C11.9 338.2 13.5 336.9 15 335.6C28.1 323.8 36.3 306.3 39 288.9C41.3 272.6 37 255 44.3 239.5C46 235.9 48.1 232.1 51.5 229.8C57.7 225.2 64.4 222 70.5 217.5C70.5641 217.453 71 217 71 217C71.6 215.6 71.3 215 71.1 213.4C70.8 211.4 70.3 208.7 71 206.6C71.3 205.4 71.9 204.3 72.5 203.4C79.7 192.6 92.4 187.8 104.5 185.1C108.5 184.6 111.4 184.6 114.8 184.6C119.5 184.6 124.3 185.3 129 185.9C142.5 188 155.5 191.6 168.8 194.5L167.9 194.4C171 193.8 173.9 194.1 176.9 194.5C196.1 197.4 202.6 205.8 207.8 223.7C208.4 225.7 208.9 227.7 209.4 229.8L208.4 228.6C218 232 228.8 235.1 234.9 244C237.1 246.7 238.7 249.9 240.1 253.1C245.2 265.9 249.2 278.8 251.3 292.4Z" fill="black"/>
<path d="M249.8 292.6C247.9 277.8 239.5 252.9 234.4 246.2C228.8 238.9 226.5 236.6 207.8 230.3C206.8 225.3 203.1 212.7 198.7 207.4C192 197.3 173.7 195 168.2 196.2C168.2 196.2 138.6 185.8 104.5 185.8C93.6996 188.2 81.1996 193.1 74.3996 203.4C69.7996 210.2 74.9996 212.4 72.6996 218.6C72.0996 220.2 58.0996 228.2 52.3996 233C49.7996 235.1 46.8996 240.4 44.8996 247.3C40.8996 261.4 45.1996 280.9 40.1996 297.9C30.5996 330.7 11.0996 340.5 11.0996 340.5H269.5C269.3 340.4 253.9 323.8 249.8 292.6Z" fill="white"/>
<path d="M92.2006 226.8C99.6006 242.6 111.101 256 124.801 266.6C126 268 127 268.5 124.201 267.5C112.001 261.7 101.701 251.8 95.6006 239.8C93.6006 235.8 91.9006 231.5 91.3006 227C91.1087 225.561 91.5005 225.5 92.2006 226.8Z" fill="black"/>
<path d="M209.5 230.5C207.5 247.5 203.5 262.7 190.5 273.5C190 274 188.5 274.5 188.5 274.5C188.5 274.5 189.2 273.8 189.5 273.5C192.4 270.7 194.7 267.901 196.9 264.501C201.5 257.901 204.3 250.101 205.6 242.201C206.2 238.301 207 235 207.5 230.5C208 228.5 209.4 228.5 209.5 230.5Z" fill="black"/>
<path d="M74.0353 219C78.5352 239 93.7352 255 110.835 265.9C116.635 269.6 122.135 272.9 128.535 275.5C129.057 275.712 129.635 276.4 129.635 276.4C129.635 276.4 129.635 276.5 128.035 276C121.435 273.6 115.735 271.4 109.735 267.8C97.5352 260.6 86.8352 250.6 79.6352 238.4C75.9352 232.1 73.4352 225.7 72.0352 218.5C71.8352 217.3 72.5352 216 73.035 216C73.535 216 73.9353 217.7 74.0353 219Z" fill="black"/>
<path d="M60.1998 340.4C60.1998 340.4 59.2998 318.1 56.2998 312.1" stroke="black" stroke-width="3" stroke-miterlimit="10" stroke-linecap="round" stroke-linejoin="round"/>
<path d="M236.7 290.6C236.7 290.6 242.3 322 240.1 340.4" stroke="black" stroke-width="3" stroke-miterlimit="10" stroke-linecap="round" stroke-linejoin="round"/>
<path d="M220.6 320.8C220.6 320.8 205.8 323 192.8 322.4Z" stroke="black" stroke-width="2" stroke-miterlimit="10" stroke-linecap="round" stroke-linejoin="round"/>
<path d="M158.5 280.5C158.833 278.333 160.8 274.2 166 275C172.5 276 162.5 280.5 158.5 280.5ZM158.5 280.5C157 277.5 153 271.9 149 273.5C144 275.5 155 281.135 158.5 280.5Z" stroke="black" stroke-width="4" stroke-linecap="round"/>
<path d="M157 281C152.833 282.5 144.9 287.6 146.5 296C148.1 304.4 143.5 310.833 141 313" stroke="black" stroke-width="4" stroke-linecap="round"/>
<path d="M159 281C163.167 282.5 171.1 287.6 169.5 296C167.9 304.4 161 316.833 163.5 319" stroke="black" stroke-width="4" stroke-linecap="round"/>
</svg>
