<svg width="306" height="343" viewBox="0 0 306 343" fill="none" xmlns="http://www.w3.org/2000/svg">
<path d="M116.5 220.8C116.5 220.8 114.5 208.4 111.1 209.1C103 211 76.8004 216.5 60.8004 225.1C57.3004 227 54.8004 228.5 51.8004 231.3C46.3004 236.5 42.5004 250 37.9004 266.4C28.1004 301.5 16.4004 340.3 16.4004 340.3H269.3C269.3 340.3 253.5 321.4 248.5 288C243.8 256.6 234.5 245.3 232.9 243.3C228.5 237.8 208.3 226.7 198.5 222.5C183.5 216.1 168.4 229.5 164.1 229.2C156.5 229 116.5 220.8 116.5 220.8Z" fill="black" stroke="black" stroke-width="5.1257" stroke-miterlimit="10" stroke-linecap="round" stroke-linejoin="round"/>
<path d="M65.9004 340.4L61.4004 303.3" stroke="white" stroke-width="2" stroke-miterlimit="10" stroke-linecap="round" stroke-linejoin="round"/>
<path d="M240.601 290.7C240.601 290.7 237.601 298 238.501 305.3C239.401 312.6 242.001 323.3 238.301 340.4" stroke="white" stroke-width="2" stroke-miterlimit="10" stroke-linecap="round" stroke-linejoin="round"/>
<path d="M110.058 192.49C110.058 192.49 103.261 195.081 102.033 196.475C100.806 197.87 100.24 198.767 100.24 198.767C100.24 198.767 96.8411 202.751 94.953 212.415C94.1033 216.499 96.0858 223.174 94.5754 228.454C90.2327 243.098 110.813 265.613 144.799 278.862C170.571 288.924 198.987 279.759 202.952 260.831C206.728 242.6 204.462 234.332 202.669 228.454C199.081 217.097 197.948 213.909 193.134 209.526C190.113 206.736 188.036 212.514 176.707 215.802C173.214 216.798 168.966 217.595 163.491 217.794C130.921 219.089 130.166 198.268 125.257 192.789C124.124 191.594 117.704 189.601 110.058 192.49Z" fill="white"/>
<path d="M111.553 193.053C109.099 194.058 106.267 195.062 104.095 196.669C103.529 197.272 102.868 198.175 102.302 198.878C100.414 201.49 99.1863 204.804 98.2422 207.917C97.2038 211.231 96.8262 214.244 97.2038 217.759C97.3926 220.873 97.6758 224.287 97.015 227.401C95.8822 230.916 96.1654 234.632 97.487 238.147C105.039 258.835 141.196 278.821 161.303 280.829C176.03 282.436 196.516 278.118 202.086 261.748C204.918 250.098 206.051 237.444 201.897 226.095C200.292 221.274 198.97 215.952 195.949 212.035C195.477 211.432 194.911 210.83 194.345 210.227L193.495 209.424C193.212 209.223 193.023 209.022 192.74 209.022C191.512 208.821 190.002 210.127 188.869 210.83C180.373 216.755 169.8 218.261 159.793 217.86C149.786 217.659 139.024 214.445 132.794 205.607C129.678 201.69 128.262 196.669 125.43 192.752L125.336 192.652L125.147 192.551C120.805 190.643 115.707 191.346 111.553 193.053ZM110.798 190.844C115.707 188.936 121.843 187.932 126.563 190.744C127.79 191.949 128.546 193.756 129.301 195.363C130.717 198.577 132.039 201.69 133.927 204.502C139.496 213.441 150.07 216.353 159.699 216.353C166.212 216.454 172.915 215.851 179.051 213.642C182.167 212.537 185.093 211.03 187.831 209.122C189.719 207.817 192.362 205.808 194.439 207.917C196.799 209.926 198.782 212.537 200.103 215.349C202.274 220.27 203.785 225.292 205.39 230.413C208.222 240.959 206.9 252.006 204.635 262.451C198.782 280.729 177.163 285.449 161.115 283.641C141.479 281.432 112.497 265.062 100.414 248.39C96.3542 242.666 92.6725 235.435 94.4661 228.003C95.5046 224.789 95.2213 221.375 94.9381 217.86C94.4661 214.345 94.9381 210.528 96.071 207.114C97.015 203.699 98.6199 199.883 100.508 197.372C101.452 196.066 102.585 194.56 103.906 193.857C106.078 192.652 108.343 191.547 110.798 190.844Z" fill="black"/>
<path d="M175.701 223.8C167.101 225.7 158.301 225.7 149.601 225C138.001 224 126.201 220.2 117.901 211.7C115.801 209.7 113.901 207.3 112.001 205.4C111.401 204.8 111.401 203.8 112.001 203.2C112.601 202.6 113.701 202.6 114.201 203.3C116.101 205.7 117.701 207.9 119.601 210C129.201 220.8 144.301 223.9 158.201 223.5C163.801 223.3 169.501 222.8 174.901 221C176.901 220.3 177.801 223.3 175.701 223.8Z" fill="black"/>
<path d="M187.601 222.3C192.101 227 194.501 233.6 194.201 240.1C194.201 240.4 193.701 240.5 193.601 240.2C192.201 235.7 190.601 231.4 188.501 227.3C187.801 225.9 187.101 224.5 186.501 223.1C186.401 222.4 187.201 221.9 187.601 222.3Z" fill="black"/>
<path d="M118.622 249.428C114.396 244.48 112.375 237.754 113.044 231.282C113.061 230.982 113.566 230.911 113.649 231.216C114.791 235.789 116.144 240.173 118.008 244.385C118.627 245.823 119.246 247.26 119.766 248.692C119.826 249.397 118.999 249.85 118.622 249.428Z" fill="black"/>
<path d="M108 192C98.9995 192 86.9227 218.3 85.4995 221C75.1995 233.3 78.4763 250.6 77.2763 266.4C76.8763 272.5 76.7763 278.7 77.2763 284.8L77.5763 289.4C78.2763 296.8 77.5763 304.4 75.0763 311.4C74.0763 314.2 72.8763 316.9 71.6763 319.8C70.9763 321.4 70.4763 323.8 71.9763 325.2C72.4763 325.9 73.5763 326.1 74.4763 326.4C75.3763 326.7 76.1763 327.2 76.6763 328C77.4763 329.7 79.2763 331.2 81.2763 330.8C82.7763 330.4 84.3763 331.1 85.4763 332.2C86.5763 333.7 88.0763 335 90.0763 334.7C91.3763 334.4 92.6763 334.2 93.9763 334.9C94.4763 335.1 94.8763 335.5 95.2763 335.8C96.4763 336.5 97.9763 336.3 99.0763 335.6C99.8763 335.1 100.076 334.6 100.776 334.3C101.776 333.8 103.076 333.7 104.176 334.1C106.676 334.9 108.476 332.7 109.276 330.7C109.976 329.2 111.876 328.9 113.376 329.1C114.476 329.1 115.576 328.7 116.576 328.2C120.876 325.8 123.676 321.3 124.276 316.4C124.576 311.7 123.976 307.1 123.276 302.5C122.776 299.5 122.076 296.4 121.076 293.5C119.976 290.6 118.576 288 117.376 285.1C112.876 274.1 108.676 262.2 109.476 250.1C110.276 241.8 113.376 234 117.276 226.7C117.676 225.8 118.676 224.2 117.276 223.7C111.776 222.4 112.2 222.2 107.5 219C106.7 218.7 108 203 108 192Z" fill="black"/>
<path d="M107.499 193C92.999 203 74.876 245 78.676 289.5C80.576 311.5 69.8759 320.6 72.2759 324.1C72.6759 324.7 73.1759 325 73.576 325.1C75.276 325.5 76.876 326.3 77.676 327.9C77.976 328.6 78.476 329.1 79.176 329.5C79.776 329.9 80.476 329.9 81.076 329.8C83.1759 329.3 85.4759 330.5 86.7759 332.3C87.2759 333 87.8759 333.5 88.7759 333.7C89.3759 333.9 89.976 333.8 90.376 333.7C92.076 333.2 93.976 333.7 95.476 334.9C95.876 335.2 96.2759 335.4 96.7759 335.4C97.6759 335.4 98.376 335 98.976 334.4C100.376 333.1 102.376 332.6 104.376 333.3C104.576 333.4 104.676 333.4 104.876 333.4C106.276 333.6 107.376 332.5 108.176 330.6C108.976 328.8 110.876 328 112.876 328.2C113.276 328.2 113.676 328.2 114.176 328.1C118.076 327.2 123.076 321.8 123.176 315.2C123.276 308.7 121.776 297.4 119.276 292.1C111.576 275.8 107.9 264.3 107.5 255.5C106.7 239.4 116 224.8 115 224.5C113.499 209.5 107.499 193 107.499 193Z" fill="white"/>
<path d="M92.2664 299.914C88.2664 288.114 90.2664 275.214 92.8664 263.314C95.2664 251.714 97.3664 239.614 95.9664 227.814C95.7664 227.014 97.0664 226.614 97.2664 227.514C98.9664 239.614 97.2664 251.814 95.0664 263.714C93.8664 269.614 92.9664 275.514 92.8664 281.414C92.7664 287.114 93.0664 293.114 95.1664 298.514C95.8664 300.514 93.1664 301.814 92.2664 299.914Z" fill="black"/>
</svg>
