<svg width="306" height="378" viewBox="0 0 306 378" fill="none" xmlns="http://www.w3.org/2000/svg">
<path d="M200.5 370.5C184.5 372.5 128.03 374 128.03 374L105 238.875C105 238.875 140.5 208 173.5 217C206.5 226 216.5 368.5 200.5 370.5Z" fill="black" stroke="black" stroke-width="6" stroke-linecap="round"/>
<path d="M81.3284 215.754L41 238.772C61.7403 261.789 61.1642 338.515 58.2836 374H136.06V266L119.5 236C119.5 236 172.5 212.5 179 219.5C185.5 226.5 183.5 242.5 183.5 242.5L171 266L185.5 372L234 368.246C231.5 349.5 232.08 273.298 234 238.772L187.91 210L81.3284 215.754Z" fill="white" stroke="black" stroke-width="6" stroke-linecap="round"/>
<path d="M107.444 194.964C120.84 189.201 146.481 176.521 176.333 194.963C189.728 205.528 218.815 231.845 228 252.592C211.593 250.762 178.885 249.942 171.853 263.82L171 266C171.217 265.236 171.504 264.51 171.853 263.82L180 243L182.074 212.251L109.5 220L136.148 266.999C121.796 263.157 89.0741 256.626 73 261.236L78.7407 218.014L107.444 194.964Z" fill="white" stroke="black" stroke-width="6" stroke-linecap="round"/>
<path d="M86 308L96.7143 322L111 311.5" stroke="black" stroke-width="6" stroke-linecap="round"/>
<path d="M194.316 303.746L208.583 314.102L219.275 299.959" stroke="black" stroke-width="6" stroke-linecap="round"/>
<path d="M111 310.426L85.2092 308C81.4084 332.287 81.8162 335.237 91.9962 336.379C109.643 338.359 108.964 337.039 111 310.426Z" stroke="black" stroke-width="6" stroke-linecap="round"/>
<path d="M218.968 298.93L193.559 303.972C196.854 328.334 198.087 331.044 208.169 329.23C225.646 326.087 224.619 325.016 218.968 298.93Z" stroke="black" stroke-width="6" stroke-linecap="round"/>
<path d="M33.9998 374C15.1998 266.8 31.1665 240 41.4998 240C61.4997 242.8 66.8332 330.5 67 374H33.9998Z" fill="white" stroke="black" stroke-width="6" stroke-linecap="round"/>
<path d="M261.193 367.335C258.5 255.497 245 241.001 234 239C232 256.5 230.5 353.497 234 367.997L261.193 367.335Z" fill="white" stroke="black" stroke-width="6" stroke-linecap="round"/>
</svg>
