<svg width="306" height="352" viewBox="0 0 306 352" fill="none" xmlns="http://www.w3.org/2000/svg">
<path d="M229.101 240.7C221.501 233.8 197.201 223 179.001 218.6C171.001 216.7 152.201 211.2 137.901 209.8C130.201 209 116.001 210.9 107.101 211.2C98.5006 211.5 69.5006 217.4 55.6006 227.2C52.6006 229.3 39.2006 242.6 33.4006 276.7C28.9006 303 23.3006 337.1 23.1006 348.7H251.001C254.801 280.9 237.001 247.9 229.101 240.7Z" fill="black"/>
<mask id="mask0_29_1163" style="mask-type:alpha" maskUnits="userSpaceOnUse" x="23" y="209" width="229" height="140">
<path d="M229.101 240.7C221.501 233.8 197.201 223 179.001 218.6C171.001 216.7 152.201 211.2 137.901 209.8C130.201 209 116.001 210.9 107.101 211.2C98.5006 211.5 69.5006 217.4 55.6006 227.2C52.6006 229.3 39.2006 242.6 33.4006 276.7C28.9006 303 23.3006 337.1 23.1006 348.7H251.001C254.801 280.9 237.001 247.9 229.101 240.7Z" fill="black"/>
</mask>
<g mask="url(#mask0_29_1163)">
<path d="M61 218C78.8333 222.833 149 231.4 215 225" stroke="white" stroke-width="5" stroke-linecap="round"/>
<path d="M45 231.5C96.5 245 174 249.5 240 239" stroke="white" stroke-width="5" stroke-linecap="round"/>
<path d="M36 249C96 269.5 189 268 249 254.5" stroke="white" stroke-width="5" stroke-linecap="round"/>
<path d="M31 269C95.5 294.5 200 290.5 257 274" stroke="white" stroke-width="5" stroke-linecap="round"/>
<path d="M24 288C88.5 313.5 206.5 314 262 293" stroke="white" stroke-width="5" stroke-linecap="round"/>
<path d="M21 308C85.5 333.5 205 337 260.5 316" stroke="white" stroke-width="5" stroke-linecap="round"/>
<path d="M21 334C85.5 359.5 203.5 360 259 339" stroke="white" stroke-width="5" stroke-linecap="round"/>
</g>
<path d="M227.4 242.6C222.8 238.7 216.9 235.7 211.4 233.1C202.8 229 193.8 225.5 184.6 222.8C175.4 220.3 165.8 217.9 156.6 215.7C150.4 214.3 144.1 213.1 137.8 212.4C131.7 211.9 125.1 212.6 118.9 213C114.2 213.4 109.3 213.6 104.5 214C90.5002 215.9 76.3002 219.6 63.5002 225.6C61.1002 226.8 58.8002 228 56.7002 229.6C51.4002 234.4 47.6002 241.1 44.6002 247.6C39.7002 258.4 37.0002 270.2 35.2002 281.9C33.7002 291.1 31.9002 301.4 30.5002 310.6C28.6002 323.2 26.4002 336 25.8002 348.7L23.2002 346.1H251L248.4 348.5C249.8 320.9 248.6 292.5 239.9 266C237 257.8 233.5 249 227.4 242.6ZM230.9 238.8C234.7 242.4 237.2 246.5 239.9 250.8C247.5 263.3 251.1 277.5 253.1 291.9C255.9 310.7 255.8 329.9 253.7 348.8C253.7 350.2 252.5 351.3 251.1 351.2H23.3002C21.9002 351.2 20.7002 350 20.7002 348.6C20.8002 345.2 21.2002 342 21.5002 338.7C22.6002 329 24.1002 319.4 25.7002 309.8C27.1002 300.6 29.0002 290.3 30.5002 281.1C32.5002 269 35.3002 256.8 40.3002 245.6C43.7002 238.4 47.6002 231.3 53.7002 225.9C56.1002 224.1 58.7002 222.6 61.4002 221.3C74.9002 215 89.3002 211.3 103.9 209.2C108.7 208.8 113.6 208.6 118.5 208.1C125.1 207.6 131.5 206.9 138.3 207.4C144.9 208.1 151.3 209.3 157.7 210.7C167.3 212.9 176.6 215.2 186.1 217.8C195.5 220.6 204.7 224.1 213.6 228.3C219.7 231.5 225.5 234.3 230.9 238.8Z" fill="black"/>
<path d="M76 215.237C76.3861 215.103 76.7855 215.168 77.0537 215.366C81.8706 219.496 87.1824 227.091 92.1289 235.214C97.0663 243.323 101.472 251.668 104.555 257.176L104.995 257.963L105.877 258.155C115.197 260.17 133.179 263.364 152.459 264.484C171.66 265.599 192.491 264.683 207.299 258.233L208.648 257.645L208.488 256.181C207.988 251.633 206.851 241.902 204.686 233.595C204.39 232.46 204.069 231.338 203.726 230.25C203.969 230.72 204.218 231.208 204.465 231.714C207.158 237.234 209.919 244.71 211.432 253.056L211.469 253.261L211.548 253.454L211.549 253.457C211.55 253.459 211.552 253.464 211.555 253.47C211.56 253.484 211.569 253.505 211.58 253.534C211.603 253.592 211.638 253.683 211.686 253.804C211.78 254.047 211.921 254.416 212.104 254.911C212.471 255.9 213.006 257.393 213.67 259.387C214.998 263.376 216.843 269.37 218.9 277.349C223.01 293.29 227.961 317.16 231.3 348.808V349.5H91.5244C91.5429 349.414 91.5637 349.326 91.583 349.235C91.9924 347.311 92.5764 344.296 93.2871 339.893C94.6196 331.638 96.3986 318.491 98.3076 298.477L98.6914 294.382C101.035 268.804 91.6074 235.722 74.1758 216.65L74.1533 216.625C74.8023 215.944 75.4743 215.51 76 215.237Z" fill="white" stroke="black" stroke-width="4"/>
<path d="M113.2 278.499C115.851 278.499 118 276.35 118 273.699C118 271.048 115.851 268.899 113.2 268.899C110.549 268.899 108.4 271.048 108.4 273.699C108.4 276.35 110.549 278.499 113.2 278.499Z" fill="black"/>
<path d="M205.7 272.799C208.02 272.799 209.9 270.919 209.9 268.599C209.9 266.28 208.02 264.399 205.7 264.399C203.38 264.399 201.5 266.28 201.5 268.599C201.5 270.919 203.38 272.799 205.7 272.799Z" fill="black"/>
</svg>
