<svg width="306" height="382" viewBox="0 0 306 382" fill="none" xmlns="http://www.w3.org/2000/svg">
<path d="M34 238C41.9651 224.626 111 209 111 209C130.679 196.842 246.507 233.427 261.5 254.5C273.495 271.359 276 350.443 276 378H23.9268C23.9268 378 26.0349 251.373 34 238Z" fill="black" stroke="black" stroke-width="4" stroke-linecap="round"/>
<path d="M158 223.5L206.616 273.953L180.5 379.735H162.5H161.703H156.5H144.5L93.5 257.5L108.074 212.012L156.5 223.5L161.703 379.735H162.5L158 229.5V223.5Z" fill="white"/>
<path d="M76 234.786L117.5 206.5L166 212.5L116.5 208L120.646 264.148L144.5 381L120.646 336.546L77.6089 264.148L95.7085 248.863L76 234.786Z" fill="black" stroke="white" stroke-width="4" stroke-linecap="round"/>
<path d="M199.472 250.079L215.5 242L168 212.5L159 209.5L186.5 262L179.504 379L211 258.5L199.472 250.079Z" fill="black" stroke="white" stroke-width="4" stroke-linecap="round"/>
<path d="M117.632 254.247L116 215L158 254.247L140.911 275L117.632 254.247Z" fill="white" stroke="black" stroke-width="4" stroke-linecap="round"/>
<path d="M158 254.5L172.5 236L188 262L176 274L158 254.5Z" fill="white" stroke="black" stroke-width="4" stroke-linecap="round"/>
</svg>
