<svg width="306" height="375" viewBox="0 0 306 375" fill="none" xmlns="http://www.w3.org/2000/svg">
<path d="M124.5 208.5C120 203.5 110 190 110 190C108.5 216 97.1 212 53.5 227.5C50 229.4 41.8889 255 41 259C39 268 36.6 281.6 32 298C22.2 333.1 15 371.26 15 371.26H267.9C267.9 371.26 263.5 354 254.5 321.5C249.8 290.1 243.238 264.002 238.5 254C229.5 235 172.5 215.5 172.5 215.5C172.5 215.5 164 219.5 152 219.5C140.5 217.5 131.282 216.036 124.5 208.5Z" fill="black" stroke="black" stroke-width="5.1257" stroke-miterlimit="10" stroke-linecap="round" stroke-linejoin="round"/>
<path d="M66.5404 373.038L71.9609 336.062" stroke="white" stroke-width="2" stroke-miterlimit="10" stroke-linecap="round" stroke-linejoin="round"/>
<path d="M213.591 373.1L209 336.011" stroke="white" stroke-width="2" stroke-miterlimit="10" stroke-linecap="round" stroke-linejoin="round"/>
</svg>
