<svg width="60" height="25" viewBox="0 0 60 25" fill="none" xmlns="http://www.w3.org/2000/svg">
<path d="M0 19.4937C0 8.72761 8.72761 0 19.4937 0H40.5063C51.2724 0 60 8.72761 60 19.4937C60 21.0364 59.1497 22.4535 57.7885 23.1794L56.0294 24.1176C53.8235 25.2941 51.1765 25.2941 48.9706 24.1176L48.75 24C46.4062 22.75 43.5938 22.75 41.25 24C38.9062 25.25 36.0938 25.25 33.75 24C31.4062 22.75 28.5938 22.75 26.25 24C23.9062 25.25 21.0938 25.25 18.75 24C16.4062 22.75 13.5938 22.75 11.25 24L11.0294 24.1176C8.82353 25.2941 6.17647 25.2941 3.97059 24.1176L2.21147 23.1794C0.850265 22.4535 0 21.0364 0 19.4937Z" fill="#323232"/>
</svg>
