<svg width="237" height="116" viewBox="0 0 237 116" fill="none" xmlns="http://www.w3.org/2000/svg">
<path d="M84.1807 3.03223C84.6378 2.82079 85.3034 2.98881 85.6367 3.56641C101.781 31.5404 140.874 29.35 153.064 3.82129C153.396 3.12675 154.144 2.92194 154.623 3.13867C181.581 15.3567 199.284 28.3526 211.373 45.3203C223.476 62.3073 230.102 83.4817 234.512 112.355C234.604 112.958 234.132 113.5 233.537 113.5H3.4707C2.8779 113.5 2.40535 112.956 2.5 112.354C7.26343 82.0358 15.0976 60.6106 27.9307 43.8516C40.7646 27.0914 58.7472 14.8031 84.1807 3.03223Z" fill="white" stroke="#323232" stroke-width="4" stroke-linecap="round" stroke-linejoin="round"/>
<path d="M83.0001 3.5L84.4358 47.0519C84.4626 47.866 85.3993 48.3082 86.0449 47.8116L117 24" stroke="#323232" stroke-width="4" stroke-linecap="round"/>
<path d="M155 3.5L153.564 47.0519C153.537 47.866 152.601 48.3082 151.955 47.8116L121 24" stroke="#323232" stroke-width="4" stroke-linecap="round"/>
<line x1="119" y1="24.4767" x2="120.011" y2="111.477" stroke="#323232" stroke-width="4"/>
<circle cx="133" cy="59.5" r="6" fill="#323232"/>
<circle cx="133" cy="89.5" r="6" fill="#323232"/>
</svg>
