<svg width="237" height="116" viewBox="0 0 237 116" fill="none" xmlns="http://www.w3.org/2000/svg">
<path d="M84.1807 3.03223C84.6378 2.82079 85.3034 2.98881 85.6367 3.56641C101.781 31.5404 140.874 29.35 153.064 3.82129C153.396 3.12675 154.144 2.92194 154.623 3.13867C181.581 15.3567 199.284 28.3526 211.373 45.3203C223.476 62.3073 230.102 83.4817 234.512 112.355C234.604 112.958 234.132 113.5 233.537 113.5H3.4707C2.8779 113.5 2.40535 112.956 2.5 112.354C7.26343 82.0358 15.0976 60.6106 27.9307 43.8516C40.7646 27.0914 58.7472 14.8031 84.1807 3.03223Z" fill="white" stroke="#323232" stroke-width="4" stroke-linecap="round" stroke-linejoin="round"/>
<path d="M168.5 9.99997C153 46.4999 88.5 46.9999 73 7.49995" stroke="#323232" stroke-width="4"/>
<path d="M195 52.3218V77.0259C195 88.9 185.374 98.5259 173.5 98.5259C161.626 98.5259 152 88.9 152 77.0259V52.3218H195Z" fill="white" stroke="#323232" stroke-width="4"/>
<line x1="152.136" y1="64.3445" x2="194.864" y2="64.3445" stroke="#323232" stroke-width="4"/>
</svg>
