<svg width="294" height="184" viewBox="0 0 294 184" fill="none" xmlns="http://www.w3.org/2000/svg">
<mask id="path-1-inside-1_1_68" fill="white">
<path fill-rule="evenodd" clip-rule="evenodd" d="M274.496 0.942342C288.78 3.29639 294 31.2134 294 65.306C294 137.92 219.235 183.782 147 183.782C74.7645 183.782 0 137.92 0 65.306C0 31.2134 5.21971 3.29641 19.5041 0.942365C20.594 0.762756 21.4962 1.66443 21.5815 2.7657C22.6825 16.9836 35.0003 47.7085 62.369 47.7085C75.8295 47.7085 87.1498 42.8529 99.1804 37.6927C112.822 31.8415 127.376 25.5987 147 25.5987C166.624 25.5987 181.178 31.8415 194.82 37.6927C206.85 42.8529 218.171 47.7085 231.631 47.7085C259 47.7085 271.318 16.9836 272.418 2.76568C272.504 1.6644 273.406 0.762733 274.496 0.942342Z"/>
</mask>
<path fill-rule="evenodd" clip-rule="evenodd" d="M274.496 0.942342C288.78 3.29639 294 31.2134 294 65.306C294 137.92 219.235 183.782 147 183.782C74.7645 183.782 0 137.92 0 65.306C0 31.2134 5.21971 3.29641 19.5041 0.942365C20.594 0.762756 21.4962 1.66443 21.5815 2.7657C22.6825 16.9836 35.0003 47.7085 62.369 47.7085C75.8295 47.7085 87.1498 42.8529 99.1804 37.6927C112.822 31.8415 127.376 25.5987 147 25.5987C166.624 25.5987 181.178 31.8415 194.82 37.6927C206.85 42.8529 218.171 47.7085 231.631 47.7085C259 47.7085 271.318 16.9836 272.418 2.76568C272.504 1.6644 273.406 0.762733 274.496 0.942342Z" fill="#4B301C"/>
<path d="M274.496 0.942342L275.797 -6.95119V-6.95119L274.496 0.942342ZM147 183.782V191.782V183.782ZM19.5041 0.942365L20.8049 8.83589V8.83589L19.5041 0.942365ZM21.5815 2.7657L13.6054 3.38332L13.6054 3.38332L21.5815 2.7657ZM99.1804 37.6927L102.334 45.0449V45.0449L99.1804 37.6927ZM194.82 37.6927L191.666 45.0449L194.82 37.6927ZM272.418 2.76568L264.442 2.1479L264.442 2.14805L272.418 2.76568ZM302 65.306C302 47.9942 300.689 31.6814 297.332 19.1519C295.657 12.8997 293.348 7.10217 290.069 2.53367C286.723 -2.12902 282.037 -5.92285 275.797 -6.95119L273.195 8.83587C274.097 8.98456 275.42 9.56313 277.07 11.8624C278.788 14.2558 280.462 18.0097 281.877 23.2926C284.701 33.8332 286 48.5253 286 65.306H302ZM147 191.782C184.692 191.782 223.144 179.846 252.351 158.202C281.662 136.482 302 104.656 302 65.306H286C286 98.5701 268.956 125.982 242.825 145.347C216.592 164.787 181.543 175.782 147 175.782V191.782ZM147 175.782C112.457 175.782 77.4082 164.787 51.1748 145.347C25.0438 125.982 8 98.5701 8 65.306H-8C-8 104.656 12.3385 136.482 41.6486 158.202C70.8563 179.846 109.308 191.782 147 191.782V175.782ZM8 65.306C8 48.5253 9.29882 33.8332 12.1229 23.2926C13.5383 18.0097 15.2123 14.2558 16.9299 11.8624C18.5799 9.56315 19.9027 8.98458 20.8049 8.83589L18.2032 -6.95116C11.9633 -5.92283 7.27697 -2.129 3.93082 2.53368C0.652265 7.10219 -1.65698 12.8997 -3.33206 19.1519C-6.68896 31.6814 -8 47.9942 -8 65.306H8ZM20.8049 8.83589C18.6919 9.18411 16.7727 8.4223 15.5206 7.27722C14.3439 6.20111 13.7142 4.78915 13.6054 3.38332L29.5576 2.14808C29.2056 -2.3979 25.0566 -8.08059 18.2032 -6.95116L20.8049 8.83589ZM13.6054 3.38332C14.2644 11.8936 18.098 24.5086 25.5766 35.1645C33.1647 45.9765 45.2511 55.7085 62.369 55.7085V39.7085C52.1183 39.7085 44.3613 34.078 38.6731 25.9731C32.8753 17.7121 29.9996 7.85578 29.5576 2.14808L13.6054 3.38332ZM62.369 55.7085C77.7195 55.7085 90.5062 50.1181 102.334 45.0449L96.0268 30.3405C83.7934 35.5877 73.9395 39.7085 62.369 39.7085V55.7085ZM102.334 45.0449C115.981 39.1914 129.183 33.5987 147 33.5987V17.5987C125.57 17.5987 109.663 24.4917 96.0268 30.3405L102.334 45.0449ZM197.973 30.3405C184.337 24.4917 168.43 17.5987 147 17.5987V33.5987C164.817 33.5987 178.019 39.1914 191.666 45.0449L197.973 30.3405ZM231.631 39.7085C220.061 39.7085 210.207 35.5877 197.973 30.3405L191.666 45.0449C203.494 50.1181 216.28 55.7085 231.631 55.7085V39.7085ZM264.442 2.14805C264 7.85576 261.125 17.7121 255.327 25.9731C249.639 34.078 241.882 39.7085 231.631 39.7085V55.7085C248.749 55.7085 260.835 45.9765 268.423 35.1645C275.902 24.5086 279.736 11.8935 280.395 3.3833L264.442 2.14805ZM275.797 -6.95119C268.943 -8.08063 264.794 -2.39783 264.442 2.1479L280.395 3.38345C280.286 4.78916 279.656 6.20107 278.479 7.27719C277.227 8.42227 275.308 9.18409 273.195 8.83587L275.797 -6.95119Z" fill="#150C0C" mask="url(#path-1-inside-1_1_68)"/>
</svg>
