<svg width="237" height="116" viewBox="0 0 237 116" fill="none" xmlns="http://www.w3.org/2000/svg">
<path d="M84.1807 3.03223C84.6378 2.82079 85.3034 2.98881 85.6367 3.56641C101.781 31.5404 140.874 29.35 153.064 3.82129C153.396 3.12675 154.144 2.92194 154.623 3.13867C181.581 15.3567 199.284 28.3526 211.373 45.3203C223.476 62.3073 230.102 83.4817 234.512 112.355C234.604 112.958 234.132 113.5 233.537 113.5H3.4707C2.8779 113.5 2.40535 112.956 2.5 112.354C7.26343 82.0358 15.0976 60.6106 27.9307 43.8516C40.7646 27.0914 58.7472 14.8031 84.1807 3.03223Z" fill="white" stroke="#323232" stroke-width="4" stroke-linecap="round" stroke-linejoin="round"/>
<path d="M215.963 47.9062C218.482 50.8794 220 54.7199 220 58.9131C220 68.3499 212.312 76 202.829 76C198.171 76 193.947 74.1546 190.854 71.1584C187.76 74.1546 183.536 76 178.878 76C174.22 76 169.996 74.1545 166.902 71.1584C163.809 74.1545 159.584 76 154.927 76C150.269 76 146.044 74.1546 142.951 71.1584C139.858 74.1546 135.633 76 130.975 76C126.318 76 122.093 74.1546 119 71.1584C115.907 74.1546 111.682 76 107.024 76C102.367 76 98.1421 74.1546 95.0488 71.1584C91.9554 74.1546 87.7309 76 83.0732 76C78.4155 76 74.1909 74.1546 71.0976 71.1584C68.0043 74.1546 63.7797 76 59.122 76C54.4643 76 50.2398 74.1546 47.1464 71.1584C44.0531 74.1546 39.8286 76 35.1709 76C25.6877 76 18 68.3499 18 58.9131C18 54.5115 19.6724 50.4987 22.4195 47.4695C38.9391 27.6396 56.7774 12.0564 83.0732 4C106.452 32.9999 137.07 32.4999 156.292 4C189.236 16.3505 204.495 30.7702 215.963 47.9062Z" fill="#323232" fill-opacity="0.3"/>
<path d="M212.522 37.9062C214.946 40.8795 216.407 44.7199 216.407 48.9132C216.407 58.35 209.008 66.0001 199.882 66.0001C195.399 66.0001 191.333 64.1547 188.356 61.1585C185.379 64.1547 181.313 66.0001 176.831 66.0001C172.348 66.0001 168.282 64.1547 165.305 61.1585C162.328 64.1547 158.262 66.0001 153.78 66.0001C149.297 66.0001 145.231 64.1547 142.254 61.1585C139.277 64.1547 135.211 66.0001 130.729 66.0001C126.246 66.0001 122.18 64.1547 119.203 61.1585C116.226 64.1547 112.161 66.0001 107.678 66.0001C103.195 66.0001 99.1296 64.1547 96.1525 61.1585C93.1755 64.1547 89.1097 66.0001 84.6271 66.0001C80.1445 66.0001 76.0787 64.1547 73.1017 61.1585C70.1247 64.1547 66.0589 66.0001 61.5763 66.0001C57.0936 66.0001 53.0279 64.1547 50.0508 61.1585C47.0738 64.1547 43.008 66.0001 38.5254 66.0001C29.3987 66.0001 22 58.35 22 48.9132C22 44.5116 23.6096 40.4988 26.2533 37.4696C42.152 17.6397 60.1926 8.55642 85.5 0.5C108.551 29 133.5 28.5 152 0C183.705 12.3505 201.485 20.7702 212.522 37.9062Z" fill="#323232"/>
</svg>
