<svg width="298" height="289" viewBox="0 0 298 289" fill="none" xmlns="http://www.w3.org/2000/svg">
<path fill-rule="evenodd" clip-rule="evenodd" d="M243.7 166.17C251.837 150.386 256.162 131.247 256.162 108.822C256.162 46.2113 217.335 0 157.035 0C96.7355 0 47.853 50.7559 47.853 113.367C47.853 133.181 54.0718 151.957 64.3561 168.054C51.8578 173.487 43.7719 186.57 45.3093 200.835C45.3397 201.116 45.3736 201.397 45.4111 201.676C33.1789 206.14 25.0856 218.497 26.5437 232.025C26.8634 234.992 27.6199 237.805 28.7423 240.409L6.2441 249.532C-0.858209 252.412 -2.21388 261.883 3.79525 266.64L28.4785 286.179C34.4876 290.936 43.3944 287.443 44.5674 279.869L48.1092 257C51.4023 257.853 54.9023 258.137 58.4844 257.75C73.48 256.134 84.5681 243.358 84.3767 228.576C95.3047 226.048 103.869 218.022 107.388 207.829C125.722 217.56 146.323 221.819 166.195 218.322C177.933 216.257 188.689 213.012 198.363 208.6C202.76 216.498 210.428 222.413 219.707 224.366C219.809 239.15 231.149 251.703 246.173 253.021C247.303 253.12 248.423 253.153 249.529 253.123L253.227 274.219C254.55 281.767 263.524 285.083 269.438 280.208L293.728 260.182C299.642 255.307 298.098 245.865 290.94 243.127L274.74 236.929C276.278 233.803 277.274 230.345 277.597 226.666C278.786 213.112 270.449 200.919 258.131 196.698C258.163 196.418 258.191 196.137 258.216 195.855C259.289 183.627 253.336 172.403 243.7 166.17Z" fill="#323232"/>
</svg>
