<svg width="271" height="224" viewBox="0 0 271 224" fill="none" xmlns="http://www.w3.org/2000/svg">
<path d="M258.812 224C265.439 224 270.832 218.626 270.617 212.002C269.796 186.686 266.38 161.755 260.497 138.279C253.688 111.102 243.707 86.4084 231.125 65.6081C218.542 44.8078 203.605 28.308 187.165 17.051C170.726 5.79393 153.106 -1.28582e-06 135.312 0C117.518 1.28582e-06 99.8977 5.79393 83.4581 17.051C67.0185 28.308 52.0811 44.8078 39.4987 65.6081C26.9164 86.4084 16.9355 111.102 10.126 138.279C4.24389 161.755 0.827623 186.686 0.00620902 212.002C-0.208718 218.626 5.18428 224 11.8117 224L258.812 224Z" fill="#323232"/>
</svg>
