<svg width="224" height="315" viewBox="0 0 224 315" fill="none" xmlns="http://www.w3.org/2000/svg">
<path fill-rule="evenodd" clip-rule="evenodd" d="M12.0554 109.076C33.1506 94.7843 58.6004 86.4362 86 86.4362H138C165.4 86.4362 190.849 94.7843 211.945 109.076C210.172 55.403 166.104 12.4362 112 12.4362C57.8961 12.4362 13.8276 55.403 12.0554 109.076Z" fill="#2B2B2B"/>
<path d="M4 104.169C4 96.4652 8.66537 89.4807 15.8543 86.7126C86.0256 59.6927 131.818 59.8241 207.646 86.8918C215.088 89.5482 220 96.6642 220 104.566V148.444C220 152.887 214.387 155.4 210.695 152.927C166.165 123.109 60.7322 119.781 13.2374 152.809C9.58938 155.345 4 152.887 4 148.444V104.169Z" fill="#2B2B2B"/>
<path d="M35.5 81.4361C64.3052 71.6131 81.1591 68.8458 112.5 68.9361" stroke="white" stroke-width="3"/>
<path d="M15.5 97.4362V139.436" stroke="white" stroke-width="3"/>
<path d="M32 89.4362V104.436" stroke="white" stroke-width="3"/>
<path d="M206 119.436V134.436" stroke="white" stroke-width="3"/>
</svg>
