<svg width="224" height="336" viewBox="0 0 224 336" fill="none" xmlns="http://www.w3.org/2000/svg">
<path fill-rule="evenodd" clip-rule="evenodd" d="M186.11 245.321C184.064 298.192 159.608 336 106.696 336C54.6889 336 25.6726 293.936 13.4011 243.656C11.708 244.148 -1.57986 173.887 0.155993 111.734C1.89184 49.5816 44.4584 -5.29678e-06 105.125 0C164.805 5.21072e-06 201.439 46.8128 206.173 108.936C210.173 161.436 208.673 207.936 186.11 245.321ZM104.173 265.436C149.46 265.436 186.173 214.173 186.173 150.936C186.173 87.6997 149.46 36.4363 104.173 36.4363C58.8853 36.4363 22.1726 87.6997 22.1726 150.936C22.1726 214.173 58.8853 265.436 104.173 265.436Z" fill="#2B2B2B"/>
<path fill-rule="evenodd" clip-rule="evenodd" d="M30.6379 99.4969C52.8365 93.4024 77.582 90.0001 103.673 90.0001C130.199 90.0001 155.334 93.5169 177.816 99.8042C164.464 62.0124 136.503 36.0001 104.173 36.0001C71.9298 36.0001 44.0334 61.8715 30.6379 99.4969Z" fill="#2B2B2B"/>
<path d="M173.969 259.65C180.678 254.694 186.255 247.593 190.455 241.436" stroke="white" stroke-width="3"/>
<path d="M35.1726 241.936C44.2016 264.716 69.4428 289.932 91.2872 295.512" stroke="white" stroke-width="3"/>
<path d="M104.173 39.0001C136.388 39.0001 163.764 64.9274 177.173 102.5" stroke="white" stroke-width="3"/>
<path d="M31.1726 102.5C34.5671 92.9887 38.8566 84.2235 43.8931 76.4363" stroke="white" stroke-width="3"/>
</svg>
