<svg width="228" height="189" viewBox="0 0 228 189" fill="none" xmlns="http://www.w3.org/2000/svg">
<path fill-rule="evenodd" clip-rule="evenodd" d="M24 144.014C24.0054 144.014 24.0107 144.014 24.0161 144.013C24.0054 143.554 24 143.092 24 142.629C24 116.396 41.237 95.1292 62.5 95.1292C70.2388 95.1292 77.4444 97.9463 83.4797 102.795C91.9873 108.678 102.337 112.129 113.5 112.129C124.847 112.129 135.354 108.564 143.939 102.502C144.61 102.028 145.368 101.714 146.166 101.544C151.847 97.4654 158.453 95.1292 165.5 95.1292C186.756 95.1292 203.989 116.382 204 142.605V137.452C204 87.7461 163.706 47.4517 114 47.4517C64.2944 47.4517 24 87.746 24 137.452L24 142.629L24 144.014ZM204 142.654V144.108C203.994 144.108 203.988 144.108 203.982 144.108C203.994 143.625 204 143.14 204 142.654Z" fill="#BCBCBC"/>
<path d="M52.4 71.4517L54.4756 75.4517M77.3081 86.4517L80.9405 83.4517M73.1567 63.9517L73.6756 68.9517M140.616 84.9517L142.692 80.9517M95.9027 85.4517L98.4973 89.4517M165.524 68.9517L166.043 74.4517M180.573 86.4517L182.649 90.4517M97.2054 62.4517L99.281 66.9517M119.124 57.9517L122.757 54.4517M147.881 60.4517L146.324 64.9517M154.627 83.4517L152.032 77.4517M131.578 92.4517L132.616 97.4517M166.865 86.9517L169.459 90.9517M44.9459 89.9517L40.2756 95.4517M124.313 71.4517L120.162 75.4517M115.092 96.4517L112.497 101.452" stroke="#2B2B2B" stroke-width="3"/>
</svg>
