<svg width="229" height="189" viewBox="0 0 229 189" fill="none" xmlns="http://www.w3.org/2000/svg">
<path fill-rule="evenodd" clip-rule="evenodd" d="M21.9654 144.127L21.9654 136.129C21.9654 84.7667 63.6029 43.1292 114.965 43.1292C166.328 43.1292 207.965 84.7667 207.965 136.129V144.108C207.467 144.122 206.967 144.129 206.465 144.129C205.958 144.129 205.451 144.122 204.947 144.108C204.959 143.617 204.965 143.124 204.965 142.629C204.965 116.396 187.728 95.1292 166.465 95.1292C159.418 95.1292 152.813 97.4653 147.131 101.544C146.333 101.714 145.576 102.028 144.905 102.502C136.319 108.563 125.813 112.129 114.465 112.129C103.302 112.129 92.9527 108.678 84.4451 102.795C78.4098 97.9462 71.2042 95.1292 63.4654 95.1292C42.2024 95.1292 24.9654 116.396 24.9654 142.629C24.9654 143.092 24.9708 143.554 24.9814 144.013C23.9835 144.079 22.9778 144.117 21.9654 144.127Z" fill="#2B2B2B"/>
<path d="M114.752 21.7905C106.402 23.052 98.2712 30.47 98.505 41.4382" stroke="#2B2B2B" stroke-width="3"/>
<path d="M17.7521 90.7905C9.40245 92.052 1.27122 99.47 1.50496 110.438" stroke="#2B2B2B" stroke-width="3"/>
<path d="M168.752 33.7905C160.403 35.052 152.271 42.47 152.505 53.4382" stroke="#2B2B2B" stroke-width="3"/>
<path d="M106.965 31C106.965 37.6667 112.005 44.8889 120.965 46" stroke="#2B2B2B" stroke-width="3"/>
<circle cx="50.4654" cy="63.2905" r="15.5" fill="#2B2B2B"/>
<circle cx="21.9654" cy="101.791" r="13" fill="#2B2B2B"/>
<circle cx="26.9654" cy="114.791" r="13" fill="#2B2B2B"/>
<circle cx="165.965" cy="94.7905" r="13" fill="#2B2B2B"/>
<ellipse cx="193.465" cy="99.7905" rx="14.5" ry="15" fill="#2B2B2B"/>
<circle cx="191.965" cy="81.7905" r="13" fill="#2B2B2B"/>
<circle cx="46.9654" cy="94.7905" r="13" fill="#2B2B2B"/>
<circle cx="74.9654" cy="94.7905" r="13" fill="#2B2B2B"/>
<circle cx="75.9654" cy="50.7905" r="23" fill="#2B2B2B"/>
<circle cx="23.9654" cy="78.7905" r="23" fill="#2B2B2B"/>
<circle cx="194.965" cy="77.7905" r="23" fill="#2B2B2B"/>
<circle cx="168.965" cy="61.7905" r="23" fill="#2B2B2B"/>
<circle cx="114.965" cy="50.7905" r="23" fill="#2B2B2B"/>
<circle cx="143.965" cy="55.7905" r="23" fill="#2B2B2B"/>
</svg>
