<svg width="228" height="189" viewBox="0 0 228 189" fill="none" xmlns="http://www.w3.org/2000/svg">
<path fill-rule="evenodd" clip-rule="evenodd" d="M208.162 88.3943C220.332 100.942 228 119.246 228 139.629C228 158.379 221.512 175.369 211 187.738V144.108C210.502 144.122 210.002 144.129 209.5 144.129C208.992 144.129 208.486 144.122 207.982 144.108C207.994 143.617 208 143.124 208 142.629C208 116.396 190.763 95.1292 169.5 95.1292C162.453 95.1292 155.847 97.4654 150.166 101.544C149.368 101.714 148.61 102.028 147.939 102.502C139.354 108.564 128.847 112.129 117.5 112.129C106.337 112.129 95.9873 108.678 87.4797 102.795C81.4444 97.9463 74.2388 95.1292 66.5 95.1292C45.237 95.1292 28 116.396 28 142.629C28 143.092 28.0054 143.554 28.016 144.013C27.0181 144.079 26.0125 144.117 25 144.127V188.887C13.9012 176.432 7 158.966 7 139.629C7 116.532 16.846 96.105 31.9308 83.6969C42.0838 44.8197 77.4414 16.1292 119.5 16.1292C163.235 16.1292 199.725 47.153 208.162 88.3943Z" fill="#2B2B2B"/>
</svg>
