<svg width="228" height="205" viewBox="0 0 228 205" fill="none" xmlns="http://www.w3.org/2000/svg">
<path fill-rule="evenodd" clip-rule="evenodd" d="M21 192.575V153.734C21 105.98 56.9927 66.6321 103.33 61.3393C93.0193 47.5872 79.6317 39.2821 65 39.2821C32.4152 39.2821 6 80.4719 6 131.282C6 154.825 11.6714 176.303 21 192.575ZM207 190.785C215.732 174.743 221 153.972 221 131.282C221 80.4719 194.585 39.2821 162 39.2821C147.404 39.2821 134.046 47.5466 123.746 61.2384C170.528 66.11 207 105.663 207 153.734V190.785Z" fill="#2B2B2B"/>
<path fill-rule="evenodd" clip-rule="evenodd" d="M51.875 149.282C67.4742 149.282 83.7773 141.006 99.2977 142.573C103.925 143.04 108.668 143.282 113.5 143.282C118.486 143.282 123.377 143.024 128.143 142.527C143.782 140.898 160.251 149.282 175.975 149.282C193.579 149.282 207.85 130.254 207.85 106.782C207.85 99.8544 206.607 93.3139 204.402 87.5355C204.134 86.833 204 86.0867 204 85.3348C204 53.3314 163.482 15.282 113.5 15.282C63.5182 15.282 23 53.3314 23 85.3348C23 87.3617 22.7417 89.3854 22.1721 91.3306C20.7697 96.1196 20 101.331 20 106.782C20 130.254 34.2709 149.282 51.875 149.282Z" fill="#2B2B2B"/>
<path d="M134.991 26.7396C108.146 1.60807 68.3528 -0.152382 49.3246 47.0099" stroke="#2B2B2B" stroke-width="3"/>
<path d="M23.4497 169.399C31.9237 159.672 33.7613 142.738 22.1202 129.745" stroke="#2B2B2B" stroke-width="3"/>
<path d="M73.3652 118.947C74.1847 131.822 84.7909 145.15 102.205 146.196" stroke="white" stroke-width="3"/>
<path d="M25.9441 112.282C21.0801 124.23 24.8302 140.846 40.0541 149.365" stroke="white" stroke-width="3"/>
<path d="M108.301 87.2821C100.32 98.4635 91.2639 123.004 95.301 148.282" stroke="white" stroke-width="3"/>
<path d="M142.155 125.282C141.77 133.836 138.402 140.794 133.551 145.782" stroke="white" stroke-width="3"/>
<path d="M154.938 113.282C153.529 127.071 145.195 138.468 133.49 146.782" stroke="white" stroke-width="3"/>
<path d="M60.5701 40.1937C49.6166 35.2644 33.754 38.8047 24.8238 53.7705" stroke="#2B2B2B" stroke-width="3"/>
<path d="M186.732 154.304C202.947 138.078 209.385 109.379 192.304 86.9065" stroke="#2B2B2B" stroke-width="3"/>
<path d="M222.691 96.3444C217.641 73.9678 196.825 53.1898 168.702 55.6173" stroke="#2B2B2B" stroke-width="3"/>
<path d="M134.806 50.7772C134.806 17.782 113.5 -9.71796 74.4952 6.08875" stroke="#2B2B2B" stroke-width="3"/>
<path d="M121.669 46.2899C133.543 23.3835 155.438 9.45625 177.5 19.766" stroke="#2B2B2B" stroke-width="3"/>
<path d="M139.362 27.2632C171.138 18.2711 203.65 33.6554 199.462 79.8474" stroke="#2B2B2B" stroke-width="3"/>
</svg>
