<svg width="228" height="189" viewBox="0 0 228 189" fill="none" xmlns="http://www.w3.org/2000/svg">
<path fill-rule="evenodd" clip-rule="evenodd" d="M8 142.68C11.3808 87.1866 57.4572 43.2258 113.801 43.2258C169.971 43.2258 215.937 86.9159 219.57 142.167C215.511 143.311 211.253 143.978 206.86 144.107C206.827 144.107 206.801 144.134 206.801 144.166C206.801 144.199 206.775 144.226 206.742 144.226H155.668C153.115 144.226 150.972 142.302 150.697 139.763L144.801 85.2258V139.226C144.801 141.987 142.563 144.226 139.801 144.226H20.8505C20.8233 144.226 20.8013 144.204 20.8013 144.177C20.8013 144.149 20.7789 144.127 20.7516 144.127C20.6016 144.129 20.4515 144.129 20.3013 144.129C16.0649 144.129 11.9458 143.627 8 142.68Z" fill="#2B2B2B"/>
<path d="M132.588 31C124.238 32.2615 116.107 39.6795 116.341 50.6476" stroke="#2B2B2B" stroke-width="3"/>
<path d="M105.801 31C105.801 37.6667 110.841 44.8889 119.801 46" stroke="#2B2B2B" stroke-width="3"/>
</svg>
