<svg width="228" height="189" viewBox="0 0 228 189" fill="none" xmlns="http://www.w3.org/2000/svg">
<path fill-rule="evenodd" clip-rule="evenodd" d="M21 144.127L21 136.129C21 84.7667 62.6375 43.1292 114 43.1292C165.363 43.1292 207 84.7667 207 136.129L207 144.108C206.502 144.122 206.002 144.129 205.5 144.129C204.992 144.129 204.486 144.122 203.982 144.108C203.994 143.617 204 143.124 204 142.629C204 116.396 186.763 95.1292 165.5 95.1292C158.453 95.1292 151.847 97.4654 146.166 101.544C145.368 101.714 144.61 102.028 143.939 102.502C135.354 108.564 124.847 112.129 113.5 112.129C102.337 112.129 91.9873 108.678 83.4797 102.795C77.4444 97.9462 70.2388 95.1292 62.5 95.1292C41.237 95.1292 24 116.396 24 142.629C24 143.092 24.0054 143.554 24.0161 144.013C23.0181 144.079 22.0125 144.117 21 144.127Z" fill="#2B2B2B"/>
<path d="M132.787 31C124.437 32.2615 116.306 39.6795 116.54 50.6476" stroke="#2B2B2B" stroke-width="3"/>
<path d="M106 31C106 37.6667 111.04 44.8889 120 46" stroke="#2B2B2B" stroke-width="3"/>
</svg>
