<svg width="228" height="189" viewBox="0 0 228 189" fill="none" xmlns="http://www.w3.org/2000/svg">
<path fill-rule="evenodd" clip-rule="evenodd" d="M21 144.127V187.738C10.4882 175.369 4 158.379 4 139.629C4 109.435 20.8267 83.8033 44.187 74.6853C46.1432 72.4644 48.2036 70.3376 50.3607 68.3126C65.2747 48.7794 96.4531 35.3387 132.5 35.3387C183.034 35.3387 224 61.7539 224 94.3387C224 107.226 217.592 119.148 206.719 128.852C206.905 131.254 207 133.68 207 136.129V144.108C206.502 144.122 206.002 144.129 205.5 144.129C204.992 144.129 204.486 144.122 203.982 144.108C203.994 143.617 204 143.124 204 142.629C204 116.396 186.763 95.1292 165.5 95.1292C158.453 95.1292 151.847 97.4654 146.166 101.544C145.368 101.714 144.61 102.028 143.939 102.502C135.354 108.564 124.847 112.129 113.5 112.129C102.337 112.129 91.9873 108.678 83.4797 102.795C77.4444 97.9463 70.2388 95.1292 62.5 95.1292C41.237 95.1292 24 116.396 24 142.629C24 143.092 24.0054 143.554 24.016 144.013C23.0181 144.079 22.0125 144.117 21 144.127Z" fill="#2B2B2B"/>
<path d="M70.453 87.4587C67.333 79.6118 58.266 73.3722 47.6359 76.0843" stroke="#BCBCBC" stroke-width="3"/>
</svg>
