<svg width="267" height="226" viewBox="0 0 267 226" fill="none" xmlns="http://www.w3.org/2000/svg">
<path fill-rule="evenodd" clip-rule="evenodd" d="M236.876 115.09L263.772 181.295C272.32 202.337 256.837 225.339 234.125 225.339H216.665L222.497 150.98C218.877 151.217 215.206 151.339 211.492 151.339C169.493 151.339 132.941 135.788 114.086 112.852C101.277 131.793 78.9246 144.339 53.492 144.339C51.4034 144.339 49.3356 144.254 47.2921 144.088L53.6646 225.339H32.0385C8.59476 225.339 -6.891 200.961 3.07175 179.74L35.8924 109.829C50.8453 69.3285 89.7959 40.4515 135.491 40.4515C183.141 40.4515 223.457 71.852 236.876 115.09Z" fill="#2B2B2B"/>
</svg>
