<svg width="228" height="247" viewBox="0 0 228 247" fill="none" xmlns="http://www.w3.org/2000/svg">
<path fill-rule="evenodd" clip-rule="evenodd" d="M12 143.829C14.8102 87.7944 61.1328 43.2258 117.865 43.2258C174.537 43.2258 220.821 87.6999 223.721 143.65C223.541 143.996 223.207 144.251 222.801 144.32C199.99 148.197 179.92 150.896 160.999 152.486C158.312 152.712 155.948 150.741 155.658 148.06L148.865 85.2258V148.656C148.865 151.301 146.804 153.491 144.163 153.624C102.949 155.709 65.1011 152.324 12.6485 144.26C12.3724 144.217 12.1386 144.054 12 143.829Z" fill="#2B2B2B"/>
<path d="M12 144.226H28L36 246.226H12V144.226Z" fill="#2B2B2B"/>
<path d="M207 144.226H224V246.226H199L207 144.226Z" fill="#2B2B2B"/>
</svg>
