<svg width="285" height="287" viewBox="0 0 285 287" fill="none" xmlns="http://www.w3.org/2000/svg">
<path fill-rule="evenodd" clip-rule="evenodd" d="M247.099 151.353L247.099 149.363C247.099 90.7448 199.58 43.2257 140.962 43.2257C84.404 43.2257 38.1781 87.4647 35 143.227C42.4963 145.744 50.5618 147.113 58.9633 147.113C84.3959 147.113 106.749 134.568 119.558 115.627C138.413 138.562 174.964 154.113 216.963 154.113C227.408 154.113 237.517 153.151 247.099 151.353Z" fill="#2B2B2B"/>
<path d="M52 145.113L35 143.613L33.6709 193.122C33.3033 206.814 44.3028 218.113 58 218.113L52 145.113Z" fill="#2B2B2B"/>
<path d="M230 144.113L247 142.613L248.329 192.122C248.697 205.814 237.697 217.113 224 217.113L230 144.113Z" fill="#2B2B2B"/>
<path d="M119.099 117.613C111.599 107.113 108.513 96.7291 111.599 81.1129" stroke="white" stroke-width="3"/>
<path d="M90.1924 152.372L96.63 150.892C97.6879 150.649 98.7623 150.485 99.8444 150.401C123.021 148.605 127.826 116.71 106.208 108.165L78.0673 97.0421C61.5125 90.4984 43.0342 100.331 39.2124 117.717L33.6736 142.914C32.5693 147.937 30.4569 152.684 27.4642 156.867L17.3732 170.971L9.42131 184.661C5.71958 191.034 5.01062 198.713 7.48301 205.656C10.0717 212.925 8.88113 220.973 5.62288 227.968C-30.244 304.969 118.779 306.596 78.6115 228.551C73.7675 219.14 71.4805 208.24 74.5799 198.119L75.8804 193.872C77.2495 189.401 77.078 184.6 75.3934 180.238C70.8139 168.381 77.8044 155.218 90.1924 152.372Z" fill="#2B2B2B"/>
<path d="M197.29 174.292L199.148 169.473C202.365 161.125 196.6 152.042 187.676 151.401C184.65 151.183 181.788 149.939 179.566 147.873L176.747 145.253C163.787 133.211 167.669 111.792 184.031 105.063L195.911 100.178C200.101 98.4546 204.605 97.6273 209.134 97.7489L210.034 97.7731C227.249 98.2354 241.832 110.596 245.109 127.502L248.224 143.572C249.805 151.729 254.016 159.143 260.212 164.678L267.086 170.82C267.805 171.462 268.57 172.051 269.376 172.581C276.187 177.061 279.519 185.286 277.747 193.243L275.688 202.488C273.769 211.104 275.708 220.116 279.374 228.147C316.499 309.492 155.986 303.1 202.715 217.252C207.003 209.375 206.91 199.44 201.109 192.601L200.212 191.544C196.156 186.761 195.035 180.144 197.29 174.292Z" fill="#2B2B2B"/>
</svg>
