<svg width="304" height="285" viewBox="0 0 304 285" fill="none" xmlns="http://www.w3.org/2000/svg">
<path fill-rule="evenodd" clip-rule="evenodd" d="M11.864 151.353L11.864 149.363C11.864 90.7449 59.3831 43.2258 118.001 43.2258C174.559 43.2258 220.785 87.4648 223.963 143.227C216.467 145.744 208.402 147.113 200 147.113C174.567 147.113 152.215 134.568 139.406 115.627C120.551 138.562 83.9994 154.113 42.0001 154.113C31.5549 154.113 21.4468 153.151 11.864 151.353Z" fill="#2B2B2B"/>
<ellipse cx="251.397" cy="238.798" rx="55.757" ry="42.1899" transform="rotate(31.0512 251.397 238.798)" fill="#2B2B2B"/>
<path d="M29 145.113L12 143.613L10.6709 193.122C10.3033 206.814 21.3028 218.113 35 218.113L29 145.113Z" fill="#2B2B2B"/>
<path d="M207 144.113L224 143.613V203.113C224 216.92 212.807 228.113 199 228.113L207 144.113Z" fill="#2B2B2B"/>
<path d="M140 117.613C147.5 107.113 150.586 96.7291 147.5 81.1129" stroke="#FFD057" stroke-width="3"/>
</svg>
