<svg width="228" height="234" viewBox="0 0 228 234" fill="none" xmlns="http://www.w3.org/2000/svg">
<path fill-rule="evenodd" clip-rule="evenodd" d="M12 166.576L12 164.585C12 105.967 59.5191 58.4484 118.137 58.4484C174.695 58.4484 220.921 102.687 224.099 158.45C216.603 160.966 208.538 162.336 200.136 162.336C174.703 162.336 152.351 149.79 139.542 130.849C120.687 153.785 84.1354 169.336 42.136 169.336C31.6909 169.336 21.5828 168.374 12 166.576Z" fill="#2B2B2B"/>
<path d="M118.053 112.729C94.7525 112.91 75.7101 69.1938 75.5202 44.6922C75.3304 20.1906 94.065 0.181747 117.365 0.00120935C140.665 -0.179329 159.708 19.5368 159.897 44.0384C160.087 68.54 141.353 112.549 118.053 112.729Z" fill="#2B2B2B"/>
<path d="M29 160.336L12 158.836L10.6709 208.345C10.3033 222.037 21.3028 233.336 35 233.336L29 160.336Z" fill="#2B2B2B"/>
<path d="M207 159.335L224 157.835L225.329 207.344C225.697 221.037 214.697 232.335 201 232.335L207 159.335Z" fill="#2B2B2B"/>
<path d="M140 132.836C147.5 122.336 150.586 111.952 147.5 96.3356" stroke="white" stroke-width="3"/>
<path d="M39 44.2507L79.6334 65.7315" stroke="#2B2B2B" stroke-width="3"/>
<path d="M185.633 46.2507L145 67.7315" stroke="#2B2B2B" stroke-width="3"/>
<path d="M80 65.8037L97.5216 75.0665" stroke="white" stroke-width="3"/>
</svg>
