<svg width="306" height="306" viewBox="0 0 306 306" fill="none" xmlns="http://www.w3.org/2000/svg">
<path d="M174.579 171.468C175.852 173.845 174.033 176.673 171.851 177.573C171.366 177.83 168.516 178.39 167 177.573C167 177.444 169.244 177.123 169.365 177.058C171.547 176.783 173.124 173.91 173.488 171.468C173.548 170.954 174.215 170.825 174.458 171.275L174.579 171.468Z" fill="black"/>
<path d="M183.486 178.19C180.789 180.049 177.409 179.719 174.605 178.583C173.696 178.207 172.62 177.899 172.211 176.708C171.779 175.69 172.478 174.549 173.518 174.502C174.569 174.369 175.132 174.965 175.962 175.33C178.128 176.475 182.893 176.538 185.351 175.966C186 175.87 184.177 177.75 183.486 178.19Z" fill="black"/>
</svg>
