<svg width="306" height="306" viewBox="0 0 306 306" fill="none" xmlns="http://www.w3.org/2000/svg">
<path d="M173.182 176.993C169.77 171.1 174.366 171.071 179.075 173.582C183.728 176.063 185.332 175.443 187.479 175.752C182.207 182.691 176.594 182.886 173.182 176.993Z" fill="black"/>
<path d="M187.479 175.752C188.414 175.562 187.76 175.695 189 175.443L187.479 175.752ZM187.479 175.752C185.332 175.443 183.728 176.063 179.075 173.582C174.366 171.071 169.77 171.1 173.182 176.993C176.594 182.886 182.207 182.691 187.479 175.752Z" stroke="black" stroke-width="3" stroke-linecap="round" stroke-linejoin="round"/>
<path d="M173.802 176.683C175.249 176.58 179.074 177.056 182.796 179.785C182.486 180.095 176.283 183.817 173.802 176.683Z" fill="white"/>
</svg>
