<svg width="134" height="83" viewBox="0 0 134 83" fill="none" xmlns="http://www.w3.org/2000/svg">
<path d="M13.6206 69.4886C10.6519 74.8648 6.50051 77.8301 0 82.0056L7.5 19.0056C7.5 19.0056 20.5 0.505625 59 0.00562496C97.5 -0.494375 133.5 32.5056 133.5 32.5056V83.0056C119.304 80.4734 108.246 77.9257 102.23 67.9942C98.2793 61.4729 89.6706 57.1819 83.4977 61.6573C79.9473 64.2313 75.1209 64.1409 71.6693 61.4357L66.5048 57.3878C62.1108 53.9438 55.922 53.9851 51.5743 57.4874L47.2924 60.9367C43.4884 64.001 38.2067 64.4538 33.9367 62.0816L33.1694 61.6553C25.9763 57.6592 17.5983 62.2854 13.6206 69.4886Z" fill="#323232"/>
</svg>
