<svg width="157" height="132" viewBox="0 0 157 132" fill="none" xmlns="http://www.w3.org/2000/svg">
<path d="M0.464469 79C-2.89444 109.005 12.9645 129.5 15.9644 132C15.9644 132 19.1939 105.457 31.7515 84.5C70.2094 98.3467 86.0419 98.7975 124.464 84.5C130.965 95.5 139.464 111.5 143.221 132C149.464 129.5 159.362 83.4455 155.964 62C152.567 40.5545 136.106 42.1151 136.106 42.1151C136.106 42.1151 147.964 31.4708 143.221 20.8266C138.478 10.1823 115.947 20.8266 115.947 20.8266C115.947 20.8266 126.619 5.45154 108.831 0.720756C91.0435 -4.01003 69.6986 16.0958 69.6986 16.0958C69.6986 16.0958 77.9994 0.720756 62.5834 0.720756C47.1674 0.720756 31.7515 31.4708 31.7515 31.4708C31.7515 31.4708 28.0797 19.4038 20.9645 26.5C13.8493 33.5962 17.5214 58.6729 17.5214 58.6729C17.5214 58.6729 3.82338 48.9952 0.464469 79Z" fill="#323232"/>
</svg>
