<svg width="306" height="306" viewBox="0 0 306 306" fill="none" xmlns="http://www.w3.org/2000/svg">
<path d="M201.1 195.725C202.6 187.825 203.1 179.825 201.8 171.925C201.3 168.925 201.1 166.92 197.5 167.42C195.5 168.125 190.1 169.525 189 169.625C185.8 169.925 184.3 170.22 182 168.42C179 166.92 175.6 165.62 175 165.42C164.5 161.92 154.8 160.625 150.5 174.725C147 186.225 135 198.825 128.5 187.625C123.5 179.125 124.2 161.32 123.5 157.92C121.8 149.52 121.4 141.925 120 143.125C120 145.825 120.9 177.725 121 179.425C121.7 188.225 123 199.22 127 204.92C131 210.62 144.8 217.925 163 219.225C181.3 220.525 191.4 219.025 201.6 207.325C210.8 196.725 211.1 174.725 211.1 174.725C206.6 188.025 203.5 192.425 201.1 195.725ZM159.9 173.225C165.1 167.525 172.7 174.125 180.9 174.725C189 175.325 192.3 170.225 192.9 179.225C193.1 181.425 193.4 185.125 193.3 187.625C193.3 187.725 193.3 187.825 193.3 187.925C193 190.725 192.1 193.825 189.3 195.525C183.4 199.225 173.9 198.325 167.8 197.125C159.3 195.425 157.5 191.525 157.1 189.725C156.5 182.025 157.8 175.525 159.9 173.225Z" fill="black"/>
</svg>
