<svg width="306" height="306" viewBox="0 0 306 306" fill="none" xmlns="http://www.w3.org/2000/svg">
<path d="M211.265 136.863C208.865 135.163 205.365 135.463 202.565 135.763C201.565 135.863 200.565 136.063 199.465 136.363C199.165 136.463 198.865 135.963 199.065 135.763L199.265 135.563C201.765 132.963 205.665 132.363 209.065 133.663C210.265 134.163 211.465 134.863 212.065 136.263C212.365 136.763 211.665 137.263 211.265 136.863Z" fill="black"/>
<path d="M173.265 134.863C170.865 133.163 167.365 133.463 164.565 133.763C163.565 133.863 162.565 134.063 161.465 134.363C161.165 134.463 160.865 133.963 161.065 133.763L161.265 133.563C163.765 130.963 167.665 130.363 171.065 131.663C172.265 132.163 173.465 132.863 174.065 134.263C174.365 134.763 173.665 135.263 173.265 134.863Z" fill="black"/>
</svg>
