<svg width="306" height="306" viewBox="0 0 306 306" fill="none" xmlns="http://www.w3.org/2000/svg">
<path d="M209.5 100.15C212.5 112.897 211.645 121.794 215 128.294C218.355 134.794 220.615 134.24 223 132.903C225.385 131.565 230.529 123.988 226.5 115.403C222.471 106.817 230 102.11 228.5 95.8571C224.419 78.8437 222.576 90.8919 219.89 75.8674C217.204 60.8428 218.39 60.8674 209.5 55.9026C194.89 47.7434 195.873 47.8421 190.5 41.4029C176.397 24.9472 160.6 41.4825 155.899 38.6205C130.379 27.1731 122.992 47.9214 117.619 47.9214C88.0701 49.3523 103.516 67.2388 98.8153 70.8161C70.6092 78.6861 86.727 93.7108 82.6975 100.15C64.5651 112.313 73.9671 124.475 73.9671 135.207C59.1925 142.362 73.9671 163.11 71.2808 163.11C57.8494 184.574 80.6828 182.427 76.6534 186.72C62.5504 198.883 88.0701 206.753 76.6534 211.046C67.52 214.48 71.057 226.309 73.9671 231.794C77.7385 238.903 94.5 245.903 96.8006 231.794C97.4722 222.493 110.232 224.64 122.992 223.209C135.752 221.778 149.183 196.021 131.722 182.427C114.261 168.833 123.927 164.794 115.743 164.794C100.485 164.794 85.1994 143.644 95 128.294C100.523 119.644 117.743 124.794 119.743 136.794C119.743 123.49 120.357 116.55 122.992 113.744C128.365 116.844 134.434 117.957 139.11 113.744C144.299 109.068 136.647 97.0496 139.11 95.8571C140.901 96.5726 148.134 100.15 151.87 91.5641C166.5 57.9379 172.837 94.7256 181.419 91.5641C190 88.4026 206.5 87.4026 209.5 100.15Z" fill="black" stroke="black" stroke-linejoin="round"/>
</svg>
