<svg width="306" height="306" viewBox="0 0 306 306" fill="none" xmlns="http://www.w3.org/2000/svg">
<path d="M214.5 113.47C215.5 115.47 216 117.97 217 122.47C233.398 87.8054 209.886 69.5184 209.321 68.9207C193 56 179.163 49.3969 168.043 52.186C143.163 42.6233 122.723 45.9925 103.582 64.7372C81 86.8502 83.7908 116.137 84.3562 133.469C77.5708 132.035 69.6964 140.243 68 142.435C73.4283 141 78.3247 140.442 78.7017 142.435C69.6545 139.566 66.1309 149.479 65 151.471C69.0712 150.515 72 147.216 74.1781 147.216C69.0891 152.993 60.9466 166.7 69.0891 175.307C79.2672 186.065 97.0491 183.614 103.582 178.471C108.22 174.819 109 167.971 110 164.971C103.582 160.97 81.8166 144.663 97 126.97C105.582 116.97 118 127.47 120 137.47C140.356 128.864 168.797 102.59 176.525 86.851C191.792 91.0347 211.37 107.209 214.5 113.47Z" fill="black" stroke="black" stroke-linejoin="round"/>
</svg>
