<svg width="306" height="306" viewBox="0 0 306 306" fill="none" xmlns="http://www.w3.org/2000/svg">
<path d="M154.494 104C157.494 93 165.994 97 167.994 104C167.994 97 173.994 90.5 177.494 97C183.865 108.832 182.117 120.181 180.113 125.907C187.061 121.725 191.471 109.724 192.807 104.247C198.152 110.222 197.261 117.691 196.147 120.679C198.82 118.289 200.379 112.712 200.824 110.222C209.91 118.588 211.736 131.634 211.514 137.111C214.186 136.862 218.044 131.976 220.867 115.451C222.994 103 218.611 90.2428 215.494 88.5C206.994 56 155.394 47.2325 140.027 51.9631L143.494 45C138.149 46.1951 134.107 50.0102 132.994 52.5C126.994 46.5 118.775 51.7141 116.994 54.9507C122.338 52.5606 125.774 52.959 125.997 54.9507C102.494 61 88.4937 85.5 85.9937 91C83.4937 96.5 80.8902 106.39 82.4937 104C84.0971 101.61 86.1028 98.0021 86.9936 98.5C76.9936 147.5 93.9937 153.662 102.994 161.5C80.9936 142.34 96.9936 106.235 119.494 137C119.494 126.5 124.994 117 130.494 119.5C128.89 124.28 129.775 129.761 127.994 132.5C139.752 127.122 144.704 111.716 146.708 107.235C146.708 120.978 151.162 125.41 153.389 125.907C152.498 120.679 151.006 116.79 154.494 104Z" fill="black" stroke="black" stroke-linejoin="round"/>
</svg>
