<svg width="306" height="306" viewBox="0 0 306 306" fill="none" xmlns="http://www.w3.org/2000/svg">
<path d="M197.406 58.648C157.806 38.548 112.406 48.348 95.3062 75.948C84.6062 93.148 84.2062 106.948 78.2062 126.748C67.9062 160.648 61 175.348 55 189.348C61 205.848 90.5 223.348 117 205.848C117 205.848 112.5 196.348 111.5 181.848C110.945 173.799 112.8 167.648 113 165.848C85.4 157.148 91.5 127.6 104 126C112.7 124.9 122 135 121 154.5C124.594 154.5 133.5 121.848 134.5 120.848C141.5 114.348 145.5 115.348 166.5 113.848C187.5 112.348 208.5 117.848 217.5 122.848C217.5 122.848 233.5 74.8477 197.406 58.648Z" fill="black"/>
</svg>
