<svg width="306" height="306" viewBox="0 0 306 306" fill="none" xmlns="http://www.w3.org/2000/svg">
<path d="M166.014 47.7647C121.214 43.4647 106.314 58.4647 100.414 63.7647C92.1144 71.0647 79.5144 99.9647 80.0144 116.465C80.6144 139.465 99.0144 163.765 99.8144 164.965C103.914 171.065 108.114 174.765 109.214 176.065C108.614 173.865 107.614 165.965 108.514 164.565C83.5144 154.965 88.0144 127.065 100.214 125.465C113.014 123.865 117.014 135.265 117.714 138.065C117.714 138.065 117.714 138.365 117.814 138.865C117.914 138.865 118.014 138.965 118.114 138.965C122.514 140.465 126.614 136.065 125.114 131.765C122.814 125.465 120.214 118.165 119.814 113.465C119.214 99.8647 124.714 84.3647 165.214 86.5647C170.414 86.8647 174.914 87.6647 179.314 88.5647C181.514 89.1647 183.914 89.4648 187.914 96.9648C190.914 103.465 197.414 100.465 198.914 99.9648C196.414 99.4648 195.221 98.3103 194.414 96.9648C192.914 94.4648 192.814 92.565 193.914 90.4648C195.514 90.6648 197.314 91.7647 199.014 91.9647C209.814 92.7647 219.514 84.3647 219.214 73.5647C218.914 62.5647 208.614 51.8647 166.014 47.7647Z" fill="black"/>
</svg>
