<svg width="306" height="306" viewBox="0 0 306 306" fill="none" xmlns="http://www.w3.org/2000/svg">
<path d="M213 103.5C241.084 94.9982 244.321 62.5793 243 49C209.933 72.0259 188.682 46.5794 180 33C177.282 38.6679 178.868 43.9319 180 45.1127C166.411 42.633 153.831 33.3948 151 30C146.923 37.7933 151.801 43.489 153.5 45.1127C142.176 34.8396 109.288 39.5037 94 43.7841C98.5298 48.7435 107.603 52.1144 111 53C79.2918 54.0627 71.3775 76.5518 71 87.179C73.2649 79.7399 90.1392 76.1808 97.5 75C69.4156 85.6273 80.8842 126.716 89 140C101 106.5 121 135 123.5 150C123.5 127 130.007 119.371 138.5 114.5C145.295 110.603 141.331 98.5664 138.5 96.5L128.96 87.179C149.155 93.8211 184.916 112.002 213 103.5Z" fill="black" stroke="black" stroke-linejoin="round"/>
</svg>
