<svg width="306" height="306" viewBox="0 0 306 306" fill="none" xmlns="http://www.w3.org/2000/svg">
<path d="M224.244 77.0298C231.344 51.3298 202.544 35.2298 194.844 46.8298C189.244 55.2298 167.644 48.7298 134.844 48.1298C102.044 47.4298 89.9434 64.3298 89.5434 83.0298C89.5434 83.0298 76.1434 93.1297 77.0434 119.93C77.9434 147.73 86.5434 160.43 90.5434 168.93C94.5434 177.43 109.043 170.93 109.043 170.93C96.0434 157.43 78.2202 132.93 102.543 125.43C111.443 124.33 116.343 134.23 118.543 138.43C119.443 139.63 128.644 146.73 128.844 112.73C128.944 89.5298 141.843 79.5297 167.543 88.9297C180.943 93.8297 203.343 107.43 213.043 100.43C214.643 105.03 215.744 117.23 214.444 123.43C218.344 119.83 227.543 110.93 227.543 100.43C228.143 96.5297 224.144 86.0298 221.944 83.0298C222.844 81.3298 223.644 79.2298 224.244 77.0298Z" fill="black"/>
</svg>
