<svg width="306" height="306" viewBox="0 0 306 306" fill="none" xmlns="http://www.w3.org/2000/svg">
<path d="M135.847 120.626C163.965 120.249 177.887 103.207 181.333 94.7334C202.526 94.7334 218.381 135.619 218.381 134.677C224.067 119.613 225.101 99.3723 218.381 83.8369C211.662 68.3015 183.401 47.6564 147.735 49.0687C112.069 50.481 86.2562 62.0198 76.2362 87.6031C67.9659 108.719 72.1011 147.391 86.0572 161.043C100.013 174.695 120.689 187.406 124.307 197.763C139.814 164.809 99.429 167.634 91.2261 145.037C89.3761 139.941 90.1249 129.028 99.429 126.674C109.982 124.004 117.176 131.539 119.071 138.443C119.071 124.791 135.847 121.567 135.847 120.626Z" fill="black" stroke="black" stroke-linejoin="round"/>
</svg>
