<svg width="306" height="306" viewBox="0 0 306 306" fill="none" xmlns="http://www.w3.org/2000/svg">
<path d="M227.426 114C227.426 114 226.841 116.967 225.323 120.449C221.35 130.962 218.426 129.5 218.426 129.5C218.426 129.5 217.532 120.898 220.426 115.012C222.926 105.202 220.426 100.5 220.426 100.5C215.098 96.7109 211.318 107.414 201.181 105.202C192.663 103.343 189.426 102.5 178.533 90.2902C169.757 78.778 155.326 76.9483 149.455 83.6192C143.583 90.2902 146.426 105.202 139.109 115.012C130.637 126.372 121.215 134.24 121.215 147.974C121.215 159.911 118.047 194.672 164.21 215.675L188.599 224.102C179.231 221.688 171.161 218.837 164.21 215.675L102.926 194.5C88.4258 185.333 65.0258 151.9 87.4258 91.4996C113.539 21.0866 216.194 43.7412 226.664 101.057C227.74 103.025 228.275 106.87 227.426 114Z" fill="black"/>
<path d="M218.426 129.5C225.259 125 227.426 114 227.426 114M218.426 129.5C218.426 129.5 222.426 131.5 227.426 114M218.426 129.5C218.426 129.5 217.532 120.898 220.426 115.012M218.426 129.5L220.426 115.012M227.426 114C229.926 93 220.426 100.5 220.426 100.5M227.426 114C231.426 47.5003 115.426 15.9996 87.4258 91.4996M220.426 100.5C215.098 96.7109 211.318 107.414 201.181 105.202C192.663 103.343 189.426 102.5 178.533 90.2902C169.757 78.778 155.326 76.9483 149.455 83.6192C143.583 90.2902 146.426 105.202 139.109 115.012C130.637 126.372 121.215 134.24 121.215 147.974C121.215 161.709 117.021 205.658 188.599 224.102L102.926 194.5C88.4258 185.333 65.0258 151.9 87.4258 91.4996M220.426 100.5C220.426 100.5 222.926 105.202 220.426 115.012M87.4258 91.4996C115.426 15.9996 240.426 69.5119 220.426 115.012" stroke="black"/>
<path d="M100.524 203.304C99.6288 197.026 102.574 194.671 104.158 194.279C121.708 194.279 130.862 202.862 147.556 208.447C154.201 210.67 162.041 212.418 172.08 212.961C176.224 212.748 180.479 212.532 184.926 213C188.426 220.5 190.926 221 188.426 226.5C189.824 225.977 195.781 232.454 192.426 242.5C188.232 255.057 184.281 251.399 180.926 256.5C174.215 267.488 152.926 256.5 134.926 250C129.282 247.962 110.426 239 104.158 231.95C97.7275 225.279 100.524 227.633 102.76 218.608C104.997 209.583 101.642 211.152 100.524 203.304Z" fill="black"/>
<path d="M184.926 213C188.426 220.5 190.926 221 188.426 226.5C189.824 225.977 195.781 232.454 192.426 242.5C188.232 255.057 184.281 251.399 180.926 256.5C174.215 267.488 152.926 256.5 134.926 250C129.282 247.962 110.426 239 104.158 231.95C97.7275 225.279 100.524 227.633 102.76 218.608C104.997 209.583 101.642 211.152 100.524 203.304C99.6288 197.026 102.574 194.671 104.158 194.279C131.426 194.279 138.426 215 184.926 213ZM184.926 213C165.926 211 150.426 221.5 132.119 190.747" stroke="black" stroke-linecap="round"/>
<path d="M120.597 268.099C116.562 251.636 120.771 235.173 123.38 229C126.858 235.585 138.511 243.405 143.902 246.492C138.858 260.382 148.426 273.5 146.337 286.619C139.102 303.699 128.597 303.168 124.249 300.767C124.713 296.737 124.632 284.561 120.597 268.099Z" fill="black" stroke="black" stroke-linejoin="round"/>
</svg>
