<svg width="303" height="48" viewBox="0 0 303 48" fill="none" xmlns="http://www.w3.org/2000/svg">
<path d="M285 4C288.429 4 291.839 5.84424 294.528 9.42969C297.218 13.0163 299 18.1546 299 24C299 29.8454 297.218 34.9837 294.528 38.5703C291.839 42.1558 288.429 44 285 44C281.571 44 278.161 42.1558 275.472 38.5703C272.782 34.9837 271 29.8454 271 24C271 18.1546 272.782 13.0163 275.472 9.42969C278.161 5.84424 281.571 4 285 4Z" fill="#B78276" stroke="#150C0C" stroke-width="8"/>
<path d="M18 4C21.4293 4 24.8392 5.84424 27.5283 9.42969C30.2182 13.0163 32 18.1546 32 24C32 29.8454 30.2182 34.9837 27.5283 38.5703C24.8392 42.1558 21.4293 44 18 44C14.5707 44 11.1608 42.1558 8.47168 38.5703C5.78182 34.9837 4 29.8454 4 24C4 18.1546 5.78182 13.0163 8.47168 9.42969C11.1608 5.84424 14.5707 4 18 4Z" fill="#B78276" stroke="#150C0C" stroke-width="8"/>
</svg>
