<svg width="235" height="310" viewBox="0 0 235 310" fill="none" xmlns="http://www.w3.org/2000/svg">
<path d="M150.198 153.964C142.908 153.744 121.278 146.874 116.978 143.704L150.198 153.964Z" fill="#F1CF73"/>
<path d="M153.198 187.824C166.648 206.574 210.137 212.14 217.557 214.82C229.727 219.41 231.797 231.82 231.977 238.58C232.497 257.84 234.767 290.88 227.977 308.34" fill="#F1CF73"/>
<path d="M153.198 187.824C145.038 173.184 150.198 153.964 150.198 153.964C150.198 153.964 166.008 154.714 172.348 151.484C184.538 146.254 199.018 127.124 198.868 99.7341C198.522 75.0682 193.313 50.7131 183.538 28.0641C174.718 5.2541 119.988 -16.0659 78.7581 23.7741C78.7581 23.7741 56.5281 44.0941 69.4381 77.8641" fill="#F1CF73"/>
<path d="M5.37727 308.34C-0.492731 289.53 1.81726 240.07 2.66726 233.09C3.51726 226.11 6.79726 211.95 24.1673 207.64C31.8473 205.71 79.9381 197.934 89.6981 184.444" fill="#F1CF73"/>
<path d="M92.0581 133.444C92.0581 133.444 75.9081 124.274 69.4681 105.154C63.0281 86.0341 69.4381 77.8641 69.4381 77.8641C74.6081 70.1541 95.178 68.2641 95.178 91.5241" fill="#F1CF73"/>
<path d="M92.0581 133.444C93.2881 157.744 93.5981 168.894 89.6981 184.444L92.0581 133.444Z" fill="#F1CF73"/>
<path d="M153.198 187.824C166.648 206.574 210.137 212.14 217.557 214.82C229.727 219.41 231.797 231.82 231.977 238.58C232.497 257.84 234.767 290.88 227.977 308.34H5.37727C-0.492731 289.53 1.81726 240.07 2.66726 233.09C3.51726 226.11 6.79726 211.95 24.1673 207.64C31.8473 205.71 79.9381 197.934 89.6981 184.444C93.5981 168.894 93.2881 157.744 92.0581 133.444C92.0581 133.444 75.9081 124.274 69.4681 105.154C63.0281 86.0341 69.4381 77.8641 69.4381 77.8641C56.5281 44.0941 78.7581 23.7741 78.7581 23.7741C119.988 -16.0659 174.718 5.2541 183.538 28.0641C193.313 50.7131 198.522 75.0682 198.868 99.7341C199.018 127.124 184.538 146.254 172.348 151.484C166.008 154.714 150.198 153.964 150.198 153.964C150.198 153.964 145.038 173.184 153.198 187.824Z" fill="#F1CF73"/>
<path d="M150.198 153.964C142.908 153.744 121.278 146.874 116.978 143.704M150.198 153.964C150.198 153.964 145.038 173.184 153.198 187.824C166.648 206.574 210.137 212.14 217.557 214.82C229.727 219.41 231.797 231.82 231.977 238.58C232.497 257.84 234.767 290.88 227.977 308.34H5.37727C-0.492731 289.53 1.81726 240.07 2.66726 233.09C3.51726 226.11 6.79726 211.95 24.1673 207.64C31.8473 205.71 79.9381 197.934 89.6981 184.444C93.5981 168.894 93.2881 157.744 92.0581 133.444C92.0581 133.444 75.9081 124.274 69.4681 105.154C63.0281 86.0341 69.4381 77.8641 69.4381 77.8641M150.198 153.964C150.198 153.964 166.008 154.714 172.348 151.484C184.538 146.254 199.018 127.124 198.868 99.7341C198.522 75.0682 193.313 50.7131 183.538 28.0641C174.718 5.2541 119.988 -16.0659 78.7581 23.7741C78.7581 23.7741 56.5281 44.0941 69.4381 77.8641M69.4381 77.8641C74.6081 70.1541 95.178 68.2641 95.178 91.5241" stroke="#050504" stroke-width="3" stroke-linecap="round" stroke-linejoin="round"/>
</svg>
