<svg width="82" height="40" viewBox="0 0 82 40" fill="none" xmlns="http://www.w3.org/2000/svg">
<path d="M51.8008 3.34277C51.8881 3.40736 51.9889 3.4972 52.0947 3.61133C55.5687 7.35786 60.2909 9.71739 64.6641 11.4111C66.8731 12.2667 69.0708 12.9803 71.0547 13.6123C72.9234 14.2077 74.5494 14.7159 75.9326 15.2217C75.6285 15.5507 75.1939 15.9217 74.6328 16.2832C71.8773 18.0584 69.3873 20.3516 67.0293 22.626C64.6105 24.959 62.3421 27.2599 59.8008 29.3906C54.8371 33.5525 49.1703 36.7646 41 36.7646C32.7653 36.7646 26.8922 33.5893 21.792 29.4668C19.1958 27.3683 16.8579 25.0736 14.4473 22.7686C12.0894 20.514 9.63909 18.2265 7.00977 16.4268C6.47491 16.0607 6.01572 15.6481 5.67383 15.25C5.55622 15.113 5.46282 14.987 5.38672 14.876C6.62892 14.4117 8.17043 13.9826 10.0215 13.4902C12.0108 12.9611 14.3051 12.3711 16.6094 11.624C21.1904 10.1387 26.2764 7.89753 29.96 3.67285C30.0489 3.57088 30.1357 3.48944 30.2119 3.42676C31.4671 4.04141 32.8976 5.08204 34.6816 6.28809C35.5725 6.89034 36.5543 7.52996 37.5166 8.02051C38.4184 8.48018 39.6583 9 41 9C42.3883 9 43.6439 8.44426 44.5459 7.95996C45.5024 7.44636 46.4751 6.77778 47.3438 6.16602C49.1193 4.91557 50.5284 3.883 51.7891 3.33496C51.7927 3.3376 51.797 3.34 51.8008 3.34277Z" fill="#EFBBBB" stroke="#150C0C" stroke-width="6"/>
<path d="M7 16.5C24.1053 24.8333 55.3947 24.8333 72.5 16.5" stroke="#150C0C" stroke-width="6" stroke-linecap="round"/>
</svg>
