<svg width="82" height="38" viewBox="0 0 82 38" fill="none" xmlns="http://www.w3.org/2000/svg">
<path d="M51.7832 3.33789C51.8596 3.39673 51.9482 3.47622 52.0391 3.57812C55.2272 7.15577 59.5105 9.91393 63.6074 12.1426C65.6737 13.2666 67.7475 14.2844 69.667 15.2129C71.6118 16.1536 73.3593 16.985 74.8828 17.7812C74.8871 17.7835 74.8913 17.7859 74.8955 17.7881C74.4746 18.0715 73.8803 18.3767 73.1143 18.6514C69.8399 19.8254 67.4644 21.6178 65.4395 23.4893C64.4491 24.4046 63.5076 25.3732 62.6289 26.2637C61.7296 27.175 60.8672 28.0341 59.9365 28.8525C56.4406 31.9267 51.6341 34.7646 41 34.7646C30.456 34.7646 25.6505 31.891 22.1562 28.7822C21.2269 27.9554 20.3672 27.0873 19.4727 26.1699C18.5989 25.2739 17.6636 24.3004 16.6836 23.3828C14.6811 21.508 12.3313 19.7112 9.09766 18.5557C8.25476 18.2545 7.56484 17.8914 7.06641 17.5361C6.97796 17.4731 6.89945 17.4127 6.83008 17.3564C8.29906 16.6247 10.0138 15.8929 11.957 15.0605C13.8822 14.2359 15.9954 13.3275 18.1035 12.292C22.2921 10.2346 26.7286 7.55284 30.0127 3.64062C30.0843 3.55531 30.1554 3.48608 30.2188 3.43066C31.4722 4.04576 32.901 5.0843 34.6816 6.28809C35.5725 6.89034 36.5543 7.52996 37.5166 8.02051C38.4184 8.48018 39.6583 9 41 9C42.3883 9 43.6439 8.44426 44.5459 7.95996C45.5024 7.44636 46.4751 6.77778 47.3438 6.16602C49.1165 4.91755 50.5241 3.88659 51.7832 3.33789Z" fill="#EFBBBB" stroke="#150C0C" stroke-width="6"/>
<path d="M8 18C25.1053 22.3333 55.8947 22.3333 73 18" stroke="#150C0C" stroke-width="6" stroke-linecap="round"/>
</svg>
