<svg width="118" height="34" viewBox="0 0 118 34" fill="none" xmlns="http://www.w3.org/2000/svg">
<path d="M58.975 11.2305C69.7986 11.2305 80.5711 11.6351 88.597 12.4336C92.6317 12.835 95.8534 13.3249 98.0111 13.877C98.3631 13.967 98.6681 14.0543 98.9301 14.1367C98.4036 14.8592 97.5571 15.737 96.3607 16.7246C93.9574 18.7085 90.4789 20.8667 86.3871 22.8691C78.1524 26.8991 68.0505 30 60.2103 30C52.3453 29.9999 41.6059 26.8847 32.724 22.834C28.3115 20.8216 24.5172 18.6503 21.8793 16.6484C20.6088 15.6843 19.6941 14.8232 19.1097 14.1084C19.3509 14.0343 19.6264 13.9569 19.9388 13.877C22.0965 13.3249 25.3174 12.835 29.3519 12.4336C37.3779 11.635 48.1511 11.2305 58.975 11.2305Z" fill="#F9ECEC" stroke="#150C0C" stroke-width="6"/>
<path d="M115.498 19.9764C115.498 19.9764 108.7 17.9478 104.677 13.2655C100.654 8.58327 100.877 0.999885 100.877 0.999885" stroke="#150C0C" stroke-width="2"/>
<path d="M1.96926 19.9764C1.96926 19.9764 8.7668 17.9478 12.79 13.2655C16.8132 8.58327 16.5899 0.999887 16.5899 0.999887" stroke="#150C0C" stroke-width="2"/>
</svg>
