<svg width="252" height="46" viewBox="0 0 252 46" fill="none" xmlns="http://www.w3.org/2000/svg">
<path d="M183.83 18.8439C179.619 14.2281 181.43 7.2055 188.295 5.722C215.237 4.70454 231.756 17.3278 241.994 34.8161C242.922 36.4018 243.988 38.0737 244.987 39.6542C246.077 43.2077 243.24 44.7888 240.637 43.9029C228.068 28.1677 212.976 24.9421 204.297 23.262C199.625 22.3575 194.032 23.0329 190.696 22.4534C186.875 21.7897 184.603 19.6911 183.83 18.8439Z" fill="#4B301C"/>
<path d="M67.9368 18.8439C72.1478 14.2281 70.3364 7.2055 63.4717 5.722C36.5295 4.70454 20.0107 17.3278 9.77274 34.8161C8.84447 36.4018 7.7789 38.0737 6.77955 39.6542C5.69012 43.2077 8.52675 44.7888 11.1302 43.9029C23.6992 28.1677 38.7905 24.9421 47.4695 23.262C52.1417 22.3575 57.7348 23.0329 61.0705 22.4534C64.8919 21.7897 67.1639 19.6911 67.9368 18.8439Z" fill="#4B301C"/>
</svg>
