<svg width="236" height="25" viewBox="0 0 236 25" fill="none" xmlns="http://www.w3.org/2000/svg">
<path d="M175.317 15.5823C170.554 12.6561 170.579 6.63525 176.319 4.12608C199.929 -1.8389 217.381 5.20895 230.369 17.3872C231.547 18.4914 232.865 19.6392 234.105 20.7256C235.867 23.3893 233.712 25.2085 231.21 24.9895C216.553 14.6729 202.476 14.9469 194.419 15.2458C190.082 15.4068 185.285 17.0201 182.203 17.1886C178.673 17.3816 176.191 16.1194 175.317 15.5823Z" fill="#4B301C"/>
<path d="M60.9285 15.5823C65.6916 12.6561 65.6667 6.63525 59.9262 4.12608C36.3165 -1.8389 18.8643 5.20894 5.87631 17.3872C4.69869 18.4914 3.38021 19.6392 2.14087 20.7256C0.378487 23.3893 2.53308 25.2085 5.03567 24.9895C19.6923 14.6729 33.7697 14.9469 41.8265 15.2458C46.1636 15.4068 50.9607 17.0201 54.0423 17.1886C57.5726 17.3816 60.0543 16.1194 60.9285 15.5823Z" fill="#4B301C"/>
</svg>
