<svg width="278" height="163" viewBox="0 0 278 163" fill="none" xmlns="http://www.w3.org/2000/svg">
<mask id="path-1-inside-1_26_815" fill="white">
<path fill-rule="evenodd" clip-rule="evenodd" d="M9.10698 1.3565C5.96138 11.3812 0 33.8403 0 60.0742C0 116.688 66.7645 162.55 139 162.55V162.55C211.235 162.55 278 116.689 278 60.0744C278 33.8405 272.039 11.3814 268.893 1.3567C268.32 -0.469143 265.741 -0.433674 265.057 1.35357C260.368 13.6077 247.081 41.7683 224 41.7683C210.077 41.7683 198.589 37.0015 186.457 31.9672C172.882 26.3345 158.501 20.3671 139 20.3671V20.3669C119.499 20.3669 105.118 26.3343 91.5431 31.967C79.4106 37.0013 67.9225 41.7681 54 41.7681C30.9185 41.7681 17.632 13.6075 12.943 1.35337C12.2591 -0.433874 9.6799 -0.469342 9.10698 1.3565Z"/>
</mask>
<path fill-rule="evenodd" clip-rule="evenodd" d="M9.10698 1.3565C5.96138 11.3812 0 33.8403 0 60.0742C0 116.688 66.7645 162.55 139 162.55V162.55C211.235 162.55 278 116.689 278 60.0744C278 33.8405 272.039 11.3814 268.893 1.3567C268.32 -0.469143 265.741 -0.433674 265.057 1.35357C260.368 13.6077 247.081 41.7683 224 41.7683C210.077 41.7683 198.589 37.0015 186.457 31.9672C172.882 26.3345 158.501 20.3671 139 20.3671V20.3669C119.499 20.3669 105.118 26.3343 91.5431 31.967C79.4106 37.0013 67.9225 41.7681 54 41.7681C30.9185 41.7681 17.632 13.6075 12.943 1.35337C12.2591 -0.433874 9.6799 -0.469342 9.10698 1.3565Z" fill="#4B301C"/>
<path d="M9.10698 1.3565L1.47394 -1.03863L1.47394 -1.03863L9.10698 1.3565ZM139 162.55H147V154.55H139V162.55ZM139 162.55H131V170.55H139V162.55ZM268.893 1.3567L261.26 3.75178L261.26 3.75184L268.893 1.3567ZM265.057 1.35357L272.529 4.21257L272.529 4.21253L265.057 1.35357ZM186.457 31.9672L183.391 39.3563L186.457 31.9672ZM139 20.3671H131V28.3671H139V20.3671ZM139 20.3669H147V12.3669H139V20.3669ZM91.5431 31.967L88.4771 24.5779L91.5431 31.967ZM12.943 1.35337L5.47131 4.21237L5.47131 4.21237L12.943 1.35337ZM8 60.0742C8 34.9576 13.7254 13.359 16.74 3.75162L1.47394 -1.03863C-1.80264 9.40352 -8 32.7229 -8 60.0742H8ZM139 154.55C104.489 154.55 71.3903 143.571 47.09 126.053C22.7376 108.497 8 85.0374 8 60.0742H-8C-8 91.7252 10.6447 119.503 37.7334 139.032C64.8742 158.598 101.276 170.55 139 170.55V154.55ZM131 162.55V162.55H147V162.55H131ZM139 170.55C176.724 170.55 213.126 158.598 240.267 139.032C267.355 119.504 286 91.7254 286 60.0744H270C270 85.0376 255.262 108.497 230.91 126.053C206.61 143.571 173.511 154.55 139 154.55V170.55ZM286 60.0744C286 32.7231 279.803 9.40372 276.526 -1.03845L261.26 3.75184C264.275 13.3592 270 34.9578 270 60.0744H286ZM276.526 -1.03838C275.05 -5.74101 270.805 -8.01897 266.976 -7.99967C263.237 -7.98082 259.231 -5.80736 257.585 -1.5054L272.529 4.21253C271.566 6.72725 269.192 7.98936 267.057 8.00012C264.833 8.01134 262.163 6.62857 261.26 3.75178L276.526 -1.03838ZM257.585 -1.50544C255.363 4.30253 251.216 13.5406 245.156 21.1875C239.026 28.9223 231.992 33.7683 224 33.7683V49.7683C239.09 49.7683 250.239 40.534 257.696 31.1249C265.222 21.628 270.062 10.6588 272.529 4.21257L257.585 -1.50544ZM224 33.7683C211.899 33.7683 201.822 29.6814 189.523 24.5781L183.391 39.3563C195.357 44.3215 208.256 49.7683 224 49.7683V33.7683ZM189.523 24.5781C175.942 18.943 160.249 12.3671 139 12.3671V28.3671C156.753 28.3671 169.822 33.7261 183.391 39.3563L189.523 24.5781ZM131 20.3669V20.3671H147V20.3669H131ZM94.6092 39.3561C108.178 33.7259 121.247 28.3669 139 28.3669V12.3669C117.751 12.3669 102.058 18.9428 88.4771 24.5779L94.6092 39.3561ZM54 49.7681C69.744 49.7681 82.6431 44.3213 94.6092 39.3561L88.4771 24.5779C76.1781 29.6812 66.1011 33.7681 54 33.7681V49.7681ZM5.47131 4.21237C7.93792 10.6586 12.7784 21.6278 20.3044 31.1247C27.7607 40.5338 38.9103 49.7681 54 49.7681V33.7681C46.0082 33.7681 38.9738 28.9221 32.8442 21.1874C26.7843 13.5404 22.6371 4.30233 20.4147 -1.50564L5.47131 4.21237ZM16.74 3.75162C15.8373 6.62838 13.1674 8.01114 10.9431 7.99993C8.80771 7.98916 6.43355 6.72706 5.47131 4.21237L20.4147 -1.50564C18.7686 -5.80756 14.7629 -7.98102 11.0237 -7.99987C7.19551 -8.01917 2.94954 -5.74123 1.47394 -1.03863L16.74 3.75162Z" fill="#150C0C" mask="url(#path-1-inside-1_26_815)"/>
</svg>
