<svg width="99.1" height="28.6" viewBox="0 0 991 286" fill="none" xmlns="http://www.w3.org/2000/svg">
<rect x="263.253" y="165.699" width="53.0416" height="261.765" rx="26.5208" transform="rotate(90.1408 263.253 165.699)" fill="#6E382A"/>
<path d="M50.4288 188.337C50.2367 202.16 38.8751 213.21 25.0521 213.018C11.229 212.826 0.17892 201.465 0.371008 187.642L2.6307 25.0297C2.82278 11.2066 14.1843 0.156516 28.0074 0.348604C41.8304 0.540692 52.8805 11.9022 52.6884 25.7253L50.4288 188.337Z" fill="#6E382A"/>
<rect x="131.036" y="207.687" width="50.0626" height="173.005" rx="25.0313" transform="rotate(-179.204 131.036 207.687)" fill="#6E382A"/>
<rect x="207.036" y="212.595" width="50.0626" height="130.909" rx="25.0313" transform="rotate(-179.204 207.036 212.595)" fill="#6E382A"/>
<rect x="292.49" y="260.107" width="50.0626" height="108.278" rx="25.0313" transform="rotate(159.02 292.49 260.107)" fill="#6E382A"/>
<rect width="54.126" height="267.116" rx="27.063" transform="matrix(0.00174705 0.999999 0.999999 -0.00174705 721.909 171.002)" fill="#6E382A"/>
<path d="M939.068 194.256C939.254 208.362 950.84 219.646 964.945 219.46C979.051 219.274 990.335 207.688 990.149 193.583L987.961 27.6444C987.775 13.5386 976.19 2.25442 962.084 2.44041C947.978 2.62641 936.694 14.2122 936.88 28.318L939.068 194.256Z" fill="#6E382A"/>
<rect width="51.0861" height="176.542" rx="25.543" transform="matrix(0.999913 -0.0131847 -0.0131847 -0.999913 856.799 213.942)" fill="#6E382A"/>
<rect width="51.0861" height="133.586" rx="25.543" transform="matrix(0.999913 -0.0131847 -0.0131847 -0.999913 779.241 218.896)" fill="#6E382A"/>
<rect width="51.0861" height="110.491" rx="25.543" transform="matrix(0.933448 0.358712 0.358712 -0.933448 692.006 267.318)" fill="#6E382A"/>
</svg>
