<svg width="268" height="302" viewBox="0 0 268 302" fill="none" xmlns="http://www.w3.org/2000/svg">
<path d="M134.167 8L135.8 8.01074C204.811 8.80748 259.527 51.2163 259.527 104.495C259.527 119.724 260.673 130.763 261.787 145.44C262.903 160.136 264 174.603 264 189.137C264 219.713 245.227 246.81 219.176 266.493C193.13 286.172 160.524 297.865 134.278 297.999H134.25L134.221 298H133.779L133.75 297.999H133.722C107.476 297.865 74.8704 286.172 48.8242 266.493C22.7726 246.81 4.00007 219.713 4 189.137C4 174.603 5.09693 160.136 6.21289 145.44C7.32751 130.763 8.47264 119.724 8.47266 104.495C8.47266 51.2163 63.1891 8.80844 132.2 8.01172L133.833 8H134.167Z" fill="#9C6458" stroke="#150C0C" stroke-width="8"/>
</svg>
