<svg width="63" height="20" viewBox="0 0 63 20" fill="none" xmlns="http://www.w3.org/2000/svg">
<path d="M12.3099 19.6822C15.4248 19.6822 17.9499 16.2347 17.9499 11.9821C17.9499 7.72955 15.4248 4.28215 12.3099 4.28215C9.19504 4.28215 6.66992 7.72955 6.66992 11.9821C6.66992 16.2347 9.19504 19.6822 12.3099 19.6822Z" fill="black"/>
<path d="M16.02 9.20212C14.51 3.48212 6.96 2.59214 1.5 7.35214" stroke="#050504" stroke-width="3" stroke-linecap="round"/>
<path d="M56.43 16.9021C59.5449 16.9021 62.07 13.4547 62.07 9.20212C62.07 4.94953 59.5449 1.50212 56.43 1.50212C53.3152 1.50212 50.79 4.94953 50.79 9.20212C50.79 13.4547 53.3152 16.9021 56.43 16.9021Z" fill="black"/>
<path d="M60.1401 6.42209C58.6301 0.702086 51.0801 -0.18789 45.6201 4.57211" stroke="#050504" stroke-width="3" stroke-linecap="round"/>
</svg>
