<svg width="147" height="100" viewBox="0 0 147 100" fill="none" xmlns="http://www.w3.org/2000/svg">
<path d="M97.6898 24.13C97.6898 24.9584 98.3613 25.63 99.1898 25.63C100.018 25.63 100.69 24.9584 100.69 24.13H97.6898ZM113.16 22.4799C113.16 23.3084 113.831 23.9799 114.66 23.9799C115.488 23.9799 116.16 23.3084 116.16 22.4799H113.16ZM68.3504 24.7511C69.1408 24.9992 69.9827 24.5597 70.2309 23.7693C70.4791 22.9789 70.0395 22.137 69.2491 21.8888L68.3504 24.7511ZM14.9598 15.4899L15.6015 16.8457C15.6177 16.8381 15.6337 16.8301 15.6496 16.8219L14.9598 15.4899ZM5.48526 31.4353C5.63735 32.2497 6.42079 32.7865 7.23514 32.6345C8.04949 32.4824 8.58636 31.6989 8.43428 30.8846L5.48526 31.4353ZM97.6898 23.32C97.6898 32.3565 91.3689 39.31 83.9998 39.31V42.31C93.409 42.31 100.69 33.6023 100.69 23.32H97.6898ZM83.9998 39.31C76.6306 39.31 70.3098 32.3565 70.3098 23.32H67.3098C67.3098 33.6023 74.5905 42.31 83.9998 42.31V39.31ZM70.3098 23.32C70.3098 14.2834 76.6306 7.32996 83.9998 7.32996V4.32996C74.5905 4.32996 67.3098 13.0376 67.3098 23.32H70.3098ZM83.9998 7.32996C91.3689 7.32996 97.6898 14.2834 97.6898 23.32H100.69C100.69 13.0376 93.409 4.32996 83.9998 4.32996V7.32996ZM143.4 19.94C143.4 28.9765 137.079 35.9299 129.71 35.9299V38.9299C139.119 38.9299 146.4 30.2223 146.4 19.94H143.4ZM129.71 35.9299C122.341 35.9299 116.02 28.9765 116.02 19.94H113.02C113.02 30.2223 120.301 38.9299 129.71 38.9299V35.9299ZM116.02 19.94C116.02 10.9034 122.341 3.94995 129.71 3.94995V0.949951C120.301 0.949951 113.02 9.65762 113.02 19.94H116.02ZM129.71 3.94995C137.079 3.94995 143.4 10.9034 143.4 19.94H146.4C146.4 9.65762 139.119 0.949951 129.71 0.949951V3.94995ZM100.69 24.13C100.69 23.0301 101.264 22.1278 102.409 21.4032C103.587 20.6579 105.254 20.1949 107.015 20.0885C108.778 19.982 110.455 20.2434 111.627 20.7712C112.811 21.3048 113.16 21.9272 113.16 22.4799H116.16C116.16 20.2477 114.575 18.8088 112.859 18.0359C111.13 17.2572 108.939 16.9667 106.834 17.0939C104.728 17.2213 102.528 17.7776 100.805 18.8683C99.0489 19.9796 97.6898 21.7298 97.6898 24.13H100.69ZM68.7998 23.32C69.2491 21.8888 69.2489 21.8888 69.2484 21.8886C69.248 21.8885 69.2474 21.8883 69.2467 21.8881C69.2452 21.8876 69.243 21.8869 69.2402 21.8861C69.2347 21.8843 69.2265 21.8818 69.2158 21.8784C69.1944 21.8717 69.1628 21.8619 69.1212 21.849C69.0382 21.8232 68.9154 21.7852 68.7552 21.736C68.4349 21.6377 67.965 21.4946 67.3638 21.3147C66.1614 20.955 64.4333 20.448 62.3262 19.8576C58.1138 18.6773 52.3778 17.1611 46.2936 15.8213C40.2172 14.4832 33.755 13.3123 28.1011 12.8351C25.2743 12.5965 22.6157 12.5282 20.2895 12.7087C17.9856 12.8875 15.8916 13.3182 14.27 14.158L15.6496 16.8219C16.7555 16.2492 18.3896 15.8652 20.5216 15.6997C22.6314 15.536 25.1166 15.5939 27.8488 15.8245C33.3127 16.2857 39.6286 17.4255 45.6484 18.7511C51.6605 20.075 57.3388 21.5757 61.5168 22.7464C63.6048 23.3314 65.3159 23.8334 66.5039 24.1888C67.0978 24.3665 67.5609 24.5075 67.8748 24.6039C68.0317 24.6521 68.1513 24.6891 68.2314 24.714C68.2714 24.7264 68.3015 24.7358 68.3214 24.742C68.3314 24.7451 68.3388 24.7474 68.3437 24.749C68.3461 24.7497 68.3479 24.7503 68.349 24.7506C68.3496 24.7508 68.3499 24.7509 68.3502 24.751C68.3504 24.7511 68.3504 24.7511 68.7998 23.32ZM14.318 14.1342C11.1417 15.6376 8.55259 18.1504 6.9547 21.2802L9.62664 22.6443C10.9232 20.1047 13.0242 18.0657 15.6015 16.8457L14.318 14.1342ZM6.9547 21.2802C5.35682 24.4101 4.84013 27.9809 5.48526 31.4353L8.43428 30.8846C7.91079 28.0815 8.33006 25.184 9.62664 22.6443L6.9547 21.2802Z" fill="#050504"/>
</svg>
