<svg xmlns="http://www.w3.org/2000/svg" width="200" height="200" viewBox="0 0 200 200">
  <defs>
    <clipPath id="ryt639c">
      <rect x="0" y="0" width="200" height="200" rx="200" ry="200"/>
    </clipPath>
  </defs>
  <rect x="0" y="0" width="200" height="200" rx="200" ry="200" fill="#FFEDEF"/>
  <g clip-path="url(#ryt639c)">
  <g transform="translate(0, 0) scale(0.5)" style="color: #FFFFFF"/>
  <g transform="translate(0, 0) scale(0.5)" style="color: #000000"/>
  <g transform="translate(0, 0) scale(0.5)" style="color: #F4D150"/>
  <g transform="translate(54, 40) scale(0.5)" style="color: #AC6651"><svg xmlns="http://www.w3.org/2000/svg" width="200" height="320" fill="none" viewBox="0 0 200 320"><g clip-path="url(#84cp61o-pfmza2y)"><path fill="#AC6651" stroke="#000" stroke-width="4" d="M154 319.5c-14.4-20-25.667-58.666-27-78L58.5 212 30 319.5z"/><mask id="84cp61o-4ohykzo" width="124" height="118" x="30" y="212" maskUnits="userSpaceOnUse" style="mask-type:alpha"><path fill="#AC6651" d="M154 329.5c-14.4-20-25.667-68.666-27-88L58.5 212 30 329.5z"/></mask><g mask="url(#84cp61o-4ohykzo)"><ellipse cx="124" cy="210" fill="#000" rx="59" ry="54" style="mix-blend-mode:multiply"/></g><mask id="84cp61o-d7tst94" fill="#fff"><path fill-rule="evenodd" d="m183.886 150.917-.083-.348-.084-.347-16.396-68.437-.049-.203-.049-.203-.073-.304h-.001c-10.218-41.444-51.995-66.928-93.569-56.967s-67.267 51.61-57.594 93.185h-.002l16.992 70.918.014-.003c10.602 40.904 52.07 65.941 93.337 56.053 41.268-9.887 66.887-50.997 57.802-92.265l.013-.003z" clip-rule="evenodd"/></mask><path fill="#AC6651" fill-rule="evenodd" d="m183.886 150.917-.083-.348-.084-.347-16.396-68.437-.049-.203-.049-.203-.073-.304h-.001c-10.218-41.444-51.995-66.928-93.569-56.967s-67.267 51.61-57.594 93.185h-.002l16.992 70.918.014-.003c10.602 40.904 52.07 65.941 93.337 56.053 41.268-9.887 66.887-50.997 57.802-92.265l.013-.003z" clip-rule="evenodd"/><path fill="#000" d="m183.886 150.917-3.894.914.002.009.002.009zm-.167-.695-3.889.932.002.009.002.009zm-16.396-68.437-3.893.923.003.01zm-.049-.203-3.89.932zm-.049-.203-3.89.932.003.01zm-.073-.304 3.89-.932-.931-3.888-3.889.93zm-.001 0-3.884.958.951 3.857 3.863-.924zM73.582 24.109l-.932-3.89zm-57.594 93.185.934 3.889 3.862-.927-.9-3.869zm-.002 0-.934-3.889-3.887.933.931 3.888zm16.992 70.918-3.89.932.932 3.892 3.891-.934zm.014-.003 3.872-1.004-.986-3.803-3.82.917zm93.337 56.053-.932-3.89zm57.802-92.265-.931-3.89-3.819.915.844 3.835zm.013-.003.931 3.89 3.891-.932-.932-3.89zm3.636-1.991-.087-.365-7.779 1.865.078.329zm-.087-.365-.088-.364-7.771 1.899.08.33zm-24.26-66.92 16.397 68.437 7.779-1.864-16.397-68.436zm7.782-1.854-.051-.213-7.78 1.864.046.194zm-.051-.213-.051-.214-7.775 1.885.046.193zm-7.902 1.357.073.304 7.78-1.864-.073-.304zm4.819 2.959h.002l-1.861-7.781h-.001zm2.954-4.848c-10.744-43.578-54.671-70.373-98.385-59.9l1.864 7.78c39.435-9.448 79.061 14.724 88.753 54.035zm-98.385-59.9C28.936 30.692 1.922 74.484 12.092 118.2l7.792-1.813c-9.175-39.435 15.196-78.94 54.63-88.388zM16.92 121.183l.002-.001-1.868-7.779-.002.001zm19.948 66.096-16.992-70.918-7.78 1.864 16.992 70.918zm-4.81-2.961-.014.004 1.867 7.779.014-.004zm-2.939 4.893c11.15 43.012 54.75 69.337 98.142 58.94l-1.864-7.78c-39.143 9.379-78.477-14.369-88.533-53.167zm98.142 58.94c43.392-10.396 70.33-53.621 60.777-97.015l-7.813 1.72c8.617 39.143-15.684 78.137-54.828 87.515zm55.951-100.048-.012.003 1.863 7.78.012-.003zm-3.216 3.746.258 1.076 7.78-1.864-.258-1.076z" mask="url(#84cp61o-d7tst94)"/></g><defs><clipPath id="84cp61o-pfmza2y"><path fill="#fff" d="M0 0h200v320H0z"/></clipPath></defs></svg></g>
  <g transform="translate(32, 156) scale(0.5)" style="color: #FC909F"><svg xmlns="http://www.w3.org/2000/svg" width="281" height="93" fill="none" viewBox="0 0 281 93"><path fill="#FC909F" stroke="#000" stroke-width="4" d="M80.427 34.413c1.602-.365 3.78-.255 6.503.378 2.695.627 5.767 1.728 9.08 3.185 6.627 2.912 14.025 7.16 20.976 11.56 6.941 4.393 13.387 8.906 18.1 12.323a359 359 0 0 1 7.138 5.31q.263.202.397.307l.101.077.024.02.006.004.001.001h.001l1.722 1.34 1.185-1.831.012-.018.041-.062.168-.254c.15-.225.376-.558.67-.984.588-.85 1.453-2.068 2.549-3.523 2.193-2.915 5.297-6.764 8.953-10.527 3.665-3.774 7.826-7.4 12.126-9.925 4.316-2.534 8.579-3.845 12.535-3.312 42.438 5.722 73.666 24.521 93.938 52.519H3.357c16.3-29.342 39.483-48.018 77.07-56.588Z"/><path fill="#f9b1bb" stroke="#000" stroke-width="4" d="m68.595 37.085 5.167-19.232c.209-.779 1.217-.999 1.76-.404 14.864 16.265 33.62 15.627 39.846 14.88.845-.1 1.506.824 1.109 1.577L103.32 58.859a.95.95 0 0 1-1.037.505c-3.949-.823-23.623-5.632-33.572-21.497a1 1 0 0 1-.116-.782ZM199.178 36.981 187.597 17.5c-.393-.662-1.362-.65-1.781-.005-5.737 8.836-15.631 12.906-19.091 14.108-.623.217-.908.956-.572 1.523l13.503 22.815c.201.34.582.525.962.417 2.135-.608 9.46-3.672 18.547-18.336a1.01 1.01 0 0 0 .013-1.04Z"/><path fill="#000" stroke="#000" stroke-linejoin="round" stroke-width="4" d="m125.482 54.5-9-21.5-7 15zM156.982 53.5l9-21.5 7 15zM86.482 14l-12 3 10 6.5zM175.982 14l11 3-7 6.5z"/></svg></g>
  <g transform="translate(40, 32) scale(0.5)" style="color: #FFFFFF"><svg xmlns="http://www.w3.org/2000/svg" width="240" height="212" fill="none" viewBox="0 0 240 212"><path fill="#FFFFFF" stroke="#000" stroke-width="4" d="M222.726 112.791c0-66.089-36.458-110.79-80.867-110.791C84.966 2 27 23.341 27 124.255c0 24.968 10.659 43.572 25.564 57.285-1.494-1.869-2.697-3.544-3.497-4.921-2.891-26.981 29.166-47.69 60.534-67.954 16.653-10.758 33.111-21.39 44.045-32.77 9.594 5.437 37.794 28.214 43.167 37.425 2.882 4.94 7.509 21.869 10.671 41.63 10.338-12.418 15.242-24.843 15.242-42.159Z"/><path stroke="#000" stroke-width="4" d="M154.264 75.246c13.174-11.945 32.882-39.206 31.617-56.912"/></svg></g>
  <g transform="translate(82, 90) scale(0.5)" style="color: #000000"><svg xmlns="http://www.w3.org/2000/svg" width="96" height="48" fill="none" viewBox="0 0 96 48"><ellipse cx="16.117" cy="28.927" fill="#000" rx="9" ry="10" transform="rotate(-6.776 16.117 28.927)"/><ellipse cx="80.149" cy="18.923" fill="#000" rx="9" ry="10" transform="rotate(-6.276 80.149 18.923)"/></svg></g>
  <g transform="translate(100, 104) scale(0.5)" style="color: #000000"><svg xmlns="http://www.w3.org/2000/svg" width="32" height="40" fill="none" viewBox="0 0 32 40"><path stroke="#171921" stroke-width="4" d="M16.5 3c0 14 7 25 7 25S20 34 10 32"/></svg></g>
  <g transform="translate(68, 80) scale(0.5)" style="color: #000000"><svg xmlns="http://www.w3.org/2000/svg" width="149" height="51" fill="none" viewBox="0 0 149 51"><path stroke="#000000" stroke-linecap="round" stroke-width="4" d="M27 28.633c6.167 2.5 21.1 3 31.5-15M94 6.133c5.167 5.333 18.1 12.8 28.5 0M37.148 28.59 31 23.165M116.219 11.576l1.785-8.004M45.598 24.947l-4.047-7.132M108.142 11.15l.938-8.146M52.674 19.333l-2.201-7.9M99.993 10.164 99.217 2"/></svg></g>
  <g transform="translate(94, 120) scale(0.5)" style="color: #000000"><svg xmlns="http://www.w3.org/2000/svg" width="64" height="64" fill="none" viewBox="0 0 64 64"><path stroke="#000" stroke-width="4" d="M13 46c1.715-7.957 8.07-24.767 19.77-28.348S50.466 26.107 52 32.572"/></svg></g>
  <g transform="translate(54, 106) scale(0.5)" style="color: #AC6651"><svg xmlns="http://www.w3.org/2000/svg" width="48" height="52" fill="none" viewBox="0 0 48 52"><path stroke="#000" stroke-width="4" d="m37 42.536-.534.575C32.808 47.053 28.003 50 22.524 50c-3.318 0-6.433-.489-8.867-1.872-2.553-1.451-4.205-3.806-4.594-7.074a8 8 0 0 1 .243-3.212c-3.548-3.116-5.688-7.804-6.22-14.176-.544-6.539 1.508-11.784 5.311-15.371C12.16 4.747 17.44 3 23.08 3c4.692 0 9.232 1.254 12.966 3.545L37 7.13z"/><path fill="#AC6651" fill-rule="evenodd" d="M42.972 23.984q.107-.978.108-1.984c0-10.217-9.507-17-20-17s-19 6.5-18 18.5c.556 6.677 2.946 11.072 6.65 13.717-.588 1.024-.845 2.227-.682 3.6.63 5.281 5.138 7.183 11.476 7.183 11.105 0 19.892-14.047 20.448-24.016" clip-rule="evenodd"/><path stroke="#171921" stroke-width="4" d="M27.5 13.5c-4-1.833-12.8-2.8-16 8"/><path stroke="#171921" stroke-width="4" d="M17 14c2.167 1.833 6.3 7.5 5.5 15.5"/></svg></g>
</g>
</svg>
