<svg xmlns="http://www.w3.org/2000/svg" width="200" height="200" viewBox="0 0 200 200">
  <defs>
    <clipPath id="rixttcf">
      <rect x="0" y="0" width="200" height="200" rx="200" ry="200"/>
    </clipPath>
  </defs>
  <rect x="0" y="0" width="200" height="200" rx="200" ry="200" fill="#F4A464"/>
  <g clip-path="url(#rixttcf)">
  <g transform="translate(-24, 0) scale(0.7692307692307693)" style="color: #1C2845"><svg xmlns="http://www.w3.org/2000/svg" width="320" height="320" fill="none" viewBox="0 0 320 320"><g clip-path="url(#dnm9uy7-91kljyr)"><path fill="#000" d="M258.32 224.66c7.33 16.9 10.59 31.11 9.69 42.23l-.09 1.14-213.67 1.14.09-1.34c1.62-24.57 28.26-49.53 33.65-54.34-1.28-1.74-1.7-3.92-.27-6.85 2.76-5.69 13.11-12.47 17.68-15.26-2.81-1.56-2.99-4.46-3.15-7.05-.06-1.08-.13-2.2-.35-3.3-1.21-5.78 2.62-8.38 5.99-10.68.97-.65 1.91-1.3 2.74-1.99 0-.01 0-.02.02-.02 1.33-1.12 2.4-2.39 2.82-4.1 2.11-8.44 15.67-6.55 16.24-6.47l-.14 1.01c2.5 4.61 6.38 8.32 10.75 11.16 8.43 5.49 18.88 8.16 28.87 6.34 2.41-.44 4.78-1.13 7.02-2.11 2.43-1.05 4.68-2.45 6.84-3.96 1.1-.77 2.17-1.56 3.24-2.36 1.09-.81 2.12-1.64 2.97-2.72 1.74-2.22 3.29-4.61 4.92-6.92l-.35-.87c.21-.08 5.2-2.07 8.84-.47 1.48.65 2.53 1.77 3.12 3.34.72 1.88 1.75 1.82 4.62 1.35 2.47-.4 5.55-.9 8.79.85 6.43 3.46 11.99 11.88 10.16 19.97-.28 1.24-.54 2.19-.86 2.9 2.62 1.47 9.08 5.04 13.96 7.05 3.3 1.36 5.32 4.02 5.52 7.29.07 1.27-.15 2.5-.59 3.56 1.32 2.22 6.25 10.69 10.93 21.48m7.27 40.88c1.19-22.53-15.64-52.99-19.77-60.09-.25.22-.51.42-.79.57-.65.37-1.73 1.04-3.1 1.9-4.85 3.02-12.96 8.07-17.67 9.23-4.86 1.2-10.97 6.77-12.23 7.96a6.9 6.9 0 0 1-1.46 3.15c-6.06 7.25-20.24 25.11-24.18 37.71zm-21.78-61.7c.92-.51 1.79-2.08 1.67-4.06-.08-1.34-.71-3.79-3.98-5.14-5.88-2.42-13.7-6.88-15.19-7.73-.47.03-1.02-.02-1.69-.15-1.82-.33-4.85-.9-10.91.83-9.93 2.84-18.09 14.14-22.83 21.8 4.15.7 14.89 3.19 20.1 10.71.39.57.66 1.18.86 1.81 2.59-2.25 7.49-6.12 11.82-7.19 4.33-1.06 12.23-5.98 16.95-8.92 1.39-.87 2.5-1.56 3.2-1.96m-16.88-22.01c1.18-5.24-1.3-10.65-5-14.3-1.46 2.86-6.24 10.54-16.7 13.39-11.3 3.08-16.46 15.04-19.55 22.19l-.28.65-1.12-.49c-1.38 3.28-3.9 5.79-6.71 8.01-1.41 1.1-2.86 2.12-4.5 2.85-1.6.72-3.28 1.22-5 1.54-3.64.67-7.43.67-11.1.24-3.64-.43-7.23-1.36-10.49-3.07-1.54-.81-2.99-1.79-4.3-2.92-1.19-1.04-2.17-2.25-3.21-3.42l-.68.63c-.05-.05-5.43-5.78-17.71-18.75-7.91-8.34-10.13-13.53-10.59-16.43-.23.16-.46.32-.69.47-3.61 2.45-5.78 4.16-4.96 8.11.27 1.27.34 2.53.41 3.65.17 2.89.35 4.44 2.33 5.24 1.74.7 6.21 3.44 10.94 6.33 4.05 2.47 8.22 5.03 9.66 5.64 2.86 1.23 4.44 3.53 5.97 5.75 1.02 1.48 2.08 3.02 3.54 4.29.57.5 1.13 1.04 1.71 1.59 3.29 3.15 7.02 6.71 17.4 7.89 12.48 1.41 26.11-1.98 29.15-7.25l.35-.61c3.78-6.58 13.82-24.03 27.22-27.86 6.62-1.89 10.16-1.24 12.06-.88.38.07.84.17 1.05.15.19-.27.46-1.15.8-2.63m-6.97-15.98c-.63-.47-1.28-.89-1.94-1.24-2.5-1.35-4.89-.96-7.2-.58-2.76.45-5.89.96-7.37-2.94-.34-.92-.93-1.56-1.78-1.93-2.21-.97-5.74.03-6.91.5l-.14-.35c-.82 1.17-1.65 2.33-2.47 3.5-.92 1.3-1.78 2.69-2.88 3.85-1 1.05-2.23 1.88-3.4 2.74-1.28.95-2.58 1.88-3.92 2.76-4.34 2.83-9.12 4.68-14.27 5.36-5.09.68-10.32.25-15.28-1.07-5.04-1.34-9.85-3.64-14.09-6.67-3.6-2.57-6.8-5.75-9.07-9.55-1.2-.15-11.86-1.31-13.34 4.61-.56 2.26-1.9 3.9-3.45 5.24-.16.67-.71 5.34 9.94 16.58 12.3 12.97 17.67 18.71 17.72 18.76l-.41.39c1.12 1.27 2.19 2.57 3.5 3.67a22.5 22.5 0 0 0 4.62 2.91c3.26 1.55 6.85 2.35 10.43 2.65 3.45.29 7 .24 10.39-.5 1.69-.38 3.35-.93 4.88-1.73 1.55-.81 2.93-1.88 4.27-2.99 2.36-1.94 4.4-4.15 5.57-6.95l-.25-.11.28-.64c3.26-7.56 8.72-20.21 21.18-23.61 10.31-2.81 14.6-10.98 15.39-12.66m-11.31 60.81c1.23-1.48 1.34-3.59.27-5.13-5.12-7.4-16.83-9.45-19.45-9.83-.57.98-1.08 1.86-1.5 2.59l-.36.62c-.32.56-.75 1.11-1.28 1.66h.05c-4.6 17.07-10.9 43.83-9.89 49.45l7.29-.04c3.76-13.1 18.6-31.82 24.87-39.32m-25.5-7.66c-4.64 2.77-12.03 4.76-20.66 4.76-2.1 0-4.26-.12-6.48-.37-9.4-1.06-13.89-4.08-17.1-6.94l-1.72 1.12c1.35 5.82 8.85 38.34 9.14 48.61l27.66-.15c-.84-8.03 6.51-36.95 9.16-47.03m-47.08 47.23 7.76-.04c-.28-9.47-7.13-39.61-8.87-47.16l-16.43 10.72c3.24 5.01 16.5 26.1 17.54 36.48m-19.35-38.29 20.31-13.25c-.5-.48-.99-.94-1.48-1.37-1.7-1.49-2.85-3.15-3.96-4.76-1.45-2.1-2.7-3.92-4.9-4.87-1.6-.69-5.66-3.17-9.97-5.81-3.09-1.88-6.47-3.95-8.68-5.18-3.17 1.89-15.31 9.35-18.08 15.03-1.92 3.95.76 5.62 5.66 8.22 1.5.8 3.06 1.63 4.43 2.6 4.46 3.17 14.11 8.1 16.67 9.39m-59.77 38.72 76.61-.41c-1.21-10.43-15.84-33.17-17.61-35.9-1.95-.97-12.45-6.27-17.35-9.76-1.24-.88-2.72-1.67-4.16-2.43-1.58-.84-3.29-1.76-4.69-2.88-2.22 1.99-8.82 8.13-15.5 16.36-7.21 8.9-15.93 22.07-17.3 35.02"/><path fill="#253250" d="M245.82 205.45c4.13 7.1 20.96 37.56 19.77 60.09l-79.2.43c3.94-12.6 18.12-30.46 24.18-37.71.77-.93 1.25-2.02 1.46-3.15 1.26-1.19 7.37-6.76 12.23-7.96 4.71-1.16 12.82-6.21 17.67-9.23 1.37-.86 2.45-1.53 3.1-1.9.28-.15.54-.35.79-.57"/><path fill="#1C2845" d="M245.48 199.78c.12 1.98-.75 3.55-1.67 4.06-.7.4-1.81 1.09-3.2 1.96-4.72 2.94-12.62 7.86-16.95 8.92-4.33 1.07-9.23 4.94-11.82 7.19-.2-.63-.47-1.24-.86-1.81-5.21-7.52-15.95-10.01-20.1-10.71 4.74-7.66 12.9-18.96 22.83-21.8 6.06-1.73 9.09-1.16 10.91-.83.67.13 1.22.18 1.69.15 1.49.85 9.31 5.31 15.19 7.73 3.27 1.35 3.9 3.8 3.98 5.14"/><path fill="#ddd" d="M221.93 167.53c3.7 3.65 6.18 9.06 5 14.3-.34 1.48-.61 2.36-.8 2.63-.21.02-.67-.08-1.05-.15-1.9-.36-5.44-1.01-12.06.88-13.4 3.83-23.44 21.28-27.22 27.86l-.35.61c-3.04 5.27-16.67 8.66-29.15 7.25-10.38-1.18-14.11-4.74-17.4-7.89-.58-.55-1.14-1.09-1.71-1.59-1.46-1.27-2.52-2.81-3.54-4.29-1.53-2.22-3.11-4.52-5.97-5.75-1.44-.61-5.61-3.17-9.66-5.64-4.73-2.89-9.2-5.63-10.94-6.33-1.98-.8-2.16-2.35-2.33-5.24-.07-1.12-.14-2.38-.41-3.65-.82-3.95 1.35-5.66 4.96-8.11.23-.15.46-.31.69-.47.46 2.9 2.68 8.09 10.59 16.43 12.28 12.97 17.66 18.7 17.71 18.75l.68-.63c1.04 1.17 2.02 2.38 3.21 3.42 1.31 1.13 2.76 2.11 4.3 2.92 3.26 1.71 6.85 2.64 10.49 3.07 3.67.43 7.46.43 11.1-.24 1.72-.32 3.4-.82 5-1.54 1.64-.73 3.09-1.75 4.5-2.85 2.81-2.22 5.33-4.73 6.71-8.01l1.12.49.28-.65c3.09-7.15 8.25-19.11 19.55-22.19 10.46-2.85 15.24-10.53 16.7-13.39"/><path fill="#c6c6c6" d="M218.02 164.61c.66.35 1.31.77 1.94 1.24-.79 1.68-5.08 9.85-15.39 12.66-12.46 3.4-17.92 16.05-21.18 23.61l-.28.64.25.11c-1.17 2.8-3.21 5.01-5.57 6.95-1.34 1.11-2.72 2.18-4.27 2.99-1.53.8-3.19 1.35-4.88 1.73-3.39.74-6.94.79-10.39.5-3.58-.3-7.17-1.1-10.43-2.65a22.5 22.5 0 0 1-4.62-2.91c-1.31-1.1-2.38-2.4-3.5-3.67l.41-.39c-.05-.05-5.42-5.79-17.72-18.76-10.65-11.24-10.1-15.91-9.94-16.58 1.55-1.34 2.89-2.98 3.45-5.24 1.48-5.92 12.14-4.76 13.34-4.61 2.27 3.8 5.47 6.98 9.07 9.55 4.24 3.03 9.05 5.33 14.09 6.67 4.96 1.32 10.19 1.75 15.28 1.07 5.15-.68 9.93-2.53 14.27-5.36 1.34-.88 2.64-1.81 3.92-2.76 1.17-.86 2.4-1.69 3.4-2.74 1.1-1.16 1.96-2.55 2.88-3.85.82-1.17 1.65-2.33 2.47-3.5l.14.35c1.17-.47 4.7-1.47 6.91-.5.85.37 1.44 1.01 1.78 1.93 1.48 3.9 4.61 3.39 7.37 2.94 2.31-.38 4.7-.77 7.2.58"/><path fill="#1C2845" d="M208.92 221.53c1.07 1.54.96 3.65-.27 5.13-6.27 7.5-21.11 26.22-24.87 39.32l-7.29.04c-1.01-5.62 5.29-32.38 9.89-49.44h-.05c.53-.56.96-1.11 1.28-1.67l.36-.62c.42-.73.93-1.61 1.5-2.59 2.62.38 14.33 2.43 19.45 9.83"/><path fill="#ddd" d="M174.91 231.81c-.41.11-3.81 1.02-7.93 2.12-4.38 1.16-8.02 2.13-8.1 2.15-1.06.25-1.94.22-2.54-.07-.34-.17-.64-.48-.82-.82-.26-.51-.28-1.17-.07-1.93.13-.48.37-1.02.64-1.49.04-.05.06-.1.06-.1s-.47.51-.63.69c-1.07 1.21-1.68 2.07-2.08 2.95-.46 1.02-.58 1.95-.35 2.66.08.23.2.44.37.66.06.08.25.27.33.33.42.34.96.52 1.61.54.73.03 1.63-.14 2.64-.5.39-.14.61-.22 1.45-.58 5.1-2.18 14.76-6.32 15.42-6.61m-12.42-8.05c8.63 0 16.02-1.99 20.66-4.76-2.65 10.08-10 39-9.16 47.03l-27.66.15c-.29-10.27-7.79-42.79-9.14-48.61l1.72-1.12c3.21 2.86 7.7 5.88 17.1 6.94 2.22.25 4.38.37 6.48.37"/><path fill="#000" d="M166.98 233.93c4.12-1.1 7.52-2.01 7.93-2.12-.66.29-10.32 4.43-15.42 6.61-.84.36-1.06.44-1.45.58-1.01.36-1.91.53-2.64.5-.65-.02-1.19-.2-1.61-.54-.08-.06-.27-.25-.33-.33-.17-.22-.29-.43-.37-.66-.23-.71-.11-1.64.35-2.66.4-.88 1.01-1.74 2.08-2.95.16-.18.63-.69.63-.69s-.02.05-.06.1c-.27.47-.51 1.01-.64 1.49-.21.76-.19 1.42.07 1.93.18.34.48.65.82.82.6.29 1.48.32 2.54.07.08-.02 3.72-.99 8.1-2.15"/><path fill="#1C2845" d="m143.83 266.19-7.76.04c-1.04-10.38-14.3-31.47-17.54-36.48l16.43-10.72c1.74 7.55 8.59 37.69 8.87 47.16M137.03 214.69l-20.31 13.25c-2.56-1.29-12.21-6.22-16.67-9.39-1.37-.97-2.93-1.8-4.43-2.6-4.9-2.6-7.58-4.27-5.66-8.22 2.77-5.68 14.91-13.14 18.08-15.03 2.21 1.23 5.59 3.3 8.68 5.18 4.31 2.64 8.37 5.12 9.97 5.81 2.2.95 3.45 2.77 4.9 4.87 1.11 1.61 2.26 3.27 3.96 4.76.49.43.98.89 1.48 1.37"/><path fill="#253250" d="m133.56 266.25-76.61.41c1.37-12.95 10.09-26.12 17.3-35.02 6.68-8.23 13.28-14.37 15.5-16.36 1.4 1.12 3.11 2.04 4.69 2.88 1.44.76 2.92 1.55 4.16 2.43 4.9 3.49 15.4 8.79 17.35 9.76 1.77 2.73 16.4 25.47 17.61 35.9"/></g><defs><clipPath id="dnm9uy7-91kljyr"><path fill="#fff" d="M54 50h214.4v219.42H54z"/></clipPath></defs></svg></g>
  <g transform="translate(-24, 0) scale(0.7692307692307693)" style="color: #DBA472"><svg xmlns="http://www.w3.org/2000/svg" width="320" height="320" fill="none" viewBox="0 0 320 320"><path fill="#DBA472" d="M213.73 127.56c.06.41.09.82.09 1.24 0 5.66-5.04 10.25-11.25 10.25-.75 0-1.49-.09-2.21-.22v-10.32c.12-.05.24-.11.34-.2.07-.05.66-.53 1.63-.93-.06 1.79.66 4.03 3.41 5.74q.315.18.66.18c.42 0 .83-.21 1.06-.59.37-.59.18-1.36-.4-1.72-2.36-1.46-2.35-3.23-2.15-4.15 1.57-.03 3.48.46 5.56 2.13.23.19.51.28.78.28.37 0 .73-.16.98-.47s.33-.7.25-1.05z"/><path fill="#DBA472" d="m213.73 127.56-1.25.17a1.28 1.28 0 0 0-.44-.71c-4.68-3.76-9.14-2.89-11.68-1.48v-6.76c.73-.14 1.46-.23 2.21-.23 5.75 0 10.5 3.94 11.16 9.01"/><path fill="#000" d="M202.57 116.05c7.58 0 13.75 5.72 13.75 12.75s-6.17 12.75-13.75 12.75c-.74 0-1.48-.06-2.21-.17v.92c0 10.79-4.5 20.54-11.71 27.5h.16v24.68c0 13.52-11 24.52-24.52 24.52h-5.46c-13.52 0-24.52-11-24.52-24.52v-25.92a38 38 0 0 1-1.96-2.22 38.34 38.34 0 0 1-8.49-24.04v-.93c-.76.12-1.52.18-2.29.18-7.58 0-13.75-5.72-13.75-12.75s6.17-12.75 13.75-12.75c.77 0 1.53.07 2.29.19v-9.94c0-21.09 17.16-38.25 38.25-38.25s38.25 17.16 38.25 38.25v9.92c.73-.1 1.47-.17 2.21-.17m11.25 12.75c0-.42-.03-.83-.09-1.24-.66-5.07-5.41-9.01-11.16-9.01-.75 0-1.48.09-2.21.23v6.76c2.54-1.41 7-2.28 11.68 1.48.23.19.38.44.44.71.08.35 0 .74-.25 1.05s-.61.47-.98.47c-.27 0-.55-.09-.78-.28-2.08-1.67-3.99-2.16-5.56-2.13-.2.92-.21 2.69 2.15 4.15.58.36.77 1.13.4 1.72-.23.38-.64.59-1.06.59q-.345 0-.66-.18c-2.75-1.71-3.47-3.95-3.41-5.74-.97.4-1.56.88-1.63.93-.1.09-.22.15-.34.2v10.32c.72.13 1.46.22 2.21.22 6.21 0 11.25-4.59 11.25-10.25m-15.96 13.5v-36c0-19.71-16.04-35.75-35.75-35.75s-35.75 16.04-35.75 35.75v36c0 8.16 2.81 16.13 7.93 22.46 6.83 8.45 16.97 13.29 27.82 13.29 19.71 0 35.75-16.03 35.75-35.75m-11.55 52.18V171.9c-6.6 5.4-15.03 8.65-24.2 8.65s-18.37-3.42-25.3-9.55v23.48c0 12.14 9.88 22.02 22.02 22.02h5.46c12.14 0 22.02-9.88 22.02-22.02m-62.45-55.66v-10.81c-.44-.25-1.15-.6-2.06-.86.14 1.83-.52 4.19-3.4 5.97a1.264 1.264 0 0 1-1.72-.41 1.25 1.25 0 0 1 .41-1.72c2.38-1.47 2.35-3.27 2.13-4.18-1.65.04-3.57.57-5.55 2.16a1.23 1.23 0 0 1-1.75-.19c-.25-.31-.33-.7-.25-1.05.06-.27.21-.52.44-.71 4.36-3.51 8.88-3 11.75-1.8v-6.43c-.75-.14-1.52-.24-2.29-.24-5.74 0-10.49 3.94-11.16 9.01-.06.41-.09.82-.09 1.24 0 5.66 5.05 10.25 11.25 10.25.78 0 1.54-.09 2.29-.23"/><path fill="#DBA472" d="M197.86 106.3v36c0 19.72-16.04 35.75-35.75 35.75-10.85 0-20.99-4.84-27.82-13.29-5.12-6.33-7.93-14.3-7.93-22.46v-36c0-19.71 16.03-35.75 35.75-35.75s35.75 16.04 35.75 35.75"/><path fill="#DBA472" d="M186.31 171.9v22.58c0 12.14-9.88 22.02-22.02 22.02h-5.46c-12.14 0-22.02-9.88-22.02-22.02V171c6.93 6.13 15.86 9.55 25.3 9.55s17.6-3.25 24.2-8.65M123.86 128.01v10.81c-.75.14-1.51.23-2.29.23-6.2 0-11.25-4.59-11.25-10.25 0-.42.03-.83.09-1.24l1.26.17c-.08.35 0 .74.25 1.05a1.23 1.23 0 0 0 1.75.19c1.98-1.59 3.9-2.12 5.55-2.16.22.91.25 2.71-2.13 4.18a1.25 1.25 0 0 0-.41 1.72 1.264 1.264 0 0 0 1.72.41c2.88-1.78 3.54-4.14 3.4-5.97.91.26 1.62.61 2.06.86"/><path fill="#DBA472" d="M123.86 118.79v6.43c-2.87-1.2-7.39-1.71-11.75 1.8-.23.19-.38.44-.44.71l-1.26-.17c.67-5.07 5.42-9.01 11.16-9.01.77 0 1.54.1 2.29.24"/><path fill="#000" d="M179.86 175.56c-.3.18-.62.35-.98.48-6.83 2.53-16.24 4.2-23.49 2.82-6.44-1.22-15.15-4.86-19.78-9.82l1.05 22.99s28.09.62 46.81-17.96c-1.14.61-2.36 1.1-3.62 1.49z" opacity=".6"/><g clip-path="url(#dnm9uy7-23f9em9)"><path fill="#000" d="M161.78 143.58c-.69 0-1.25-.56-1.25-1.25v-27.08a1.25 1.25 0 0 1 2.5 0v27.08c0 .69-.56 1.25-1.25 1.25"/><path fill="#000" d="m158 142.24 2.53-26.99 1.25 28.32h-2.56c-.72 0-1.29-.62-1.22-1.34z" opacity=".1"/></g><defs><clipPath id="dnm9uy7-23f9em9"><path fill="#fff" d="M158 114h5.03v29.58H158z"/></clipPath></defs></svg></g>
  <g transform="translate(-24, 0) scale(0.7692307692307693)" style="color: #1A4730"><svg xmlns="http://www.w3.org/2000/svg" width="320" height="320" fill="none" viewBox="0 0 320 320"><g clip-path="url(#dnm9uy7-bxyhvc5)"><path fill="#000" d="M120.84 118.14s-2.34-7.47-1.35-11.53c0 0-3.56-8.6-1.6-13.77 0 0-3.41-14.67 9.09-22.38.97-.6 1.47-1.73 1.24-2.85s-.45-2.59-.4-3.89c.05-1.42 1.19-2.53 2.61-2.68 1.56-.16 4.25-.77 8.34-2.72 7.25-3.44 10.82-8.85 23.11-4.92 0 0 8.97-6.88 15.98-3.44s.98 4.92 9.71 10.08 9.22 7.01 11.43 11.31 6.64 3.07 8.11 7.62c0 0-3.77 1.23-2.93 3.2 0 0 1 7.01 1.59 14.14s-4.67 22.03-4.67 22.03l-3.8.26s-1.87-4.43-5.68-7.01c0 0-2.2-14.44-2.2-20.34 0 0-10.75-10.82-14.23-14.51 0 0-12.08 5.78-25.36.25 0 0-10.45 7.13-14.38 8.36s-4.18 9.59-6.15 11.31.2 10.92-.88 14.8-4.15 10.96-4.15 10.96l-3.45-4.27z"/></g><defs><clipPath id="dnm9uy7-bxyhvc5"><path fill="#fff" d="M56 49h208.23v222.53H56z"/></clipPath></defs></svg></g>
  <g transform="translate(-24, 0) scale(0.7692307692307693)" style="color: #000000"><svg xmlns="http://www.w3.org/2000/svg" width="320" height="320" fill="none" viewBox="0 0 320 320"><path fill="#000" d="M151.08 154.15c-.6 0-1.13-.43-1.23-1.05a1.26 1.26 0 0 1 1.03-1.44l21.91-3.61c.68-.11 1.32.35 1.44 1.03s-.35 1.32-1.03 1.44l-21.91 3.61c-.07.01-.14.02-.2.02z"/></svg></g>
  <g transform="translate(-24, 0) scale(0.7692307692307693)" style="color: #000000"><svg xmlns="http://www.w3.org/2000/svg" width="320" height="320" fill="none" viewBox="0 0 320 320"><path fill="#000" d="M144.7 130.05c2.375 0 4.3-2.821 4.3-6.3s-1.925-6.3-4.3-6.3-4.3 2.821-4.3 6.3 1.925 6.3 4.3 6.3M181.75 130.05c2.375 0 4.3-2.821 4.3-6.3s-1.925-6.3-4.3-6.3-4.3 2.821-4.3 6.3 1.925 6.3 4.3 6.3M136.29 114.53a1.248 1.248 0 0 1-.4-2.43c9.04-3.06 14.81-.81 15.05-.71.64.26.95.99.69 1.63s-.98.95-1.62.69c-.09-.04-5.25-1.97-13.32.76-.13.04-.27.07-.4.07zM188.88 114.16c-.11 0-.23-.01-.34-.05-8.23-2.32-13.29-.09-13.34-.07-.63.29-1.37 0-1.66-.62s-.02-1.36.61-1.65c.24-.11 5.88-2.66 15.07-.07.66.19 1.05.88.86 1.54-.16.55-.66.91-1.2.91z"/><circle cx="146" cy="121" r="1" fill="#fff"/><circle cx="183" cy="121" r="1" fill="#fff"/></svg></g>
</g>
</svg>
