
<svg xmlns="http://www.w3.org/2000/svg" width="300" height="300" viewBox="0 0 300 300">
  <defs>
    <clipPath id="26p37fg">
      <rect x="0" y="0" width="300" height="300" rx="300" ry="300" />
    </clipPath>
  </defs>
  <rect x="0" y="0" width="300" height="300" rx="300" ry="300" fill="#FFD2B7" />
  <g clip-path="url(#26p37fg)">
  <g transform="translate(24, 9) scale(0.8571428571428571)" style="color: #000000"><svg xmlns="http://www.w3.org/2000/svg" width="306" height="375" fill="none" viewBox="0 0 306 375"><path fill="#000000" stroke="#000000" stroke-linecap="round" stroke-linejoin="round" stroke-miterlimit="10" stroke-width="5.126" d="M124.5 208.5C120 203.5 110 190 110 190c-1.5 26-12.9 22-56.5 37.5C50 229.4 41.889 255 41 259c-2 9-4.4 22.6-9 39-9.8 35.1-17 73.26-17 73.26h252.9s-4.4-17.26-13.4-49.76c-4.7-31.4-11.262-57.498-16-67.5-9-19-66-38.5-66-38.5s-8.5 4-20.5 4c-11.5-2-20.718-3.464-27.5-11"/><path stroke="#fff" stroke-linecap="round" stroke-linejoin="round" stroke-miterlimit="10" stroke-width="2" d="m66.54 373.038 5.42-36.976M213.591 373.1 209 336.011"/></svg></g>
  <g transform="translate(0, 0) scale(0.8571428571428571)" style="color: #000000"></g>
  <g transform="translate(24, 9) scale(0.8571428571428571)" style="color: #000000"><svg xmlns="http://www.w3.org/2000/svg" width="306" height="306" fill="none" viewBox="0 0 306 306"><path fill="#fff" d="M180.2 243.093c-2.149 10.716-16.069 17.166-39.507 7.491-24.359-9.988-34.901-33.814-37.562-40.889 14.431-27.467 4.401-46.506 4.401-46.506 33.263-2.914 62.331 36.622 62.331 36.622l4.503 19.56c.409 1.665 1.228 3.121 2.456 4.162 2.15 3.849 4.708 12.693 3.378 19.56"/><path fill="#000000" d="M102.62 210.007c1.944-3.017 3.172-6.554 3.991-9.988 1.535-7.178 2.047-14.461 2.149-21.744v-2.705c-.307-2.705-1.228-5.515-2.251-8.012-1.331-3.329 3.48-5.41 5.015-2.08.205.416.205 1.144.205 1.56.307 14.15.921 32.357-7.881 44.114-.614.624-1.843-.312-1.228-1.145M177.54 223.22c3.479 6.659 5.526 14.982 3.377 22.369-1.637 5.202-6.346 9.052-11.463 10.509-11.872 3.225-25.587-1.873-36.129-7.596-12.999-7.386-22.619-19.767-28.76-33.293-.41-1.04 1.023-1.873 1.637-.832 2.15 4.37 4.606 8.635 7.369 12.485 2.764 3.953 5.937 7.595 9.519 10.82 10.439 9.572 24.564 15.502 38.688 15.502 14.533-.416 20.06-8.219 16.683-22.577-.512-2.289-1.331-4.682-2.457-6.658-.614-.833.922-1.769 1.536-.729"/><path fill="#fff" d="M217.149 98.267c1.842 8.739.409 14.566-.409 38.703-.41 11.445-2.15 15.71-2.662 28.508-.204 5.826-4.401 13.837-5.936 18.519-2.047 6.347-4.094 14.878-8.802 21.016-2.456 3.122-5.424 4.994-10.337 5.827-1.638.312-3.275-2.185-4.606-1.665-16.069 7.179-33.673 3.85-49.639-10.3-6.96-6.243-17.4-21.329-21.801-31.733-.921-2.185-5.015 2.393-10.849-4.161-8.085-8.948-17.808-26.947-12.998-58.784 7.779-51.605 48.002-57.639 77.785-51.917 29.989 5.722 45.341 22.993 50.254 45.987"/><path fill="#000000" d="M107.226 172.136c-2.354-3.953-5.425-7.491-8.188-11.236-4.094-5.723-7.165-12.277-9.212-19.04-10.542-33.501-.511-78.968 36.334-89.788 13.51-4.162 27.839-3.85 41.554-1.248 18.423 3.225 36.846 12.797 45.853 30.172 3.275 6.45 5.731 13.421 6.448 20.6.409 4.786-.41 9.572-.922 14.254-.614 4.681-.716 9.259-.921 13.941-.512 6.971-1.433 13.838-1.74 20.809-.409 4.681-.102 9.363-.818 14.045-1.536 9.364-5.016 18.103-7.881 26.947-2.252 6.763-4.504 15.086-11.361 18.519-4.913 3.018-10.849 3.122-16.274 2.705-.818 0-1.433-.208-2.047 0-13.203 2.601-25.485.313-36.538-7.803-5.323-4.265-11.668-8.323-15.66-13.941-.409-.625.41-1.353.921-.833 3.173 3.226 6.96 5.723 10.849 8.116 3.992 2.497 7.574 5.098 11.566 6.866 8.495 4.162 18.013 4.786 27.225 3.122.511-.104 1.535-.312 2.047-.208 3.377.208 6.652.52 9.928 0 3.991-.625 7.88-2.393 10.132-5.723 2.354-3.329 3.582-7.907 5.22-12.277 3.173-8.635 6.96-17.167 8.904-26.114.819-3.85 1.024-9.676 1.331-13.734.716-9.259 2.354-18.415 2.354-27.779.102-4.682.205-9.363.102-13.941-1.228-23.306-14.431-43.282-36.231-51.5-24.257-9.26-56.599-8.636-74.408 12.9-8.598 10.3-12.59 23.826-14.431 37.039-3.48 21.016-2.15 41.825 14.328 57.119l4.811 5.098c1.842 2.705-1.638 5.41-3.275 2.913"/><path fill="#fff" d="M119.303 139.051s-3.173-15.606-18.116-13.733c-12.896 1.664-17.4 33.085 11.873 41.824"/><path fill="#000000" d="M111.73 153.513c-2.354-1.352-3.992-3.641-4.094-6.45.102-2.081.409-4.474-.103-6.555-.307-1.977-2.354-2.497-3.889-2.393-1.637.312-2.661 2.393-2.968 4.058 0 .104-.102.416-.102.52-.103.52-.921.52-1.126 0-1.33-4.058 1.637-8.532 5.936-8.011 6.039.416 6.857 6.866 5.732 11.756-.614 2.081.204 3.954 1.33 5.723l.205.312c.512.624-.307 1.456-.921 1.04"/><path fill="#000000" d="M118.791 139.155c-2.354-6.138-7.471-11.965-14.329-11.861-.614-.104-1.637.104-2.251.104-1.74.104-3.173.729-4.504 1.977-6.55 6.659-5.424 18.416-.102 25.802 1.842 2.602 4.196 4.89 6.857 6.763s5.629 3.33 8.802 4.578c.717.208.41 1.353-.307 1.249-6.857-1.457-13.408-4.89-17.91-10.613-6.96-8.531-8.394-22.785-.103-31.108 1.842-1.665 4.4-2.913 6.959-2.913.819 0 2.047-.208 2.866 0 4.299.208 8.393 2.393 11.054 5.826 2.354 2.913 3.685 6.451 4.094 9.988 0 .624-.921.832-1.126.208M176.107 208.967c4.708-1.04 7.471-5.722 7.062-10.508-.103-.729 1.023-.937 1.126-.208 1.74 5.93-1.433 12.381-7.063 14.67-2.968 1.144-4.196-3.434-1.125-3.954"/></svg></g>
  <g transform="translate(24, 9) scale(0.8571428571428571)" style="color: #000000"><svg xmlns="http://www.w3.org/2000/svg" width="306" height="306" fill="none" viewBox="0 0 306 306"><path fill="#000000" d="M226.893 106.56c-2.8 8.7.5 8.4-3 11.4-1.011.866-6 5-8.5 0-.5-.5-2.562-14.684-5-22-15.7 15.3-40.8-2.3-40.8-2.3s-5.7 4.7-15.7 3.6c-10.7-1.1-13 2.6-13 2.6-11.5 2.1-22.6 2.2-19.1 22.3 1 5.5 3.3 14.8-1.4 20.3-.8-2.8-7-18.2-19.8-16.6-12.1 1.5-16.7 29.5 8.3 39.1 1.5 9.5 2.5 22.8 1.5 19.5-7-21.6-22.8-19.1-29.4-35.4-3.1-7.8-2.6-14.7-1-19.8 1.6-4.9 1.5-10.2-.1-15.1-1.8-5.7-3.2-14.3.1-24.7 5.6-17.8 17.6-21.9 20.7-24s1.6-21.3 23.3-27.3c17.3-4.8 30.3 5.3 34.1 4.6s30.4-18.2 50.9-1.7c19.8 16 12.4 34.9 12.4 34.9s12.3 9.5 5.5 30.6"/></svg></g>
  <g transform="translate(24, 9) scale(0.8571428571428571)" style="color: #000000"><svg xmlns="http://www.w3.org/2000/svg" width="306" height="306" fill="none" viewBox="0 0 306 306"><ellipse cx="167.647" cy="134.5" fill="#000000" rx="2.647" ry="4.5"/><ellipse cx="204.647" cy="136.5" fill="#000000" rx="2.647" ry="4.5"/></svg></g>
  <g transform="translate(24, 9) scale(0.8571428571428571)" style="color: #000000"><svg xmlns="http://www.w3.org/2000/svg" width="306" height="306" fill="none" viewBox="0 0 306 306"><path stroke="#000000" stroke-linecap="round" stroke-linejoin="round" stroke-width="6" d="M159 123.704c2.204-2.04 7.69-4.898 12 0M200 125.704c2.204-2.04 7.69-4.898 12 0"/></svg></g>
  <g transform="translate(24, 9) scale(0.8571428571428571)" style="color: #000000"><svg xmlns="http://www.w3.org/2000/svg" width="306" height="306" fill="none" viewBox="0 0 306 306"><path stroke="#000000" stroke-linejoin="round" stroke-width="6" d="M111 162v8z"/><path fill="#fff" stroke="#000000" stroke-linejoin="round" stroke-width="6" d="M108.691 176.89c-1.972-2.651.753-5.727 2.259-6.89 3.615 2.303 3.4 5.773 2.465 6.89-1.442 1.722-3.82 1.217-4.724 0Z"/></svg></g>
  <g transform="translate(24, 9) scale(0.8571428571428571)" style="color: #000000"><svg xmlns="http://www.w3.org/2000/svg" width="306" height="306" fill="none" viewBox="0 0 306 306"><path stroke="#000000" stroke-linejoin="round" stroke-width="6" d="M152.5 119.017c-7.6-.4-9.5 6.167-9.5 9.5-1.833 6.5-2.8 20.3 8 23.5 13.5 4 28-1.5 32-5.5s3-9 3.5-16c.4-5.6-3.5-8-5.5-8.5-6.333-.833-20.9-2.6-28.5-3ZM204.5 123.517c-4.4.4-5.5 4.5-5.5 6.5-1.2 12.801 3.5 18 6 19 4 1.5 12.9 3.8 16.5 1 4.5-3.5 5-10.5 5-20 0-7.6-3.666-8.833-5.5-8.5-3.666.5-12.1 1.6-16.5 2Z"/><path fill="#000000" stroke="#000000" stroke-linejoin="round" stroke-width="4" d="M185 130.518c2.5-3 10.5-5.5 16-.5 0 0-10.5-1.5-16 .5ZM144 128l-28 .518v2l27 2.982z"/></svg></g>
  <g transform="translate(24, 9) scale(0.8571428571428571)" style="color: #000000"><svg xmlns="http://www.w3.org/2000/svg" width="306" height="306" fill="none" viewBox="0 0 306 306"><path stroke="#000000" stroke-linecap="round" stroke-linejoin="round" stroke-width="2.5" d="M172.459 180.525c2.529-.829 8.497-1.761 12.143 1.147M170.807 172.076c-.432.588-1.648 1.88-3.049 2.351"/><path stroke="#000000" stroke-linecap="round" stroke-linejoin="round" stroke-width="2.5" d="M169.305 174.008c4.074.761 13.84 2.325 20.309 2.483-.249-.023-1.051.353-2.267 2.048-1.519 2.118-3.793 6.238-9.753 5.487-4.768-.602-7.513-6.93-8.289-10.018"/></svg></g>
</g>
</svg>
