<svg width="147" height="100" viewBox="0 0 147 100" fill="none" xmlns="http://www.w3.org/2000/svg">
<path d="M66.7198 37.93C69.9498 54.7 68.3098 72.39 63.0098 90.77C92.9098 102.12 114.4 103.46 128.24 87.77C144.82 68.31 145.37 55.77 143.53 36.23C133.26 44.68 104.66 43.71 66.7198 37.93Z" fill="#050504"/>
<path d="M67.9301 40.11C62.1401 36.78 31.8701 17.84 28.6201 16.69C18.4001 13.07 5.80013 22.05 9.76013 38.37C14.3401 57.2 21.2901 65.37 27.5201 70.62C33.7501 75.87 64.6501 89.24 64.6501 89.24" stroke="#050504" stroke-width="4" stroke-linecap="round" stroke-linejoin="round"/>
<path opacity="0.4" d="M66.7198 37.93C69.9498 54.7 68.3098 72.39 63.0098 90.77C92.9098 102.12 114.4 103.46 128.24 87.77C144.82 68.31 145.37 55.77 143.53 36.23C133.26 44.68 104.66 43.71 66.7198 37.93Z" fill="#050504"/>
<path opacity="0.4" d="M66.18 36.8C69.599 54.2211 68.7654 72.2098 63.75 89.2401C93.64 100.6 113.86 102.32 127.7 86.64C144.28 67.17 144.91 54.3 143.07 34.79C132.79 43.27 104.12 42.59 66.18 36.8Z" fill="#050504"/>
</svg>
