<svg width="306" height="306" viewBox="0 0 306 306" fill="none" xmlns="http://www.w3.org/2000/svg">
<path d="M100.17 140.802C99.0941 146.365 103.384 148.48 105.663 148.842C107.008 150.146 110.147 153.166 111.94 154.818C114.182 156.882 117.096 157.751 117.881 156.23C118.509 155.013 116.499 152.319 115.415 151.123C113.883 149.602 110.797 146.495 110.707 146.234C112.388 141.997 110.819 139.063 108.577 137.76C106.335 136.456 101.179 136.456 100.17 140.802Z" fill="black" stroke="black"/>
<path d="M103.291 140.046C103.701 139.677 105.133 141.617 104.99 142.665C104.811 143.975 102.129 141.094 103.291 140.046Z" fill="white" stroke="white"/>
</svg>
