<svg width="306" height="306" viewBox="0 0 306 306" fill="none" xmlns="http://www.w3.org/2000/svg">
<path d="M152.5 119.017C144.9 118.617 143 125.184 143 128.517C141.167 135.017 140.2 148.817 151 152.017C164.5 156.017 179 150.517 183 146.517C187 142.517 186 137.517 186.5 130.517C186.9 124.917 183 122.517 181 122.017C174.667 121.184 160.1 119.417 152.5 119.017Z" stroke="black" stroke-width="6" stroke-linejoin="round"/>
<path d="M204.5 123.517C200.1 123.917 199 128.017 199 130.017C197.8 142.818 202.5 148.017 205 149.017C209 150.517 217.9 152.817 221.5 150.017C226 146.517 226.5 139.517 226.5 130.017C226.5 122.417 222.834 121.184 221 121.517C217.334 122.017 208.9 123.117 204.5 123.517Z" stroke="black" stroke-width="6" stroke-linejoin="round"/>
<path d="M185 130.518C187.5 127.518 195.5 125.018 201 130.018C201 130.018 190.5 128.518 185 130.518Z" fill="black" stroke="black" stroke-width="4" stroke-linejoin="round"/>
<path d="M144 128L116 128.518V130.518L143 133.5L144 128Z" fill="black" stroke="black" stroke-width="4" stroke-linejoin="round"/>
</svg>
