<svg width="306" height="306" viewBox="0 0 306 306" fill="none" xmlns="http://www.w3.org/2000/svg">
<path d="M128.5 62.8024C109 76.8858 104.833 113.802 105.5 123.802H105.499C101.999 123.802 93.833 123.802 92.9998 122.802C91.9998 112.302 100.148 79.052 107 69.8024C117 56.3024 129.5 50.8024 141 48.3024C168.854 42.2471 182.143 49.8235 184.643 51.8235C177.143 49.8235 145.91 50.228 128.5 62.8024Z" fill="white" stroke="black" stroke-width="6"/>
<path d="M90.2344 126.89C90.2344 116.767 101.977 115.642 107.848 116.345C113.719 117.048 123.734 125.196 123.734 144.176C123.734 163.156 117.007 170.473 111.371 171.176C97.2798 171.176 90.2344 139.543 90.2344 126.89Z" fill="white" stroke="black" stroke-width="6"/>
<path d="M85.2347 128.176C86.5728 118.143 98.9771 116.642 104.848 117.345C110.234 119.176 120.735 126.196 120.735 145.176C120.735 164.156 114.007 171.473 108.371 172.176C94.2802 172.176 83.2344 143.176 85.2347 128.176Z" fill="white" stroke="black" stroke-width="6"/>
</svg>
