<svg width="306" height="306" viewBox="0 0 306 306" fill="none" xmlns="http://www.w3.org/2000/svg">
<path d="M134.5 153.8C128.5 149.1 123.5 143.6 119.1 137.4C117.6 135.4 116.4 133.2 115.1 131.1C114.9 130.8 115 130.3 115.4 130.1C115.7 129.9 116.2 130 116.4 130.4C120.3 136.6 125.1 142.1 130.6 146.9C132.4 148.5 134.4 150.1 136.3 151.4C137.9 152.5 136.2 155 134.5 153.8Z" fill="black"/>
<path d="M128.5 189.8C122.5 185.1 117.5 179.6 113.1 173.4C111.6 171.4 110.4 169.2 109.1 167.1C108.9 166.8 109 166.3 109.4 166.1C109.7 165.9 110.2 166 110.4 166.4C114.3 172.6 119.1 178.1 124.6 182.9C126.4 184.5 128.4 186.1 130.3 187.4C131.9 188.5 130.2 191 128.5 189.8Z" fill="black"/>
<path d="M190.809 138.013C196.111 137.822 201.154 139.815 204.819 145.158C204.881 145.248 204.951 145.333 205.026 145.412C208.77 149.31 212.354 150.866 214.286 152.146C215.268 152.797 215.866 153.369 216.269 154.133C216.684 154.921 217 156.123 217 158.208C217 162.525 215.947 171.261 213.139 180.382C210.32 189.537 205.834 198.741 199.188 204.329C192.275 210.143 183.306 215.335 174.188 217.233C165.139 219.118 156.044 217.756 148.45 210.641C144.237 206.693 140.893 203.903 138.059 201.04C135.308 198.262 133.305 195.658 131.977 192.41C129.297 185.856 129.163 176.206 132.683 156.426C132.972 155.506 133.701 154.123 134.925 153.077C136.12 152.056 137.819 151.315 140.251 151.677C144.231 152.269 150.281 152.56 156.62 151.68C162.941 150.802 169.744 148.734 175.038 144.446C179.684 140.684 185.41 138.207 190.809 138.013Z" fill="white" stroke="black" stroke-width="4" stroke-linejoin="round"/>
</svg>
