<svg width="306" height="306" viewBox="0 0 306 306" fill="none" xmlns="http://www.w3.org/2000/svg">
<path d="M180.342 243.078C178.191 253.797 164.259 260.249 140.8 250.571C116.42 240.58 105.868 216.749 103.205 209.673C117.649 182.199 107.61 163.155 107.61 163.155C140.903 160.241 169.995 199.786 169.995 199.786L174.503 219.351C174.913 221.016 175.732 222.473 176.961 223.513C179.113 227.364 181.673 236.209 180.342 243.078Z" fill="white"/>
<path d="M102.693 209.985C104.639 206.967 105.869 203.429 106.688 199.995C108.225 192.814 108.737 185.529 108.839 178.245V175.539C108.532 172.833 107.61 170.024 106.586 167.526C105.254 164.196 110.069 162.114 111.605 165.445C111.81 165.861 111.81 166.589 111.81 167.006C112.117 181.159 112.732 199.37 103.922 211.13C103.308 211.754 102.078 210.817 102.693 209.985Z" fill="black"/>
<path d="M177.679 223.201C181.162 229.861 183.211 238.186 181.059 245.575C179.42 250.778 174.708 254.629 169.586 256.086C157.703 259.312 143.976 254.213 133.425 248.489C120.415 241.1 110.786 228.716 104.64 215.188C104.23 214.147 105.664 213.315 106.279 214.355C108.43 218.726 110.889 222.993 113.655 226.843C116.42 230.798 119.596 234.44 123.181 237.666C133.63 247.24 147.767 253.172 161.903 253.172C176.45 252.756 181.981 244.951 178.601 230.59C178.089 228.3 177.269 225.907 176.142 223.929C175.528 223.097 177.064 222.16 177.679 223.201Z" fill="black"/>
<path d="M217.322 98.218C219.166 106.96 215.581 110.914 215.581 134.329C215.581 146.088 216.605 153.581 213.225 167.838C211.688 174.394 206.873 182.407 203.595 188.443C200.317 194.479 202.468 204.573 196.937 209.256C180.342 223.305 160.264 219.351 142.029 207.487C141.312 207.071 137.317 202.284 136.088 201.347C131.888 198.121 124.922 194.687 122.873 192.606C117.137 186.882 121.439 176.788 117.956 170.856C113.449 163.259 108.02 169.399 102.18 162.843C94.0878 153.893 84.3561 135.89 89.1707 104.046C96.9561 52.4289 137.215 46.3931 167.024 52.1167C197.039 57.9444 212.405 75.2194 217.322 98.218Z" fill="white"/>
<path d="M107.303 172.105C104.947 168.15 101.976 164.716 99.2099 160.97C95.1124 155.246 92.0392 148.898 89.9904 142.238C81.1806 113.62 85.9953 76.364 112.22 58.6728C136.19 42.2303 182.8 47.4336 203.595 67.7265C212.815 76.1559 221.727 93.743 219.781 106.439C218.039 115.493 216.503 124.443 216.81 133.704C216.81 138.283 217.322 142.862 217.322 147.545C217.63 156.911 215.991 166.381 212.508 175.123C210.766 179.493 208.615 183.656 206.259 187.715C205.849 188.339 205.542 189.276 205.337 190.42C204.517 193.751 204.108 197.081 203.391 200.515C202.571 204.157 201.649 208.32 198.576 211.025C190.073 217.998 178.703 220.079 168.151 219.247C160.776 218.622 153.605 216.645 146.947 213.419C141.108 209.881 137.215 204.157 132.298 199.578C131.786 199.058 132.4 198.225 133.015 198.538C136.6 200.515 140.903 204.053 144.181 206.655C147.766 209.673 151.454 210.921 155.654 212.17C159.854 213.419 164.156 214.356 168.459 214.668C177.986 215.396 188.23 213.627 195.912 207.591C197.961 205.614 198.678 202.492 199.395 199.578C200.317 195.624 200.83 191.461 202.161 187.611C202.366 186.986 202.776 186.154 203.083 185.737C205.542 181.991 207.795 178.037 209.639 173.978C213.43 165.757 215.376 156.807 215.376 147.753C215.376 143.174 214.966 138.596 214.864 134.017C214.761 127.044 214.659 120.072 215.274 113.099C215.581 109.665 216.093 106.439 215.991 103.109C214.659 91.2455 209.127 79.5901 200.932 71.0566C183.21 52.741 149.61 47.5377 126.356 56.2793C98.9026 66.6859 91.7319 94.8878 90.1953 121.841C89.1709 137.971 93.9855 153.789 105.971 164.924L110.786 170.023C112.425 171.897 108.942 174.602 107.303 172.105Z" fill="black"/>
<path d="M119.39 139.012C119.39 139.012 116.215 123.402 101.258 125.275C88.3511 126.94 83.8438 158.368 113.141 167.11" fill="white"/>
<path d="M111.809 153.477C109.453 152.124 107.814 149.834 107.712 147.025C107.814 144.943 108.121 142.55 107.609 140.469C107.302 138.491 105.253 137.971 103.716 138.075C102.077 138.387 101.053 140.469 100.746 142.134C100.746 142.238 100.643 142.55 100.643 142.654C100.541 143.174 99.7213 143.174 99.5165 142.654C98.1848 138.595 101.155 134.12 105.458 134.641C111.502 135.057 112.321 141.509 111.195 146.4C110.58 148.482 111.399 150.355 112.526 152.124L112.731 152.436C113.243 153.061 112.424 153.893 111.809 153.477Z" fill="black"/>
<path d="M118.878 139.116C116.521 132.976 111.4 127.148 104.536 127.252C103.921 127.148 102.897 127.356 102.282 127.356C100.541 127.46 99.1068 128.085 97.7751 129.334C91.219 135.994 92.3459 147.753 97.6727 155.142C99.5166 157.744 101.873 160.033 104.536 161.906C107.2 163.779 110.17 165.236 113.346 166.485C114.063 166.693 113.756 167.838 113.039 167.734C106.175 166.277 99.619 162.843 95.1117 157.119C88.1458 148.586 86.7117 134.329 95.0093 126.003C96.8532 124.338 99.4142 123.09 101.975 123.09C102.795 123.09 104.024 122.881 104.843 123.09C109.146 123.298 113.243 125.483 115.907 128.917C118.263 131.831 119.595 135.369 120.004 138.908C120.004 139.532 119.082 139.74 118.878 139.116Z" fill="black"/>
</svg>
