<svg width="306" height="306" viewBox="0 0 306 306" fill="none" xmlns="http://www.w3.org/2000/svg">
<path d="M180.447 243.067C178.295 253.788 164.361 260.241 140.897 250.561C116.511 240.569 105.958 216.734 103.294 209.656C117.741 182.178 107.7 163.13 107.7 163.13C141 160.216 170.098 199.768 170.098 199.768L174.607 219.336C175.017 221.001 175.836 222.458 177.066 223.499C179.218 227.35 181.779 236.197 180.447 243.067Z" fill="white"/>
<path d="M102.782 209.968C104.729 206.95 105.958 203.411 106.778 199.976C108.315 192.794 108.827 185.508 108.929 178.222V175.516C108.622 172.81 107.7 170 106.675 167.502C105.343 164.171 110.159 162.089 111.696 165.42C111.901 165.836 111.901 166.565 111.901 166.981C112.208 181.137 112.823 199.352 104.011 211.113C103.397 211.738 102.167 210.801 102.782 209.968Z" fill="black"/>
<path d="M177.783 223.187C181.267 229.848 183.316 238.175 181.165 245.565C179.525 250.769 174.812 254.62 169.689 256.077C157.804 259.304 144.074 254.204 133.52 248.479C120.508 241.089 110.876 228.703 104.729 215.172C104.319 214.131 105.753 213.299 106.368 214.339C108.52 218.711 110.979 222.978 113.745 226.83C116.512 230.785 119.688 234.428 123.274 237.654C133.725 247.23 147.865 253.163 162.004 253.163C176.554 252.746 182.087 244.94 178.706 230.577C178.193 228.287 177.374 225.893 176.246 223.915C175.632 223.082 177.169 222.146 177.783 223.187Z" fill="black"/>
<path d="M217.436 98.1818C219.28 106.925 213.132 116.292 213.132 139.607C213.132 163.443 208.829 189.36 191.103 207.366C175.836 222.875 158.316 222.25 137.721 205.909C134.852 203.619 124.811 195.917 122.249 193.315C119.278 190.296 117.639 188.111 116.204 185.821C114.975 183.739 115.282 171.665 113.54 168.855C109.032 161.257 108.11 169.479 102.269 162.818C94.1751 153.867 84.4413 135.86 89.2569 104.01C97.044 52.3847 137.311 46.3478 167.127 52.0725C197.148 57.9012 212.517 75.1792 217.436 98.1818Z" fill="white"/>
<path d="M107.393 172.081C105.036 168.126 102.065 164.587 99.2985 160.944C96.5321 157.093 94.2779 153.034 92.4336 148.663C81.9826 122.954 83.5195 89.3345 102.065 67.685C114.77 52.9051 134.852 48.0131 153.295 49.0539C171.738 50.1989 190.899 54.9867 204.526 68.5177C212.415 76.324 217.436 86.7324 219.69 97.5572C220.407 100.992 219.895 104.739 219.075 107.966C216.719 117.021 214.465 125.66 214.26 135.027C214.362 148.975 213.952 163.234 209.956 176.661C207.087 185.612 203.706 194.564 198.378 202.37C192.845 210.28 184.546 216.63 175.017 218.503C155.857 222.458 137.926 210.176 125.221 196.854C124.709 196.229 125.426 195.5 126.041 195.917C133.316 201.537 140.795 206.742 148.89 210.28C172.251 221.209 191.616 211.113 201.862 188.215C210.469 171.561 212.928 153.554 212.21 134.923C212.21 130.24 212.415 125.556 213.03 120.872C213.645 114.107 215.899 107.341 215.797 100.68C214.055 89.855 209.137 79.4465 201.759 71.432C184.239 52.5928 150.631 47.0763 127.065 55.6113C99.2985 65.6033 91.8189 94.0183 90.282 121.184C89.2574 137.421 93.9706 153.346 106.061 164.483L110.877 169.583C112.516 171.873 109.032 174.579 107.393 172.081Z" fill="black"/>
<path d="M119.484 138.983C119.484 138.983 116.308 123.37 101.348 125.244C88.4384 126.909 83.9301 158.342 113.234 167.085" fill="white"/>
<path d="M111.902 153.45C109.545 152.097 107.906 149.807 107.803 146.997C107.906 144.915 108.213 142.521 107.701 140.44C107.393 138.462 105.344 137.942 103.807 138.046C102.168 138.358 101.143 140.44 100.836 142.105C100.836 142.209 100.733 142.521 100.733 142.625C100.631 143.146 99.8113 143.146 99.6064 142.625C98.2744 138.566 101.246 134.09 105.549 134.611C111.594 135.027 112.414 141.48 111.287 146.372C110.672 148.454 111.492 150.328 112.619 152.097L112.824 152.409C113.336 153.034 112.516 153.866 111.902 153.45Z" fill="black"/>
<path d="M118.972 139.087C116.615 132.946 111.492 127.117 104.627 127.221C104.012 127.117 102.988 127.325 102.373 127.325C100.631 127.429 99.1968 128.054 97.8648 129.303C91.3073 135.964 92.4344 147.726 97.7624 155.116C99.6067 157.718 101.963 160.008 104.627 161.881C107.291 163.755 110.263 165.212 113.439 166.461C114.156 166.669 113.849 167.814 113.132 167.71C106.267 166.253 99.7091 162.818 95.2008 157.093C88.2335 148.558 86.799 134.299 95.0984 125.972C96.9427 124.307 99.5042 123.058 102.066 123.058C102.885 123.058 104.115 122.85 104.935 123.058C109.238 123.266 113.336 125.452 116 128.886C118.357 131.801 119.689 135.34 120.099 138.879C120.099 139.503 119.177 139.711 118.972 139.087Z" fill="black"/>
</svg>
