<svg width="306" height="306" viewBox="0 0 306 306" fill="none" xmlns="http://www.w3.org/2000/svg">
<path d="M180.2 243.093C178.051 253.809 164.131 260.259 140.693 250.584C116.334 240.596 105.792 216.77 103.131 209.695C117.562 182.228 107.532 163.189 107.532 163.189C140.795 160.275 169.863 199.811 169.863 199.811L174.366 219.371C174.775 221.036 175.594 222.492 176.822 223.533C178.972 227.382 181.53 236.226 180.2 243.093Z" fill="white"/>
<path d="M102.62 210.007C104.564 206.99 105.792 203.453 106.611 200.019C108.146 192.841 108.658 185.558 108.76 178.275V175.57C108.453 172.865 107.532 170.055 106.509 167.558C105.178 164.229 109.989 162.148 111.524 165.478C111.729 165.894 111.729 166.622 111.729 167.038C112.036 181.188 112.65 199.395 103.848 211.152C103.234 211.776 102.005 210.84 102.62 210.007Z" fill="black"/>
<path d="M177.54 223.22C181.019 229.879 183.066 238.202 180.917 245.589C179.28 250.791 174.571 254.641 169.454 256.098C157.582 259.323 143.867 254.225 133.325 248.502C120.326 241.116 110.706 228.735 104.565 215.209C104.155 214.169 105.588 213.336 106.202 214.377C108.352 218.747 110.808 223.012 113.571 226.862C116.335 230.815 119.508 234.457 123.09 237.682C133.529 247.254 147.654 253.184 161.778 253.184C176.311 252.768 181.838 244.965 178.461 230.607C177.949 228.318 177.13 225.925 176.004 223.949C175.39 223.116 176.926 222.18 177.54 223.22Z" fill="black"/>
<path d="M217.149 98.2667C218.991 107.006 217.558 112.833 216.74 136.97C216.33 148.415 214.59 152.68 214.078 165.478C213.874 171.304 209.677 179.315 208.142 183.997C206.095 190.344 204.048 198.875 199.34 205.013C196.884 208.135 193.916 210.007 189.003 210.84C187.365 211.152 185.728 208.655 184.397 209.175C168.328 216.354 150.724 213.025 134.758 198.875C127.798 192.632 117.358 177.546 112.957 167.142C112.036 164.957 107.942 169.535 102.108 162.981C94.0228 154.033 84.2996 136.034 89.11 104.197C96.8886 52.5924 137.112 46.558 166.895 52.2803C196.884 58.0025 212.236 75.2735 217.149 98.2667Z" fill="white"/>
<path d="M107.226 172.136C104.872 168.183 101.801 164.645 99.0377 160.9C94.9437 155.177 91.8733 148.623 89.8263 141.86C79.2843 108.359 89.3145 62.8924 126.16 52.072C139.67 47.9104 153.999 48.2225 167.714 50.8235C186.137 54.0488 204.56 63.6207 213.567 80.9956C216.842 87.4462 219.298 94.417 220.015 101.596C220.424 106.382 219.605 111.168 219.093 115.85C218.479 120.531 218.377 125.109 218.172 129.791C217.66 136.762 216.739 143.629 216.432 150.6C216.023 155.281 216.33 159.963 215.614 164.645C214.078 174.009 210.598 182.748 207.733 191.592C205.481 198.355 203.229 206.678 196.372 210.111C191.459 213.129 185.523 213.233 180.098 212.816C179.28 212.816 178.665 212.608 178.051 212.816C164.848 215.417 152.566 213.129 141.513 205.013C136.19 200.748 129.845 196.69 125.853 191.072C125.444 190.447 126.263 189.719 126.774 190.239C129.947 193.465 133.734 195.962 137.623 198.355C141.615 200.852 145.197 203.453 149.189 205.221C157.684 209.383 167.202 210.007 176.414 208.343C176.925 208.239 177.949 208.031 178.461 208.135C181.838 208.343 185.113 208.655 188.389 208.135C192.38 207.51 196.269 205.742 198.521 202.412C200.875 199.083 202.103 194.505 203.741 190.135C206.914 181.5 210.701 172.968 212.645 164.021C213.464 160.171 213.669 154.345 213.976 150.287C214.692 141.028 216.33 131.872 216.33 122.508C216.432 117.826 216.535 113.145 216.432 108.567C215.204 85.2613 202.001 65.2853 180.201 57.0661C155.944 47.8063 123.602 48.4306 105.793 69.9672C97.1954 80.2673 93.2038 93.7928 91.3615 107.006C87.8816 128.022 89.2122 148.831 105.69 164.125L110.501 169.223C112.343 171.928 108.863 174.633 107.226 172.136Z" fill="black"/>
<path d="M119.303 139.051C119.303 139.051 116.13 123.445 101.187 125.318C88.2911 126.982 83.7878 158.403 113.06 167.142" fill="white"/>
<path d="M111.73 153.513C109.376 152.161 107.738 149.872 107.636 147.063C107.738 144.982 108.045 142.589 107.533 140.508C107.226 138.531 105.179 138.011 103.644 138.115C102.007 138.427 100.983 140.508 100.676 142.173C100.676 142.277 100.574 142.589 100.574 142.693C100.471 143.213 99.6525 143.213 99.4478 142.693C98.1173 138.635 101.085 134.161 105.384 134.682C111.423 135.098 112.241 141.548 111.116 146.438C110.502 148.519 111.32 150.392 112.446 152.161L112.651 152.473C113.163 153.097 112.344 153.929 111.73 153.513Z" fill="black"/>
<path d="M118.791 139.155C116.437 133.017 111.32 127.19 104.462 127.294C103.848 127.19 102.825 127.398 102.211 127.398C100.471 127.502 99.0377 128.127 97.7072 129.375C91.1568 136.034 92.2827 147.791 97.6048 155.177C99.4471 157.779 101.801 160.067 104.462 161.94C107.123 163.813 110.091 165.27 113.264 166.518C113.981 166.726 113.674 167.871 112.957 167.767C106.1 166.31 99.5494 162.877 95.0461 157.154C88.0863 148.623 86.6534 134.369 94.9437 126.046C96.786 124.381 99.3447 123.133 101.903 123.133C102.722 123.133 103.95 122.925 104.769 123.133C109.068 123.341 113.162 125.526 115.823 128.959C118.177 131.872 119.508 135.41 119.917 138.947C119.917 139.571 118.996 139.779 118.791 139.155Z" fill="black"/>
<path d="M176.107 208.967C180.815 207.927 183.578 203.245 183.169 198.459C183.066 197.73 184.192 197.522 184.295 198.251C186.035 204.181 182.862 210.632 177.232 212.921C174.264 214.065 173.036 209.487 176.107 208.967Z" fill="black"/>
</svg>
