<svg width="306" height="306" viewBox="0 0 306 306" fill="none" xmlns="http://www.w3.org/2000/svg">
<path d="M180.403 243.071C178.251 253.791 164.319 260.244 140.859 250.565C116.477 240.573 105.925 216.74 103.262 209.662C117.706 182.186 107.667 163.14 107.667 163.14C140.961 160.226 170.056 199.775 170.056 199.775L174.563 219.342C174.973 221.007 175.793 222.464 177.022 223.505C179.173 227.355 181.735 236.202 180.403 243.071Z" fill="white"/>
<path d="M102.75 209.975C104.696 206.956 105.925 203.418 106.745 199.983C108.282 192.802 108.794 185.516 108.896 178.231V175.525C108.589 172.819 107.667 170.009 106.642 167.511C105.311 164.181 110.126 162.099 111.662 165.43C111.867 165.846 111.867 166.574 111.867 166.991C112.174 181.145 112.789 199.359 103.979 211.12C103.364 211.744 102.135 210.807 102.75 209.975Z" fill="black"/>
<path d="M177.74 223.192C181.223 229.853 183.272 238.179 181.12 245.569C179.481 250.773 174.769 254.624 169.647 256.081C157.763 259.307 144.035 254.207 133.484 248.483C120.473 241.094 110.843 228.708 104.697 215.178C104.287 214.137 105.721 213.305 106.336 214.346C108.487 218.717 110.946 222.984 113.712 226.835C116.478 230.79 119.653 234.433 123.239 237.659C133.688 247.234 147.826 253.167 161.963 253.167C176.51 252.75 182.042 244.944 178.662 230.582C178.15 228.292 177.33 225.898 176.203 223.921C175.588 223.088 177.125 222.151 177.74 223.192Z" fill="black"/>
<path d="M217.385 98.1954C219.229 106.938 215.644 110.893 215.644 134.31C215.644 146.071 214.517 159.497 212.263 172.403C209.907 185.725 203.35 198.318 192.389 207.685C175.793 221.735 158.377 222.36 137.786 206.02C134.917 203.73 124.878 196.028 122.316 193.426C116.579 187.702 116.067 172.923 112.379 167.199C109.818 163.244 108.281 169.593 102.442 163.036C94.3489 154.085 84.6166 136.08 89.4315 104.232C97.2174 52.6095 137.478 46.573 167.29 52.2972C197.101 57.9174 212.468 75.1943 217.385 98.1954Z" fill="white"/>
<path d="M107.359 172.09C103.774 166.158 98.7541 161.162 95.4759 155.022C85.5387 136.392 83.4898 113.703 88.8169 93.3037C100.188 49.5911 141.986 42.0976 179.891 53.9624C200.38 60.4152 215.439 76.1309 219.639 97.779C221.176 105.585 217.898 113.078 217.385 120.676C216.873 125.255 216.668 129.835 216.771 134.414C217.283 148.361 216.873 162.515 212.775 175.941C208.575 189.367 201.711 202.689 190.34 211.328C168.929 227.564 143.625 215.699 127.029 198.526C126.517 198.006 127.234 197.173 127.848 197.589C138.708 205.499 150.284 212.993 163.602 214.45C186.857 217.156 203.043 195.091 209.907 175.109C212.878 166.47 214.415 157.415 214.722 148.361C215.029 139.098 214.312 129.835 214.619 120.572C214.722 118.282 214.824 115.888 215.029 113.599C215.337 109.956 216.259 103.92 215.541 100.381C213.39 89.5569 208.678 79.1491 201.097 71.1352C183.374 52.5053 149.977 47.1973 126.414 55.8358C98.7541 66.1394 91.4805 94.3444 89.9438 121.405C88.9194 137.641 93.6319 153.46 105.72 164.597L110.535 169.697C112.482 171.778 108.999 174.588 107.359 172.09Z" fill="black"/>
<path d="M119.448 138.993C119.448 138.993 116.273 123.382 101.316 125.255C88.4076 126.92 83.9 158.352 113.199 167.094" fill="white"/>
<path d="M111.867 153.46C109.511 152.107 107.872 149.818 107.77 147.007C107.872 144.926 108.179 142.532 107.667 140.451C107.36 138.473 105.311 137.953 103.774 138.057C102.135 138.369 101.111 140.451 100.803 142.116C100.803 142.22 100.701 142.532 100.701 142.636C100.599 143.157 99.779 143.157 99.5741 142.636C98.2423 138.577 101.213 134.102 105.516 134.622C111.56 135.039 112.38 141.491 111.253 146.383C110.638 148.465 111.458 150.338 112.585 152.107L112.79 152.42C113.302 153.044 112.482 153.877 111.867 153.46Z" fill="black"/>
<path d="M118.936 139.098C116.58 132.957 111.457 127.129 104.594 127.233C103.979 127.129 102.955 127.337 102.34 127.337C100.598 127.441 99.164 128.066 97.8323 129.314C91.2758 135.975 92.4027 147.736 97.7298 155.126C99.5738 157.728 101.93 160.017 104.594 161.891C107.257 163.764 110.228 165.221 113.404 166.47C114.121 166.678 113.814 167.823 113.097 167.719C106.233 166.262 99.6763 162.827 95.1687 157.103C88.2024 148.569 86.7682 134.31 95.0662 125.984C96.9102 124.319 99.4714 123.07 102.032 123.07C102.852 123.07 104.081 122.862 104.901 123.07C109.204 123.278 113.301 125.464 115.965 128.898C118.321 131.812 119.653 135.351 120.063 138.89C120.063 139.514 119.141 139.722 118.936 139.098Z" fill="black"/>
</svg>
