<svg width="306" height="306" viewBox="0 0 306 306" fill="none" xmlns="http://www.w3.org/2000/svg">
<path d="M180.135 243.074C177.986 253.793 164.072 260.246 140.643 250.567C116.294 240.576 105.756 216.743 103.096 209.666C117.521 182.191 107.495 163.145 107.495 163.145C140.746 160.231 169.801 199.779 169.801 199.779L174.303 219.345C174.712 221.01 175.531 222.467 176.758 223.508C178.907 227.359 181.465 236.205 180.135 243.074Z" fill="white"/>
<path d="M102.584 209.978C104.528 206.96 105.756 203.422 106.574 199.987C108.109 192.806 108.621 185.521 108.723 178.236V175.53C108.416 172.824 107.495 170.014 106.472 167.516C105.142 164.186 109.951 162.104 111.485 165.435C111.69 165.851 111.69 166.58 111.69 166.996C111.997 181.15 112.611 199.363 103.812 211.123C103.198 211.748 101.97 210.811 102.584 209.978Z" fill="black"/>
<path d="M177.475 223.195C180.954 229.856 183 238.182 180.851 245.571C179.214 250.775 174.508 254.626 169.393 256.083C157.525 259.309 143.815 254.209 133.277 248.485C120.284 241.096 110.667 228.711 104.528 215.182C104.119 214.141 105.552 213.308 106.165 214.349C108.314 218.72 110.769 222.987 113.532 226.838C116.294 230.793 119.466 234.435 123.046 237.662C133.482 247.236 147.601 253.169 161.719 253.169C176.247 252.752 181.772 244.947 178.396 230.585C177.884 228.295 177.066 225.901 175.94 223.924C175.327 223.091 176.861 222.155 177.475 223.195Z" fill="black"/>
<path d="M217.068 98.2033C218.91 106.945 217.478 112.774 216.659 136.919C215.841 160.647 209.088 194.159 200.801 202.589C194.458 208.937 174.098 213.933 155.99 209.25C146.782 206.856 139.006 201.444 132.663 197.593C124.683 192.702 117.726 177.611 111.997 167.933C107.495 160.335 107.904 169.494 102.073 162.937C93.9901 153.987 84.2707 135.982 89.0793 104.135C96.8548 52.515 137.062 46.4787 166.834 52.2028C196.811 57.9268 212.158 75.203 217.068 98.2033Z" fill="white"/>
<path d="M107.189 172.095C104.836 168.141 101.766 164.602 99.004 160.856C94.9117 155.132 91.8424 148.575 89.7962 141.81C80.8953 112.878 86.3177 74.9949 113.225 57.9268C137.677 42.1077 185.149 47.8317 204.997 69.479C212.465 77.2845 217.274 87.4837 219.32 98.0992C219.422 98.7237 219.729 99.8685 219.831 100.493C219.934 101.013 220.241 101.638 220.138 102.262C219.934 104.552 219.525 106.841 219.32 109.131C217.785 122.973 218.195 137.127 216.455 150.969C214.921 165.539 212.874 180.109 208.577 194.159C207.247 198.426 204.69 202.277 201.313 205.087C193.743 211.539 183.819 213.725 174.304 214.141C155.274 215.078 135.938 208.209 124.888 191.869C124.479 191.245 125.298 190.516 125.809 191.141C135.017 201.236 147.499 207.689 160.799 209.146C175.531 210.915 197.733 209.562 204.178 193.535C211.647 170.847 215.534 146.806 215.944 122.973C215.944 117.145 215.637 111.317 215.637 105.384C215.637 104.656 215.739 102.991 215.739 102.262C215.739 102.158 215.739 102.262 215.739 102.262C215.739 102.366 215.739 102.366 215.739 102.262C214.921 100.181 214.614 97.8911 214 95.8096C211.749 87.1715 207.657 78.9497 201.825 72.3931C182.489 50.3295 139.416 44.8136 115.271 61.3613C96.1394 74.2664 91.0239 99.0359 89.6939 120.891C88.5685 137.231 93.2747 153.258 105.45 164.498L110.258 169.598C112.304 171.887 108.826 174.593 107.189 172.095Z" fill="black"/>
<path d="M119.262 139C119.262 139 116.09 123.389 101.153 125.262C88.262 126.927 83.7604 158.357 113.021 167.1" fill="white"/>
<path d="M111.69 153.466C109.337 152.113 107.7 149.824 107.597 147.014C107.7 144.932 108.007 142.538 107.495 140.457C107.188 138.48 105.142 137.959 103.607 138.063C101.97 138.376 100.947 140.457 100.64 142.122C100.64 142.226 100.538 142.538 100.538 142.643C100.436 143.163 99.6172 143.163 99.4125 142.643C98.0825 138.584 101.049 134.108 105.346 134.629C111.383 135.045 112.201 141.498 111.076 146.389C110.462 148.471 111.28 150.344 112.406 152.113L112.61 152.425C113.122 153.05 112.304 153.882 111.69 153.466Z" fill="black"/>
<path d="M118.749 139.104C116.396 132.964 111.281 127.136 104.426 127.24C103.812 127.136 102.789 127.344 102.175 127.344C100.436 127.448 99.0036 128.072 97.6736 129.321C91.1258 135.982 92.2512 147.742 97.5713 155.132C99.4129 157.733 101.766 160.023 104.426 161.896C107.086 163.77 110.053 165.227 113.225 166.476C113.941 166.684 113.634 167.828 112.918 167.724C106.063 166.267 99.5152 162.833 95.0136 157.109C88.0565 148.575 86.6242 134.317 94.9112 125.991C96.7528 124.326 99.3106 123.077 101.868 123.077C102.687 123.077 103.914 122.869 104.733 123.077C109.03 123.285 113.122 125.471 115.782 128.905C118.135 131.819 119.466 135.358 119.875 138.896C119.875 139.52 118.954 139.729 118.749 139.104Z" fill="black"/>
</svg>
