<svg width="306" height="306" viewBox="0 0 306 306" fill="none" xmlns="http://www.w3.org/2000/svg">
<path d="M179.977 243.062C177.831 253.784 163.932 260.238 140.528 250.557C116.204 240.564 105.678 216.727 103.021 209.649C117.431 182.169 107.415 163.12 107.415 163.12C140.63 160.205 169.655 199.76 169.655 199.76L174.152 219.329C174.561 220.995 175.378 222.452 176.605 223.493C178.751 227.345 181.306 236.192 179.977 243.062Z" fill="white"/>
<path d="M102.51 209.961C104.452 206.943 105.678 203.403 106.496 199.968C108.029 192.786 108.54 185.5 108.642 178.213V175.507C108.335 172.8 107.416 169.99 106.394 167.492C105.065 164.161 109.868 162.079 111.401 165.41C111.606 165.826 111.606 166.555 111.606 166.971C111.912 181.128 112.526 199.344 103.736 211.106C103.123 211.731 101.897 210.794 102.51 209.961Z" fill="black"/>
<path d="M177.321 223.181C180.796 229.842 182.84 238.17 180.693 245.56C179.058 250.765 174.357 254.616 169.247 256.074C157.392 259.301 143.697 254.2 133.17 248.475C120.191 241.084 110.584 228.697 104.452 215.165C104.043 214.125 105.474 213.292 106.087 214.333C108.234 218.705 110.686 222.972 113.446 226.824C116.205 230.779 119.373 234.422 122.95 237.649C133.375 247.226 147.478 253.159 161.582 253.159C176.094 252.743 181.613 244.936 178.241 230.571C177.73 228.281 176.912 225.887 175.788 223.909C175.175 223.076 176.708 222.14 177.321 223.181Z" fill="black"/>
<path d="M216.872 98.1664C218.711 106.91 219.631 113.988 214.623 137.305C209.718 160.518 221.675 165.306 193.366 202.467C181.817 217.664 153.814 213.396 131.126 197.678C123.461 192.37 120.19 178.734 114.467 169.053C109.97 161.454 107.926 169.365 101.999 162.808C93.9249 153.856 84.2159 135.848 89.0193 103.996C96.7865 52.3658 136.951 46.3285 166.691 52.0536C196.636 57.8827 211.966 75.162 216.872 98.1664Z" fill="white"/>
<path d="M107.109 172.072C104.758 168.012 101.692 164.473 98.8306 160.726C96.0712 156.874 93.8228 152.607 91.9832 148.235C79.8214 117.84 84.5226 75.058 114.365 57.1542C126.731 49.8678 141.652 48.0982 155.552 49.2432C185.292 51.4291 212.579 65.3775 219.018 97.4378C222.493 111.594 217.791 126.167 215.134 140.012C213.908 146.882 214.93 153.96 214.828 161.038C214.725 168.22 212.784 175.403 210.126 182.065C208.491 186.645 205.63 190.704 202.666 194.452C197.76 200.489 192.855 206.63 186.62 211.315C185.19 212.355 182.635 212.876 180.897 213.084C176.094 213.813 171.393 214.021 166.589 213.709C147.784 212.876 127.651 203.612 120.088 185.083C119.782 184.355 120.804 183.834 121.212 184.459C131.024 200.281 149.011 208.088 166.896 209.129C172.415 209.441 178.036 209.337 183.452 208.192C186.109 206.839 188.46 204.444 190.708 202.259C196.227 196.638 201.848 190.6 205.834 183.73C210.637 174.466 213.295 164.369 212.477 153.856C212.273 149.172 212.17 144.279 213.09 139.595C213.908 134.911 214.93 130.435 215.543 125.647C216.156 121.067 216.463 116.383 216.463 111.803C215.952 98.3747 211.659 84.5304 203.279 74.1212C184.781 50.7005 141.039 44.5591 116.409 60.5892C100.875 70.3739 93.6184 88.6941 91.2678 106.494C87.6908 127.833 88.7128 148.859 105.371 164.369L110.277 169.574C112.219 171.864 108.744 174.57 107.109 172.072Z" fill="black"/>
<path d="M119.168 138.97C119.168 138.97 116 123.357 101.079 125.23C88.2016 126.896 83.7048 158.332 112.934 167.075" fill="white"/>
<path d="M111.606 153.44C109.255 152.086 107.62 149.796 107.518 146.986C107.62 144.904 107.927 142.51 107.416 140.428C107.109 138.45 105.065 137.93 103.532 138.034C101.897 138.346 100.875 140.428 100.568 142.093C100.568 142.198 100.466 142.51 100.466 142.614C100.364 143.134 99.5463 143.134 99.3419 142.614C98.0133 138.554 100.977 134.078 105.269 134.599C111.299 135.015 112.117 141.469 110.993 146.361C110.379 148.443 111.197 150.317 112.321 152.086L112.526 152.399C113.037 153.023 112.219 153.856 111.606 153.44Z" fill="black"/>
<path d="M118.657 139.074C116.307 132.933 111.197 127.104 104.349 127.208C103.736 127.104 102.714 127.312 102.101 127.312C100.363 127.416 98.9326 128.041 97.604 129.29C91.0632 135.952 92.1874 147.714 97.5018 155.105C99.3414 157.707 101.692 159.997 104.349 161.871C107.006 163.744 109.97 165.201 113.138 166.451C113.854 166.659 113.547 167.804 112.832 167.7C105.984 166.242 99.4436 162.807 94.9468 157.082C87.9972 148.547 86.5664 134.286 94.8446 125.959C96.6842 124.293 99.2392 123.044 101.794 123.044C102.612 123.044 103.838 122.836 104.656 123.044C108.948 123.252 113.036 125.438 115.693 128.873C118.044 131.788 119.373 135.327 119.781 138.866C119.781 139.491 118.862 139.699 118.657 139.074Z" fill="black"/>
</svg>
