<svg width="530" height="600" viewBox="0 0 530 600" fill="none" xmlns="http://www.w3.org/2000/svg">
<path d="M302.989 99.6209C302.989 99.6209 434.376 120.213 424.413 307.748C424.377 308.443 439.605 318.57 440.797 319.652C451.416 329.272 460.324 341.592 464.22 356.003C478.092 407.322 428.496 460.199 388.39 474.234C373.409 479.476 357.575 482.021 341.709 482.483C238.57 485.492 102.019 419.828 95.0058 291.59C94.7546 286.989 94.6926 282.383 94.8108 277.788C95.4325 253.439 101.299 229.725 110.141 207.706C110.137 207.707 167.539 65.0891 302.989 99.6209Z" fill="#FFE4C0"/>
<g style="mix-blend-mode:multiply" opacity="0.5">
<path d="M427.739 309.727C426.316 313.219 424.895 317.682 424.498 320.234C422.804 331.182 426.543 342.486 433.039 350.612C439.206 358.328 448.014 363.332 456.544 365.219C459.424 365.857 462.911 366.183 465.96 366.286C462.756 334.583 436.987 315.561 427.739 309.727Z" fill="#FFE7E2"/>
</g>
<g style="mix-blend-mode:multiply" opacity="0.5">
<path d="M242.535 393.051C266.94 387.791 282.092 362.034 276.378 335.52C270.664 309.006 246.248 291.776 221.843 297.036C197.438 302.295 182.285 328.052 187.999 354.566C193.713 381.08 218.129 398.31 242.535 393.051Z" fill="#FFE7E2"/>
</g>
<path opacity="0.3" d="M362.014 318.889C362.014 318.889 382.856 299.025 398.991 317.701Z" fill="#CBA284"/>
<path d="M167.679 417.869C98.299 452.699 35.3295 365.357 55.499 316.26C68.3649 284.943 105.879 282.508 127.617 311.114C140.446 327.997 150.826 349.577 156.72 370.222" fill="#FFE4C0"/>
<path opacity="0.3" d="M110.534 339.927C119.461 349.026 126.637 362.52 135.457 370.047C133.827 357.452 131.225 344.002 125.117 332.651C118.916 321.123 107.638 311.626 96.1553 312.409C81.9245 313.38 70.2076 329.982 68.7012 345.035C69.6017 336.027 87.6906 329.931 94.5951 330.784C105.407 351.197 109.593 391.428 109.593 391.428C118.6 368.653 114.953 350.739 110.534 339.927Z" fill="#CBA284"/>
</svg>
