<svg width="192" height="322" viewBox="0 0 192 322" fill="none" xmlns="http://www.w3.org/2000/svg">
<path d="M3 96C3 44.6375 44.6375 3 96 3C147.362 3 189 44.6375 189 96V174C189 225.362 147.362 267 96 267C44.6375 267 3 225.362 3 174V96Z" fill="#FFFFFF" stroke="#2B2B2B" stroke-width="6"/>
<path fill-rule="evenodd" clip-rule="evenodd" d="M192 178V176.338C191.499 176.532 191.029 176.807 190.61 177.156L146.505 213.842C144.21 215.75 140.778 215.221 138.882 212.917C128.907 200.79 113.407 193 95.9999 193C77.4911 193 61.1377 201.808 51.2905 215.271C49.451 217.786 45.8438 218.459 43.4482 216.466L0.0280762 180.351C1.27606 232.284 43.7663 274 95.9999 274C149.019 274 192 231.019 192 178ZM132 221.5V231C132 238.18 126.18 244 119 244H116.164C115.281 235.552 106.591 228.919 95.9999 228.919C85.4094 228.919 76.7188 235.552 75.8359 244H72.9999C65.8202 244 59.9999 238.18 59.9999 231V221.5V221H60.0104C60.4766 209.909 76.4112 201 95.9999 201C115.589 201 131.523 209.909 131.989 221H132V221.5Z" fill="#2B2B2B"/>
<path d="M3 96C3 44.6375 44.6375 3 96 3C147.362 3 189 44.6375 189 96V174C189 225.362 147.362 267 96 267C44.6375 267 3 225.362 3 174V96Z" stroke="#2B2B2B" stroke-width="6"/>
</svg>
