<svg width="192" height="322" viewBox="0 0 192 322" fill="none" xmlns="http://www.w3.org/2000/svg">
<path d="M3 96C3 44.6375 44.6375 3 96 3C147.362 3 189 44.6375 189 96V174C189 225.362 147.362 267 96 267C44.6375 267 3 225.362 3 174V96Z" fill="#FFFFFF" stroke="#2B2B2B" stroke-width="6"/>
<path fill-rule="evenodd" clip-rule="evenodd" d="M192 165.502V170.5C192 223.519 149.019 266.5 96 266.5C42.9807 266.5 0 223.519 0 170.5V165.502C0.172781 165.501 0.345755 165.5 0.518917 165.5C1.39477 165.5 2.2658 165.52 3.13154 165.559C3.11955 166.038 3.11351 166.518 3.11351 167C3.11351 193.233 21.0028 214.5 43.0703 214.5C51.1019 214.5 58.5801 211.683 64.8438 206.835C73.6733 200.951 84.4143 197.5 96 197.5C107.586 197.5 118.327 200.951 127.156 206.835C133.42 211.683 140.898 214.5 148.93 214.5C170.997 214.5 188.886 193.233 188.886 167C188.886 166.537 188.881 166.076 188.87 165.616C189.906 165.55 190.949 165.512 192 165.502Z" fill="#BCBCBC"/>
<path d="M38.3997 221L40.4754 225M63.3078 236L66.9402 233M59.1565 213.5L59.6754 218.5M126.616 234.5L128.692 230.5M65.9024 251L68.497 255M151.524 218.5L152.043 224M166.573 207L168.648 211M74.2051 200L76.2808 204.5M17.124 207.5L20.7565 204M133.881 210L132.324 214.5M140.627 233L138.032 227M125.578 250L126.616 255M160.865 244.5L163.459 248.5M25.9456 239.5L21.2754 245M22.3132 221L18.1619 225M71.0916 264L68.497 269" stroke="#2B2B2B" stroke-width="3"/>
<path d="M3 96C3 44.6375 44.6375 3 96 3C147.362 3 189 44.6375 189 96V174C189 225.362 147.362 267 96 267C44.6375 267 3 225.362 3 174V96Z" stroke="#2B2B2B" stroke-width="6"/>
</svg>
