<svg width="200" height="322" viewBox="0 0 200 322" fill="none" xmlns="http://www.w3.org/2000/svg">
<path d="M6.11328 96C6.11328 44.6375 47.7508 3 99.1133 3C150.476 3 192.113 44.6375 192.113 96V174C192.113 225.362 150.476 267 99.1133 267C47.7508 267 6.11328 225.362 6.11328 174V96Z" fill="#FFFFFF" stroke="#2B2B2B" stroke-width="6"/>
<path fill-rule="evenodd" clip-rule="evenodd" d="M199.265 222.368V165.115C198.064 165.039 196.853 165 195.632 165C194.406 165 193.189 165.039 191.983 165.116C191.994 165.576 192 166.037 192 166.5C192 192.733 174.111 214 152.043 214C144.012 214 136.533 211.183 130.27 206.335C121.44 200.451 110.699 197 99.1135 197C87.5278 197 76.7867 200.451 67.9572 206.335C61.6936 211.183 54.2154 214 46.1838 214C24.1163 214 6.22703 192.733 6.22703 166.5C6.22703 166.018 6.23307 165.538 6.24506 165.059C5.37931 165.02 4.50829 165 3.63243 165C2.41183 165 1.2006 165.039 0 165.115V222.368C0 277.393 44.607 322 99.6324 322C154.658 322 199.265 277.393 199.265 222.368ZM134.919 221.419C134.919 229.374 127.006 236.27 115.441 239.669C111.758 235.576 105.816 232.919 99.1135 232.919C92.4106 232.919 86.4687 235.576 82.7858 239.669C71.221 236.27 63.3081 229.374 63.3081 221.419C63.3081 210.097 79.3387 200.919 99.1135 200.919C118.888 200.919 134.919 210.097 134.919 221.419Z" fill="#2B2B2B"/>
<path fill-rule="evenodd" clip-rule="evenodd" d="M73.4603 196.869C65.8957 199.46 58.0601 202.144 51.7696 202.144C46.6639 202.144 41.9437 201.076 38.1133 199.266C38.9819 213.931 66.1454 216 77.9277 216C87.3731 216 95.4993 212.343 99.1133 207.098C102.727 212.343 110.853 216 120.299 216C132.081 216 159.245 213.931 160.113 199.266C156.283 201.076 151.563 202.144 146.457 202.144C140.166 202.144 132.331 199.46 124.766 196.869C113.803 193.113 103.41 189.552 99.1133 194.64C94.8167 189.552 84.4232 193.113 73.4603 196.869Z" fill="#2B2B2B"/>
<path d="M6.11328 96C6.11328 44.6375 47.7508 3 99.1133 3C150.476 3 192.113 44.6375 192.113 96V174C192.113 225.362 150.476 267 99.1133 267C47.7508 267 6.11328 225.362 6.11328 174V96Z" stroke="#2B2B2B" stroke-width="6"/>
</svg>
