<svg width="192" height="322" viewBox="0 0 192 322" fill="none" xmlns="http://www.w3.org/2000/svg">
<path d="M3 96C3 44.6375 44.6375 3 96 3C147.362 3 189 44.6375 189 96V174C189 225.362 147.362 267 96 267C44.6375 267 3 225.362 3 174V96Z" fill="#FFFFFF" stroke="#2B2B2B" stroke-width="6"/>
<path fill-rule="evenodd" clip-rule="evenodd" d="M122.5 272C128.519 272 134.365 271.261 139.954 269.87L142.954 229.364C144.329 210.81 129.646 195 111.042 195H85.9578C67.3535 195 52.6709 210.81 54.0453 229.364L57.0457 269.87C62.6341 271.261 68.4806 272 74.4997 272H122.5ZM80.3307 202C72.2817 202 65.8903 208.771 66.3539 216.806L67.7929 241.749C68.1897 248.626 73.8825 254 80.7713 254H116.228C123.117 254 128.81 248.626 129.206 241.749L130.645 216.806C131.109 208.771 124.718 202 116.669 202H80.3307Z" fill="#2B2B2B"/>
<path d="M24.5 254.5L168.5 254L153.391 268.912C143.259 278.911 130.612 286.304 116.529 288.377C102.274 290.476 89.9354 290.568 75.4339 288.486C61.0464 286.42 48.2047 278.695 38.0327 268.313L24.5 254.5Z" fill="#2B2B2B"/>
<path d="M2 191.5L57 244.5L58.5 258.5L24.5 254.5L2 191.5Z" fill="#2B2B2B"/>
<path d="M190.5 191.5L135.5 244.5L134 258.5L168.5 254L190.5 191.5Z" fill="#2B2B2B"/>
<path d="M3 96C3 44.6375 44.6375 3 96 3C147.362 3 189 44.6375 189 96V174C189 225.362 147.362 267 96 267C44.6375 267 3 225.362 3 174V96Z" stroke="#2B2B2B" stroke-width="6"/>
</svg>
