<svg width="192" height="322" viewBox="0 0 192 322" fill="none" xmlns="http://www.w3.org/2000/svg">
<path d="M3 96C3 44.6375 44.6375 3 96 3C147.362 3 189 44.6375 189 96V174C189 225.362 147.362 267 96 267C44.6375 267 3 225.362 3 174V96Z" fill="#FFFFFF" stroke="#2B2B2B" stroke-width="6"/>
<path fill-rule="evenodd" clip-rule="evenodd" d="M192 170V165.002C190.949 165.012 189.906 165.05 188.87 165.116C188.881 165.576 188.886 166.037 188.886 166.5C188.886 192.734 170.997 214 148.93 214C140.898 214 133.42 211.183 127.156 206.335C118.327 200.451 107.586 197 96 197C84.4143 197 73.6733 200.451 64.8438 206.335C58.5801 211.183 51.1019 214 43.0703 214C21.0028 214 3.11351 192.734 3.11351 166.5C3.11351 166.018 3.11955 165.538 3.13154 165.059C2.2658 165.02 1.39477 165 0.518917 165C0.345755 165 0.172781 165.001 0 165.002V170C0 223.019 42.9807 266 96 266C149.019 266 192 223.019 192 170ZM131.805 221.419C131.805 229.374 123.893 236.27 112.328 239.669C108.645 235.576 102.703 232.919 96 232.919C89.297 232.919 83.3552 235.576 79.6723 239.669C68.1075 236.27 60.1946 229.374 60.1946 221.419C60.1946 210.098 76.2252 200.919 96 200.919C115.775 200.919 131.805 210.098 131.805 221.419Z" fill="#2B2B2B"/>
<path d="M3 96C3 44.6375 44.6375 3 96 3C147.362 3 189 44.6375 189 96V174C189 225.362 147.362 267 96 267C44.6375 267 3 225.362 3 174V96Z" stroke="#2B2B2B" stroke-width="6"/>
</svg>
