<svg width="428" height="426" viewBox="0 0 428 426" fill="none" xmlns="http://www.w3.org/2000/svg">
<mask id="path-1-outside-1_6_95" maskUnits="userSpaceOnUse" x="0" y="0" width="428" height="426" fill="black">
<rect fill="white" width="428" height="426"/>
<path fill-rule="evenodd" clip-rule="evenodd" d="M273.623 48.384C282.403 42.4173 292.61 39 303.5 39C336.106 39 362.586 69.6349 362.995 107.607C395.725 117.28 420 152.738 420 195C420 218.911 412.229 240.645 399.553 256.762C408.004 270.537 413 287.566 413 306C413 351.84 382.108 389 344 389C336.823 389 329.901 387.682 323.394 385.236C315.709 399.885 304.319 411.441 290.807 418H258.74C256.567 406.23 255.237 393.199 254.424 381.659C298.158 366.792 342.354 330.624 347.502 284.991C347.667 284.997 347.833 285 348 285C357.941 285 366 274.255 366 261C366 247.745 357.941 237 348 237C347.376 237 346.76 237.042 346.153 237.125C346.028 235.463 345.902 233.802 345.776 232.139L345.776 232.138C345.575 229.49 345.374 226.97 345.179 224.528C344.286 213.345 343.527 203.836 343.527 191.495C343.527 134.664 285.101 91.1431 214.175 91L214 91.0001C213.968 91.0001 213.936 91.0001 213.905 91.0002C213.878 91.0003 213.851 91.0004 213.825 91.0004C142.899 91.1435 84.4725 134.664 84.4725 191.495C84.4725 203.836 83.7136 213.345 82.8211 224.529C82.6263 226.97 82.4251 229.491 82.2241 232.138C82.1003 233.768 81.9766 235.398 81.8544 237.027C81.5713 237.009 81.2864 237 81 237C71.0589 237 63 247.745 63 261C63 274.031 70.7891 284.637 80.4982 284.991C85.7228 331.304 131.167 367.868 175.53 382.309C174.712 393.686 173.393 406.451 171.26 418H125.638C118.653 412.37 112.57 405.245 107.706 397.007C104.217 397.661 100.641 398 97 398C58.8924 398 28 360.84 28 315C28 299.098 31.7179 284.24 38.1651 271.616C19.955 256.674 8 231.516 8 203C8 161.03 33.8971 126.335 67.5182 120.777C71.7062 79.7606 100.77 48 136 48C142.599 48 148.981 49.1143 155.025 51.195C166.903 25.3938 189.312 8 215 8C239.743 8 261.445 24.1384 273.623 48.384Z"/>
</mask>
<path fill-rule="evenodd" clip-rule="evenodd" d="M273.623 48.384C282.403 42.4173 292.61 39 303.5 39C336.106 39 362.586 69.6349 362.995 107.607C395.725 117.28 420 152.738 420 195C420 218.911 412.229 240.645 399.553 256.762C408.004 270.537 413 287.566 413 306C413 351.84 382.108 389 344 389C336.823 389 329.901 387.682 323.394 385.236C315.709 399.885 304.319 411.441 290.807 418H258.74C256.567 406.23 255.237 393.199 254.424 381.659C298.158 366.792 342.354 330.624 347.502 284.991C347.667 284.997 347.833 285 348 285C357.941 285 366 274.255 366 261C366 247.745 357.941 237 348 237C347.376 237 346.76 237.042 346.153 237.125C346.028 235.463 345.902 233.802 345.776 232.139L345.776 232.138C345.575 229.49 345.374 226.97 345.179 224.528C344.286 213.345 343.527 203.836 343.527 191.495C343.527 134.664 285.101 91.1431 214.175 91L214 91.0001C213.968 91.0001 213.936 91.0001 213.905 91.0002C213.878 91.0003 213.851 91.0004 213.825 91.0004C142.899 91.1435 84.4725 134.664 84.4725 191.495C84.4725 203.836 83.7136 213.345 82.8211 224.529C82.6263 226.97 82.4251 229.491 82.2241 232.138C82.1003 233.768 81.9766 235.398 81.8544 237.027C81.5713 237.009 81.2864 237 81 237C71.0589 237 63 247.745 63 261C63 274.031 70.7891 284.637 80.4982 284.991C85.7228 331.304 131.167 367.868 175.53 382.309C174.712 393.686 173.393 406.451 171.26 418H125.638C118.653 412.37 112.57 405.245 107.706 397.007C104.217 397.661 100.641 398 97 398C58.8924 398 28 360.84 28 315C28 299.098 31.7179 284.24 38.1651 271.616C19.955 256.674 8 231.516 8 203C8 161.03 33.8971 126.335 67.5182 120.777C71.7062 79.7606 100.77 48 136 48C142.599 48 148.981 49.1143 155.025 51.195C166.903 25.3938 189.312 8 215 8C239.743 8 261.445 24.1384 273.623 48.384Z" fill="#FCAC15"/>
<path d="M273.623 48.384L266.474 51.9747L270.571 60.1305L278.119 55.0008L273.623 48.384ZM362.995 107.607L354.996 107.694L355.059 113.604L360.728 115.279L362.995 107.607ZM399.553 256.762L393.265 251.816L389.82 256.196L392.734 260.946L399.553 256.762ZM323.394 385.236L326.209 377.747L319.594 375.26L316.31 381.519L323.394 385.236ZM290.807 418V426H292.646L294.3 425.197L290.807 418ZM258.74 418L250.873 419.452L252.081 426H258.74V418ZM254.424 381.659L251.849 374.085L246.011 376.07L246.444 382.222L254.424 381.659ZM347.502 284.991L347.792 276.996L340.383 276.727L339.552 284.094L347.502 284.991ZM346.153 237.125L338.175 237.723L338.811 246.196L347.23 245.052L346.153 237.125ZM345.776 232.139L337.798 232.73L337.798 232.738L337.799 232.745L345.776 232.139ZM345.776 232.138L353.754 231.547L353.754 231.54L353.753 231.532L345.776 232.138ZM345.179 224.528L337.204 225.165V225.165L345.179 224.528ZM214.175 91L214.192 83L214.181 83L214.171 83L214.175 91ZM214 91.0001L213.992 99.0001L214.004 99.0001L214 91.0001ZM213.905 91.0002L213.885 83.0002H213.884L213.905 91.0002ZM213.825 91.0004V83.0004H213.816L213.808 83.0004L213.825 91.0004ZM82.8211 224.529L90.7957 225.166L82.8211 224.529ZM82.2241 232.138L74.2471 231.532L74.2471 231.532L82.2241 232.138ZM81.8544 237.027L81.357 245.011L89.2412 245.502L89.832 237.625L81.8544 237.027ZM80.4982 284.991L88.4478 284.094L87.6754 277.247L80.79 276.996L80.4982 284.991ZM175.53 382.309L183.509 382.883L183.957 376.64L178.006 374.702L175.53 382.309ZM171.26 418V426H177.919L179.127 419.452L171.26 418ZM125.638 418L120.617 424.228L122.815 426H125.638V418ZM107.706 397.007L114.595 392.94L111.744 388.111L106.233 389.144L107.706 397.007ZM38.1651 271.616L45.2897 275.254L48.2196 269.517L43.2397 265.431L38.1651 271.616ZM67.5182 120.777L68.823 128.67L74.8557 127.673L75.4768 121.59L67.5182 120.777ZM155.025 51.195L152.42 58.7592L159.264 61.1156L162.292 54.5405L155.025 51.195ZM303.5 31C290.889 31 279.133 34.9674 269.127 41.7672L278.119 55.0008C285.674 49.8672 294.331 47 303.5 47V31ZM370.995 107.521C370.551 66.3617 341.598 31 303.5 31V47C330.613 47 354.621 72.9082 354.996 107.694L370.995 107.521ZM428 195C428 149.984 402.095 110.82 365.262 99.9353L360.728 115.279C389.356 123.739 412 155.492 412 195H428ZM405.841 261.708C419.677 244.116 428 220.622 428 195H412C412 217.201 404.782 237.173 393.265 251.816L405.841 261.708ZM421 306C421 286.131 415.617 267.647 406.372 252.578L392.734 260.946C400.392 273.426 405 289.002 405 306H421ZM344 397C387.846 397 421 354.811 421 306H405C405 348.868 376.369 381 344 381V397ZM320.579 392.724C327.958 395.498 335.831 397 344 397V381C337.814 381 331.845 379.866 326.209 377.747L320.579 392.724ZM294.3 425.197C309.541 417.799 322.103 404.916 330.479 388.952L316.31 381.519C309.314 394.854 299.096 405.084 287.313 410.803L294.3 425.197ZM258.74 426H290.807V410H258.74V426ZM246.444 382.222C247.268 393.91 248.624 407.27 250.873 419.452L266.607 416.548C264.51 405.19 263.207 392.487 262.404 381.097L246.444 382.222ZM339.552 284.094C337.243 304.562 326.111 323.397 309.87 339.113C293.637 354.822 272.704 366.996 251.849 374.085L256.999 389.234C279.879 381.456 302.911 368.112 320.996 350.611C339.073 333.118 352.612 311.053 355.451 285.888L339.552 284.094ZM347.211 292.986C347.475 292.995 347.738 293 348 293V277C347.929 277 347.86 276.999 347.792 276.996L347.211 292.986ZM348 293C356.053 293 362.734 288.629 367.128 282.771C371.52 276.914 374 269.191 374 261H358C358 266.064 356.451 270.34 354.328 273.171C352.207 275.998 349.888 277 348 277V293ZM374 261C374 252.809 371.52 245.086 367.128 239.229C362.734 233.371 356.053 229 348 229V245C349.888 245 352.207 246.002 354.328 248.829C356.451 251.66 358 255.936 358 261H374ZM348 229C347.014 229 346.038 229.067 345.076 229.198L347.23 245.052C347.482 245.018 347.739 245 348 245V229ZM337.799 232.745C337.925 234.408 338.051 236.066 338.175 237.723L354.131 236.527C354.006 234.861 353.879 233.195 353.753 231.533L337.799 232.745ZM337.798 232.729L337.798 232.73L353.754 231.548L353.754 231.547L337.798 232.729ZM337.204 225.165C337.399 227.608 337.599 230.114 337.799 232.744L353.753 231.532C353.551 228.867 353.348 226.331 353.154 223.892L337.204 225.165ZM335.527 191.495C335.527 204.19 336.312 213.985 337.204 225.165L353.154 223.892C352.261 212.704 351.527 203.482 351.527 191.495H335.527ZM214.159 99C282.791 99.1385 335.527 140.93 335.527 191.495H351.527C351.527 128.398 287.412 83.1477 214.192 83L214.159 99ZM214.004 99.0001L214.18 99L214.171 83L213.996 83.0001L214.004 99.0001ZM213.924 99.0002C213.958 99.0001 213.976 99.0001 213.992 99.0001L214.008 83.0001C213.96 83.0001 213.915 83.0002 213.885 83.0002L213.924 99.0002ZM213.825 99.0004C213.863 99.0004 213.9 99.0003 213.925 99.0002L213.884 83.0002C213.856 83.0003 213.839 83.0004 213.825 83.0004V99.0004ZM92.4725 191.495C92.4725 140.93 145.209 99.1388 213.841 99.0003L213.808 83.0004C140.588 83.1481 76.4725 128.398 76.4725 191.495H92.4725ZM90.7957 225.166C91.6879 213.986 92.4725 204.19 92.4725 191.495H76.4725C76.4725 203.482 75.7393 212.704 74.8464 223.893L90.7957 225.166ZM90.2011 232.744C90.4008 230.114 90.6008 227.608 90.7957 225.166L74.8464 223.893C74.6518 226.332 74.4494 228.867 74.2471 231.532L90.2011 232.744ZM89.832 237.625C89.9538 236 90.0773 234.374 90.2011 232.744L74.2471 231.532C74.1233 233.162 73.9993 234.795 73.8768 236.428L89.832 237.625ZM81 245C81.1201 245 81.2391 245.004 81.357 245.011L82.3518 229.042C81.9034 229.014 81.4527 229 81 229V245ZM71 261C71 255.936 72.5494 251.66 74.6721 248.829C76.7929 246.002 79.1121 245 81 245V229C72.9468 229 66.266 233.371 61.8721 239.229C57.48 245.086 55 252.809 55 261H71ZM80.79 276.996C78.9347 276.928 76.6417 275.867 74.5668 273.028C72.4964 270.196 71 265.975 71 261H55C55 269.056 57.3981 276.654 61.6495 282.47C65.8965 288.28 72.3526 292.699 80.2064 292.986L80.79 276.996ZM178.006 374.702C156.864 367.82 135.478 355.652 118.856 339.811C102.225 323.959 90.7912 304.867 88.4478 284.094L72.5486 285.888C75.4298 311.428 89.3308 333.773 107.818 351.393C126.315 369.022 149.833 382.357 173.053 389.917L178.006 374.702ZM179.127 419.452C181.334 407.497 182.681 394.409 183.509 382.883L167.55 381.736C166.744 392.964 165.451 405.404 163.393 416.548L179.127 419.452ZM125.638 426H171.26V410H125.638V426ZM100.817 401.074C106.136 410.082 112.835 417.955 120.617 424.228L130.658 411.772C124.471 406.784 119.005 400.408 114.595 392.94L100.817 401.074ZM97 406C101.14 406 105.209 405.614 109.179 404.87L106.233 389.144C103.225 389.707 100.143 390 97 390V406ZM20 315C20 363.811 53.1541 406 97 406V390C64.6306 390 36 357.868 36 315H20ZM31.0404 267.977C24.0075 281.748 20 297.856 20 315H36C36 300.34 39.4282 286.731 45.2897 275.254L31.0404 267.977ZM0 203C0 233.675 12.8529 261.194 33.0904 277.8L43.2397 265.431C27.0572 252.153 16 229.357 16 203H0ZM66.2133 112.884C27.7726 119.239 0 158.172 0 203H16C16 163.887 40.0215 133.432 68.823 128.67L66.2133 112.884ZM136 40C95.4973 40 64.0339 76.1439 59.5596 119.965L75.4768 121.59C79.3785 83.3773 106.042 56 136 56V40ZM157.629 43.6308C150.771 41.2694 143.509 40 136 40V56C141.689 56 147.192 56.9592 152.42 58.7592L157.629 43.6308ZM215 0C185.414 0 160.584 19.9896 147.758 47.8494L162.292 54.5405C173.222 30.798 193.21 16 215 16V0ZM280.772 44.7932C267.593 18.5552 243.489 0 215 0V16C235.998 16 255.297 29.7216 266.474 51.9747L280.772 44.7932Z" fill="#150C0C" mask="url(#path-1-outside-1_6_95)"/>
<path d="M229.198 142.665C219.409 154.992 203.576 163 185.71 163C183.742 163 181.8 162.903 179.887 162.714C175.193 185.649 153.3 203 127.001 203C125.021 203 123.065 202.902 121.14 202.71C111.766 217.251 94.5286 227 74.8161 227C45.0943 227 21 204.838 21 177.5C21 150.162 45.0943 128 74.8161 128C76.7968 128 78.7524 128.098 80.6777 128.29C90.0518 113.749 107.289 104 127.001 104C128.969 104 130.912 104.097 132.824 104.286C137.518 81.3511 159.411 64 185.71 64C203.576 64 219.409 72.0082 229.198 84.3351C238.986 72.0082 254.819 64 272.685 64C298.535 64 320.127 80.7632 325.315 103.116C344.248 104.3 360.493 114.491 369.025 129.068C397.426 130.427 420 152.039 420 178.5C420 205.838 395.906 228 366.184 228C345.679 228 327.852 217.451 318.768 201.932C294.19 200.756 273.976 184.413 268.979 162.884C252.64 161.862 238.303 154.132 229.198 142.665Z" fill="#FCAC15"/>
<path d="M74.8161 227C94.5286 227 111.766 217.251 121.14 202.71C123.065 202.902 125.021 203 127.001 203C153.3 203 175.193 185.649 179.887 162.714C181.8 162.903 183.742 163 185.71 163C203.576 163 219.409 154.992 229.198 142.665C238.303 154.132 252.64 161.862 268.979 162.885C273.976 184.413 294.19 200.756 318.768 201.932C327.852 217.452 345.679 228 366.184 228" stroke="#150C0C" stroke-width="8"/>
</svg>
