<svg width="296" height="269" viewBox="0 0 296 269" fill="none" xmlns="http://www.w3.org/2000/svg">
<mask id="path-1-inside-1_1_894" fill="white">
<path fill-rule="evenodd" clip-rule="evenodd" d="M174.774 0C200.323 0 222.905 15.4932 236.552 39.1982C266.189 46.1802 288.482 76.3399 288.482 112.487C288.482 119.854 287.556 126.971 285.831 133.695C292.236 148.613 296 166.832 296 186.5C296 216.867 287.027 243.779 273.214 260.423C273.113 258.995 273.011 257.567 272.909 256.138C271.854 241.361 270.794 226.529 270.794 211.495C270.794 154.664 215.856 111.143 149.165 111L149 111C148.945 111 148.89 111 148.835 111C82.1435 111.143 27.2055 154.664 27.2055 211.495C27.2055 226.529 26.1465 241.361 25.0913 256.138C24.8078 260.108 24.5246 264.074 24.2623 268.04C9.39743 247.872 0 218.149 0 185C0 153.634 8.41416 125.333 21.9128 105.295C24.7872 59.0591 57.3725 22.6051 97.1471 22.6051C105.556 22.6051 113.644 24.2345 121.197 27.2413C134.867 10.4189 153.824 0 174.774 0Z"/>
</mask>
<path fill-rule="evenodd" clip-rule="evenodd" d="M174.774 0C200.323 0 222.905 15.4932 236.552 39.1982C266.189 46.1802 288.482 76.3399 288.482 112.487C288.482 119.854 287.556 126.971 285.831 133.695C292.236 148.613 296 166.832 296 186.5C296 216.867 287.027 243.779 273.214 260.423C273.113 258.995 273.011 257.567 272.909 256.138C271.854 241.361 270.794 226.529 270.794 211.495C270.794 154.664 215.856 111.143 149.165 111L149 111C148.945 111 148.89 111 148.835 111C82.1435 111.143 27.2055 154.664 27.2055 211.495C27.2055 226.529 26.1465 241.361 25.0913 256.138C24.8078 260.108 24.5246 264.074 24.2623 268.04C9.39743 247.872 0 218.149 0 185C0 153.634 8.41416 125.333 21.9128 105.295C24.7872 59.0591 57.3725 22.6051 97.1471 22.6051C105.556 22.6051 113.644 24.2345 121.197 27.2413C134.867 10.4189 153.824 0 174.774 0Z" fill="#CE7230"/>
<path d="M236.552 39.1982L229.619 43.1898L231.347 46.191L234.717 46.9851L236.552 39.1982ZM285.831 133.695L278.082 131.707L277.404 134.347L278.48 136.851L285.831 133.695ZM273.214 260.423L265.234 260.987L266.64 280.87L279.37 265.532L273.214 260.423ZM272.909 256.138L280.888 255.568V255.568L272.909 256.138ZM149.165 111L149.182 103L149.171 103L149.161 103L149.165 111ZM149 111L148.991 119L149.004 119L149 111ZM148.835 111V103H148.826L148.818 103L148.835 111ZM25.0913 256.138L17.1116 255.568L25.0913 256.138ZM24.2623 268.04L17.8225 272.786L30.8009 290.394L32.2448 268.568L24.2623 268.04ZM21.9128 105.295L28.5478 109.764L29.7625 107.961L29.8974 105.791L21.9128 105.295ZM121.197 27.2413L118.239 34.674L123.7 36.8477L127.406 32.2864L121.197 27.2413ZM243.485 35.2067C228.737 9.58978 203.784 -8 174.774 -8V8C196.861 8 217.072 21.3966 229.619 43.1898L243.485 35.2067ZM296.482 112.487C296.482 73.2916 272.244 39.3877 238.386 31.4114L234.717 46.9851C260.134 52.9726 280.482 79.3881 280.482 112.487H296.482ZM293.58 135.683C295.471 128.31 296.482 120.525 296.482 112.487H280.482C280.482 119.183 279.64 125.632 278.082 131.707L293.58 135.683ZM304 186.5C304 165.847 300.053 146.543 293.182 130.539L278.48 136.851C284.419 150.684 288 167.816 288 186.5H304ZM279.37 265.532C294.656 247.113 304 218.239 304 186.5H288C288 215.496 279.398 240.445 267.058 255.314L279.37 265.532ZM264.929 256.708C265.031 258.137 265.133 259.563 265.234 260.987L281.194 259.859C281.093 258.427 280.99 256.996 280.888 255.568L264.929 256.708ZM262.794 211.495C262.794 226.861 263.877 241.975 264.929 256.708L280.888 255.568C279.83 240.746 278.794 226.197 278.794 211.495H262.794ZM149.148 119C213.045 119.137 262.794 160.535 262.794 211.495H278.794C278.794 148.793 218.668 103.149 149.182 103L149.148 119ZM149.004 119L149.169 119L149.161 103L148.996 103L149.004 119ZM148.835 119C149.019 119 148.875 119 148.991 119L149.009 103C148.965 103 148.924 103 148.896 103C148.865 103 148.85 103 148.835 103V119ZM35.2055 211.495C35.2055 160.535 84.9549 119.137 148.852 119L148.818 103C79.332 103.149 19.2055 148.793 19.2055 211.495H35.2055ZM33.071 256.708C34.123 241.975 35.2055 226.861 35.2055 211.495H19.2055C19.2055 226.197 18.17 240.746 17.1116 255.568L33.071 256.708ZM32.2448 268.568C32.5055 264.627 32.7873 260.681 33.071 256.708L17.1116 255.568C16.8284 259.535 16.5437 263.522 16.2797 267.512L32.2448 268.568ZM-8 185C-8 219.535 1.76861 251.006 17.8225 272.786L30.702 263.293C17.0262 244.739 8 216.762 8 185H-8ZM15.2778 100.825C0.753481 122.386 -8 152.303 -8 185H8C8 154.964 16.0748 128.28 28.5478 109.764L15.2778 100.825ZM97.1471 14.6051C52.0151 14.6051 16.9883 55.5767 13.9282 104.798L29.8974 105.791C32.5862 62.5415 62.7299 30.6051 97.1471 30.6051V14.6051ZM124.156 19.8085C115.693 16.4397 106.603 14.6051 97.1471 14.6051V30.6051C104.509 30.6051 111.595 32.0294 118.239 34.674L124.156 19.8085ZM174.774 -8C151.02 -8 129.91 3.8339 114.989 22.1961L127.406 32.2864C139.825 17.0039 156.627 8 174.774 8V-8Z" fill="#150C0C" mask="url(#path-1-inside-1_1_894)"/>
</svg>
