<svg width="315" height="258" viewBox="0 0 315 258" fill="none" xmlns="http://www.w3.org/2000/svg">
<mask id="path-1-inside-1_1_929" fill="white">
<path fill-rule="evenodd" clip-rule="evenodd" d="M70.8182 109.554C63.5097 99.7526 54.6064 94 45 94C20.1472 94 0 132.504 0 180C0 214.065 10.3635 243.504 25.3937 257.43C25.7923 248.33 26.4411 239.244 27.0913 230.138C28.1465 215.361 29.2055 200.529 29.2055 185.495C29.2055 154.663 45.3749 127.749 70.8182 109.554ZM276.419 253.49C292.088 240.039 303 209.955 303 175C303 127.504 282.853 89 258 89C247.199 89 237.287 96.2722 229.531 108.394C255.924 126.596 272.794 154.002 272.794 185.495C272.794 200.529 273.854 215.361 274.909 230.138C275.465 237.929 276.02 245.706 276.419 253.49Z"/>
</mask>
<path fill-rule="evenodd" clip-rule="evenodd" d="M70.8182 109.554C63.5097 99.7526 54.6064 94 45 94C20.1472 94 0 132.504 0 180C0 214.065 10.3635 243.504 25.3937 257.43C25.7923 248.33 26.4411 239.244 27.0913 230.138C28.1465 215.361 29.2055 200.529 29.2055 185.495C29.2055 154.663 45.3749 127.749 70.8182 109.554ZM276.419 253.49C292.088 240.039 303 209.955 303 175C303 127.504 282.853 89 258 89C247.199 89 237.287 96.2722 229.531 108.394C255.924 126.596 272.794 154.002 272.794 185.495C272.794 200.529 273.854 215.361 274.909 230.138C275.465 237.929 276.02 245.706 276.419 253.49Z" fill="#F7C870"/>
<path d="M70.8182 109.554L75.4718 116.061L82.11 111.314L77.2315 104.771L70.8182 109.554ZM25.3937 257.43L19.9565 263.298L32.63 275.041L33.3861 257.78L25.3937 257.43ZM27.0913 230.138L19.1116 229.568L27.0913 230.138ZM276.419 253.49L268.429 253.898L269.262 270.176L281.629 259.56L276.419 253.49ZM229.531 108.394L222.792 104.083L218.627 110.593L224.989 114.98L229.531 108.394ZM274.909 230.138L266.929 230.708V230.708L274.909 230.138ZM77.2315 104.771C69.073 93.8305 58.063 86 45 86V102C51.1497 102 57.9464 105.675 64.405 114.336L77.2315 104.771ZM45 86C28.1014 86 14.7476 98.938 6.09193 115.48C-2.76308 132.403 -8 155.227 -8 180H8C8 157.276 12.8367 137.101 20.2685 122.898C27.8996 108.314 37.0457 102 45 102V86ZM-8 180C-8 215.154 2.61162 247.228 19.9565 263.298L30.8309 251.562C18.1154 239.78 8 212.976 8 180H-8ZM33.3861 257.78C33.779 248.808 34.4195 239.832 35.071 230.708L19.1116 229.568C18.4627 238.656 17.8056 247.851 17.4014 257.08L33.3861 257.78ZM35.071 230.708C36.123 215.975 37.2055 200.861 37.2055 185.495H21.2055C21.2055 200.197 20.17 214.746 19.1116 229.568L35.071 230.708ZM37.2055 185.495C37.2055 157.671 51.7563 133.021 75.4718 116.061L66.1646 103.046C38.9934 122.478 21.2055 151.655 21.2055 185.495H37.2055ZM281.629 259.56C290.898 251.604 298.18 239.305 303.147 224.92C308.152 210.428 311 193.277 311 175H295C295 191.678 292.392 207.046 288.023 219.698C283.617 232.457 277.609 241.925 271.208 247.419L281.629 259.56ZM311 175C311 150.227 305.763 127.403 296.908 110.48C288.252 93.938 274.899 81 258 81V97C265.954 97 275.1 103.314 282.732 117.898C290.163 132.101 295 152.276 295 175H311ZM258 81C243.305 81 231.255 90.8563 222.792 104.083L236.27 112.706C243.319 101.688 251.093 97 258 97V81ZM224.989 114.98C249.614 131.962 264.794 157.08 264.794 185.495H280.794C280.794 150.923 262.234 121.23 234.073 101.809L224.989 114.98ZM264.794 185.495C264.794 200.861 265.877 215.975 266.929 230.708L282.888 229.568C281.83 214.746 280.794 200.197 280.794 185.495H264.794ZM266.929 230.708C267.486 238.513 268.036 246.209 268.429 253.898L284.408 253.081C284.005 245.203 283.444 237.346 282.888 229.568L266.929 230.708Z" fill="#150C0C" mask="url(#path-1-inside-1_1_929)"/>
<path d="M170.5 4C196.392 4 214.241 18.1376 232.572 33.3301C250.575 48.2503 269.312 64.5 296 64.5C302.662 64.5 306.364 66.0981 308.277 68.0244C310.09 69.8486 311.014 72.7024 310.398 77.0488C309.126 86.0345 301.517 98.9579 288.494 112.475C262.634 139.316 217.861 166 170.5 166C136.444 166 105.765 157.762 83.7305 145.271C61.4904 132.662 49 116.343 49 100.5C49 42.6639 105.114 4 170.5 4Z" fill="#F7C870" stroke="#150C0C" stroke-width="8"/>
</svg>
