<svg width="340" height="513" viewBox="0 0 340 513" fill="none" xmlns="http://www.w3.org/2000/svg">
<mask id="path-1-outside-1_2_172" maskUnits="userSpaceOnUse" x="0" y="9.25497" width="266" height="377" fill="black">
<rect fill="white" y="9.25497" width="266" height="377"/>
<path fill-rule="evenodd" clip-rule="evenodd" d="M8 278.238C8 94.626 74.298 17.255 153.463 17.255C159.844 17.255 165.921 19.3316 171.699 23.2076C104.491 26.5107 50.4725 68.8494 50.4725 123.495C50.4725 133.413 49.9823 141.503 49.3265 150.102C40.17 151.228 33 161.498 33 174C33 185.034 38.5844 194.329 46.1904 197.134C46.0692 200.797 46 204.464 46 208.137C46 258.615 94.3759 298.959 141.53 314.309C140.712 325.686 139.393 338.451 137.26 350H78.9943C58.2201 350 39.062 358.215 25.9014 371.828C8 332.206 8 293.582 8 278.238ZM220.424 313.659C221.237 325.199 222.567 338.23 224.74 350H257.023C256.022 333.529 254.663 316.236 252.94 298.553C242.494 304.815 231.444 309.913 220.424 313.659Z"/>
</mask>
<path fill-rule="evenodd" clip-rule="evenodd" d="M8 278.238C8 94.626 74.298 17.255 153.463 17.255C159.844 17.255 165.921 19.3316 171.699 23.2076C104.491 26.5107 50.4725 68.8494 50.4725 123.495C50.4725 133.413 49.9823 141.503 49.3265 150.102C40.17 151.228 33 161.498 33 174C33 185.034 38.5844 194.329 46.1904 197.134C46.0692 200.797 46 204.464 46 208.137C46 258.615 94.3759 298.959 141.53 314.309C140.712 325.686 139.393 338.451 137.26 350H78.9943C58.2201 350 39.062 358.215 25.9014 371.828C8 332.206 8 293.582 8 278.238ZM220.424 313.659C221.237 325.199 222.567 338.23 224.74 350H257.023C256.022 333.529 254.663 316.236 252.94 298.553C242.494 304.815 231.444 309.913 220.424 313.659Z" fill="#865028"/>
<path d="M153.463 17.255V9.25497V17.255ZM171.699 23.2076L172.092 31.198L196.204 30.0129L176.156 16.564L171.699 23.2076ZM49.3265 150.102L50.3026 158.043L56.8052 157.243L57.3034 150.711L49.3265 150.102ZM46.1904 197.134L54.186 197.398L54.3769 191.626L48.9585 189.628L46.1904 197.134ZM141.53 314.309L149.509 314.883L149.957 308.64L144.006 306.702L141.53 314.309ZM137.26 350V358H143.919L145.127 351.452L137.26 350ZM25.9014 371.828L18.611 375.122L23.4627 385.861L31.653 377.389L25.9014 371.828ZM224.74 350L216.873 351.452L218.081 358H224.74V350ZM220.424 313.659L217.849 306.085L212.011 308.07L212.444 314.222L220.424 313.659ZM257.023 350V358H265.525L265.009 349.514L257.023 350ZM252.94 298.553L260.902 297.777L259.676 285.188L248.827 291.691L252.94 298.553ZM153.463 9.25497C110.856 9.25498 72.0478 30.2531 44.2632 74.6478C16.6901 118.705 0 185.639 0 278.238H16C16 187.225 32.4589 123.668 57.8259 83.1361C82.9814 42.9423 116.904 25.255 153.463 25.255V9.25497ZM176.156 16.564C169.286 11.9555 161.683 9.25497 153.463 9.25497V25.255C158.004 25.255 162.556 26.7078 167.242 29.8513L176.156 16.564ZM58.4725 123.495C58.4725 74.8535 107.16 34.3892 172.092 31.198L171.306 15.2173C101.822 18.6322 42.4725 62.8453 42.4725 123.495H58.4725ZM57.3034 150.711C57.9664 142.017 58.4725 133.702 58.4725 123.495H42.4725C42.4725 133.125 41.9983 140.989 41.3497 149.494L57.3034 150.711ZM41 174C41 163.688 46.756 158.479 50.3026 158.043L48.3505 142.162C33.584 143.977 25 159.307 25 174H41ZM48.9585 189.628C45.4574 188.337 41 182.839 41 174H25C25 187.229 31.7115 200.321 43.4222 204.639L48.9585 189.628ZM54 208.137C54 204.564 54.0673 200.986 54.186 197.398L38.1947 196.869C38.0711 200.608 38 204.364 38 208.137H54ZM144.006 306.702C121.521 299.383 98.7859 286.095 81.7897 268.79C64.8016 251.494 54 230.693 54 208.137H38C38 236.058 51.3863 260.669 70.3747 280.002C89.3548 299.326 114.384 313.886 139.053 321.917L144.006 306.702ZM145.127 351.452C147.334 339.497 148.681 326.409 149.509 314.883L133.55 313.736C132.744 324.964 131.451 337.404 129.393 348.548L145.127 351.452ZM78.9943 358H137.26V342H78.9943V358ZM31.653 377.389C43.2498 365.393 60.306 358 78.9943 358V342C56.1342 342 34.8742 351.037 20.1498 366.268L31.653 377.389ZM0 278.238C0 293.72 -0.0436268 333.833 18.611 375.122L33.1918 368.534C16.0436 330.58 16 293.444 16 278.238H0ZM232.607 348.548C230.51 337.19 229.207 324.487 228.404 313.097L212.444 314.222C213.268 325.91 214.624 339.27 216.873 351.452L232.607 348.548ZM257.023 342H224.74V358H257.023V342ZM244.978 299.328C246.691 316.916 248.043 334.112 249.038 350.486L265.009 349.514C264.001 332.946 262.634 315.556 260.902 297.777L244.978 299.328ZM222.999 321.234C234.56 317.304 246.124 311.965 257.053 305.414L248.827 291.691C238.863 297.664 228.329 302.523 217.849 306.085L222.999 321.234Z" fill="#150C0C" mask="url(#path-1-outside-1_2_172)"/>
<mask id="path-3-inside-2_2_172" fill="white">
<path fill-rule="evenodd" clip-rule="evenodd" d="M339.792 138C339.792 139.674 339.762 141.341 339.703 143H339.792V513H239.792V184.886C239.731 108.723 177.97 47 101.792 47C100.524 47 99.2599 47.0171 98 47.0511C123.293 18.2092 160.416 0 201.792 0C278.007 0 339.792 61.7847 339.792 138Z"/>
</mask>
<path fill-rule="evenodd" clip-rule="evenodd" d="M339.792 138C339.792 139.674 339.762 141.341 339.703 143H339.792V513H239.792V184.886C239.731 108.723 177.97 47 101.792 47C100.524 47 99.2599 47.0171 98 47.0511C123.293 18.2092 160.416 0 201.792 0C278.007 0 339.792 61.7847 339.792 138Z" fill="#865028"/>
<path d="M339.703 143L331.708 142.715L331.413 151H339.703V143ZM339.792 143H347.792V135H339.792V143ZM339.792 513V521H347.792V513H339.792ZM239.792 513H231.792V521H239.792V513ZM239.792 184.886H247.792V184.88L239.792 184.886ZM98 47.0511L91.9852 41.7764L79.9133 55.5419L98.2157 55.0482L98 47.0511ZM347.698 143.285C347.761 141.531 347.792 139.769 347.792 138H331.792C331.792 139.579 331.764 141.151 331.708 142.715L347.698 143.285ZM339.703 151H339.792V135H339.703V151ZM331.792 143V513H347.792V143H331.792ZM339.792 505H239.792V521H339.792V505ZM247.792 513V184.886H231.792V513H247.792ZM101.792 55C173.553 55 231.734 113.145 231.792 184.893L247.792 184.88C247.727 104.301 182.386 39 101.792 39V55ZM98.2157 55.0482C99.4038 55.0161 100.596 55 101.792 55V39C100.452 39 99.116 39.0181 97.7843 39.054L98.2157 55.0482ZM201.792 -8C158.016 -8 118.733 11.276 91.9852 41.7764L104.015 52.3258C127.854 25.1425 162.816 8 201.792 8V-8ZM347.792 138C347.792 57.3664 282.426 -8 201.792 -8V8C273.589 8 331.792 66.203 331.792 138H347.792Z" fill="#150C0C" mask="url(#path-3-inside-2_2_172)"/>
</svg>
