<svg width="403" height="512" viewBox="0 0 403 512" fill="none" xmlns="http://www.w3.org/2000/svg">
<mask id="path-1-outside-1_6_54" maskUnits="userSpaceOnUse" x="1.92537" y="-0.000534058" width="401" height="445" fill="black">
<rect fill="white" x="1.92537" y="-0.000534058" width="401" height="445"/>
<path fill-rule="evenodd" clip-rule="evenodd" d="M39.353 271.238C26.254 252.273 18.4724 225.695 18.4724 189.097C18.4724 81.0127 112.835 21.1968 199.113 9.25343C248.979 2.35065 283.547 24.5719 299.82 60.5095C334.421 65.5409 370.837 107.304 386.884 164.094C399.38 208.316 397.626 310.472 367.612 349.736C354.358 360.36 345.569 371.39 337.819 381.115C329.908 391.043 323.08 399.611 313.692 404.999C307.494 408.557 301.685 411.546 296.243 413.999H245.932C243.293 399.707 241.899 383.554 241.162 370.472C287.51 354.53 334.192 314.723 334.192 265.136C334.192 264.636 334.191 264.136 334.188 263.636C341.182 260.342 346.192 251.451 346.192 240.999C346.192 229.337 339.953 219.617 331.683 217.45C331.578 216.116 331.474 214.811 331.371 213.528C330.479 202.344 329.72 192.835 329.72 180.494C329.72 123.663 271.294 80.1424 200.368 79.9993L200.192 79.9994L200.097 79.9995L200.017 79.9997C129.091 80.1428 70.6648 123.663 70.6648 180.494C70.6648 192.835 69.906 202.344 69.0134 213.529L69.0132 213.531L69.0128 213.536C68.9164 214.744 68.8184 215.972 68.7197 217.224C59.9485 218.831 53.1923 228.863 53.1923 240.999C53.1923 251.942 58.6847 261.174 66.1943 264.062C66.193 264.42 66.1923 264.778 66.1923 265.136C66.1923 316.124 115.549 356.771 163.149 371.766C162.393 384.609 161.005 400.175 158.453 413.999H100.187C79.8482 413.999 61.0589 421.874 47.9299 434.978C47.8555 434.949 47.7811 434.92 47.7067 434.891C11.0055 420.408 -0.0936842 361.398 22.916 303.09C27.489 291.501 33.0651 280.813 39.353 271.238Z"/>
</mask>
<path fill-rule="evenodd" clip-rule="evenodd" d="M39.353 271.238C26.254 252.273 18.4724 225.695 18.4724 189.097C18.4724 81.0127 112.835 21.1968 199.113 9.25343C248.979 2.35065 283.547 24.5719 299.82 60.5095C334.421 65.5409 370.837 107.304 386.884 164.094C399.38 208.316 397.626 310.472 367.612 349.736C354.358 360.36 345.569 371.39 337.819 381.115C329.908 391.043 323.08 399.611 313.692 404.999C307.494 408.557 301.685 411.546 296.243 413.999H245.932C243.293 399.707 241.899 383.554 241.162 370.472C287.51 354.53 334.192 314.723 334.192 265.136C334.192 264.636 334.191 264.136 334.188 263.636C341.182 260.342 346.192 251.451 346.192 240.999C346.192 229.337 339.953 219.617 331.683 217.45C331.578 216.116 331.474 214.811 331.371 213.528C330.479 202.344 329.72 192.835 329.72 180.494C329.72 123.663 271.294 80.1424 200.368 79.9993L200.192 79.9994L200.097 79.9995L200.017 79.9997C129.091 80.1428 70.6648 123.663 70.6648 180.494C70.6648 192.835 69.906 202.344 69.0134 213.529L69.0132 213.531L69.0128 213.536C68.9164 214.744 68.8184 215.972 68.7197 217.224C59.9485 218.831 53.1923 228.863 53.1923 240.999C53.1923 251.942 58.6847 261.174 66.1943 264.062C66.193 264.42 66.1923 264.778 66.1923 265.136C66.1923 316.124 115.549 356.771 163.149 371.766C162.393 384.609 161.005 400.175 158.453 413.999H100.187C79.8482 413.999 61.0589 421.874 47.9299 434.978C47.8555 434.949 47.7811 434.92 47.7067 434.891C11.0055 420.408 -0.0936842 361.398 22.916 303.09C27.489 291.501 33.0651 280.813 39.353 271.238Z" fill="#4B301C"/>
<path d="M39.353 271.238L46.04 275.629L48.9979 271.125L45.9355 266.691L39.353 271.238ZM199.113 9.25343L200.21 17.1779L199.113 9.25343ZM299.82 60.5095L292.532 63.8095L294.338 67.7965L298.669 68.4263L299.82 60.5095ZM386.884 164.094L394.583 161.918L394.583 161.918L386.884 164.094ZM367.612 349.736L372.616 355.979L373.376 355.369L373.968 354.595L367.612 349.736ZM337.819 381.115L331.562 376.129L331.562 376.129L337.819 381.115ZM313.692 404.999L309.71 398.061L309.71 398.061L313.692 404.999ZM296.243 413.999V421.999H297.963L299.531 421.292L296.243 413.999ZM245.932 413.999L238.065 415.452L239.274 421.999H245.932V413.999ZM241.162 370.472L238.56 362.907L232.834 364.877L233.174 370.922L241.162 370.472ZM334.188 263.636L330.78 256.398L326.163 258.572L326.189 263.676L334.188 263.636ZM331.683 217.45L323.707 218.078L324.154 223.748L329.655 225.189L331.683 217.45ZM331.371 213.528L323.397 214.164L323.397 214.164L331.371 213.528ZM200.368 79.9993L200.384 71.9994L200.374 71.9993L200.364 71.9993L200.368 79.9993ZM200.192 79.9994L200.188 71.9994L200.182 71.9994L200.192 79.9994ZM200.097 79.9995L200.087 71.9996L200.083 71.9996L200.097 79.9995ZM200.017 79.9997L200.003 71.9997L200.001 71.9997L200.017 79.9997ZM69.0134 213.529L61.0387 212.892L61.0387 212.892L69.0134 213.529ZM69.0132 213.531L61.0386 212.894L61.0383 212.898L69.0132 213.531ZM69.0128 213.536L76.9874 214.173L76.9877 214.169L69.0128 213.536ZM68.7197 217.224L70.1611 225.093L76.2117 223.985L76.695 217.853L68.7197 217.224ZM66.1943 264.062L74.1942 264.091L74.2142 258.575L69.0659 256.595L66.1943 264.062ZM163.149 371.766L171.135 372.235L171.501 366.009L165.552 364.135L163.149 371.766ZM158.453 413.999V421.999H165.111L166.32 415.452L158.453 413.999ZM47.9299 434.978L45.0323 442.435L49.8917 444.323L53.5815 440.64L47.9299 434.978ZM47.7067 434.891L50.6446 427.45L50.6433 427.449L47.7067 434.891ZM22.916 303.09L30.3576 306.026L30.3576 306.026L22.916 303.09ZM18.4724 189.097H10.4724C10.4724 226.787 18.4863 255.104 32.7706 275.784L39.353 271.238L45.9355 266.691C34.0217 249.443 26.4724 224.603 26.4724 189.097H18.4724ZM199.113 9.25343L198.016 1.329C109.851 13.5335 10.4724 75.2345 10.4724 189.097H18.4724H26.4724C26.4724 86.791 115.818 28.8601 200.21 17.1779L199.113 9.25343ZM299.82 60.5095L307.108 57.2095C298.337 37.8399 284.495 21.8962 265.882 11.7864C247.262 1.67243 224.388 -2.32157 198.016 1.329L199.113 9.25343L200.21 17.1779C223.704 13.9257 243.047 17.5909 258.245 25.8462C273.451 34.1058 285.03 47.2416 292.532 63.8095L299.82 60.5095ZM386.884 164.094L394.583 161.918C386.282 132.543 372.664 106.849 356.407 87.7127C340.258 68.7044 320.897 55.4901 300.971 52.5928L299.82 60.5095L298.669 68.4263C313.345 70.5603 329.492 80.7434 344.213 98.0719C358.826 115.272 371.439 138.855 379.185 166.269L386.884 164.094ZM367.612 349.736L373.968 354.595C382.372 343.601 388.454 328.721 392.775 312.436C397.123 296.049 399.827 277.704 401.168 259.357C403.836 222.842 401.171 185.236 394.583 161.918L386.884 164.094L379.185 166.269C385.092 187.174 387.799 222.758 385.21 258.192C383.923 275.819 381.342 293.14 377.31 308.332C373.252 323.626 367.859 336.24 361.256 344.878L367.612 349.736ZM337.819 381.115L344.075 386.101C351.824 376.377 360.129 365.987 372.616 355.979L367.612 349.736L362.609 343.494C348.587 354.733 339.313 366.403 331.562 376.129L337.819 381.115ZM313.692 404.999L317.675 411.938C328.628 405.65 336.384 395.753 344.075 386.101L337.819 381.115L331.562 376.129C323.432 386.332 317.532 393.571 309.71 398.061L313.692 404.999ZM296.243 413.999L299.531 421.292C305.244 418.717 311.286 415.605 317.675 411.938L313.692 404.999L309.71 398.061C303.703 401.509 298.126 404.375 292.954 406.707L296.243 413.999ZM245.932 413.999V421.999H296.243V413.999V405.999H245.932V413.999ZM241.162 370.472L233.174 370.922C233.919 384.142 235.337 400.677 238.065 415.452L245.932 413.999L253.799 412.547C251.249 398.737 249.878 382.967 249.149 370.022L241.162 370.472ZM334.192 265.136H326.192C326.192 287.295 315.77 307.756 299.294 324.873C282.807 342.001 260.676 355.3 238.56 362.907L241.162 370.472L243.764 378.037C267.995 369.703 292.38 355.127 310.821 335.969C329.273 316.8 342.192 292.564 342.192 265.136H334.192ZM334.188 263.636L326.189 263.676C326.191 264.163 326.192 264.649 326.192 265.136H334.192H342.192C342.192 264.622 342.191 264.108 342.188 263.595L334.188 263.636ZM346.192 240.999H338.192C338.192 249.292 334.211 254.783 330.78 256.398L334.188 263.636L337.597 270.873C348.153 265.902 354.192 253.611 354.192 240.999H346.192ZM331.683 217.45L329.655 225.189C333.194 226.116 338.192 231.547 338.192 240.999H346.192H354.192C354.192 227.126 346.712 213.118 333.71 209.712L331.683 217.45ZM331.371 213.528L323.397 214.164C323.499 215.448 323.603 216.749 323.707 218.078L331.683 217.45L339.658 216.823C339.553 215.484 339.448 214.174 339.346 212.891L331.371 213.528ZM329.72 180.494H321.72C321.72 193.189 322.504 202.985 323.397 214.164L331.371 213.528L339.346 212.891C338.453 201.703 337.72 192.481 337.72 180.494H329.72ZM200.368 79.9993L200.352 87.9993C268.983 88.1378 321.72 129.929 321.72 180.494H329.72H337.72C337.72 117.397 273.604 72.1471 200.384 71.9994L200.368 79.9993ZM200.192 79.9994L200.196 87.9994L200.372 87.9993L200.368 79.9993L200.364 71.9993L200.188 71.9994L200.192 79.9994ZM200.097 79.9995L200.107 87.9995L200.203 87.9994L200.192 79.9994L200.182 71.9994L200.087 71.9996L200.097 79.9995ZM200.017 79.9997L200.031 87.9997L200.111 87.9995L200.097 79.9995L200.083 71.9996L200.003 71.9997L200.017 79.9997ZM70.6648 180.494H78.6648C78.6648 129.929 131.402 88.1381 200.033 87.9997L200.017 79.9997L200.001 71.9997C126.78 72.1474 62.6648 117.397 62.6648 180.494H70.6648ZM69.0134 213.529L76.988 214.165C77.8803 202.985 78.6648 193.189 78.6648 180.494H70.6648H62.6648C62.6648 192.482 61.9317 201.704 61.0387 212.892L69.0134 213.529ZM69.0132 213.531L76.9879 214.167L76.9881 214.165L69.0134 213.529L61.0387 212.892L61.0386 212.894L69.0132 213.531ZM69.0128 213.536L76.9877 214.169L76.9881 214.164L69.0132 213.531L61.0383 212.898L61.0378 212.904L69.0128 213.536ZM68.7197 217.224L76.695 217.853C76.7933 216.605 76.891 215.381 76.9874 214.173L69.0128 213.536L61.0381 212.9C60.9418 214.107 60.8435 215.338 60.7445 216.596L68.7197 217.224ZM53.1923 240.999H61.1923C61.1923 231.068 66.6136 225.743 70.1611 225.093L68.7197 217.224L67.2783 209.355C53.2835 211.918 45.1923 226.658 45.1923 240.999H53.1923ZM66.1943 264.062L69.0659 256.595C65.5734 255.252 61.1923 249.751 61.1923 240.999H53.1923H45.1923C45.1923 254.133 51.796 267.096 63.3226 271.529L66.1943 264.062ZM66.1923 265.136H74.1923C74.1923 264.788 74.193 264.44 74.1942 264.091L66.1943 264.062L58.1943 264.033C58.193 264.401 58.1923 264.768 58.1923 265.136H66.1923ZM163.149 371.766L165.552 364.135C142.865 356.989 119.785 343.713 102.496 326.31C85.2138 308.914 74.1923 287.919 74.1923 265.136H66.1923H58.1923C58.1923 293.34 71.8493 318.163 91.1453 337.587C110.435 357.003 135.833 371.548 160.745 379.396L163.149 371.766ZM158.453 413.999L166.32 415.452C168.959 401.157 170.371 385.219 171.135 372.235L163.149 371.766L155.162 371.296C154.415 383.999 153.051 399.192 150.586 412.547L158.453 413.999ZM100.187 413.999V421.999H158.453V413.999V405.999H100.187V413.999ZM47.9299 434.978L53.5815 440.64C65.1582 429.085 81.8921 421.999 100.187 421.999V413.999V405.999C77.8043 405.999 56.9597 414.662 42.2784 429.316L47.9299 434.978ZM47.7067 434.891L44.7688 442.332C44.8584 442.367 44.9464 442.401 45.0323 442.435L47.9299 434.978L50.8275 427.521C50.7646 427.497 50.7038 427.473 50.6446 427.45L47.7067 434.891ZM22.916 303.09L15.4745 300.153C3.50344 330.489 0.251696 361.353 5.05764 386.904C9.84052 412.332 22.9534 433.723 44.7701 442.332L47.7067 434.891L50.6433 427.449C35.7588 421.575 24.9715 406.22 20.7819 383.946C16.6154 361.794 19.3189 333.999 30.3576 306.026L22.916 303.09ZM39.353 271.238L32.666 266.846C26.0719 276.888 20.2448 288.065 15.4745 300.153L22.916 303.09L30.3576 306.026C34.7332 294.938 40.0583 284.738 46.04 275.629L39.353 271.238Z" fill="#150C0C" mask="url(#path-1-outside-1_6_54)"/>
<path d="M335.732 166.057C341.464 166.057 346.787 162.9 351.192 157.499L341.192 123.999L279.192 77.4994L181.692 42.9994L75.1923 80.9994L66.1923 166.057C91.1923 191.057 125.192 152.499 152.192 152.499C179.192 152.499 139.692 179.499 186.192 179.499C245.692 179.499 278.92 128.049 290.692 110.999C290.692 110.999 305.098 166.057 335.732 166.057Z" fill="#4B301C"/>
<path fill-rule="evenodd" clip-rule="evenodd" d="M29.6923 432.499C7.69232 407.999 -8.30768 360.499 16.6923 302.999C20.8668 292.421 26.1021 282.444 31.6923 273.499L114.692 363.499C110.544 372.114 118.002 377.894 123.943 382.499C127.311 385.109 130.192 387.342 130.192 389.499C130.494 399.947 131.154 409.827 131.766 418.988C134.2 455.419 135.872 480.46 111.192 484.499C99.2302 448.613 72.1385 443.717 51.7615 440.034C42.1433 438.296 34.0212 436.828 29.6923 432.499Z" fill="#4B301C"/>
<path fill-rule="evenodd" clip-rule="evenodd" d="M255.048 364.979C255.144 365.123 255.248 365.263 255.358 365.397C262.177 373.671 273.182 389.07 275.644 418.892C275.676 419.29 275.757 419.697 275.883 420.076C287.819 455.918 308.474 476.783 333.408 470.199C335.652 469.607 336.97 467.34 336.794 465.026C334.676 437.157 348.447 424.051 361.837 411.308C373.673 400.043 385.212 389.062 385.213 368.416C385.214 351.455 382.838 335.381 378.59 320.999C370.089 292.224 354.09 270.221 334.622 261.436C334.471 261.367 334.319 261.3 334.167 261.233C334.184 262.533 334.192 263.834 334.192 265.136C334.192 309.757 296.391 346.46 255.048 364.979Z" fill="#4B301C"/>
<path d="M351.192 157.499C346.787 162.9 341.464 166.057 335.732 166.057C305.098 166.057 290.692 110.999 290.692 110.999C278.92 128.049 245.692 179.499 186.192 179.499C139.692 179.499 179.192 152.499 152.192 152.499C125.192 152.499 91.1923 191.057 66.1923 166.057" stroke="#150C0C" stroke-width="8" stroke-linejoin="round"/>
<mask id="path-7-outside-2_6_54" maskUnits="userSpaceOnUse" x="271.216" y="322.999" width="118" height="148" fill="black">
<rect fill="white" x="271.216" y="322.999" width="118" height="148"/>
</mask>
<path d="M382.192 369.499L386.192 369.5V369.5L382.192 369.499ZM358.296 413.624L360.823 416.725L358.296 413.624ZM336.924 460.955L340.894 460.465L340.894 460.465L336.924 460.955ZM381.655 355.896L385.648 355.654V355.654L381.655 355.896ZM332.627 466.654L332.242 462.673H332.242L332.627 466.654ZM275.363 409.19L279.275 408.354L279.275 408.354L275.363 409.19ZM378.192 369.499C378.192 381.096 375.361 388.942 371.331 394.985C367.214 401.158 361.718 405.673 355.768 410.524L360.823 416.725C366.648 411.976 373.1 406.752 377.987 399.424C382.961 391.965 386.191 382.549 386.192 369.5L378.192 369.499ZM355.768 410.524C349.576 415.572 342.806 421.039 338.191 428.917C333.475 436.966 331.19 447.156 332.954 461.445L340.894 460.465C339.303 447.579 341.425 439.223 345.093 432.961C348.863 426.526 354.456 421.915 360.823 416.725L355.768 410.524ZM381.037 323.375C376.255 334.135 376.996 345.139 377.663 356.138L385.648 355.654C384.96 344.309 384.488 335.309 388.348 326.624L381.037 323.375ZM377.663 356.138C377.927 360.493 378.192 364.893 378.192 369.499L386.192 369.5C386.192 364.614 385.91 359.979 385.648 355.654L377.663 356.138ZM332.242 462.673C321.824 463.681 313.796 462.149 307.509 459.148C301.22 456.145 296.414 451.546 292.64 446.02C284.975 434.798 281.799 420.169 279.275 408.354L271.452 410.026C273.915 421.557 277.332 437.792 286.033 450.532C290.442 456.986 296.263 462.643 304.063 466.367C311.866 470.093 321.392 471.76 333.012 470.636L332.242 462.673ZM279.275 408.354C279.226 408.123 279.176 407.892 279.127 407.663L271.304 409.336C271.353 409.564 271.402 409.794 271.452 410.026L279.275 408.354ZM332.954 461.445C332.999 461.811 332.894 462.146 332.727 462.373C332.575 462.58 332.41 462.657 332.242 462.673L333.012 470.636C338.342 470.12 341.473 465.157 340.894 460.465L332.954 461.445Z" fill="#150C0C" mask="url(#path-7-outside-2_6_54)"/>
<mask id="path-9-outside-3_6_54" maskUnits="userSpaceOnUse" x="-0.999847" y="269.999" width="140" height="220" fill="black">
<rect fill="white" x="-0.999847" y="269.999" width="140" height="220"/>
</mask>
<path d="M29.6923 432.499L26.7161 435.172L26.7879 435.252L26.8639 435.328L29.6923 432.499ZM16.6923 302.999L20.3606 304.594L20.3879 304.531L20.4131 304.468L16.6923 302.999ZM32.4253 274.946L35.7771 277.129L35.7771 277.129L32.4253 274.946ZM109.692 484.999L105.898 486.264L106.975 489.497L110.338 488.947L109.692 484.999ZM51.302 440.137L52.0569 436.209H52.0569L51.302 440.137ZM134.489 413.08L138.488 413.002L134.489 413.08ZM32.6685 429.827C11.7074 406.484 -4.01124 360.65 20.3606 304.594L13.024 301.405C-12.6041 360.349 3.67726 409.515 26.7161 435.172L32.6685 429.827ZM20.4131 304.468C24.1421 295.018 29.6897 286.475 35.7771 277.129L29.0736 272.763C23.0657 281.987 17.0478 291.202 12.9715 301.531L20.4131 304.468ZM35.7771 277.129C36.1982 276.483 36.6217 275.832 37.0461 275.179L30.3385 270.819C29.9165 271.469 29.495 272.116 29.0736 272.763L35.7771 277.129ZM113.487 483.734C107.2 464.873 96.9766 453.828 85.5123 447.079C74.2241 440.435 61.9523 438.111 52.0569 436.209L50.5471 444.065C60.5957 445.996 71.5286 448.131 81.4541 453.974C91.2037 459.713 100.203 469.182 105.898 486.264L113.487 483.734ZM52.0569 436.209C47.3115 435.297 43.2246 434.507 39.7873 433.441C36.3376 432.371 34.003 431.153 32.5208 429.671L26.8639 435.328C29.6959 438.16 33.4826 439.861 37.4174 441.082C41.3647 442.306 45.9255 443.177 50.5471 444.065L52.0569 436.209ZM110.338 488.947C117.575 487.762 123.277 484.93 127.582 480.432C131.837 475.986 134.443 470.21 136.061 463.609C139.249 450.609 138.878 433.074 138.488 413.002L130.49 413.157C130.888 433.671 131.172 449.959 128.292 461.704C126.876 467.476 124.767 471.803 121.802 474.901C118.887 477.947 114.863 480.1 109.046 481.052L110.338 488.947ZM138.488 413.002C138.443 410.685 138.398 408.328 138.356 405.93L130.357 406.069C130.399 408.477 130.445 410.841 130.49 413.157L138.488 413.002Z" fill="#150C0C" mask="url(#path-9-outside-3_6_54)"/>
</svg>
