<svg width="403" height="512" viewBox="0 0 403 512" fill="none" xmlns="http://www.w3.org/2000/svg">
<mask id="path-1-outside-1_6_54" maskUnits="userSpaceOnUse" x="1.92537" y="-0.000534058" width="401" height="445" fill="black">
<rect fill="white" x="1.92537" y="-0.000534058" width="401" height="445"/>
<path fill-rule="evenodd" clip-rule="evenodd" d="M39.353 271.238C26.254 252.273 18.4724 225.695 18.4724 189.097C18.4724 81.0127 112.835 21.1968 199.113 9.25343C248.979 2.35065 283.547 24.5719 299.82 60.5095C334.421 65.5409 370.837 107.304 386.884 164.094C399.38 208.316 397.626 310.472 367.612 349.736C354.358 360.36 345.569 371.39 337.819 381.115C329.908 391.043 323.08 399.611 313.692 404.999C307.494 408.557 301.685 411.546 296.243 413.999H245.932C243.293 399.707 241.899 383.554 241.162 370.472C287.51 354.53 334.192 314.723 334.192 265.136C334.192 257.394 333.885 249.678 333.431 241.967C340.817 238.976 346.192 229.825 346.192 218.999C346.192 206.598 339.138 196.394 330.088 195.131C329.859 190.535 329.72 185.774 329.72 180.494C329.72 123.663 271.294 80.1424 200.368 79.9993L200.192 79.9994C200.134 79.9994 200.075 79.9997 200.017 79.9997C129.091 80.1428 70.6648 123.663 70.6648 180.494C70.6648 185.735 70.528 190.464 70.3022 195.028C60.7746 195.647 53.1923 206.143 53.1923 218.999C53.1923 230.298 59.0474 239.772 66.9325 242.323C66.4903 249.916 66.1923 257.514 66.1923 265.136C66.1923 316.124 115.549 356.771 163.149 371.766C162.393 384.609 161.005 400.175 158.453 413.999H100.187C79.8482 413.999 61.0589 421.874 47.9299 434.978C47.8757 434.957 47.8215 434.936 47.7673 434.915L47.7067 434.891C11.0055 420.408 -0.0936842 361.398 22.916 303.09C27.489 291.501 33.0651 280.813 39.353 271.238Z"/>
</mask>
<path fill-rule="evenodd" clip-rule="evenodd" d="M39.353 271.238C26.254 252.273 18.4724 225.695 18.4724 189.097C18.4724 81.0127 112.835 21.1968 199.113 9.25343C248.979 2.35065 283.547 24.5719 299.82 60.5095C334.421 65.5409 370.837 107.304 386.884 164.094C399.38 208.316 397.626 310.472 367.612 349.736C354.358 360.36 345.569 371.39 337.819 381.115C329.908 391.043 323.08 399.611 313.692 404.999C307.494 408.557 301.685 411.546 296.243 413.999H245.932C243.293 399.707 241.899 383.554 241.162 370.472C287.51 354.53 334.192 314.723 334.192 265.136C334.192 257.394 333.885 249.678 333.431 241.967C340.817 238.976 346.192 229.825 346.192 218.999C346.192 206.598 339.138 196.394 330.088 195.131C329.859 190.535 329.72 185.774 329.72 180.494C329.72 123.663 271.294 80.1424 200.368 79.9993L200.192 79.9994C200.134 79.9994 200.075 79.9997 200.017 79.9997C129.091 80.1428 70.6648 123.663 70.6648 180.494C70.6648 185.735 70.528 190.464 70.3022 195.028C60.7746 195.647 53.1923 206.143 53.1923 218.999C53.1923 230.298 59.0474 239.772 66.9325 242.323C66.4903 249.916 66.1923 257.514 66.1923 265.136C66.1923 316.124 115.549 356.771 163.149 371.766C162.393 384.609 161.005 400.175 158.453 413.999H100.187C79.8482 413.999 61.0589 421.874 47.9299 434.978C47.8757 434.957 47.8215 434.936 47.7673 434.915L47.7067 434.891C11.0055 420.408 -0.0936842 361.398 22.916 303.09C27.489 291.501 33.0651 280.813 39.353 271.238Z" fill="#865028"/>
<path d="M364.749 346.943L338.725 373.615L344.451 379.202L370.475 352.53L364.749 346.943ZM39.353 271.238L46.04 275.629L48.9979 271.125L45.9355 266.691L39.353 271.238ZM199.113 9.25343L200.21 17.1779L199.113 9.25343ZM299.82 60.5095L292.532 63.8095L294.338 67.7965L298.669 68.4263L299.82 60.5095ZM386.884 164.094L394.583 161.918L386.884 164.094ZM367.612 349.736L372.616 355.979L373.376 355.369L373.968 354.595L367.612 349.736ZM337.819 381.115L331.562 376.129V376.129L337.819 381.115ZM313.692 404.999L309.71 398.061L313.692 404.999ZM296.243 413.999V421.999H297.963L299.531 421.292L296.243 413.999ZM245.932 413.999L238.065 415.452L239.274 421.999H245.932V413.999ZM241.162 370.472L238.56 362.907L232.834 364.877L233.174 370.922L241.162 370.472ZM333.431 241.967L330.428 234.552L325.108 236.707L325.445 242.437L333.431 241.967ZM330.088 195.131L322.097 195.529L322.427 202.14L328.982 203.054L330.088 195.131ZM200.368 79.9993L200.384 71.9994L200.374 71.9993L200.364 71.9993L200.368 79.9993ZM200.192 79.9994L200.184 87.9994L200.197 87.9994L200.192 79.9994ZM200.017 79.9997V71.9997H200.009L200.001 71.9997L200.017 79.9997ZM70.3022 195.028L70.8205 203.012L77.9399 202.549L78.2924 195.424L70.3022 195.028ZM66.9325 242.323L74.919 242.789L75.2785 236.615L69.3952 234.712L66.9325 242.323ZM163.149 371.766L171.135 372.235L171.501 366.009L165.552 364.135L163.149 371.766ZM158.453 413.999V421.999H165.111L166.32 415.452L158.453 413.999ZM47.9299 434.978L45.0307 442.434L49.8908 444.324L53.5815 440.64L47.9299 434.978ZM47.7673 434.915L44.8353 442.358L44.8403 442.36L47.7673 434.915ZM47.7067 434.891L44.7701 442.332L44.7747 442.334L47.7067 434.891ZM22.916 303.09L30.3576 306.026H30.3576L22.916 303.09ZM10.4724 189.097C10.4724 226.787 18.4863 255.104 32.7706 275.784L45.9355 266.691C34.0217 249.443 26.4724 224.603 26.4724 189.097H10.4724ZM198.016 1.329C109.851 13.5335 10.4724 75.2345 10.4724 189.097H26.4724C26.4724 86.791 115.818 28.8601 200.21 17.1779L198.016 1.329ZM307.108 57.2095C298.337 37.8399 284.495 21.8962 265.882 11.7864C247.262 1.67243 224.388 -2.32157 198.016 1.329L200.21 17.1779C223.704 13.9257 243.047 17.5909 258.245 25.8462C273.451 34.1058 285.03 47.2416 292.532 63.8095L307.108 57.2095ZM394.583 161.918C386.282 132.543 372.664 106.849 356.407 87.7127C340.258 68.7044 320.896 55.4901 300.971 52.5928L298.669 68.4263C313.345 70.5603 329.492 80.7434 344.213 98.0719C358.826 115.272 371.439 138.855 379.185 166.269L394.583 161.918ZM373.968 354.595C382.372 343.601 388.454 328.721 392.775 312.436C397.123 296.049 399.827 277.704 401.168 259.357C403.836 222.842 401.171 185.236 394.583 161.918L379.185 166.269C385.092 187.174 387.799 222.758 385.21 258.192C383.923 275.819 381.342 293.14 377.31 308.332C373.252 323.626 367.859 336.24 361.256 344.878L373.968 354.595ZM344.075 386.101C351.824 376.376 360.129 365.987 372.616 355.979L362.609 343.494C348.587 354.733 339.313 366.403 331.562 376.129L344.075 386.101ZM317.675 411.938C328.628 405.65 336.384 395.753 344.075 386.101L331.562 376.129C323.432 386.332 317.532 393.571 309.71 398.061L317.675 411.938ZM299.531 421.292C305.244 418.717 311.286 415.605 317.675 411.938L309.71 398.061C303.703 401.509 298.126 404.375 292.954 406.707L299.531 421.292ZM245.932 421.999H296.243V405.999H245.932V421.999ZM233.174 370.922C233.919 384.142 235.337 400.677 238.065 415.452L253.799 412.547C251.249 398.737 249.878 382.967 249.149 370.022L233.174 370.922ZM326.192 265.136C326.192 287.295 315.77 307.756 299.294 324.873C282.807 342.001 260.676 355.3 238.56 362.907L243.764 378.037C267.995 369.703 292.38 355.127 310.821 335.969C329.273 316.8 342.192 292.564 342.192 265.136H326.192ZM325.445 242.437C325.893 250.052 326.192 257.602 326.192 265.136H342.192C342.192 257.187 341.877 249.305 341.417 241.497L325.445 242.437ZM338.192 218.999C338.192 227.64 333.908 233.143 330.428 234.552L336.434 249.382C347.726 244.809 354.192 232.009 354.192 218.999H338.192ZM328.982 203.054C332.529 203.549 338.192 208.794 338.192 218.999H354.192C354.192 204.402 345.746 189.238 331.193 187.208L328.982 203.054ZM321.72 180.494C321.72 185.919 321.863 190.814 322.097 195.529L338.078 194.733C337.855 190.256 337.72 185.628 337.72 180.494H321.72ZM200.352 87.9993C268.983 88.1378 321.72 129.929 321.72 180.494H337.72C337.72 117.397 273.604 72.1471 200.384 71.9994L200.352 87.9993ZM200.197 87.9994L200.372 87.9993L200.364 71.9993L200.188 71.9994L200.197 87.9994ZM200.017 87.9997C200.197 87.9997 200.068 87.9993 200.184 87.9994L200.201 71.9994C200.156 71.9994 200.114 71.9995 200.085 71.9996C200.052 71.9996 200.034 71.9997 200.017 71.9997V87.9997ZM78.6648 180.494C78.6648 129.929 131.402 88.1381 200.033 87.9997L200.001 71.9997C126.78 72.1474 62.6648 117.397 62.6648 180.494H78.6648ZM78.2924 195.424C78.5241 190.741 78.6648 185.879 78.6648 180.494H62.6648C62.6648 185.59 62.5319 190.187 62.312 194.633L78.2924 195.424ZM61.1923 218.999C61.1923 214.093 62.6482 209.917 64.6777 207.084C66.7158 204.239 68.9871 203.131 70.8205 203.012L69.7839 187.045C62.0897 187.545 55.806 191.994 51.6711 197.766C47.5276 203.549 45.1923 211.049 45.1923 218.999H61.1923ZM69.3952 234.712C65.8737 233.573 61.1923 228.093 61.1923 218.999H45.1923C45.1923 232.502 52.2212 245.972 64.4698 249.935L69.3952 234.712ZM74.1923 265.136C74.1923 257.718 74.4824 250.285 74.919 242.789L58.9461 241.858C58.4983 249.548 58.1923 257.309 58.1923 265.136H74.1923ZM165.552 364.135C142.865 356.989 119.785 343.713 102.496 326.31C85.2138 308.914 74.1923 287.919 74.1923 265.136H58.1923C58.1923 293.34 71.8493 318.163 91.1453 337.587C110.435 357.003 135.833 371.548 160.745 379.396L165.552 364.135ZM166.32 415.452C168.959 401.157 170.371 385.219 171.135 372.235L155.162 371.296C154.415 383.999 153.051 399.192 150.586 412.547L166.32 415.452ZM100.187 421.999H158.453V405.999H100.187V421.999ZM53.5815 440.64C65.1582 429.085 81.8921 421.999 100.187 421.999V405.999C77.8043 405.999 56.9596 414.662 42.2784 429.316L53.5815 440.64ZM44.8403 442.36C44.9071 442.386 44.9713 442.411 45.0307 442.434L50.8291 427.522C50.7801 427.503 50.7359 427.486 50.6943 427.469L44.8403 442.36ZM44.7747 442.334L44.8353 442.358L50.6993 427.471L50.6387 427.447L44.7747 442.334ZM15.4745 300.153C3.50344 330.489 0.251697 361.353 5.05764 386.904C9.84052 412.332 22.9534 433.723 44.7701 442.332L50.6433 427.449C35.7588 421.575 24.9715 406.22 20.7819 383.946C16.6154 361.794 19.3189 333.999 30.3576 306.026L15.4745 300.153ZM32.666 266.846C26.0719 276.888 20.2448 288.065 15.4745 300.153L30.3576 306.026C34.7332 294.938 40.0583 284.738 46.04 275.629L32.666 266.846Z" fill="#150C0C" mask="url(#path-1-outside-1_6_54)"/>
<path d="M335.732 166.057C341.464 166.057 346.787 162.9 351.192 157.499L341.192 123.999L279.192 77.4994L181.692 42.9994L75.1923 80.9994L66.1923 166.057C91.1923 191.057 125.192 152.499 152.192 152.499C179.192 152.499 139.692 179.499 186.192 179.499C245.692 179.499 278.92 128.049 290.692 110.999C290.692 110.999 305.098 166.057 335.732 166.057Z" fill="#865028"/>
<path fill-rule="evenodd" clip-rule="evenodd" d="M29.6923 432.499C7.69232 407.999 -8.30768 360.499 16.6923 302.999C20.8668 292.421 26.1021 282.444 31.6923 273.499L114.692 363.499C110.544 372.114 118.002 377.894 123.943 382.499C127.311 385.109 130.192 387.342 130.192 389.499C130.494 399.947 131.154 409.827 131.766 418.988C134.2 455.419 135.872 480.46 111.192 484.499C99.2302 448.613 72.1385 443.717 51.7615 440.034C42.1433 438.296 34.0212 436.828 29.6923 432.499Z" fill="#865028"/>
<path fill-rule="evenodd" clip-rule="evenodd" d="M255.048 364.979C255.144 365.123 255.248 365.263 255.358 365.397C262.177 373.671 273.182 389.07 275.644 418.892C275.676 419.29 275.757 419.697 275.883 420.076C287.819 455.918 308.474 476.783 333.408 470.199C335.652 469.607 336.97 467.34 336.794 465.026C334.676 437.157 348.447 424.051 361.837 411.308C373.673 400.043 385.212 389.062 385.213 368.416C385.214 351.455 382.838 335.381 378.59 320.999C370.089 292.224 354.09 270.221 334.622 261.436C334.471 261.367 334.319 261.3 334.167 261.233C334.184 262.533 334.192 263.834 334.192 265.136C334.192 309.757 296.391 346.46 255.048 364.979Z" fill="#865028"/>
<path d="M351.192 157.499C346.787 162.9 341.464 166.057 335.732 166.057C305.098 166.057 290.692 110.999 290.692 110.999C278.92 128.049 245.692 179.499 186.192 179.499C139.692 179.499 179.192 152.499 152.192 152.499C125.192 152.499 91.1923 191.057 66.1923 166.057" stroke="#150C0C" stroke-width="8" stroke-linejoin="round"/>
<mask id="path-7-outside-2_6_54" maskUnits="userSpaceOnUse" x="271.216" y="322.999" width="118" height="148" fill="black">
<rect fill="white" x="271.216" y="322.999" width="118" height="148"/>
</mask>
<path d="M382.192 369.499L386.192 369.5V369.5L382.192 369.499ZM358.296 413.624L360.823 416.725L358.296 413.624ZM336.924 460.955L340.894 460.465L340.894 460.465L336.924 460.955ZM381.655 355.896L385.648 355.654V355.654L381.655 355.896ZM332.627 466.654L332.242 462.673H332.242L332.627 466.654ZM275.363 409.19L279.275 408.354L279.275 408.354L275.363 409.19ZM378.192 369.499C378.192 381.096 375.361 388.942 371.331 394.985C367.214 401.158 361.718 405.673 355.768 410.524L360.823 416.725C366.648 411.976 373.1 406.752 377.987 399.424C382.961 391.965 386.191 382.549 386.192 369.5L378.192 369.499ZM355.768 410.524C349.576 415.572 342.806 421.039 338.191 428.917C333.475 436.966 331.19 447.156 332.954 461.445L340.894 460.465C339.303 447.579 341.425 439.223 345.093 432.961C348.863 426.526 354.456 421.915 360.823 416.725L355.768 410.524ZM381.037 323.375C376.255 334.135 376.996 345.139 377.663 356.138L385.648 355.654C384.96 344.309 384.488 335.309 388.348 326.624L381.037 323.375ZM377.663 356.138C377.927 360.493 378.192 364.893 378.192 369.499L386.192 369.5C386.192 364.614 385.91 359.979 385.648 355.654L377.663 356.138ZM332.242 462.673C321.824 463.681 313.796 462.149 307.509 459.148C301.22 456.145 296.414 451.546 292.64 446.02C284.975 434.798 281.799 420.169 279.275 408.354L271.452 410.026C273.915 421.557 277.332 437.792 286.033 450.532C290.442 456.986 296.263 462.643 304.063 466.367C311.866 470.093 321.392 471.76 333.012 470.636L332.242 462.673ZM279.275 408.354C279.226 408.123 279.176 407.892 279.127 407.663L271.304 409.336C271.353 409.564 271.402 409.794 271.452 410.026L279.275 408.354ZM332.954 461.445C332.999 461.811 332.894 462.146 332.727 462.373C332.575 462.58 332.41 462.657 332.242 462.673L333.012 470.636C338.342 470.12 341.473 465.157 340.894 460.465L332.954 461.445Z" fill="#150C0C" mask="url(#path-7-outside-2_6_54)"/>
<mask id="path-9-outside-3_6_54" maskUnits="userSpaceOnUse" x="-0.999847" y="269.999" width="140" height="220" fill="black">
<rect fill="white" x="-0.999847" y="269.999" width="140" height="220"/>
</mask>
<path d="M29.6923 432.499L26.7161 435.172L26.7879 435.252L26.8639 435.328L29.6923 432.499ZM16.6923 302.999L20.3606 304.594L20.3879 304.531L20.4131 304.468L16.6923 302.999ZM32.4253 274.946L35.7771 277.129L35.7771 277.129L32.4253 274.946ZM109.692 484.999L105.898 486.264L106.975 489.497L110.338 488.947L109.692 484.999ZM51.302 440.137L52.0569 436.209H52.0569L51.302 440.137ZM134.489 413.08L138.488 413.002L134.489 413.08ZM32.6685 429.827C11.7074 406.484 -4.01124 360.65 20.3606 304.594L13.024 301.405C-12.6041 360.349 3.67726 409.515 26.7161 435.172L32.6685 429.827ZM20.4131 304.468C24.1421 295.018 29.6897 286.475 35.7771 277.129L29.0736 272.763C23.0657 281.987 17.0478 291.202 12.9715 301.531L20.4131 304.468ZM35.7771 277.129C36.1982 276.483 36.6217 275.832 37.0461 275.179L30.3385 270.819C29.9165 271.469 29.495 272.116 29.0736 272.763L35.7771 277.129ZM113.487 483.734C107.2 464.873 96.9766 453.828 85.5123 447.079C74.2241 440.435 61.9523 438.111 52.0569 436.209L50.5471 444.065C60.5957 445.996 71.5286 448.131 81.4541 453.974C91.2037 459.713 100.203 469.182 105.898 486.264L113.487 483.734ZM52.0569 436.209C47.3115 435.297 43.2246 434.507 39.7873 433.441C36.3376 432.371 34.003 431.153 32.5208 429.671L26.8639 435.328C29.6959 438.16 33.4826 439.861 37.4174 441.082C41.3647 442.306 45.9255 443.177 50.5471 444.065L52.0569 436.209ZM110.338 488.947C117.575 487.762 123.277 484.93 127.582 480.432C131.837 475.986 134.443 470.21 136.061 463.609C139.249 450.609 138.878 433.074 138.488 413.002L130.49 413.157C130.888 433.671 131.172 449.959 128.292 461.704C126.876 467.476 124.767 471.803 121.802 474.901C118.887 477.947 114.863 480.1 109.046 481.052L110.338 488.947ZM138.488 413.002C138.443 410.685 138.398 408.328 138.356 405.93L130.357 406.069C130.399 408.477 130.445 410.841 130.49 413.157L138.488 413.002Z" fill="#150C0C" mask="url(#path-9-outside-3_6_54)"/>
</svg>
