<svg width="300" height="490" viewBox="0 0 300 490" fill="none" xmlns="http://www.w3.org/2000/svg">
<path d="M253.343 313.094C254.526 334.245 258.108 366.348 253.036 403.966C251.139 418.031 242.387 441.278 231.851 459.634C226.585 468.81 221.066 476.417 216.004 480.983C213.467 483.272 211.288 484.573 209.538 485.085C207.942 485.551 206.771 485.363 205.697 484.657C197.752 479.437 192.582 470.427 189.487 458.787C186.397 447.166 185.505 433.389 185.756 419.337C186.005 405.316 187.386 391.234 188.735 379.05C189.885 368.671 191.047 359.41 191.388 352.971C215.553 344.25 236.733 330.465 253.343 313.094Z" fill="#865028" stroke="#150C0C" stroke-width="8"/>
<mask id="path-2-outside-1_6_97" maskUnits="userSpaceOnUse" x="-0.319946" y="13" width="300" height="172" fill="black">
<rect fill="white" x="-0.319946" y="13" width="300" height="172"/>
<path fill-rule="evenodd" clip-rule="evenodd" d="M284.152 175.727C287.493 176.962 291.104 174.546 291.002 170.985C289.216 109.086 264.259 21 150.213 21C37.4903 21 11.0652 115.719 8.685 170.131C8.51989 173.906 12.5205 176.341 15.976 174.813C45.4898 161.764 91.4107 155.072 139.461 154.737L157.139 109.738C157.803 108.047 160.197 108.047 160.862 109.738L178.99 155.883C217.647 158.4 255.164 165.015 284.152 175.727Z"/>
</mask>
<path fill-rule="evenodd" clip-rule="evenodd" d="M284.152 175.727C287.493 176.962 291.104 174.546 291.002 170.985C289.216 109.086 264.259 21 150.213 21C37.4903 21 11.0652 115.719 8.685 170.131C8.51989 173.906 12.5205 176.341 15.976 174.813C45.4898 161.764 91.4107 155.072 139.461 154.737L157.139 109.738C157.803 108.047 160.197 108.047 160.862 109.738L178.99 155.883C217.647 158.4 255.164 165.015 284.152 175.727Z" fill="#865028"/>
<path d="M291.002 170.985L283.005 171.216V171.216L291.002 170.985ZM284.152 175.727L286.925 168.223L286.925 168.223L284.152 175.727ZM8.685 170.131L0.692642 169.782L8.685 170.131ZM15.976 174.813L19.211 182.13H19.211L15.976 174.813ZM139.461 154.737L139.516 162.737L144.928 162.699L146.907 157.662L139.461 154.737ZM157.139 109.738L164.585 112.664V112.664L157.139 109.738ZM160.862 109.738L168.308 106.813L168.307 106.813L160.862 109.738ZM178.99 155.883L171.544 158.808L173.401 163.536L178.47 163.866L178.99 155.883ZM283.005 171.216C282.972 170.064 283.592 169.071 284.351 168.552C285.077 168.055 286.044 167.898 286.925 168.223L281.379 183.231C289.626 186.279 299.277 180.411 298.998 170.755L283.005 171.216ZM150.213 29C204.822 29 237.03 49.9028 256.139 77.3512C275.595 105.296 282.133 141.003 283.005 171.216L298.998 170.755C298.084 139.068 291.251 99.7822 269.27 68.2093C246.944 36.1399 209.65 13 150.213 13V29ZM16.6774 170.481C17.8302 144.126 24.8221 108.5 44.659 79.6988C64.1833 51.3516 96.5239 29 150.213 29V13C91.1792 13 53.9461 38.0077 31.4821 70.6231C9.33075 102.784 1.91998 141.724 0.692642 169.782L16.6774 170.481ZM12.7411 167.496C13.5703 167.13 14.5113 167.234 15.2381 167.693C16.0226 168.187 16.732 169.233 16.6774 170.481L0.692642 169.782C0.236068 180.22 11.0158 185.753 19.211 182.13L12.7411 167.496ZM139.405 146.737C90.9367 147.075 43.7311 153.794 12.741 167.496L19.211 182.13C47.2485 169.733 91.8848 163.069 139.516 162.737L139.405 146.737ZM146.907 157.662L164.585 112.664L149.692 106.813L132.015 151.812L146.907 157.662ZM164.585 112.664C162.591 117.739 155.409 117.738 153.416 112.664L168.307 106.813C164.985 98.3553 153.015 98.355 149.692 106.813L164.585 112.664ZM153.415 112.664L171.544 158.808L186.436 152.958L168.308 106.813L153.415 112.664ZM286.925 168.223C256.972 157.154 218.63 150.447 179.51 147.9L178.47 163.866C216.663 166.353 253.355 172.875 281.379 183.231L286.925 168.223Z" fill="#150C0C" mask="url(#path-2-outside-1_6_97)"/>
</svg>
