<svg width="452" height="541" viewBox="0 0 452 541" fill="none" xmlns="http://www.w3.org/2000/svg">
<mask id="path-1-outside-1_6_70" maskUnits="userSpaceOnUse" x="0" y="0" width="446" height="521" fill="black">
<rect fill="white" width="446" height="521"/>
<path fill-rule="evenodd" clip-rule="evenodd" d="M384.354 129C384.354 58.3076 316.354 8 243.854 8C202.661 8 180.186 15.5548 153.354 39.0426C97.3542 39.0426 52.3542 88.83 52.3542 148C52.3542 200.091 47.1173 252.607 31.8481 302.34C31.451 303.634 31.0505 304.936 30.6474 306.247C14.9833 357.187 -4.50283 420.555 18.6867 464.464C28.0708 482.232 46.0122 496.216 67.7801 507.092C65.9768 492.921 65.1984 478.818 65.0341 465.703C64.5519 427.21 97.4983 399 135.994 399H194.26C196.813 385.175 198.201 369.61 198.956 356.766C153.105 342.323 105.623 304.075 102.197 255.711C93.5873 253.916 87.0001 243.984 87.0001 232C87.0001 219.156 94.5667 208.669 104.081 208.031C104.128 207.4 104.176 206.769 104.224 206.138C104.425 203.491 104.626 200.972 104.821 198.531L104.821 198.529C105.714 187.345 106.473 177.836 106.473 165.495C106.473 108.664 164.899 65.1435 235.825 65.0004C235.883 65.0004 235.942 65 236 65.0001L236.176 65C307.101 65.1431 365.528 108.664 365.528 165.495C365.528 177.836 366.286 187.345 367.179 198.528C367.374 200.97 367.575 203.49 367.776 206.138L367.776 206.139L367.92 208.031C377.434 208.669 385 219.156 385 232C385 243.984 378.413 253.916 369.803 255.711C366.475 302.696 321.568 340.133 276.969 355.473C277.707 368.555 279.101 384.708 281.74 399H335.335C375.419 399 409.14 429.482 407.593 469.536C407.355 475.68 407.002 482.007 406.503 488.423C414.877 481.331 421.711 473.373 426.416 464.464C450.203 419.426 430.089 353.913 414.255 302.34C397.89 249.037 384.354 184.451 384.354 129Z"/>
</mask>
<path fill-rule="evenodd" clip-rule="evenodd" d="M384.354 129C384.354 58.3076 316.354 8 243.854 8C202.661 8 180.186 15.5548 153.354 39.0426C97.3542 39.0426 52.3542 88.83 52.3542 148C52.3542 200.091 47.1173 252.607 31.8481 302.34C31.451 303.634 31.0505 304.936 30.6474 306.247C14.9833 357.187 -4.50283 420.555 18.6867 464.464C28.0708 482.232 46.0122 496.216 67.7801 507.092C65.9768 492.921 65.1984 478.818 65.0341 465.703C64.5519 427.21 97.4983 399 135.994 399H194.26C196.813 385.175 198.201 369.61 198.956 356.766C153.105 342.323 105.623 304.075 102.197 255.711C93.5873 253.916 87.0001 243.984 87.0001 232C87.0001 219.156 94.5667 208.669 104.081 208.031C104.128 207.4 104.176 206.769 104.224 206.138C104.425 203.491 104.626 200.972 104.821 198.531L104.821 198.529C105.714 187.345 106.473 177.836 106.473 165.495C106.473 108.664 164.899 65.1435 235.825 65.0004C235.883 65.0004 235.942 65 236 65.0001L236.176 65C307.101 65.1431 365.528 108.664 365.528 165.495C365.528 177.836 366.286 187.345 367.179 198.528C367.374 200.97 367.575 203.49 367.776 206.138L367.776 206.139L367.92 208.031C377.434 208.669 385 219.156 385 232C385 243.984 378.413 253.916 369.803 255.711C366.475 302.696 321.568 340.133 276.969 355.473C277.707 368.555 279.101 384.708 281.74 399H335.335C375.419 399 409.14 429.482 407.593 469.536C407.355 475.68 407.002 482.007 406.503 488.423C414.877 481.331 421.711 473.373 426.416 464.464C450.203 419.426 430.089 353.913 414.255 302.34C397.89 249.037 384.354 184.451 384.354 129Z" fill="#F7C870"/>
<path d="M153.354 39.0426V47.0426H156.361L158.624 45.0621L153.354 39.0426ZM31.8481 302.34L39.4958 304.688H39.4958L31.8481 302.34ZM30.6474 306.247L23.0008 303.896H23.0008L30.6474 306.247ZM18.6867 464.464L25.7607 460.727L18.6867 464.464ZM67.7801 507.092L64.2047 514.248L77.6075 520.944L75.7161 506.082L67.7801 507.092ZM65.0341 465.703L73.0335 465.603L65.0341 465.703ZM194.26 399V407H200.919L202.127 400.452L194.26 399ZM198.956 356.766L206.943 357.236L207.309 351.01L201.36 349.136L198.956 356.766ZM102.197 255.711L110.177 255.146L109.75 249.113L103.83 247.879L102.197 255.711ZM104.081 208.031L104.616 216.013L111.534 215.549L112.058 208.635L104.081 208.031ZM104.224 206.138L112.201 206.744L104.224 206.138ZM104.821 198.531L112.796 199.168L112.797 199.153L112.798 199.138L104.821 198.531ZM104.821 198.529L96.8466 197.893L96.8454 197.908L96.8443 197.922L104.821 198.529ZM235.825 65.0004V57.0004H235.817L235.809 57.0004L235.825 65.0004ZM236 65.0001L235.992 73.0001L236.004 73.0001L236 65.0001ZM236.176 65L236.192 57L236.182 57L236.172 57L236.176 65ZM367.179 198.528L359.204 199.165V199.165L367.179 198.528ZM367.776 206.138L375.754 205.547L375.754 205.54L375.753 205.532L367.776 206.138ZM367.776 206.139L359.798 206.73L359.799 206.737L359.799 206.745L367.776 206.139ZM367.92 208.031L359.943 208.636L360.467 215.549L367.384 216.013L367.92 208.031ZM369.803 255.711L368.17 247.879L362.25 249.113L361.823 255.146L369.803 255.711ZM276.969 355.473L274.367 347.908L268.641 349.877L268.982 355.923L276.969 355.473ZM281.74 399L273.873 400.452L275.082 407H281.74V399ZM407.593 469.536L399.599 469.227L407.593 469.536ZM406.503 488.423L398.527 487.802L397.039 506.921L411.673 494.527L406.503 488.423ZM426.416 464.464L419.342 460.727L426.416 464.464ZM414.255 302.34L421.903 299.992L414.255 302.34ZM243.854 16C313.478 16 376.354 64.1242 376.354 129H392.354C392.354 52.4909 319.231 0 243.854 0V16ZM158.624 45.0621C171.492 33.7974 182.93 26.6825 195.805 22.2838C208.765 17.8559 223.705 16 243.854 16V0C222.81 0 205.916 1.9215 190.632 7.143C175.263 12.3937 162.048 20.8 148.085 33.0231L158.624 45.0621ZM60.3542 148C60.3542 92.6048 102.39 47.0426 153.354 47.0426V31.0426C92.3188 31.0426 44.3542 85.0552 44.3542 148H60.3542ZM39.4958 304.688C55.0714 253.957 60.3542 200.593 60.3542 148H44.3542C44.3542 199.589 39.1631 251.257 24.2005 299.992L39.4958 304.688ZM38.2941 308.598C38.697 307.288 39.098 305.984 39.4958 304.688L24.2005 299.992C23.8039 301.284 23.4039 302.585 23.0008 303.896L38.2941 308.598ZM25.7607 460.727C15.3223 440.963 14.1809 416.151 18.0176 389.116C21.8444 362.151 30.4265 334.184 38.2941 308.598L23.0008 303.896C15.2042 329.25 6.2112 358.437 2.1763 386.868C-1.84876 415.23 -1.13839 444.056 11.6127 468.2L25.7607 460.727ZM71.3555 499.935C50.2708 489.401 34.0271 476.379 25.7607 460.727L11.6127 468.2C22.1146 488.084 41.7537 503.032 64.2047 514.248L71.3555 499.935ZM57.0348 465.803C57.202 479.153 57.9946 493.568 59.8441 508.101L75.7161 506.082C73.959 492.275 73.1949 478.482 73.0335 465.603L57.0348 465.803ZM135.994 391C93.8416 391 56.4871 422.092 57.0348 465.803L73.0335 465.603C72.6166 432.328 101.155 407 135.994 407V391ZM194.26 391H135.994V407H194.26V391ZM190.97 356.297C190.223 369 188.859 384.192 186.393 397.548L202.127 400.452C204.766 386.158 206.179 370.219 206.943 357.236L190.97 356.297ZM94.2172 256.276C96.1088 282.984 110.119 306.373 129.11 324.713C148.106 343.059 172.547 356.835 196.553 364.397L201.36 349.136C179.514 342.254 157.289 329.684 140.225 313.204C123.154 296.718 111.711 276.802 110.177 255.146L94.2172 256.276ZM103.83 247.879C100.284 247.14 95.0001 241.775 95.0001 232H79.0001C79.0001 246.192 86.8911 260.692 100.565 263.542L103.83 247.879ZM95.0001 232C95.0001 227.098 96.4529 222.926 98.4794 220.093C100.515 217.247 102.784 216.136 104.616 216.013L103.545 200.049C95.8631 200.564 89.5925 205.015 85.466 210.784C81.3307 216.565 79.0001 224.058 79.0001 232H95.0001ZM96.2472 205.532C96.1993 206.163 96.1513 206.795 96.1034 207.426L112.058 208.635C112.105 208.005 112.153 207.375 112.201 206.744L96.2472 205.532ZM96.8464 197.895C96.6518 200.333 96.4495 202.868 96.2472 205.532L112.201 206.744C112.401 204.115 112.601 201.61 112.796 199.168L96.8464 197.895ZM96.8443 197.922L96.8441 197.924L112.798 199.138L112.798 199.136L96.8443 197.922ZM98.4726 165.495C98.4726 177.482 97.7395 186.704 96.8466 197.893L112.796 199.166C113.688 187.986 114.473 178.19 114.473 165.495H98.4726ZM235.809 57.0004C162.588 57.1481 98.4726 102.398 98.4726 165.495H114.473C114.473 114.93 167.209 73.1388 235.841 73.0003L235.809 57.0004ZM236.008 57.0001C235.963 57 235.921 57.0002 235.892 57.0002C235.859 57.0003 235.842 57.0004 235.825 57.0004V73.0004C236.012 73.0004 235.869 73 235.992 73.0001L236.008 57.0001ZM236.172 57L235.996 57.0001L236.004 73.0001L236.18 73L236.172 57ZM373.528 165.495C373.528 102.398 309.412 57.1477 236.192 57L236.159 73C304.791 73.1385 357.528 114.93 357.528 165.495H373.528ZM375.154 197.892C374.261 186.704 373.528 177.482 373.528 165.495H357.528C357.528 178.19 358.312 187.985 359.204 199.165L375.154 197.892ZM375.753 205.532C375.551 202.867 375.348 200.331 375.154 197.892L359.204 199.165C359.399 201.608 359.599 204.114 359.799 206.744L375.753 205.532ZM375.754 205.548L375.754 205.547L359.798 206.729L359.798 206.73L375.754 205.548ZM375.897 207.425L375.753 205.534L359.799 206.745L359.943 208.636L375.897 207.425ZM393 232C393 224.058 390.67 216.565 386.534 210.784C382.408 205.015 376.137 200.564 368.455 200.049L367.384 216.013C369.216 216.136 371.486 217.247 373.521 220.093C375.547 222.926 377 227.098 377 232H393ZM371.436 263.542C385.109 260.692 393 246.192 393 232H377C377 241.775 371.717 247.14 368.17 247.879L371.436 263.542ZM279.572 363.038C302.896 355.015 326.347 341.216 344.508 323.127C362.667 305.039 375.945 282.222 377.783 256.276L361.823 255.146C360.333 276.184 349.493 295.578 333.217 311.791C316.943 328.001 295.641 340.591 274.367 347.908L279.572 363.038ZM289.607 397.548C287.057 383.737 285.686 367.967 284.957 355.023L268.982 355.923C269.727 369.142 271.145 385.678 273.873 400.452L289.607 397.548ZM335.335 391H281.74V407H335.335V391ZM415.587 469.844C417.334 424.604 379.279 391 335.335 391V407C371.559 407 400.945 434.36 399.599 469.227L415.587 469.844ZM414.479 489.043C414.987 482.514 415.346 476.082 415.587 469.844L399.599 469.227C399.365 475.278 399.018 481.5 398.527 487.802L414.479 489.043ZM419.342 460.727C415.213 468.546 409.105 475.735 401.333 482.318L411.673 494.527C420.648 486.927 428.209 478.199 433.49 468.2L419.342 460.727ZM406.607 304.688C414.559 330.587 423.342 359.252 427.272 386.975C431.215 414.78 430.076 440.405 419.342 460.727L433.49 468.2C446.543 443.485 447.241 413.834 443.114 384.729C438.976 355.544 429.785 325.666 421.903 299.992L406.607 304.688ZM376.354 129C376.354 185.552 390.119 250.985 406.607 304.688L421.903 299.992C405.66 247.089 392.354 183.35 392.354 129H376.354Z" fill="#150C0C" mask="url(#path-1-outside-1_6_70)"/>
<path d="M265.5 130.5C233.5 127.428 186.5 114 167.27 98.3441C165.459 107.717 157.868 119.5 149.108 127.428C120.854 153 96.7643 165.513 74.6747 156C74.6741 133.902 78.7129 125.781 97.0001 91C137.129 14.6772 273.644 36.9646 340.17 76.8241C359.657 88.4999 390.314 169 390.314 197.435C373.303 220.692 345.929 171.5 328.803 156C312.782 146.401 287.216 130.5 265.5 130.5Z" fill="#F7C870"/>
<path d="M74.6747 156C96.7643 165.514 120.854 153 149.108 127.428C157.868 119.5 164.54 110.188 167.27 98.3441C228 140.5 279 118 328.803 156C348.606 173 355.873 202.435 379.265 202.435" stroke="#150C0C" stroke-width="8"/>
</svg>
