<svg width="342" height="499" viewBox="0 0 342 499" fill="none" xmlns="http://www.w3.org/2000/svg">
<mask id="path-1-outside-1_2_194" maskUnits="userSpaceOnUse" x="44" y="0" width="285" height="394" fill="black">
<rect fill="white" x="44" width="285" height="394"/>
<path fill-rule="evenodd" clip-rule="evenodd" d="M320 173.26C320.334 167.919 320.5 162.494 320.5 157C320.5 74.7096 264 8 201 8C172.372 8 145.629 16.0739 122.925 30.0689C137.771 25.5257 153.943 23.0344 170.825 23.0004L170.905 23.0002L171 23.0001L171.175 23C242.101 23.1431 300.527 66.6637 300.527 123.495C300.527 135.836 301.286 145.344 302.179 156.528L302.179 156.528L302.179 156.535L302.181 156.557C302.325 158.354 302.471 160.194 302.619 162.096C311.802 163.187 319 173.473 319 186C319 197.427 313.011 206.988 304.99 209.408C304.2 258.404 257.921 297.668 211.969 313.473C212.706 326.555 214.101 342.708 216.74 357H270.335C289.351 357 306.934 363.86 320 375.348V173.26ZM133.956 314.766C102.479 304.851 70.2324 283.716 52 255.791V359.353C58.0804 357.813 64.4573 357 70.9943 357H129.26C131.813 343.175 133.201 327.61 133.956 314.766Z"/>
</mask>
<path fill-rule="evenodd" clip-rule="evenodd" d="M320 173.26C320.334 167.919 320.5 162.494 320.5 157C320.5 74.7096 264 8 201 8C172.372 8 145.629 16.0739 122.925 30.0689C137.771 25.5257 153.943 23.0344 170.825 23.0004L170.905 23.0002L171 23.0001L171.175 23C242.101 23.1431 300.527 66.6637 300.527 123.495C300.527 135.836 301.286 145.344 302.179 156.528L302.179 156.528L302.179 156.535L302.181 156.557C302.325 158.354 302.471 160.194 302.619 162.096C311.802 163.187 319 173.473 319 186C319 197.427 313.011 206.988 304.99 209.408C304.2 258.404 257.921 297.668 211.969 313.473C212.706 326.555 214.101 342.708 216.74 357H270.335C289.351 357 306.934 363.86 320 375.348V173.26ZM133.956 314.766C102.479 304.851 70.2324 283.716 52 255.791V359.353C58.0804 357.813 64.4573 357 70.9943 357H129.26C131.813 343.175 133.201 327.61 133.956 314.766Z" fill="#CE7230"/>
<path d="M320 173.26L312.016 172.76L312 173.01V173.26H320ZM122.925 30.0689L118.727 23.2588L125.266 37.7187L122.925 30.0689ZM170.825 23.0004L170.811 15.0004L170.808 15.0004L170.825 23.0004ZM170.905 23.0002L170.894 15.0002L170.891 15.0002L170.905 23.0002ZM171 23.0001L170.996 15.0001L170.989 15.0001L171 23.0001ZM171.175 23L171.192 15L171.181 15L171.171 15L171.175 23ZM302.179 156.528L294.204 157.165L294.217 157.323L294.236 157.481L302.179 156.528ZM302.179 156.528L310.153 155.882L310.14 155.728L310.122 155.575L302.179 156.528ZM302.179 156.535L310.154 155.904L310.154 155.896L310.153 155.889L302.179 156.535ZM302.181 156.557L294.206 157.189L294.206 157.194L302.181 156.557ZM302.619 162.096L294.643 162.715L295.152 169.264L301.675 170.04L302.619 162.096ZM304.99 209.408L302.679 201.749L297.085 203.437L296.991 209.28L304.99 209.408ZM211.969 313.473L209.367 305.908L203.641 307.877L203.982 313.923L211.969 313.473ZM216.74 357L208.873 358.452L210.081 365H216.74V357ZM320 375.348L314.718 381.356L328 393.034V375.348H320ZM52 255.791L58.6986 251.418L44 228.905V255.791H52ZM133.956 314.766L141.942 315.236L142.309 309.01L136.36 307.136L133.956 314.766ZM52 359.353H44V369.63L53.963 367.108L52 359.353ZM129.26 357V365H135.919L137.127 358.452L129.26 357ZM312.5 157C312.5 162.334 312.339 167.592 312.016 172.76L327.984 173.759C328.329 168.247 328.5 162.655 328.5 157H312.5ZM201 16C258.137 16 312.5 77.5295 312.5 157H328.5C328.5 71.8897 269.863 0 201 0V16ZM127.123 36.8791C148.601 23.6396 173.896 16 201 16V0C170.847 0 142.657 8.50822 118.727 23.2588L127.123 36.8791ZM170.808 15.0004C153.154 15.036 136.197 17.641 120.584 22.4191L125.266 37.7187C139.344 33.4105 154.733 31.0328 170.841 31.0003L170.808 15.0004ZM170.891 15.0002L170.811 15.0004L170.838 31.0003L170.918 31.0002L170.891 15.0002ZM170.989 15.0001L170.894 15.0002L170.916 31.0002L171.011 31.0001L170.989 15.0001ZM171.171 15L170.996 15.0001L171.004 31.0001L171.179 31L171.171 15ZM308.527 123.495C308.527 60.3977 244.412 15.1477 171.192 15L171.159 31C239.791 31.1385 292.527 72.9296 292.527 123.495H308.527ZM310.153 155.892C309.261 144.704 308.527 135.482 308.527 123.495H292.527C292.527 136.189 293.312 145.985 294.204 157.165L310.153 155.892ZM310.122 155.575L310.122 155.575L294.236 157.481L294.236 157.482L310.122 155.575ZM310.153 155.889L310.153 155.882L294.205 157.175L294.206 157.182L310.153 155.889ZM310.156 155.926L310.154 155.904L294.204 157.167L294.206 157.189L310.156 155.926ZM310.595 161.476C310.447 159.565 310.299 157.716 310.156 155.921L294.206 157.194C294.35 158.991 294.496 160.823 294.643 162.715L310.595 161.476ZM327 186C327 171.283 318.382 155.913 303.563 154.152L301.675 170.04C305.221 170.461 311 175.662 311 186H327ZM307.301 217.067C319.814 213.292 327 199.634 327 186H311C311 195.219 306.208 200.685 302.679 201.749L307.301 217.067ZM214.571 321.038C238.597 312.774 262.77 298.376 281.152 279.463C299.542 260.541 312.552 236.63 312.989 209.537L296.991 209.28C296.638 231.182 286.114 251.4 269.678 268.311C253.236 285.23 231.293 298.366 209.367 305.908L214.571 321.038ZM224.607 355.548C222.057 341.737 220.686 325.967 219.957 313.023L203.982 313.923C204.727 327.142 206.145 343.678 208.873 358.452L224.607 355.548ZM270.335 349H216.74V365H270.335V349ZM325.282 369.34C310.74 356.553 291.272 349 270.335 349V365C287.429 365 303.129 371.167 314.718 381.356L325.282 369.34ZM312 173.26V375.348H328V173.26H312ZM45.3014 260.165C64.7632 289.973 98.7309 312.058 131.553 322.397L136.36 307.136C106.227 297.644 75.7016 277.459 58.6986 251.418L45.3014 260.165ZM60 359.353V255.791H44V359.353H60ZM70.9943 349C63.7934 349 56.7571 349.896 50.037 351.597L53.963 367.108C59.4037 365.731 65.1213 365 70.9943 365V349ZM129.26 349H70.9943V365H129.26V349ZM125.97 314.297C125.223 327 123.859 342.192 121.393 355.548L137.127 358.452C139.766 344.158 141.179 328.219 141.942 315.236L125.97 314.297Z" fill="#150C0C" mask="url(#path-1-outside-1_2_194)"/>
<path d="M158.5 5C199.52 5 238.374 33.1574 260.972 57.4141C236.777 93.6817 205.157 103.373 175.396 111.475C145.231 119.686 115.519 126.418 101.888 160.516C87.9582 195.36 80 235.846 80 279C80 342.467 97.22 400.224 125.394 442.732C92.8219 432.199 63.8245 406.373 42.2861 370.116C18.4919 330.062 4 277.573 4 220C4 92.8844 74.2017 5 158.5 5Z" fill="#CE7230" stroke="#150C0C" stroke-width="8"/>
</svg>
