<svg width="335" height="357" viewBox="0 0 335 357" fill="none" xmlns="http://www.w3.org/2000/svg">
<path d="M167.5 4C210.995 4.00003 247.637 33.157 247.638 70.6719C247.638 108.187 210.995 137.345 167.5 137.345C124.005 137.345 87.3623 108.187 87.3623 70.6719C87.3626 33.157 124.005 4 167.5 4Z" fill="#FCAC15" stroke="#150C0C" stroke-width="8"/>
<mask id="path-2-outside-1_2_14" maskUnits="userSpaceOnUse" x="0" y="69.8823" width="335" height="287" fill="black">
<rect fill="white" y="69.8823" width="335" height="287"/>
<path fill-rule="evenodd" clip-rule="evenodd" d="M301.912 328.765C317.793 303.416 327 273.278 327 240.941C327 150.886 255.589 77.8823 167.5 77.8823C79.4106 77.8823 8 150.886 8 240.941C8 273.929 17.582 304.629 34.0559 330.291C34.2944 317.55 35.2577 304.864 36.2241 292.138C37.3463 277.361 38.4725 262.529 38.4725 247.495C38.4725 190.664 96.8986 147.143 167.825 147C167.851 147 167.878 147 167.905 147C167.936 147 167.968 147 168 147L168.175 147C239.101 147.143 297.527 190.664 297.527 247.495C297.527 262.529 298.654 277.36 299.776 292.137L299.776 292.138L299.776 292.139C300.704 304.356 301.629 316.537 301.912 328.765Z"/>
</mask>
<path fill-rule="evenodd" clip-rule="evenodd" d="M301.912 328.765C317.793 303.416 327 273.278 327 240.941C327 150.886 255.589 77.8823 167.5 77.8823C79.4106 77.8823 8 150.886 8 240.941C8 273.929 17.582 304.629 34.0559 330.291C34.2944 317.55 35.2577 304.864 36.2241 292.138C37.3463 277.361 38.4725 262.529 38.4725 247.495C38.4725 190.664 96.8986 147.143 167.825 147C167.851 147 167.878 147 167.905 147C167.936 147 167.968 147 168 147L168.175 147C239.101 147.143 297.527 190.664 297.527 247.495C297.527 262.529 298.654 277.36 299.776 292.137L299.776 292.138L299.776 292.139C300.704 304.356 301.629 316.537 301.912 328.765Z" fill="#FCAC15"/>
<path d="M301.912 328.765L293.914 328.95L294.532 355.613L308.692 333.012L301.912 328.765ZM34.0559 330.291L27.3238 334.613L41.5615 356.791L42.0545 330.441L34.0559 330.291ZM36.2241 292.138L28.2471 291.532V291.532L36.2241 292.138ZM167.825 147V139H167.816L167.808 139L167.825 147ZM167.905 147L167.885 139L167.884 139L167.905 147ZM168 147L167.992 155L168.004 155L168 147ZM168.175 147L168.192 139L168.181 139L168.171 139L168.175 147ZM299.776 292.137L307.754 291.546L307.753 291.538L307.753 291.531L299.776 292.137ZM299.776 292.139L291.798 292.73L291.798 292.738L291.799 292.745L299.776 292.139ZM319 240.941C319 271.741 310.234 300.412 295.133 324.517L308.692 333.012C325.351 306.419 335 274.814 335 240.941H319ZM167.5 85.8823C251.006 85.8823 319 155.137 319 240.941H335C335 146.635 260.173 69.8823 167.5 69.8823V85.8823ZM16 240.941C16 155.137 83.9944 85.8823 167.5 85.8823V69.8823C74.8268 69.8823 0 146.635 0 240.941H16ZM40.7881 325.969C25.1225 301.566 16 272.361 16 240.941H0C0 275.497 10.0416 307.692 27.3238 334.613L40.7881 325.969ZM42.0545 330.441C42.288 317.966 43.2319 305.507 44.2011 292.744L28.2471 291.532C27.2836 304.22 26.3008 317.133 26.0573 330.141L42.0545 330.441ZM44.2011 292.744C45.3197 278.014 46.4725 262.882 46.4725 247.495H30.4725C30.4725 262.176 29.3729 276.707 28.2471 291.532L44.2011 292.744ZM46.4725 247.495C46.4725 196.93 99.2094 155.139 167.841 155L167.808 139C94.5878 139.148 30.4725 184.398 30.4725 247.495H46.4725ZM167.825 155C167.863 155 167.9 155 167.925 155L167.884 139C167.856 139 167.839 139 167.825 139V155ZM167.924 155C167.958 155 167.976 155 167.992 155L168.008 139C167.96 139 167.915 139 167.885 139L167.924 155ZM168.004 155L168.18 155L168.171 139L167.996 139L168.004 155ZM168.159 155C236.791 155.138 289.527 196.93 289.527 247.495H305.527C305.527 184.398 241.412 139.148 168.192 139L168.159 155ZM289.527 247.495C289.527 262.882 290.68 278.013 291.799 292.742L307.753 291.531C306.627 276.706 305.527 262.176 305.527 247.495H289.527ZM291.798 292.728L291.798 292.729L307.754 291.547L307.754 291.546L291.798 292.728ZM291.798 292.729L291.798 292.73L307.754 291.548L307.754 291.547L291.798 292.729ZM291.799 292.745C292.729 304.997 293.637 316.967 293.914 328.95L309.91 328.579C309.621 316.106 308.678 303.716 307.753 291.533L291.799 292.745Z" fill="#150C0C" mask="url(#path-2-outside-1_2_14)"/>
<path d="M167.5 73C257.908 73 331 148.566 331 241.071V245.071H327C243.474 245.071 194.112 203.234 167.533 176.99C143.375 201.887 107.094 245.422 31.1777 252.892C23.8252 253.615 16.1074 254 8 254H4V250C4 142.472 77.0492 73 167.5 73Z" fill="#FCAC15" stroke="#150C0C" stroke-width="8"/>
</svg>
