<svg width="202" height="70" viewBox="0 0 202 70" fill="none" xmlns="http://www.w3.org/2000/svg">
<path d="M6 26.5414H21M90 30.4252C90.1965 30.4663 90.3933 30.5077 90.5906 30.5495C97.6439 32.0408 104.923 32.1338 112 30.7611M198 26.5414H181M51.5 4.9862C89.2316 2.30273 110.703 2.37337 149.5 4.9862" stroke="#2B2B2B" stroke-width="6"/>
<path d="M23.2056 45.4174L19.7173 25.2495C18.7455 19.6309 22.2239 14.1554 27.8049 12.9864C48.866 8.57466 66.819 8.95896 86.1781 14.6009C91.3257 16.1011 94.2984 21.3546 93.339 26.6298L88.0904 55.4911C86.8799 62.1477 81.0822 66.9862 74.3164 66.9862H48.8252C36.1755 66.9862 25.3615 57.882 23.2056 45.4174Z" stroke="#2B2B2B" stroke-width="6"/>
<path d="M178.794 45.4174L182.283 25.2495C183.255 19.6309 179.776 14.1554 174.195 12.9864C153.134 8.57466 135.181 8.95896 115.822 14.6009C110.674 16.1011 107.702 21.3546 108.661 26.6298L113.91 55.4911C115.12 62.1477 120.918 66.9862 127.684 66.9862H153.175C165.825 66.9862 176.639 57.882 178.794 45.4174Z" stroke="#2B2B2B" stroke-width="6"/>
</svg>
