<svg width="204" height="63" viewBox="0 0 204 63" fill="none" xmlns="http://www.w3.org/2000/svg">
<path d="M0.670654 12.9999C11.4067 10.5374 20.8564 8.72009 29.6707 7.55511M90.6707 10.4389C98.1156 11.9977 105.829 12.2745 113.3 10.8462C113.425 10.8223 113.549 10.7985 113.671 10.7749M202.671 12.9999C191.935 10.5374 182.485 8.72009 173.671 7.55511" stroke="#2B2B2B" stroke-width="6"/>
<path d="M28.8762 38.4312L25.3879 18.2632C24.4161 12.6446 27.8944 7.16815 33.4637 5.94486C53.5066 1.54245 67.2284 2.00613 85.7255 7.80741C90.4514 9.28961 93.3941 13.9316 92.9951 18.8684L91.6028 36.0945C90.5114 49.5977 79.2345 59.9999 65.6873 59.9999H54.4958C41.8461 59.9999 31.0321 50.8958 28.8762 38.4312Z" stroke="#2B2B2B" stroke-width="6"/>
<path d="M174.465 38.4312L177.953 18.2632C178.925 12.6446 175.447 7.16815 169.878 5.94486C149.835 1.54245 136.113 2.00613 117.616 7.80741C112.89 9.28961 109.947 13.9316 110.346 18.8684L111.739 36.0945C112.83 49.5977 124.107 59.9999 137.654 59.9999H148.845C161.495 59.9999 172.309 50.8958 174.465 38.4312Z" stroke="#2B2B2B" stroke-width="6"/>
</svg>
