<svg width="204" height="61" viewBox="0 0 204 61" fill="none" xmlns="http://www.w3.org/2000/svg">
<path d="M0.670654 9.99994C33.4632 2.47836 54.2549 0.975816 81.5947 5.69807C95.0818 8.02762 108.856 8.23086 122.366 6.0415C150.746 1.44252 171.231 2.69533 202.671 9.99991" stroke="#2B2B2B" stroke-width="6"/>
<path d="M19.6707 4.99994L28.3052 34.6528C30.9581 43.7634 38.3635 50.7052 47.6264 52.7643L62.0286 55.9659C78.2664 59.5756 93.6707 47.2197 93.6707 30.5855V7.44204" stroke="#2B2B2B" stroke-width="6"/>
<path d="M184.671 4.99994L176.057 35.4031C173.403 44.7716 165.736 51.8717 156.192 53.8006L141.821 56.7048C125.718 59.959 110.671 47.6485 110.671 31.22V7.44204" stroke="#2B2B2B" stroke-width="6"/>
</svg>
