<svg width="148" height="88" viewBox="0 0 148 88" fill="none" xmlns="http://www.w3.org/2000/svg">
<path d="M134.451 48.5C138.669 44.0869 138.877 39.1013 138.877 33.8864C138.877 15.1714 108.469 0 70.9589 0C33.4489 0 3.0411 15.1714 3.0411 33.8864C3.0411 39.6615 5.93665 45.0992 11.0429 49.8577C4.51588 52.7276 0 58.9103 0 66.0745C0 75.9745 8.62312 84 19.2603 84C24.6124 84 29.4547 81.9682 32.9452 78.6882C36.4357 81.9682 41.278 84 46.6301 84C51.9823 84 56.8246 81.9682 60.3151 78.6882C63.8056 81.9682 68.6478 84 74 84C79.3522 84 84.1944 81.9682 87.6849 78.6882C91.1754 81.9682 96.0177 84 101.37 84C106.722 84 111.564 81.9682 115.055 78.6882C118.545 81.9682 123.388 84 128.74 84C139.377 84 148 75.9745 148 66.0745C148 57.3059 143.388 50.0535 134.451 48.5Z" fill="#323232"/>
</svg>
