<svg width="256" height="58" viewBox="0 0 256 58" fill="none" xmlns="http://www.w3.org/2000/svg">
<path d="M230.75 3.35302C235.989 1.96306 241.064 6.07504 240.792 11.4881L240.02 26.8004C239.429 38.527 231.327 48.5273 219.978 51.5384L213.657 53.2156L215.972 7.27393L230.75 3.35302Z" fill="#BCBCBC" stroke="#2B2B2B" stroke-width="6"/>
<path d="M25.6052 3.30658C20.388 1.83775 15.251 5.87268 15.4421 11.2893L15.9827 26.6114C16.3967 38.3456 24.3468 48.467 35.6488 51.649L41.9442 53.4214L40.3222 7.44999L25.6052 3.30658Z" fill="#BCBCBC" stroke="#2B2B2B" stroke-width="6"/>
<path d="M234.629 14.5528L233.474 14.7033C227.723 15.4522 223.33 20.2067 223.039 25.9988L222.259 41.4642" stroke="#2B2B2B" stroke-width="3"/>
<path d="M223.127 24.2403C227.996 23.867 230.336 24.4663 234.026 26.5375" stroke="#2B2B2B" stroke-width="3"/>
<path d="M21.5574 14.4466L22.7106 14.6146C28.4496 15.4502 32.7697 20.2704 32.9742 26.0662L33.5202 41.5417" stroke="#2B2B2B" stroke-width="3"/>
<path d="M32.912 24.3067C28.0492 23.8599 25.7006 24.4238 21.9804 26.4392" stroke="#2B2B2B" stroke-width="3"/>
</svg>
