<svg width="256" height="88" viewBox="0 0 256 88" fill="none" xmlns="http://www.w3.org/2000/svg">
<path d="M217.166 6.65673C228.953 3.52933 240.373 12.7813 239.759 24.9608L239.677 26.5908C239.086 38.3174 230.984 48.3178 219.635 51.3289L213.314 53.0061L215.629 7.0644L217.166 6.65673Z" fill="#BCBCBC" stroke="#2B2B2B" stroke-width="6"/>
<circle cx="222" cy="79" r="9" fill="#2B2B2B"/>
<path d="M38.7364 6.80966C26.9978 3.50479 15.4395 12.5834 15.8695 24.7708L15.9271 26.4019C16.3411 38.1361 24.2911 48.2575 35.5932 51.4395L41.8885 53.2119L40.2665 7.24046L38.7364 6.80966Z" fill="#BCBCBC" stroke="#2B2B2B" stroke-width="6"/>
<path d="M234.629 14.3432L233.474 14.4937C227.723 15.2426 223.33 19.9972 223.039 25.7892L222.259 41.2547" stroke="#2B2B2B" stroke-width="3"/>
<path d="M223.127 24.0308C227.996 23.6575 230.336 24.2567 234.026 26.328" stroke="#2B2B2B" stroke-width="3"/>
<path d="M21.5574 14.2371L22.7106 14.405C28.4496 15.2406 32.7697 20.0609 32.9742 25.8567L33.5202 41.3321" stroke="#2B2B2B" stroke-width="3"/>
<path d="M32.912 24.0971C28.0492 23.6504 25.7006 24.2143 21.9804 26.2296" stroke="#2B2B2B" stroke-width="3"/>
<circle cx="33" cy="79" r="9" fill="#2B2B2B"/>
<path d="M222 51V73" stroke="#2B2B2B" stroke-width="3"/>
<path d="M33 51V73" stroke="#2B2B2B" stroke-width="3"/>
</svg>
