<svg width="256" height="58" viewBox="0 0 256 58" fill="none" xmlns="http://www.w3.org/2000/svg">
<path d="M217.509 6.65673C229.296 3.52933 240.716 12.7813 240.102 24.9608L240.02 26.5908C239.429 38.3174 231.327 48.3178 219.978 51.3289L213.657 53.0061L215.972 7.0644L217.509 6.65673Z" fill="#BCBCBC" stroke="#2B2B2B" stroke-width="6"/>
<path d="M38.792 6.80966C27.0534 3.50479 15.4952 12.5834 15.9252 24.7708L15.9827 26.4019C16.3967 38.1361 24.3468 48.2575 35.6488 51.4395L41.9442 53.2119L40.3222 7.24046L38.792 6.80966Z" fill="#BCBCBC" stroke="#2B2B2B" stroke-width="6"/>
<path d="M234.629 14.3432L233.474 14.4937C227.723 15.2426 223.33 19.9972 223.039 25.7892L222.259 41.2547" stroke="#2B2B2B" stroke-width="3"/>
<path d="M223.127 24.0308C227.996 23.6575 230.336 24.2567 234.026 26.328" stroke="#2B2B2B" stroke-width="3"/>
<path d="M21.5574 14.2371L22.7106 14.405C28.4496 15.2406 32.7697 20.0609 32.9742 25.8567L33.5202 41.3321" stroke="#2B2B2B" stroke-width="3"/>
<path d="M32.912 24.0971C28.0492 23.6504 25.7006 24.2143 21.9804 26.2296" stroke="#2B2B2B" stroke-width="3"/>
</svg>
