<svg width="75" height="64" viewBox="0 0 75 64" fill="none" xmlns="http://www.w3.org/2000/svg">
<path d="M47.0426 34.8465L47.0436 34.8504C47.0447 34.8528 47.0464 34.8565 47.0485 34.8612C47.0526 34.8706 47.0589 34.8847 47.067 34.9032C47.0833 34.9401 47.107 34.9949 47.1383 35.0662C47.2011 35.2094 47.2938 35.4195 47.4108 35.6873C47.6447 36.2231 47.9788 36.9908 48.3795 37.9188C49.1808 39.7743 50.2493 42.2738 51.319 44.8446C52.3874 47.4124 53.4621 50.0638 54.2711 52.2205C54.6749 53.297 55.0191 54.2671 55.2643 55.0496C55.3866 55.4399 55.4892 55.8008 55.5631 56.1141C55.6301 56.3984 55.6989 56.7477 55.6989 57.0711C55.6987 58.2663 54.9295 59.2302 54.3063 59.8514C53.6216 60.5339 52.7542 61.1511 51.9528 61.6551C51.1397 62.1664 50.3345 62.5982 49.7379 62.9002C49.4383 63.0519 49.1878 63.1731 49.0104 63.2567C48.9216 63.2985 48.8509 63.3317 48.8014 63.3543C48.7767 63.3656 48.7566 63.3745 48.7428 63.3807C48.7364 63.3836 48.7311 63.3858 48.7272 63.3875L48.7223 63.3895L48.7203 63.3905C48.7203 63.3905 48.7193 63.391 48.1871 62.1951L48.7194 63.3914C47.9626 63.7282 47.0758 63.3874 46.7389 62.6307C46.4022 61.874 46.7422 60.9872 47.4987 60.6502H47.5006C47.5006 60.6502 47.5058 60.6474 47.5104 60.6453C47.5195 60.6412 47.534 60.6347 47.5534 60.6258C47.593 60.6077 47.6535 60.5794 47.7311 60.5428C47.8867 60.4695 48.1123 60.3617 48.3834 60.2244C48.9287 59.9484 49.6466 59.5622 50.3561 59.116C51.0769 58.6627 51.7321 58.1819 52.1891 57.7264C52.6035 57.3132 52.6814 57.0933 52.6959 57.0604C52.6904 57.0242 52.6762 56.9424 52.6432 56.8026C52.5921 56.586 52.5118 56.3007 52.401 55.9471C52.1798 55.2411 51.8574 54.3295 51.4616 53.2743C50.6712 51.1673 49.6134 48.5539 48.5494 45.9969C47.4866 43.4426 46.4228 40.9565 45.6246 39.1082C45.2257 38.1845 44.8933 37.4202 44.6608 36.8875C44.5446 36.6214 44.4534 36.413 44.3912 36.2713C44.3602 36.2004 44.3359 36.1456 44.32 36.1092C44.3121 36.0913 44.3064 36.0773 44.3024 36.0682C44.3004 36.0638 44.2985 36.0607 44.2975 36.0584L44.2965 36.0555L47.0426 34.8465ZM45.0651 34.078C45.8233 33.7443 46.7089 34.0884 47.0426 34.8465L44.2965 36.0555C43.963 35.2973 44.3069 34.4116 45.0651 34.078ZM0.355112 12.8319C6.2371 5.88231 14.9147 1.67743 23.235 2.86019L23.6315 2.91976L23.6412 2.92171L23.4166 4.23714L23.3912 4.39339L23.6412 2.92171C24.8542 3.12828 26.0458 3.4473 27.1998 3.87386C27.9767 4.16115 28.3737 5.02364 28.0866 5.80062C27.7994 6.57764 26.9368 6.97448 26.1598 6.68734C25.1798 6.32514 24.1682 6.05514 23.1383 5.87972C16.0011 4.72071 8.12623 8.29231 2.64417 14.7694C2.10897 15.4017 1.16323 15.4803 0.530893 14.9451C-0.101418 14.4099 -0.18008 13.4642 0.355112 12.8319ZM49.1198 6.44222C55.3838 0.734595 63.6417 -1.72642 70.6627 1.30941L70.9967 1.45784L70.9977 1.45882C72.0235 1.93221 72.9966 2.51295 73.9 3.19124C74.5625 3.68861 74.6962 4.62836 74.1989 5.29085C73.7016 5.95323 72.7617 6.08773 72.0993 5.59066C71.3657 5.0399 70.5756 4.56792 69.7428 4.18343L69.2086 3.95296C63.6484 1.70128 56.7555 3.54269 51.1403 8.65902C50.528 9.21687 49.5791 9.17337 49.0211 8.56136C48.4632 7.94901 48.5074 7.00018 49.1198 6.44222Z" fill="#050504"/>
</svg>
