<svg width="251" height="226" viewBox="0 0 251 226" fill="none" xmlns="http://www.w3.org/2000/svg">
<path d="M92.55 225.356C92.9638 225.279 93.3666 225.143 93.7459 224.96L122.835 210.941C124.354 210.209 126.14 210.292 127.584 211.161L145.649 222.035C146.302 222.428 147.045 222.669 147.805 222.729C166.358 224.195 174.494 221.152 182.621 211.534C184.195 209.671 186.836 209.024 189.15 209.794C194.106 211.443 202.81 213.171 209.5 208.221C213.854 204.999 215.34 200.133 215.638 195.689C215.922 191.441 220.836 186.809 225.062 186.294C229.378 185.768 234.323 183.787 238.5 178.5C244.197 171.289 244.019 164.273 242.849 159.626C242.086 156.595 243.208 152.714 245.239 150.338C247.901 147.224 250.761 141.807 250.987 132.809C251.223 123.463 248.103 117.292 245.222 113.615C243.215 111.054 242.756 106.873 244.193 103.953C246.142 99.9934 247.585 94.1299 244.5 87.5C242.982 84.2382 240.779 82.2869 238.368 81.1777C233.999 79.1676 227.498 71.8503 227.855 67.0544C228.359 60.2948 227.061 51.7884 220.805 42.9857C211.879 30.4284 200.108 26.8293 192.605 25.887C189.095 25.4463 185.678 21.7452 184.316 18.4806C183.082 15.5238 180.558 12.0225 175.531 8.70537C167.475 3.39034 160.116 4.46989 156.11 5.77712C154.135 6.42184 151.859 6.30123 150.058 5.26549C145.602 2.70414 136.395 -1.37651 125.269 0.460695C115.161 2.12986 107.901 10.1253 103.992 15.6492C102.121 18.2939 98.1308 19.1923 95.1454 17.9334C89.8649 15.7067 81.0027 13.6992 69.4597 17.3839C56.3606 21.5653 52.7454 32.3707 51.778 38.9369C51.3562 41.7996 49.0015 44.3342 46.1596 44.8788C40.2791 46.0057 30.5519 49.1878 22.4609 58.1732C13.5357 68.0849 13.3117 81.1377 13.9229 87.8341C14.1528 90.3526 12.7657 92.9349 10.7854 94.5078C7.28388 97.289 2.33764 103.052 0.470569 114.15C-0.937469 122.52 1.02921 128.405 3.5284 132.302C5.65527 135.618 5.85481 141.864 3.89797 145.284C2.03825 148.534 0.470553 153.104 0.470553 159.279C0.470553 165.78 3.05539 170.016 6.01033 172.734C9.01288 175.496 11.2673 182.292 11.8072 186.335C12.2136 189.38 13.8058 193.124 17.7178 197.464C23.9102 204.334 30.6386 204.611 35.4772 203.442C38.9234 202.609 43.4695 204.198 45.4977 207.106C47.2919 209.679 49.9832 212.548 53.9372 214.821C58.0481 217.186 62.3211 217.501 65.8435 217.099C69.5832 216.672 73.7603 219.727 76.277 222.526C79.481 226.089 85.4699 226.67 92.55 225.356Z" fill="#323232"/>
</svg>
