<svg width="306" height="306" viewBox="0 0 306 306" fill="none" xmlns="http://www.w3.org/2000/svg">
<path d="M211.573 128.122C190.966 138.022 151.708 122.897 137.142 112.032L223.709 96.5118L256.609 111.263C250.807 110.785 232.179 118.222 211.573 128.122Z" fill="white" stroke="black" stroke-width="6" stroke-linejoin="round"/>
<path d="M223.211 96.4705C135.687 123.014 95.0797 104.978 78.3013 101.589C81.6555 81.6266 100.585 43.6818 147.129 39.5311C188.067 35.8804 221.436 63.2119 223.211 96.4705Z" fill="white" stroke="black" stroke-width="6" stroke-linejoin="round"/>
<mask id="path-3-inside-1_16_410" fill="white">
<path d="M155.225 38.6933C155.002 41.3991 154.354 42.6339 152.219 42.8848C149.752 43.1749 147.944 41.8209 148.167 39.1151L151.696 38.9042L155.225 38.6933Z"/>
</mask>
<path d="M155.225 38.6933C155.002 41.3991 154.354 42.6339 152.219 42.8848C149.752 43.1749 147.944 41.8209 148.167 39.1151L151.696 38.9042L155.225 38.6933Z" fill="white"/>
<path d="M155.225 38.6933L161.205 39.1859L161.773 32.2912L154.867 32.7039L155.225 38.6933ZM152.219 42.8848L151.518 36.9259L152.219 42.8848ZM148.167 39.1151L147.809 33.1258L142.614 33.4362L142.187 38.6224L148.167 39.1151ZM149.246 38.2006C149.204 38.7066 149.157 38.9338 149.142 38.9939C149.128 39.0488 149.189 38.7633 149.463 38.3575C149.774 37.8951 150.224 37.4813 150.746 37.204C151.213 36.9563 151.539 36.9234 151.518 36.9259L152.919 48.8438C155.167 48.5796 157.706 47.5988 159.415 45.0617C160.794 43.0147 161.082 40.676 161.205 39.1859L149.246 38.2006ZM151.518 36.9259C151.52 36.9257 151.559 36.9211 151.633 36.9249C151.707 36.9287 151.823 36.9412 151.971 36.9783C152.275 37.0544 152.706 37.2331 153.134 37.6065C153.573 37.9904 153.865 38.4579 154.02 38.8975C154.167 39.3151 154.148 39.5866 154.147 39.6078L142.187 38.6224C141.956 41.4318 142.766 44.4815 145.235 46.6403C147.586 48.6959 150.513 49.1267 152.919 48.8438L151.518 36.9259ZM148.525 45.1044L152.054 44.8935L151.338 32.9149L147.809 33.1258L148.525 45.1044ZM152.054 44.8935L155.583 44.6826L154.867 32.7039L151.338 32.9149L152.054 44.8935Z" fill="black" mask="url(#path-3-inside-1_16_410)"/>
</svg>
