<svg width="306" height="306" viewBox="0 0 306 306" fill="none" xmlns="http://www.w3.org/2000/svg">
<path d="M166 122C174.134 122 181 129.009 181 138C181 146.991 174.134 154 166 154C157.866 154 151 146.991 151 138C151 129.009 157.866 122 166 122Z" stroke="black" stroke-width="6"/>
<path d="M210 120C216.652 120 223 126.805 223 136.5C223 146.195 216.652 153 210 153C203.348 153 197 146.195 197 136.5C197 126.805 203.348 120 210 120Z" stroke="black" stroke-width="6"/>
<path d="M181 134.35C183.5 131.35 191.5 128.85 197 133.85C197 133.85 190 128.5 181 134.35Z" fill="black" stroke="black" stroke-width="6" stroke-linejoin="round"/>
<path d="M151 132L118 133V134.143L149 136L151 132Z" fill="black" stroke="black" stroke-width="6" stroke-linejoin="round"/>
</svg>
