<svg width="306" height="306" viewBox="0 0 306 306" fill="none" xmlns="http://www.w3.org/2000/svg">
<path d="M220.301 122H138.801C140 144 142.037 151.179 153.501 155C159.5 157 171.301 158 181.301 146.5C189.301 137.3 193 143.5 195.801 146.5C199.5 152 206.385 155.93 213.5 153C222 149.5 220.301 133.5 220.301 122Z" fill="black" stroke="black" stroke-width="2"/>
<path d="M218.868 124H141.5C142.646 142.633 144.092 148.712 155.045 151.949C160.777 153.643 173.124 154.77 181.5 144C188.5 135 192.718 140.94 195.5 144C200.5 149.5 205.572 152.736 212.37 150.255C220.491 147.291 218.868 133.74 218.868 124Z" fill="white" stroke="black" stroke-width="2"/>
<path d="M118.5 136L113 127L138 122L139.5 136H118.5Z" fill="black" stroke="black" stroke-width="2"/>
<path d="M219.5 140.5L200 123H198.5L219.5 142.5V140.5Z" fill="black" stroke="black" stroke-width="2"/>
<path d="M218 144.5L203.5 130.5L204 133L218 146.5V144.5Z" fill="black" stroke="black" stroke-width="2"/>
</svg>
