<svg width="306" height="306" viewBox="0 0 306 306" fill="none" xmlns="http://www.w3.org/2000/svg">
<path d="M179.909 243.072C177.763 253.792 163.867 260.244 140.468 250.565C116.15 240.574 105.625 216.741 102.969 209.663C117.376 182.187 107.362 163.141 107.362 163.141C140.57 160.227 169.589 199.776 169.589 199.776L174.085 219.343C174.493 221.008 175.311 222.465 176.537 223.506C178.683 227.356 181.237 236.203 179.909 243.072Z" fill="white"/>
<path d="M102.458 209.976C104.399 206.958 105.626 203.419 106.443 199.985C107.976 192.803 108.487 185.518 108.589 178.233V175.527C108.282 172.821 107.363 170.011 106.341 167.513C105.013 164.182 109.815 162.101 111.348 165.431C111.552 165.848 111.552 166.576 111.552 166.992C111.858 181.147 112.472 199.36 103.684 211.121C103.071 211.745 101.845 210.808 102.458 209.976Z" fill="black"/>
<path d="M177.252 223.193C180.726 229.854 182.77 238.18 180.624 245.57C178.989 250.773 174.289 254.624 169.18 256.081C157.328 259.308 143.636 254.208 133.111 248.484C120.135 241.094 110.53 228.709 104.399 215.179C103.991 214.139 105.421 213.306 106.034 214.347C108.18 218.718 110.632 222.985 113.391 226.836C116.15 230.791 119.317 234.433 122.894 237.66C133.316 247.235 147.416 253.167 161.517 253.167C176.026 252.751 181.544 244.945 178.172 230.583C177.661 228.293 176.844 225.899 175.72 223.922C175.106 223.089 176.639 222.152 177.252 223.193Z" fill="black"/>
<path d="M216.795 98.1982C218.634 106.941 219.554 114.018 214.547 137.331C209.643 160.54 219.145 183.957 195.031 205.293C178.785 219.655 150.379 222.361 127.696 206.646C120.033 201.338 117.989 176.568 111.961 167.097C109.406 163.142 107.873 169.49 102.049 162.934C93.9773 153.983 84.2704 135.978 89.0727 104.131C96.8382 52.5087 136.994 46.4723 166.728 52.1965C196.564 57.9207 211.891 75.1973 216.795 98.1982Z" fill="white"/>
<path d="M107.056 172.092C104.706 168.137 101.743 164.703 98.9838 161.06C94.8966 155.44 91.8313 148.987 89.7877 142.326C81.0005 113.81 85.7006 76.6544 111.654 58.8573C135.666 42.3092 181.543 47.3049 202.592 67.2875C213.116 76.9666 218.941 91.0169 220.167 105.171C220.78 114.642 218.532 123.801 216.59 132.96C214.343 141.91 213.832 150.861 213.832 160.123C213.729 169.386 213.321 179.065 209.847 187.808C204.533 201.129 193.396 211.953 180.011 216.533C162.436 222.777 141.694 219.239 127.287 207.27C126.674 206.75 127.287 205.917 128.002 206.229C146.905 217.157 171.734 219.031 190.126 206.437C201.059 198.944 208.621 187.079 210.358 173.757C211.788 164.703 211.379 155.544 212.197 146.385C212.503 142.326 213.627 136.706 214.445 132.647C215.671 125.882 216.488 119.117 216.386 112.352C216.284 105.692 214.853 99.1348 212.912 92.7862C206.168 70.2016 186.857 56.8799 164.582 53.2372C131.272 47.3049 102.151 59.8981 93.4661 95.1799C89.6856 112.457 86.7224 131.503 93.8749 148.259C96.4293 154.607 100.619 160.019 105.421 164.703L110.121 169.803C112.165 171.884 108.691 174.59 107.056 172.092Z" fill="black"/>
<path d="M119.112 138.996C119.112 138.996 115.945 123.384 101.027 125.258C88.1524 126.923 83.6566 158.354 112.879 167.097" fill="white"/>
<path d="M111.551 153.463C109.201 152.11 107.566 149.82 107.464 147.01C107.566 144.929 107.873 142.535 107.362 140.453C107.056 138.476 105.012 137.955 103.479 138.059C101.845 138.372 100.823 140.453 100.516 142.118C100.516 142.223 100.414 142.535 100.414 142.639C100.312 143.159 99.4944 143.159 99.2901 142.639C97.9617 138.58 100.925 134.105 105.216 134.625C111.245 135.041 112.062 141.494 110.938 146.386C110.325 148.467 111.143 150.34 112.267 152.11L112.471 152.422C112.982 153.046 112.164 153.879 111.551 153.463Z" fill="black"/>
<path d="M118.602 139.1C116.252 132.959 111.143 127.131 104.297 127.235C103.684 127.131 102.662 127.339 102.049 127.339C100.312 127.443 98.8817 128.068 97.5534 129.317C91.014 135.978 92.1379 147.738 97.4512 155.128C99.2904 157.729 101.64 160.019 104.297 161.893C106.954 163.766 109.917 165.223 113.084 166.472C113.8 166.68 113.493 167.825 112.778 167.721C105.932 166.264 99.3926 162.829 94.8967 157.105C87.9487 148.571 86.5182 134.312 94.7946 125.986C96.6338 124.321 99.1882 123.072 101.743 123.072C102.56 123.072 103.786 122.864 104.604 123.072C108.895 123.28 112.982 125.466 115.639 128.9C117.989 131.815 119.317 135.353 119.726 138.892C119.726 139.516 118.806 139.724 118.602 139.1Z" fill="black"/>
</svg>
