<svg width="306" height="306" viewBox="0 0 306 306" fill="none" xmlns="http://www.w3.org/2000/svg">
<path d="M180.955 243.076C178.759 253.795 164.537 260.248 140.591 250.569C115.703 240.579 104.932 216.747 102.213 209.67C116.958 182.196 106.71 163.151 106.71 163.151C140.695 160.237 170.393 199.783 170.393 199.783L174.994 219.348C175.412 221.014 176.249 222.471 177.504 223.511C179.7 227.362 182.314 236.208 180.955 243.076Z" fill="white"/>
<path d="M101.691 209.982C103.678 206.964 104.933 203.426 105.769 199.992C107.338 192.811 107.861 185.526 107.965 178.241V175.535C107.652 172.83 106.71 170.02 105.665 167.522C104.305 164.192 109.22 162.11 110.789 165.441C110.998 165.857 110.998 166.585 110.998 167.002C111.311 181.155 111.939 199.367 102.946 211.127C102.318 211.751 101.064 210.815 101.691 209.982Z" fill="black"/>
<path d="M176.733 223.111C180.288 229.772 181.959 238.617 179.763 246.006C177.743 250.69 174.208 253.812 169.159 255.893C157.029 259.119 143.833 254.211 133.063 248.488C119.782 241.099 109.953 228.714 103.678 215.185C103.26 214.145 104.724 213.312 105.352 214.353C107.548 218.724 110.057 222.991 112.881 226.841C115.704 230.796 118.946 234.438 122.606 237.664C133.272 247.239 147.703 253.171 162.133 253.171C177.743 251.73 180.268 241.323 177.743 231.437C177.22 229.147 175.864 225.609 174.713 223.632C174.086 222.799 176.106 222.07 176.733 223.111Z" fill="black"/>
<path d="M217.634 98.7483C215.614 126.847 215.614 118.521 226.723 146.62C231.268 157.027 214.94 186.255 204.065 204.363C199.882 208.525 174.89 213.937 156.381 209.254C146.969 206.86 137.558 204.363 132.539 197.598C124.382 192.707 118.213 176.784 112.357 167.106C107.756 159.509 107.233 169.499 101.272 162.943C93.0112 153.993 83.077 135.989 87.9918 104.144C95.9391 52.5255 137.035 46.4895 167.465 52.2133C198 57.9372 212.615 75.749 217.634 98.7483Z" fill="white"/>
<path d="M106.396 172.101C102.736 166.065 97.5077 161.07 94.1615 154.826C84.0182 135.885 81.9268 112.886 87.7827 92.2799C100.017 48.3626 144.355 41.9104 182.837 54.8149C202.99 63.3648 216.953 80.1199 219.149 102.911C219.358 110.196 218.243 117.065 218.139 124.245C230.896 143.602 232.717 156.595 219.959 176.368C217.345 182.612 215.985 184.694 213.894 188.856C212.848 190.417 211.28 196.661 208.979 200.928C207.62 203.45 205.947 205.715 203.646 207.276C194.967 212.584 185.138 213.521 175.308 214.041C154.812 214.873 136.826 208.942 124.591 191.978C124.173 191.354 125.01 190.625 125.533 191.25C139.231 205.819 155.649 210.503 175.099 209.566C183.36 209.15 197.163 208.629 205.006 200.928C210.547 194.372 215.985 178.449 218.6 174.807C223.658 167.76 227.047 159.375 226.723 151.303C226.2 138.295 219.187 135.173 215.109 126.327C215.214 121.644 215.109 115.399 215.109 110.716C215.318 106.033 214.745 102.183 213.594 97.7076C209.411 79.9118 198.636 65.238 181.277 58.6817C164.232 52.1253 144.669 49.7156 127.206 55.4394C109.429 61.0591 97.2986 76.2532 92.6975 93.945C90.2924 102.687 89.0376 111.845 88.4101 120.899C87.8873 130.057 88.8284 139.423 92.4884 147.957C95.1026 154.409 99.39 160.029 104.409 164.712L109.324 169.811C111.625 171.893 108.069 174.599 106.396 172.101Z" fill="black"/>
<path d="M118.735 139.007C118.735 139.007 115.494 123.397 100.226 125.27C87.0506 126.935 82.4495 158.364 112.357 167.106" fill="white"/>
<path d="M110.997 153.473C108.592 152.12 106.919 149.831 106.815 147.021C106.919 144.939 107.233 142.546 106.71 140.464C106.396 138.487 104.305 137.967 102.736 138.071C101.063 138.383 100.017 140.464 99.7038 142.129C99.7038 142.233 99.5992 142.546 99.5992 142.65C99.4946 143.17 98.6581 143.17 98.4489 142.65C97.0895 138.591 100.122 134.116 104.514 134.636C110.684 135.053 111.52 141.505 110.37 146.396C109.742 148.478 110.579 150.351 111.729 152.12L111.938 152.432C112.461 153.057 111.625 153.889 110.997 153.473Z" fill="black"/>
<path d="M118.212 139.111C115.807 132.971 110.579 127.143 103.572 127.247C102.945 127.143 101.899 127.351 101.272 127.351C99.4941 127.455 98.0301 128.08 96.6707 129.328C89.9782 135.989 91.1285 147.749 96.5661 155.138C98.4484 157.739 100.853 160.029 103.572 161.902C106.291 163.775 109.324 165.232 112.565 166.481C113.297 166.689 112.984 167.834 112.252 167.73C105.245 166.273 98.553 162.839 93.9519 157.115C86.8411 148.581 85.3771 134.324 93.8473 125.998C95.7296 124.333 98.3438 123.084 100.958 123.084C101.795 123.084 103.049 122.876 103.886 123.084C108.278 123.292 112.461 125.478 115.18 128.912C117.585 131.826 118.944 135.364 119.362 138.903C119.362 139.527 118.421 139.735 118.212 139.111Z" fill="black"/>
</svg>
