<svg width="306" height="306" viewBox="0 0 306 306" fill="none" xmlns="http://www.w3.org/2000/svg">
<path d="M180.208 243.076C178.059 253.795 164.141 260.248 140.706 250.569C116.35 240.578 105.809 216.747 103.148 209.67C117.578 182.196 107.549 163.151 107.549 163.151C140.809 160.237 169.872 199.783 169.872 199.783L174.375 219.348C174.784 221.013 175.603 222.47 176.831 223.511C178.98 227.362 181.539 236.208 180.208 243.076Z" fill="white"/>
<path d="M102.637 209.982C104.581 206.964 105.81 203.426 106.628 199.992C108.163 192.811 108.675 185.526 108.777 178.241V175.535C108.47 172.83 107.549 170.02 106.526 167.522C105.196 164.192 110.005 162.11 111.54 165.441C111.745 165.857 111.745 166.585 111.745 167.002C112.052 181.155 112.666 199.367 103.865 211.127C103.251 211.751 102.023 210.815 102.637 209.982Z" fill="black"/>
<path d="M177.549 223.199C181.028 229.859 183.075 238.185 180.926 245.574C179.288 250.777 174.581 254.628 169.464 256.085C157.593 259.311 143.88 254.211 133.339 248.488C120.342 241.099 110.722 228.714 104.582 215.185C104.173 214.145 105.606 213.312 106.22 214.353C108.369 218.724 110.825 222.991 113.588 226.841C116.351 230.796 119.523 234.438 123.105 237.664C133.544 247.239 147.666 253.171 161.789 253.171C176.32 252.754 181.847 244.949 178.47 230.588C177.958 228.298 177.139 225.905 176.013 223.927C175.399 223.095 176.935 222.158 177.549 223.199Z" fill="black"/>
<path d="M217.152 98.2118C218.994 106.954 217.562 112.781 216.743 136.926C207.328 176.888 208.044 199.055 202.825 204.362C198.732 208.525 174.273 213.937 156.159 209.254C146.949 206.86 139.171 201.448 132.827 197.598C124.844 192.707 118.806 176.784 113.076 167.106C108.573 159.509 108.061 169.499 102.228 162.943C94.1432 153.993 84.4211 135.989 89.231 104.144C97.0086 52.5254 137.227 46.4894 167.007 52.2132C196.89 57.937 212.24 75.2125 217.152 98.2118Z" fill="white"/>
<path d="M107.242 172.101C103.66 166.065 98.5436 161.069 95.2688 154.825C85.3421 135.885 83.2953 112.885 89.0262 92.2797C101 48.3625 144.391 41.9102 182.051 54.8148C203.132 62.0997 217.971 80.2077 220.12 102.999C220.325 110.284 218.483 117.048 218.38 124.229C217.869 143.17 212.035 161.382 209.784 179.594C209.272 185.318 209.272 191.354 208.454 197.181C208.249 198.43 208.044 199.575 207.635 200.928C206.714 203.738 204.667 205.715 202.416 207.276C193.922 212.584 184.302 213.52 174.682 214.041C154.624 214.873 137.022 208.941 125.049 191.978C124.64 191.354 125.458 190.625 125.97 191.25C139.376 205.819 155.443 210.502 174.478 209.566C182.562 209.149 199.857 207.588 203.439 199.575C205.179 193.019 205.179 186.15 206.202 179.282C207.328 171.164 210.398 159.821 212.24 151.807C214.287 142.753 216.027 133.595 216.129 124.333C216.231 119.65 216.231 114.967 216.231 110.284C216.436 105.601 215.515 101.542 214.389 97.0669C210.296 79.2711 197.708 64.4932 180.72 57.9369C164.039 51.3805 144.698 49.7154 127.607 55.4392C110.21 61.059 98.3389 76.2531 93.8361 93.9448C91.4823 102.687 90.2543 111.845 89.6402 120.899C89.1286 130.057 90.0496 139.423 93.6314 147.957C96.1898 154.409 100.386 160.029 105.298 164.712L110.108 169.811C112.359 171.893 108.88 174.598 107.242 172.101Z" fill="black"/>
<path d="M119.318 139.007C119.318 139.007 116.146 123.397 101.205 125.27C88.31 126.935 83.8072 158.364 113.076 167.106" fill="white"/>
<path d="M111.746 153.473C109.392 152.12 107.755 149.83 107.652 147.021C107.755 144.939 108.062 142.546 107.55 140.464C107.243 138.487 105.196 137.967 103.661 138.071C102.024 138.383 101 140.464 100.693 142.129C100.693 142.233 100.591 142.546 100.591 142.65C100.489 143.17 99.67 143.17 99.4654 142.65C98.135 138.591 101.103 134.116 105.401 134.636C111.439 135.053 112.258 141.505 111.132 146.396C110.518 148.478 111.336 150.351 112.462 152.12L112.667 152.432C113.179 153.057 112.36 153.889 111.746 153.473Z" fill="black"/>
<path d="M118.806 139.111C116.452 132.971 111.336 127.143 104.479 127.247C103.865 127.143 102.842 127.351 102.228 127.351C100.488 127.455 99.0551 128.08 97.7247 129.328C91.1751 135.989 92.3009 147.749 97.6224 155.138C99.4645 157.739 101.818 160.029 104.479 161.902C107.14 163.775 110.108 165.232 113.28 166.481C113.996 166.689 113.689 167.834 112.973 167.73C106.116 166.273 99.5668 162.839 95.064 157.115C88.105 148.581 86.6723 134.324 94.9616 125.998C96.8037 124.333 99.3621 123.084 101.921 123.084C102.739 123.084 103.967 122.876 104.786 123.084C109.084 123.292 113.178 125.478 115.838 128.912C118.192 131.826 119.523 135.364 119.932 138.903C119.932 139.527 119.011 139.735 118.806 139.111Z" fill="black"/>
</svg>
