<svg width="306" height="306" viewBox="0 0 306 306" fill="none" xmlns="http://www.w3.org/2000/svg">
<path d="M173.822 135.211C170.622 138.911 164.122 138.411 161.122 134.811C160.822 134.511 161.122 133.911 161.522 134.011C162.622 134.111 163.622 134.311 164.622 134.411C167.622 134.911 170.122 134.811 173.322 134.711C173.822 134.511 174.022 135.011 173.822 135.211Z" fill="black"/>
<path d="M211.822 137.211C208.622 140.911 202.122 140.411 199.122 136.811C198.822 136.511 199.122 135.911 199.522 136.011C200.622 136.111 201.622 136.311 202.622 136.411C205.622 136.911 208.122 136.811 211.322 136.711C211.822 136.511 212.022 137.011 211.822 137.211Z" fill="black"/>
</svg>
