<svg width="238" height="139" viewBox="0 0 238 139" fill="none" xmlns="http://www.w3.org/2000/svg">
<path d="M7.87727 137.34C2.00727 118.53 4.31726 69.07 5.16726 62.09C6.01726 55.11 9.29725 40.95 26.6673 36.64C34.3473 34.71 65.9062 30 80.9062 22.5" fill="#FC909F"/>
<path d="M7.87727 137.34C2.00727 118.53 4.31726 69.07 5.16726 62.09C6.01726 55.11 9.29725 40.95 26.6673 36.64C34.3473 34.71 65.9062 30 80.9062 22.5L87.4062 19C87.4062 26.732 102.352 32 121.406 32C140.46 32 155.906 25.732 155.906 18L160.406 22.5C177.406 37 212.637 41.1399 220.057 43.8199C232.227 48.4099 234.297 60.8199 234.477 67.5799C234.997 86.8399 237.267 119.88 230.477 137.34H7.87727Z" fill="#FC909F"/>
<path d="M7.87727 137.34C2.00727 118.53 4.31726 69.07 5.16726 62.09C6.01726 55.11 9.29725 40.95 26.6673 36.64C34.3473 34.71 65.9062 30 80.9062 22.5L87.4062 19C87.4062 26.732 102.352 32 121.406 32C140.46 32 155.906 25.732 155.906 18L160.406 22.5C177.406 37 212.637 41.1399 220.057 43.8199C232.227 48.4099 234.297 60.8199 234.477 67.5799C234.997 86.8399 237.267 119.88 230.477 137.34H7.87727Z" stroke="#050504" stroke-width="3" stroke-linecap="round" stroke-linejoin="round"/>
<path d="M124.746 56.7699C126.839 56.7699 128.536 55.0731 128.536 52.9799C128.536 50.8868 126.839 49.1899 124.746 49.1899C122.653 49.1899 120.956 50.8868 120.956 52.9799C120.956 55.0731 122.653 56.7699 124.746 56.7699Z" fill="#050504"/>
<path d="M124.746 73.7399C126.839 73.7399 128.536 72.0431 128.536 69.95C128.536 67.8568 126.839 66.1599 124.746 66.1599C122.653 66.1599 120.956 67.8568 120.956 69.95C120.956 72.0431 122.653 73.7399 124.746 73.7399Z" fill="#050504"/>
<path d="M124.746 90.7399C126.839 90.7399 128.536 89.0431 128.536 86.95C128.536 84.8568 126.839 83.1599 124.746 83.1599C122.653 83.1599 120.956 84.8568 120.956 86.95C120.956 89.0431 122.653 90.7399 124.746 90.7399Z" fill="#050504"/>
<path d="M120.906 39C142.998 39 160.906 32.1127 160.906 23L155.906 18C155.906 25.732 140.46 32 121.406 32C102.352 32 87.4062 26.732 87.4062 19L80.9062 22.5C80.9062 31.6127 98.8149 39 120.906 39Z" fill="#FC909F" stroke="#050504" stroke-width="3" stroke-linecap="round" stroke-linejoin="round"/>
</svg>
