<svg width="238" height="140" viewBox="0 0 238 140" fill="none" xmlns="http://www.w3.org/2000/svg">
<path d="M4.16726 61.5904C3.31726 68.5704 1.00727 118.03 6.87727 136.84H229.477C236.267 119.38 233.997 86.3404 233.477 67.0804C233.297 60.3204 231.227 47.9104 219.057 43.3204C212.263 40.8664 177.5 36.5004 159.5 22.0004L124 39.0004L86.5 18.0004C70.3242 28.054 32.2886 34.4765 25.6673 36.1404C8.29725 40.4504 5.01726 54.6104 4.16726 61.5904Z" fill="#FC909F" stroke="#050504" stroke-width="3" stroke-linecap="round" stroke-linejoin="round"/>
<path d="M109.149 37.8404C92.1494 33.1704 86.9194 25.4804 82.8594 19.5604C84.2494 13.4004 85 5.00037 92.5 1.50037C79.5 8.50037 92.4894 13.2904 116.199 18.2004L109.149 37.8404Z" fill="white"/>
<path d="M141.419 35.3604C158.419 30.6904 157.509 27.9604 159.849 24.8804C159.849 17.5304 159.309 7.72042 151.909 4.81042C162.839 10.4504 156.539 15.4104 133.319 18.2004L141.419 35.3604Z" fill="white"/>
<path d="M109.149 37.8404C92.1494 33.1704 86.9194 25.4804 82.8594 19.5604C84.2494 13.4004 85 5.00037 92.5 1.50037C79.5 8.50037 92.4894 13.2904 116.199 18.2004L109.149 37.8404Z" stroke="#050504" stroke-width="3" stroke-linecap="round" stroke-linejoin="round"/>
<path d="M141.419 35.3604C158.419 30.6904 157.509 27.9604 159.849 24.8804C159.849 17.5304 159.309 7.72042 151.909 4.81042C162.839 10.4504 156.539 15.4104 133.319 18.2004L141.419 35.3604Z" stroke="#050504" stroke-width="3" stroke-linecap="round" stroke-linejoin="round"/>
<path d="M95.5 11.5004L94 1.00037C91.4828 1.19084 87 4.25751 87 7.00037C87 9.74322 93.1506 11.3099 95.5 11.5004Z" fill="#050504"/>
<path d="M148.5 14.5004L150.5 5.00037C153.017 5.19084 157 6.75751 157 9.50037C157 12.2432 150.849 14.3099 148.5 14.5004Z" fill="#050504"/>
<g opacity="0.2">
<path d="M131.5 18.0004L140 31.9205L132.14 35.2704L127.42 37.1805L131.5 18.0004Z" fill="#050504"/>
<path d="M118 18.0004L122 37.0004L114.28 33.4005L110.63 31.4005L118 18.0004Z" fill="#050504"/>
</g>
</svg>
