<svg width="238" height="143" viewBox="0 0 238 143" fill="none" xmlns="http://www.w3.org/2000/svg">
<path d="M3.16726 65.2305C2.31726 72.2105 0.00727391 121.67 5.87727 140.48H228.477C235.267 123.02 232.997 89.9804 232.477 70.7204C232.297 63.9604 230.227 51.5504 218.057 46.9604C211.263 44.5065 175.495 40.7444 159 25.6404C159 25.6404 159.5 36.1404 121.5 36.1404C83.5 36.1404 83.9062 22.8385 83.9062 22.8385C67.7305 32.8922 31.2886 38.1165 24.6673 39.7804C7.29725 44.0904 4.01726 58.2505 3.16726 65.2305Z" fill="#FC909F" stroke="#050504" stroke-width="3" stroke-linecap="round" stroke-linejoin="round"/>
<path d="M158.671 26.2104C158.671 30.8149 148.196 35.8984 133.621 37.7984C129.837 38.2917 125.776 38.5704 121.551 38.5704C120.51 38.5704 119.477 38.5507 118.454 38.5127C99.3144 37.8006 83.5 30.646 83.5 25.1404" fill="white"/>
<path d="M84.4307 6.44037C84.4406 6.5468 84.4501 6.65312 84.4592 6.75932C84.9951 13.0152 84.0855 18.8707 83.5 25.1404" fill="white"/>
<path d="M158.671 6.44037C158.661 6.54823 158.651 6.6564 158.641 6.76488C158.091 12.932 158.101 20.0784 158.671 26.2104" fill="white"/>
<path d="M90.5 10.858C91.0954 17.2342 90.3672 25.2096 89.7718 31.5857L90.5 10.858Z" fill="white"/>
<path d="M118.451 14.5004C119.045 22.4934 119.046 30.5195 118.454 38.5127C118.453 38.5286 118.452 38.5445 118.451 38.5604" fill="white"/>
<path d="M97.1807 12.5204C97.7407 18.7804 97.14 28.8758 96.5 34.4858L97.1807 12.5204Z" fill="white"/>
<path d="M104 13.544C104.56 19.804 103.62 30.7734 103 36.3834L104 13.544Z" fill="white"/>
<path d="M111.154 14.1798C111.714 20.4398 111.133 32.1904 110.513 37.8004L111.154 14.1798Z" fill="white"/>
<path d="M126.071 14.4804C126.666 22.2423 126.666 30.7018 126.071 38.4638V14.4804Z" fill="white"/>
<path d="M133.621 14.0645C134.211 21.7526 134.211 30.1102 133.621 37.7984L133.621 37.8004" fill="white"/>
<path d="M140.521 13.3695C141.111 20.8545 141.111 29.0753 140.521 36.5604V13.3695Z" fill="white"/>
<path d="M147.071 12.2929C147.661 19.4273 147.661 27.5959 147.071 34.7304V12.2929Z" fill="white"/>
<path d="M152.731 10.9404C153.326 18.078 153.326 25.2528 152.731 32.3904V10.9404Z" fill="white"/>
<path fill-rule="evenodd" clip-rule="evenodd" d="M158.671 6.44037C158.671 6.54905 158.661 6.65724 158.641 6.76488C158.651 6.6564 158.661 6.54823 158.671 6.44037ZM140.521 13.3695C140.534 13.3677 140.548 13.366 140.561 13.3642C140.64 13.3539 140.719 13.3436 140.798 13.3332M84.4592 6.75932C84.4402 6.65351 84.4307 6.54718 84.4307 6.44037C84.4406 6.5468 84.4501 6.65312 84.4592 6.75932Z" fill="white"/>
<path d="M133.621 37.7984C148.196 35.8984 158.671 30.8149 158.671 26.2104C158.101 20.0784 158.091 12.932 158.641 6.76488C158.133 9.54954 151.114 11.9719 140.798 13.3332C140.719 13.3436 140.64 13.3539 140.561 13.3642C140.548 13.366 140.534 13.3677 140.521 13.3695C138.354 13.6498 136.044 13.8837 133.621 14.0645C134.211 21.7526 134.211 30.1102 133.621 37.7984Z" fill="white"/>
<path d="M118.454 38.5127C119.477 38.5507 120.51 38.5704 121.551 38.5704C123.081 38.5704 124.589 38.5338 126.071 38.4638C128.681 38.3404 131.207 38.1131 133.621 37.7984C134.211 30.1102 134.211 21.7526 133.621 14.0645C129.837 14.347 125.776 14.5004 121.551 14.5004C117.942 14.5004 114.453 14.3885 111.154 14.1798C108.89 14.0366 106.715 13.8478 104.652 13.6183C104.433 13.594 104.216 13.5692 104 13.544C98.5351 12.906 93.8909 11.9793 90.5 10.858C86.9141 9.67228 84.7299 8.26896 84.4592 6.75932C84.9951 13.0152 84.0855 18.8707 83.5 25.1404C83.5 30.646 99.3144 37.8006 118.454 38.5127Z" fill="white"/>
<path d="M150.911 1.51038C155.771 2.87038 158.671 4.58037 158.671 6.44037M158.671 6.44037C158.671 6.54905 158.661 6.65724 158.641 6.76488M158.671 6.44037C158.661 6.54823 158.651 6.6564 158.641 6.76488M121.551 14.5004C115.465 14.5004 109.721 14.1822 104.652 13.6183M121.551 14.5004C128.498 14.5004 135.001 14.0857 140.561 13.3642M121.551 14.5004C125.776 14.5004 129.837 14.347 133.621 14.0645M121.551 14.5004C117.942 14.5004 114.453 14.3885 111.154 14.1798M84.4307 6.44037C84.4307 4.58037 87.3307 2.87037 92.2107 1.50037M84.4307 6.44037C84.4307 6.54718 84.4402 6.65351 84.4592 6.75932M84.4307 6.44037C84.4406 6.5468 84.4501 6.65312 84.4592 6.75932M121.551 38.5704C125.776 38.5704 129.837 38.2917 133.621 37.7984M121.551 38.5704C120.51 38.5704 119.477 38.5507 118.454 38.5127M121.551 38.5704C123.081 38.5704 124.589 38.5338 126.071 38.4638M90.5 10.858C91.0954 17.2342 90.3672 25.2096 89.7718 31.5857M90.5 10.858C93.8909 11.9793 98.5351 12.906 104 13.544M90.5 10.858C86.9141 9.67228 84.7299 8.26896 84.4592 6.75932M118.451 14.5004C119.045 22.4934 119.046 30.5195 118.454 38.5127M118.451 38.5604C118.452 38.5445 118.453 38.5286 118.454 38.5127M97.1807 12.5204C97.7407 18.7804 97.14 28.8758 96.5 34.4858M104 13.544C104.56 19.804 103.62 30.7734 103 36.3834M104 13.544C104.216 13.5692 104.433 13.594 104.652 13.6183M111.154 14.1798C111.714 20.4398 111.133 32.1904 110.513 37.8004M111.154 14.1798C108.89 14.0366 106.715 13.8478 104.652 13.6183M126.071 14.4804C126.666 22.2423 126.666 30.7018 126.071 38.4638M126.071 38.4638C128.681 38.3404 131.207 38.1131 133.621 37.7984M133.621 14.0645C136.044 13.8837 138.354 13.6498 140.521 13.3695M133.621 14.0645C134.211 21.7526 134.211 30.1102 133.621 37.7984M133.621 37.8004L133.621 37.7984M140.521 13.3695C141.111 20.8545 141.111 29.0753 140.521 36.5604M140.521 13.3695C140.534 13.3677 140.548 13.366 140.561 13.3642M147.071 12.2929C147.661 19.4273 147.661 27.5959 147.071 34.7304M152.731 10.9404C153.326 18.078 153.326 25.2528 152.731 32.3904M158.641 6.76488C158.091 12.932 158.101 20.0784 158.671 26.2104C158.671 30.8149 148.196 35.8984 133.621 37.7984M158.641 6.76488C158.133 9.54954 151.114 11.9719 140.798 13.3332C140.719 13.3436 140.64 13.3539 140.561 13.3642M104.652 13.6183C93.0571 12.3285 84.9961 9.75294 84.4592 6.75932M84.4592 6.75932C84.9951 13.0152 84.0855 18.8707 83.5 25.1404C83.5 30.646 99.3144 37.8006 118.454 38.5127" stroke="#050504" stroke-width="3" stroke-linecap="round" stroke-linejoin="round"/>
<path d="M93.5 10.6405L93.7 1.1405C91.1828 1.33098 85 3.39765 85 6.1405C85 8.88336 91.1506 10.45 93.5 10.6405Z" fill="#050504"/>
<path d="M149.5 10.6405L149.448 1.6405C151.966 1.83098 157.5 3.39765 157.5 6.1405C157.5 8.88336 151.849 10.45 149.5 10.6405Z" fill="#050504"/>
</svg>
