<svg width="238" height="135" viewBox="0 0 238 135" fill="none" xmlns="http://www.w3.org/2000/svg">
<path d="M6.87727 132.34C1.00727 113.53 3.31726 64.07 4.16726 57.09C5.01726 50.11 8.29725 35.95 25.6673 31.64C33.3473 29.71 81.1472 22.49 90.9072 9" fill="#FC909F"/>
<path d="M6.87727 132.34C1.00727 113.53 3.31726 64.07 4.16726 57.09C5.01726 50.11 8.29725 35.95 25.6673 31.64C33.3473 29.71 81.1472 22.49 90.9072 9C90.9072 9 107.406 17 122.406 16L154.907 12C168.357 30.75 211.637 36.1399 219.057 38.8199C231.227 43.4099 233.297 55.8199 233.477 62.5799C233.997 81.8399 236.267 114.88 229.477 132.34H18.9062H6.87727Z" fill="#FC909F"/>
<path d="M6.87727 132.34C1.00727 113.53 3.31726 64.07 4.16726 57.09C5.01726 50.11 8.29725 35.95 25.6673 31.64C33.3473 29.71 81.1472 22.49 90.9072 9C90.9072 9 107.406 17 122.406 16L154.907 12C168.357 30.75 211.637 36.1399 219.057 38.8199C231.227 43.4099 233.297 55.8199 233.477 62.5799C233.997 81.8399 236.267 114.88 229.477 132.34H18.9062H6.87727Z" stroke="#050504" stroke-width="3" stroke-linecap="round" stroke-linejoin="round"/>
<path d="M123.5 22.5C128.331 65.0675 128.526 88.9332 123.5 131.5" stroke="#050504" stroke-width="3" stroke-linecap="round"/>
<path d="M150.906 1.5C150.906 10.15 137.157 14.63 121.457 14.63C105.757 14.63 92.347 10.15 92.347 1.5C65.827 21.2 79.517 34.44 93.937 35.07C108.757 35.72 123.807 21.44 123.807 21.44C123.807 21.44 134.567 36.59 153.487 35.09C173.487 33.5 176.986 16.09 151.896 2" fill="white"/>
<path d="M150.906 1.5C150.906 10.15 137.157 14.63 121.457 14.63C105.757 14.63 92.347 10.15 92.347 1.5C65.827 21.2 79.517 34.44 93.937 35.07C108.757 35.72 123.807 21.44 123.807 21.44C123.807 21.44 134.567 36.59 153.487 35.09C173.487 33.5 176.986 16.09 151.896 2" stroke="#050504" stroke-width="3" stroke-linecap="round" stroke-linejoin="round"/>
</svg>
