<svg width="238" height="139" viewBox="0 0 238 139" fill="none" xmlns="http://www.w3.org/2000/svg">
<path d="M7.87727 137.34C2.00727 118.53 4.31726 69.07 5.16726 62.09C6.01726 55.11 9.29725 40.95 26.6673 36.64C34.3473 34.71 65.9062 30 80.9062 22.5" fill="#FC909F"/>
<path d="M7.87727 137.34C2.00727 118.53 4.31726 69.07 5.16726 62.09C6.01726 55.11 9.29725 40.95 26.6673 36.64C34.3473 34.71 65.9062 30 80.9062 22.5L87.4062 19C87.4062 26.732 102.352 32 121.406 32C140.46 32 155.906 25.732 155.906 18L160.406 22.5C177.406 37 212.637 41.1399 220.057 43.8199C232.227 48.4099 234.297 60.8199 234.477 67.5799C234.997 86.8399 237.267 119.88 230.477 137.34H7.87727Z" fill="#FC909F"/>
<path d="M7.87727 137.34C2.00727 118.53 4.31726 69.07 5.16726 62.09C6.01726 55.11 9.29725 40.95 26.6673 36.64C34.3473 34.71 65.9062 30 80.9062 22.5L87.4062 19C87.4062 26.732 102.352 32 121.406 32C140.46 32 155.906 25.732 155.906 18L160.406 22.5C177.406 37 212.637 41.1399 220.057 43.8199C232.227 48.4099 234.297 60.8199 234.477 67.5799C234.997 86.8399 237.267 119.88 230.477 137.34H7.87727Z" stroke="#050504" stroke-width="3" stroke-linecap="round" stroke-linejoin="round"/>
<path d="M7.87727 137.34C2.00727 118.53 4.31726 69.07 5.16726 62.09C6.01726 55.11 9.29725 40.95 26.6673 36.64C34.3473 34.71 65.9062 30 80.9062 22.5" fill="#FC909F"/>
<path d="M7.87727 137.34C2.00727 118.53 4.31726 69.07 5.16726 62.09C6.01726 55.11 9.29725 40.95 26.6673 36.64C34.3473 34.71 65.9062 30 80.9062 22.5L87.4062 19C87.4062 26.732 102.352 32 121.406 32C140.46 32 155.906 25.732 155.906 18L160.406 22.5C177.406 37 212.637 41.1399 220.057 43.8199C232.227 48.4099 234.297 60.8199 234.477 67.5799C234.997 86.8399 237.267 119.88 230.477 137.34H7.87727Z" fill="#FC909F"/>
<path d="M7.87727 137.34C2.00727 118.53 4.31726 69.07 5.16726 62.09C6.01726 55.11 9.29725 40.95 26.6673 36.64C34.3473 34.71 65.9062 30 80.9062 22.5L87.4062 19C87.4062 26.732 102.352 32 121.406 32C140.46 32 155.906 25.732 155.906 18L160.406 22.5C177.406 37 212.637 41.1399 220.057 43.8199C232.227 48.4099 234.297 60.8199 234.477 67.5799C234.997 86.8399 237.267 119.88 230.477 137.34H7.87727Z" stroke="#050504" stroke-width="3" stroke-linecap="round" stroke-linejoin="round"/>
<mask id="mask0_99_108" style="mask-type:alpha" maskUnits="userSpaceOnUse" x="5" y="25" width="229" height="111">
<path d="M78.8167 25.1172C79.3816 26.8956 80.5018 28.5329 82.0024 29.9964C84.2086 32.148 87.3232 34.0166 91.05 35.5539C98.5106 38.6314 108.714 40.5 119.906 40.5C131.087 40.5 141.284 38.76 148.742 35.8123C152.467 34.3399 155.586 32.5362 157.797 30.4308C159.466 28.8419 160.666 27.0304 161.158 25.0341C169.896 31.7195 182.307 36.0551 193.435 39.0412C199.406 40.6432 205.069 41.872 209.682 42.8636L210.062 42.9453C214.54 43.908 217.85 44.6194 219.538 45.2272C230.762 49.4669 232.8 60.9499 232.977 67.6198C233.045 70.1289 233.142 72.8609 233.245 75.7539C233.538 84.0271 233.878 93.6213 233.718 103.11C233.51 115.474 232.451 127.418 229.436 135.84H8.9984C6.38621 126.486 5.5505 110.313 5.50226 95.2738C5.45232 79.7069 6.24245 65.6693 6.65626 62.2712C7.06976 58.8757 8.06473 53.8414 10.9939 49.1592C13.8955 44.5211 18.7398 40.1524 27.0285 38.0957L27.0328 38.0947C28.8054 37.6492 31.9156 37.0452 35.8998 36.2715L36.5588 36.1435C40.8321 35.3133 45.9816 34.3062 51.3636 33.1237C60.8678 31.0357 71.2315 28.3736 78.8167 25.1172Z" fill="#C4C4C4"/>
</mask>
<g mask="url(#mask0_99_108)">
<path d="M39 112.5C39 126.031 28.2548 137 15 137C1.74517 137 -9 126.031 -9 112.5C-9 98.969 1.74517 88 15 88C28.2548 88 39 98.969 39 112.5Z" fill="#050504"/>
<path d="M253 53.5C253 67.031 240.24 78 224.5 78C208.76 78 196 67.031 196 53.5C196 39.969 208.76 29 224.5 29C240.24 29 253 39.969 253 53.5Z" fill="#050504"/>
<path d="M151 129.5C151 143.031 135.33 154 116 154C96.67 154 81 143.031 81 129.5C81 115.969 96.67 105 116 105C135.33 105 151 115.969 151 129.5Z" fill="#050504"/>
<path d="M81 45.5C81 56.8218 70.2548 66 57 66C43.7452 66 33 56.8218 33 45.5C33 34.1782 43.7452 25 57 25C70.2548 25 81 34.1782 81 45.5Z" fill="#050504"/>
<path d="M166.5 47.5C166.5 60.4787 157.177 69 141.437 69C125.697 69 113.5 60.4787 113.5 47.5C113.5 34.5213 125.697 30 141.437 30C157.177 30 166.5 34.5213 166.5 47.5Z" fill="#050504"/>
<path d="M235 120.5C235 135.136 223.136 147 208.5 147C193.864 147 182 135.136 182 120.5C182 105.864 193.864 94 208.5 94C223.136 94 235 105.864 235 120.5Z" fill="#050504"/>
</g>
<path d="M120.906 39C142.998 39 160.906 32.1127 160.906 23L155.906 18C155.906 25.732 140.46 32 121.406 32C102.352 32 87.4062 26.732 87.4062 19L80.9062 22.5C80.9062 31.6127 98.8149 39 120.906 39Z" fill="white" stroke="#050504" stroke-width="3" stroke-linecap="round" stroke-linejoin="round"/>
</svg>
