<svg width="238" height="159" viewBox="0 0 238 159" fill="none" xmlns="http://www.w3.org/2000/svg">
<path d="M4.16726 62.79C3.31726 69.77 1.00727 119.23 6.87727 138.04H229.477C236.267 120.58 233.997 87.54 233.477 68.28C233.297 61.52 231.227 49.11 219.057 44.52C212.263 42.066 177.5 37.7 159.5 23.2L123 26.2L86.5 19.2C70.3242 29.2536 32.2886 35.6761 25.6673 37.34C8.29725 41.65 5.01726 55.81 4.16726 62.79Z" fill="#FC909F" stroke="#050504" stroke-width="3" stroke-linecap="round" stroke-linejoin="round"/>
<path d="M113.61 39.73L85.7197 22.14C88.8775 15.618 91.0447 8.66147 92.1497 1.5L125.66 20.63L152.74 4.42999C154.25 12.11 156.52 18.57 159.67 23.62L136.47 37.24L125.66 20.63L113.61 39.73Z" fill="white" stroke="#050504" stroke-width="3" stroke-linecap="round" stroke-linejoin="round"/>
<path d="M125.66 20.63L136.47 37.24C143.69 66.97 153.47 106.47 155.56 140.24L137.56 157.47L120.4 142.63C119.65 111.26 119.68 71.48 113.61 39.76L125.66 20.63Z" fill="white" stroke="#050504" stroke-width="3" stroke-linecap="round" stroke-linejoin="round"/>
<path opacity="0.2" d="M125.66 20.61L135.17 35.21L115.13 44.26L113.61 39.73L125.66 20.61Z" fill="#050504"/>
</svg>
