<svg width="238" height="145" viewBox="0 0 238 145" fill="none" xmlns="http://www.w3.org/2000/svg">
<path d="M152 1.50037C156.86 2.87037 158.148 4.58036 158.148 6.43036C158.148 6.70804 158.083 6.98245 157.957 7.25292M91.6882 1.50037C86.8082 2.86037 83.9082 4.57036 83.9082 6.43036C83.9082 6.72228 83.9797 7.01059 84.1192 7.2945M83.9785 6.33029C84.0275 6.65301 84.0744 6.97444 84.1192 7.2945M157.998 7.0303C157.985 7.10452 157.971 7.17873 157.957 7.25292M84.1192 7.2945C85.063 14.0359 85.0825 20.1768 83.9082 25.1984C67.7324 35.252 31.2905 40.4764 24.6692 42.1403C7.29921 46.4503 4.01921 60.6103 3.16921 67.5903C2.31921 74.5703 0.00922704 124.03 5.87923 142.84H228.479C235.269 125.38 232.999 92.3403 232.479 73.0803C232.299 66.3203 230.229 53.9103 218.059 49.3203C211.265 46.8663 174.403 42.5594 157.908 27.4554C156.637 20.6794 156.712 14.0263 157.957 7.25292M84.1192 7.2945C86.1055 11.3385 101.873 14.4904 121.028 14.4904C140.249 14.4904 156.059 11.3168 157.957 7.25292" stroke="#050504" stroke-width="3" stroke-linecap="round" stroke-linejoin="round"/>
<mask id="mask0_82_179" style="mask-type:alpha" maskUnits="userSpaceOnUse" x="4" y="11" width="228" height="130">
<path d="M85.8557 25.6538C86.8186 21.5358 87.0142 16.7897 86.6143 11.6871C86.8233 11.7832 87.0373 11.877 87.2558 11.9688C89.4855 12.9056 92.3866 13.7108 95.7498 14.3715C102.491 15.6956 111.355 16.4904 121.028 16.4904C130.734 16.4904 139.626 15.6902 146.376 14.3578C149.743 13.6931 152.645 12.8828 154.87 11.9396C155.012 11.8792 155.153 11.818 155.291 11.7557C154.742 17.1027 154.93 22.4243 155.943 27.8242C156.022 28.2499 156.238 28.6381 156.558 28.9305C165.191 36.8357 178.951 41.7849 191.1 45.0626C197.221 46.7139 203.028 47.9639 207.701 48.9496L208.738 49.1682C212.956 50.0566 215.947 50.6865 217.367 51.1968C228.276 55.3199 230.303 66.4945 230.48 73.1343C230.548 75.6504 230.645 78.3865 230.747 81.2823L230.747 81.2835C231.04 89.5541 231.38 99.1274 231.22 108.602C231.015 120.801 229.98 132.523 227.084 140.84H7.38164C4.86977 131.513 4.05187 115.629 4.00421 100.773C3.9543 85.213 4.74447 71.1996 5.15455 67.8321C5.56421 64.4681 6.54667 59.5174 9.41975 54.9248C12.2561 50.3911 16.9943 46.1054 25.1509 44.0815L25.1567 44.08C26.3829 43.7719 28.7123 43.3299 31.8706 42.7307C32.7863 42.557 33.7717 42.37 34.8201 42.1693C39.4288 41.2868 45.1397 40.158 51.1572 38.7639C63.1064 35.9957 76.5625 32.1188 84.964 26.8971C85.4142 26.6172 85.735 26.17 85.8557 25.6538Z" fill="#C4C4C4"/>
</mask>
<g mask="url(#mask0_82_179)">
<path d="M3.00027 -7.49976C3.00027 -7.49976 74.3023 25.0279 120 25.0002C164.136 24.9735 233 -7.49976 233 -7.49976V6.50024C233 6.50024 164.133 36.4802 120 36.5002C74.3052 36.521 3.00027 7.50024 3.00027 7.50024V-7.49976Z" fill="white"/>
<path d="M3 22.5002C3 22.5002 74.302 45.0279 120 45.0002C164.136 44.9735 233 22.5002 233 22.5002V36.5002C233 36.5002 164.133 56.4802 120 56.5002C74.3049 56.521 3 37.5002 3 37.5002V22.5002Z" fill="white"/>
<path d="M3 42.5002C3 42.5002 74.302 65.0279 120 65.0002C164.136 64.9735 233 42.5002 233 42.5002V56.5002C233 56.5002 164.133 76.4802 120 76.5002C74.3049 76.521 3 57.5002 3 57.5002V42.5002Z" fill="white"/>
<path d="M3 63.5002C3 63.5002 74.302 86.0279 120 86.0002C164.136 85.9735 233 63.5002 233 63.5002V77.5002C233 77.5002 164.133 97.4802 120 97.5002C74.3049 97.521 3 78.5002 3 78.5002V63.5002Z" fill="white"/>
<path d="M3 87.5002C3 87.5002 74.302 106.028 120 106C164.136 105.974 233 88.5002 233 88.5002V102.5C233 102.5 164.133 117.48 120 117.5C74.3049 117.521 3 102.5 3 102.5V87.5002Z" fill="white"/>
<path d="M3 111.5C3 111.5 74.302 124.028 120 124C164.136 123.974 233 111.5 233 111.5V125.5C233 125.5 164.133 135.48 120 135.5C74.3049 135.521 3 126.5 3 126.5V111.5Z" fill="white"/>
</g>
<path d="M5.87727 142.84C0.00727391 124.03 2.31726 74.5703 3.16726 67.5903C4.01726 60.6103 7.29725 46.4503 24.6673 42.1403C31.2886 40.4764 67.7305 35.252 83.9062 25.1984C85.0805 20.1768 85.0611 14.0359 84.1172 7.2945C86.1035 11.3385 101.871 14.4904 121.026 14.4904C140.247 14.4904 156.057 11.3168 157.955 7.25292C156.71 14.0263 156.635 20.6794 157.906 27.4554C174.401 42.5594 211.263 46.8663 218.057 49.3203C230.227 53.9103 232.297 66.3203 232.477 73.0803C232.997 92.3403 235.267 125.38 228.477 142.84H5.87727Z" fill="#FC909F"/>
<path d="M152 1.50037C156.86 2.87037 158.146 4.58036 158.146 6.43036C158.146 6.70804 158.082 6.98245 157.955 7.25292M91.6862 1.50037C86.8062 2.86037 83.9062 4.57036 83.9062 6.43036C83.9062 6.72228 83.9778 7.01059 84.1172 7.2945M83.9766 6.33029C84.0255 6.65301 84.0724 6.97444 84.1172 7.2945M157.997 7.0303C157.983 7.10452 157.969 7.17873 157.955 7.25292M84.1172 7.2945C85.0611 14.0359 85.0805 20.1768 83.9062 25.1984C67.7305 35.252 31.2886 40.4764 24.6673 42.1403C7.29725 46.4503 4.01726 60.6103 3.16726 67.5903C2.31726 74.5703 0.00727391 124.03 5.87727 142.84H228.477C235.267 125.38 232.997 92.3403 232.477 73.0803C232.297 66.3203 230.227 53.9103 218.057 49.3203C211.263 46.8663 174.401 42.5594 157.906 27.4554C156.635 20.6794 156.71 14.0263 157.955 7.25292M84.1172 7.2945C86.1035 11.3385 101.871 14.4904 121.026 14.4904C140.247 14.4904 156.057 11.3168 157.955 7.25292" stroke="#050504" stroke-width="3" stroke-linecap="round" stroke-linejoin="round"/>
<path d="M92 10.0004L93.2 1.50037C90.7 1.66703 85 4.10037 85 6.50037C85 8.90037 89.6667 9.8337 92 10.0004Z" fill="#050504"/>
<path d="M149 10.5004L150.5 1.50037C153 1.66703 157.5 4.10037 157.5 6.50037C157.5 8.90037 151.333 10.3337 149 10.5004Z" fill="#050504"/>
</svg>
