<svg width="88" height="21" viewBox="0 0 88 21" fill="none" xmlns="http://www.w3.org/2000/svg">
<path d="M7.76758 0.5C9.82904 0.5 11.6574 1.61519 12.9531 3.34277C14.2487 5.07025 15.0351 7.43398 15.0352 10.0234C15.0352 12.6129 14.2487 14.9766 12.9531 16.7041C11.6574 18.4318 9.82909 19.5469 7.76758 19.5469C5.70611 19.5468 3.87775 18.4317 2.58203 16.7041C1.28647 14.9766 0.5 12.6129 0.5 10.0234C0.500028 7.43398 1.28643 5.07025 2.58203 3.34277C3.87775 1.61516 5.70612 0.500038 7.76758 0.5Z" fill="#323232" stroke="#323232" stroke-linecap="round"/>
<circle cx="10.6162" cy="7.80859" r="2.5" fill="white" stroke="#323232"/>
<path d="M79.7676 0.5C81.829 0.5 83.6574 1.61519 84.9531 3.34277C86.2487 5.07025 87.0351 7.43398 87.0352 10.0234C87.0352 12.6129 86.2487 14.9766 84.9531 16.7041C83.6574 18.4318 81.8291 19.5469 79.7676 19.5469C77.7061 19.5468 75.8778 18.4317 74.582 16.7041C73.2865 14.9766 72.5 12.6129 72.5 10.0234C72.5 7.43398 73.2864 5.07025 74.582 3.34277C75.8778 1.61516 77.7061 0.500038 79.7676 0.5Z" fill="#323232" stroke="#323232" stroke-linecap="round"/>
<circle cx="82.6162" cy="7.80859" r="2" fill="white"/>
</svg>
