<svg width="343" height="267" viewBox="0 0 343 267" fill="none" xmlns="http://www.w3.org/2000/svg">
<g clip-path="url(#clip0_13_1632)">
<path d="M69.9946 73H132.957L155.934 79.3555L156.188 79.4258L156.45 79.4619L174.45 81.9619L175.164 82.0615L175.868 81.9043L193.778 77.9238L221.354 73H269.334C307.488 73 339.042 101.921 337.595 139.381C336.328 172.178 331.752 209.739 319.439 237.842C311.894 255.06 292.736 263 272.462 263H70.5561C50.2932 263 30.968 255.199 22.644 238.211C7.84785 208.013 3.45011 168.894 3.03366 135.652C2.58788 100.049 32.8483 73.4187 69.1362 73.0049L69.9946 73Z" fill="#334B71" stroke="#150C0C" stroke-width="8"/>
<path d="M171.08 85.8699C171.464 84.7606 170.814 83.5617 169.675 83.277L128.746 73.0442C128.588 73.0046 128.425 72.9842 128.261 72.9842L106.192 72.9848C104.416 72.9848 103.521 75.1269 104.769 76.3904L154.059 126.301C155.101 127.356 156.888 126.951 157.373 125.55L171.08 85.8699Z" fill="#334B71" stroke="#150C0C" stroke-width="8"/>
<path d="M179.847 85.8699C179.464 84.7606 180.114 83.5617 181.252 83.277L222.181 73.0442C222.34 73.0046 222.503 72.9842 222.666 72.9842L244.735 72.9848C246.511 72.9848 247.406 75.1269 246.158 76.3904L196.868 126.301C195.826 127.356 194.039 126.951 193.555 125.55L179.847 85.8699Z" fill="#334B71" stroke="#150C0C" stroke-width="8"/>
<circle cx="175" cy="123" r="5" fill="#C8D3E6"/>
<circle cx="175" cy="178" r="5" fill="#C8D3E6"/>
<circle cx="175" cy="235" r="5" fill="#C8D3E6"/>
<path d="M236 151H283C288.523 151 293 155.477 293 161V212C293 217.523 288.523 222 283 222H236C230.477 222 226 217.523 226 212V161C226 155.477 230.477 151 236 151Z" stroke="#150C0C" stroke-width="6"/>
</g>
<defs>
<clipPath id="clip0_13_1632">
<rect width="343" height="267" fill="white"/>
</clipPath>
</defs>
</svg>