<svg width="344" height="279" viewBox="0 0 344 279" fill="none" xmlns="http://www.w3.org/2000/svg">
<mask id="path-1-inside-1_13_548" fill="white">
<path d="M110.488 81C121.894 81 133.051 84.3355 142.586 90.5957L147.454 93.792C165.414 105.583 188.88 104.673 205.871 91.5244C214.688 84.702 225.52 81 236.668 81H270.306C310.39 81 344.111 111.482 342.564 151.535C341.292 184.454 336.699 222.634 324.075 251.447C315.623 270.736 294.493 279 273.434 279H71.5277C50.4685 279 29.29 270.883 20.0238 251.972C4.83081 220.965 0.423958 181.124 0.00524902 147.703C-0.476992 109.21 32.47 81 70.9662 81H110.488Z"/>
</mask>
<path d="M110.488 81C121.894 81 133.051 84.3355 142.586 90.5957L147.454 93.792C165.414 105.583 188.88 104.673 205.871 91.5244C214.688 84.702 225.52 81 236.668 81H270.306C310.39 81 344.111 111.482 342.564 151.535C341.292 184.454 336.699 222.634 324.075 251.447C315.623 270.736 294.493 279 273.434 279H71.5277C50.4685 279 29.29 270.883 20.0238 251.972C4.83081 220.965 0.423958 181.124 0.00524902 147.703C-0.476992 109.21 32.47 81 70.9662 81H110.488Z" fill="#537C1E"/>
<path d="M142.586 90.5957L146.977 83.9083L146.977 83.9083L142.586 90.5957ZM147.454 93.792L143.064 100.479L143.064 100.479L147.454 93.792ZM205.871 91.5244L200.976 85.1974L200.976 85.1974L205.871 91.5244ZM236.668 81L236.668 73L236.668 73L236.668 81ZM342.564 151.535L350.558 151.844L350.558 151.844L342.564 151.535ZM324.075 251.447L331.402 254.658L331.402 254.658L324.075 251.447ZM273.434 279V287V279ZM71.5277 279L71.5277 287H71.5277V279ZM20.0238 251.972L12.8398 255.492L12.8399 255.492L20.0238 251.972ZM0.00524902 147.703L-7.99412 147.803L-7.99412 147.803L0.00524902 147.703ZM110.488 81V89C120.334 89 129.965 91.8793 138.196 97.2831L142.586 90.5957L146.977 83.9083C136.138 76.7918 123.454 73 110.488 73V81ZM142.586 90.5957L138.196 97.2831L143.064 100.479L147.454 93.792L151.845 87.1046L146.977 83.9083L142.586 90.5957ZM147.454 93.792L143.064 100.479C163.879 114.145 191.074 113.09 210.767 97.8514L205.871 91.5244L200.976 85.1974C186.685 96.2555 166.95 97.0215 151.845 87.1045L147.454 93.792ZM205.871 91.5244L210.767 97.8514C218.183 92.1135 227.293 89 236.668 89L236.668 81L236.668 73C223.748 73 211.194 77.2906 200.976 85.1974L205.871 91.5244ZM236.668 81V89H270.306V81V73H236.668V81ZM270.306 81V89C306.529 89 335.916 116.36 334.57 151.226L342.564 151.535L350.558 151.844C352.305 106.603 314.25 73 270.306 73V81ZM342.564 151.535L334.57 151.226C333.308 183.901 328.75 220.844 316.747 248.237L324.075 251.447L331.402 254.658C344.649 224.425 349.277 185.008 350.558 151.844L342.564 151.535ZM324.075 251.447L316.747 248.237C310.11 263.385 292.923 271 273.434 271V279V287C296.064 287 321.136 278.088 331.402 254.658L324.075 251.447ZM273.434 279V271H71.5277V279V287H273.434V279ZM71.5277 279L71.5278 271C52.0613 271 34.5896 263.517 27.2078 248.452L20.0238 251.972L12.8399 255.492C23.9904 278.248 48.8758 287 71.5277 287L71.5277 279ZM20.0238 251.972L27.2078 248.452C12.8081 219.064 8.41886 180.666 8.00462 147.603L0.00524902 147.703L-7.99412 147.803C-7.57094 181.581 -3.14654 222.865 12.8398 255.492L20.0238 251.972ZM0.00524902 147.703L8.00462 147.603C7.58775 114.328 36.1266 89 70.9662 89V81V73C28.8134 73 -8.54174 104.092 -7.99412 147.803L0.00524902 147.703ZM70.9662 81V89H110.488V81V73H70.9662V81Z" fill="#150C0C" mask="url(#path-1-inside-1_13_548)"/>
</svg>